<svg width="60" height="65" viewBox="0 0 60 65" fill="none" xmlns="http://www.w3.org/2000/svg">
<path d="M34.5791 8.97606C32.4863 13.375 31.4775 15.9863 29.9267 15.5946C28.3758 15.2029 29.1086 12.6569 28.963 7.56498C28.8426 3.39702 31.0258 0.258505 33.6155 0.946468C36.8024 1.7901 36.3708 5.20481 34.5791 8.97606Z" fill="white"/>
<path d="M23.0863 32.6449C25.1089 28.2108 26.0725 25.5895 27.6284 25.9511C29.1842 26.3177 28.4916 28.8737 28.7225 33.9656C28.9132 38.1336 26.7802 41.3022 24.1804 40.6595C20.9784 39.866 21.3549 36.4413 23.0863 32.6449Z" fill="white"/>
<path d="M25.9318 8.44355C27.3873 13.0936 28.4212 15.6898 27.0209 16.4581C25.6207 17.2264 24.4262 14.8612 20.8528 11.2255C17.9268 8.25775 17.3948 4.47144 19.7637 3.21603C22.6796 1.66435 24.6821 4.46642 25.9318 8.44355Z" fill="white"/>
<path d="M30.8301 33.6986C29.9669 28.903 29.2642 26.1963 30.7498 25.6088C32.2354 25.0212 33.1237 27.517 36.2153 31.5695C38.7448 34.8837 38.8 38.7052 36.2956 39.6593C33.214 40.8344 31.5729 37.8063 30.8301 33.6986Z" fill="white"/>
<path d="M15.6032 19.5802C20.4614 19.9267 23.2569 19.9167 23.4577 21.5086C23.6584 23.0954 21.0185 23.3415 16.331 25.33C12.4916 26.962 8.77764 26.0682 8.47651 23.4017C8.10511 20.1226 11.4426 19.279 15.6032 19.5802Z" fill="white"/>
<path d="M42.188 22.603C37.3248 22.3318 34.5293 22.3871 34.3035 20.8053C34.0776 19.2235 36.7125 18.9372 41.3649 16.8683C45.1742 15.176 48.9032 16.0046 49.2495 18.6661C49.6761 21.9402 46.3486 22.834 42.188 22.603Z" fill="white"/>
<path d="M17.124 27.4071C21.3147 24.9264 23.6033 23.3245 24.6723 24.5147C25.7413 25.7048 23.7137 27.4071 20.9935 31.7207C18.7701 35.2509 15.2068 36.6319 13.4452 34.6132C11.267 32.1275 13.5355 29.5363 17.124 27.4071Z" fill="white"/>
<path d="M40.6926 14.735C36.5421 17.286 34.2786 18.923 33.1895 17.753C32.1004 16.583 34.1029 14.8455 36.7478 10.4917C38.916 6.92636 42.4492 5.48515 44.251 7.47372C46.4643 9.91925 44.2409 12.5506 40.6926 14.735Z" fill="white"/>
<path d="M40.6926 14.735C36.5421 17.286 34.2786 18.923 33.1895 17.753C32.1004 16.583 34.1029 14.8455 36.7478 10.4917C38.916 6.92636 42.4492 5.48515 44.251 7.47372C46.4643 9.91925 44.2409 12.5506 40.6926 14.735Z" fill="white"/>
<path d="M18.8405 12.2436C22.6247 15.3118 24.9183 16.9087 24.1755 18.3248C23.4327 19.7409 21.1291 18.4302 16.1454 17.3757C12.0651 16.5069 9.53559 13.6496 10.8104 11.2895C12.3863 8.38695 15.6033 9.61223 18.8405 12.2436Z" fill="white"/>
<path d="M38.8956 29.9616C35.0663 26.9537 32.7426 25.397 33.4653 23.9708C34.188 22.5447 36.5067 23.8151 41.5104 24.7893C45.6008 25.5878 48.1805 28.4049 46.9408 30.7802C45.4151 33.7078 42.1779 32.5377 38.8956 29.9616Z" fill="white"/>
<path d="M34.5792 8.97567C35.8088 6.39455 36.396 3.97412 35.6181 2.4375C33.992 3.10036 32.5165 5.15922 31.9594 7.92112C31.0961 12.2096 30.0271 14.5145 30.6344 15.549C31.8289 15.097 32.8176 12.6716 34.5792 8.97567Z" fill="#FEC344"/>
<path d="M25.7467 33.586C26.5296 29.3528 27.5384 27.0378 26.9712 25.9883C25.7617 26.4051 24.8081 28.8657 23.0867 32.6419C21.9123 35.218 21.3652 37.6184 22.1331 39.145C23.7692 38.4771 25.2297 36.378 25.7467 33.586Z" fill="#FEC344"/>
<path d="M25.9326 8.44177C25.0844 5.73009 23.8849 3.57079 22.2839 2.95312C21.4207 4.52992 21.7018 7.15121 23.2275 9.65198C25.4759 13.3328 26.2689 15.7382 27.3981 16.1299C28.181 15.0804 27.2225 12.5746 25.9326 8.44177Z" fill="#FEC344"/>
<path d="M30.2483 25.9922C29.4754 27.0166 30.0927 29.5877 30.8304 33.6954C31.3373 36.4924 32.2608 38.7923 33.7715 39.6008C34.7451 38.1245 34.7602 35.5534 33.5858 32.9472C31.8091 28.9951 31.3273 26.5094 30.2483 25.9922Z" fill="#FEC344"/>
<path d="M23.1669 20.8705C22.3237 19.9114 19.7039 19.8712 15.6035 19.5749C12.793 19.3741 10.3588 19.6954 9.18945 20.9358C10.394 22.2163 12.8532 22.844 15.6336 22.3619C19.8494 21.6237 22.3739 21.7593 23.1669 20.8705Z" fill="#FEC344"/>
<path d="M42.1877 22.6047C44.938 22.7554 47.322 22.4189 48.5014 21.2238C47.3119 19.888 44.7825 19.2503 41.9318 19.7976C37.8665 20.576 35.3722 20.5157 34.5039 21.3142C35.2417 22.3838 37.9167 22.3687 42.1877 22.6047Z" fill="#FEC344"/>
<path d="M17.1247 27.4045C14.7156 28.8306 12.9038 30.4676 12.6328 32.1449C14.3543 32.5064 16.7282 31.6226 18.7307 29.6391C21.747 26.6562 23.885 25.3255 24.0707 24.1555C22.826 23.8592 20.6479 25.3155 17.1247 27.4045Z" fill="#FEC344"/>
<path d="M40.6922 14.735C43.0561 13.2838 44.8277 11.6316 45.0987 9.96947C43.3622 9.54264 40.913 10.4616 38.8804 12.5405C35.9595 15.5284 33.8616 16.8943 33.6357 18.0593C34.8503 18.5163 37.0385 16.9797 40.6922 14.735Z" fill="#FEC344"/>
<path d="M12.7832 9.68428C13.0241 11.4318 14.6853 13.3702 17.255 14.5703C21.1596 16.3932 23.1521 17.9599 24.3064 17.6637C24.191 16.3882 22.058 14.8515 18.8459 12.2403C16.6427 10.4576 14.4545 9.32273 12.7832 9.68428Z" fill="#FEC344"/>
<path d="M33.335 24.5288C33.3651 25.8194 35.5583 27.3409 38.8958 29.9622C41.0539 31.6545 43.1919 32.7442 44.8381 32.453C44.6173 30.6853 42.9109 28.7219 40.276 27.5418C36.5219 25.8646 34.5094 24.3882 33.335 24.5288Z" fill="#FEC344"/>
<path d="M14.9858 54.9875C12.903 54.9875 10.8152 54.2443 9.1088 52.8734C7.04105 51.2112 5.84155 48.9314 4.78258 46.9178C3.57304 44.6178 2.52411 42.6293 0.516582 41.7856C0.220472 41.6651 0.019719 41.3789 -0.000356328 41.0575C-0.0204316 40.7361 0.150208 40.4298 0.431262 40.2741C4.04983 38.2404 7.9344 37.4821 11.6734 38.0747C14.9156 38.5919 17.9168 40.1536 19.9093 42.3631C22.6646 45.4263 23.0762 49.1574 20.9883 52.1051C19.9043 53.6317 18.1979 54.626 16.1753 54.9072C15.7788 54.9624 15.3823 54.9875 14.9858 54.9875ZM2.62449 41.0625C4.26062 42.2928 5.24933 44.1709 6.27819 46.1344C7.30705 48.0928 8.37104 50.1165 10.1678 51.5577C11.839 52.8985 13.9419 53.5112 15.9394 53.2299C17.4953 53.014 18.7951 52.2658 19.6082 51.1259C21.2393 48.826 20.883 45.9737 18.6496 43.493C14.5091 38.8932 7.74368 38.7927 2.62449 41.0625Z" fill="#694024"/>
<path d="M28.7621 64.7483C28.3756 64.7483 28.0293 64.4821 27.939 64.0905C27.9239 64.0352 26.5839 58.3005 22.5638 52.7165C17.2238 45.3096 9.91641 41.6387 0.862459 41.8547C0.85744 41.8547 0.852422 41.8547 0.842384 41.8547C0.385671 41.8547 0.00925985 41.4881 -0.000777795 41.0261C-0.0108154 40.5591 0.360577 40.1724 0.827327 40.1624C1.06823 40.1574 1.30412 40.1523 1.54502 40.1523C23.9791 40.1523 29.535 63.4728 29.5902 63.7138C29.6956 64.1708 29.4095 64.6228 28.9528 64.7232C28.8876 64.7433 28.8223 64.7483 28.7621 64.7483Z" fill="#694024"/>
<path d="M43.7087 56.9964C41.9622 56.9964 40.2508 56.5294 38.7953 55.6305C37.0086 54.5258 35.8091 52.8787 35.4227 50.9905C34.6749 47.3448 36.6171 44.0004 40.4867 42.2529C43.2821 40.9925 46.7652 40.7665 50.0425 41.6302C53.8217 42.6245 57.1742 44.9646 59.7489 48.3893C59.9446 48.6454 59.9747 48.9919 59.8242 49.2832C59.6786 49.5694 59.3725 49.7452 59.0563 49.7452C56.7828 49.6899 54.971 51.1512 52.8631 52.8285C51.0262 54.2898 48.9434 55.9419 46.2985 56.6549C45.4453 56.8859 44.572 56.9964 43.7087 56.9964ZM46.0124 42.7601C44.3963 42.7601 42.7652 43.0815 41.1793 43.7946C38.0224 45.2157 36.4867 47.7767 37.0789 50.6491C37.37 52.0752 38.2985 53.3306 39.6836 54.1893C41.4653 55.2941 43.7188 55.5904 45.8668 55.0179C48.1705 54.4002 50.0224 52.9239 51.8141 51.5028C53.6209 50.0666 55.3424 48.6957 57.4202 48.2236C54.5745 45.0801 50.3587 42.7601 46.0124 42.7601Z" fill="#694024"/>
<path d="M28.687 64.999C28.6268 64.999 28.5716 64.994 28.5114 64.9789C28.0546 64.8835 27.7635 64.4366 27.8589 63.9746C28.9982 58.5663 33.7811 52.7362 39.7585 49.4671C44.0948 47.0969 51.0308 44.9376 59.4524 48.1313C59.889 48.2971 60.1099 48.7842 59.9442 49.221C59.7786 49.6579 59.2918 49.8789 58.8551 49.7132C51.0358 46.7504 44.5967 48.749 40.5716 50.9485C34.1425 54.4636 30.3834 60.1983 29.5151 64.3211C29.4298 64.7278 29.0785 64.999 28.687 64.999Z" fill="#694024"/>
<path d="M30.268 16.4826C30.0923 16.4826 29.9117 16.4575 29.7209 16.4123C27.9794 15.9704 28.0246 14.1676 28.0999 11.4359C28.13 10.3914 28.1601 9.08576 28.1199 7.58429C28.0346 4.70689 28.9882 2.12075 30.6043 0.840239C31.5629 0.0819723 32.7071 -0.174131 33.8314 0.127167C35.081 0.458595 35.9543 1.14656 36.4311 2.17097C37.194 3.81304 36.8276 6.22845 35.347 9.34186C35.1162 9.82896 34.8953 10.296 34.6896 10.7379C33.0384 14.2379 31.9844 16.4826 30.268 16.4826ZM32.9029 1.69392C32.4662 1.69392 32.0497 1.84959 31.6532 2.16595C30.4637 3.10499 29.741 5.21408 29.8063 7.53407C29.8514 9.08073 29.8163 10.4115 29.7862 11.4761C29.741 13.2537 29.7009 14.6598 30.1325 14.7702C30.8351 14.946 31.9593 12.5507 33.1488 10.0148C33.3596 9.56783 33.5804 9.10082 33.8113 8.6087C35.0309 6.04265 35.4123 4.00889 34.8903 2.874C34.6344 2.32162 34.1425 1.95504 33.3947 1.75418C33.2291 1.714 33.0635 1.69392 32.9029 1.69392Z" fill="#694024"/>
<path d="M24.8433 41.5857C24.5572 41.5857 24.2661 41.5506 23.975 41.4803C22.7203 41.169 21.837 40.4961 21.3451 39.4817C20.5572 37.8497 20.8834 35.4342 22.3138 32.2957C22.5396 31.8036 22.7504 31.3366 22.9512 30.8897C24.7027 26.9979 25.7567 24.6428 27.8194 25.1299C29.571 25.5416 29.5509 27.3494 29.5258 30.0812C29.5158 31.1307 29.5007 32.4313 29.571 33.9328C29.7015 36.8102 28.7931 39.4064 27.1971 40.717C26.4894 41.2895 25.6764 41.5857 24.8433 41.5857ZM23.8545 32.9937C22.6751 35.5799 22.3288 37.6187 22.8709 38.7435C23.1369 39.2909 23.6337 39.6524 24.3865 39.8382C25.0039 39.9889 25.586 39.8432 26.1231 39.4013C27.2975 38.4372 27.985 36.3181 27.8796 34.0031C27.8094 32.4564 27.8244 31.1257 27.8345 30.0611C27.8545 28.2834 27.8696 26.8774 27.433 26.777C26.7253 26.6112 25.6412 29.0266 24.4919 31.5827C24.2912 32.0296 24.0804 32.5016 23.8545 32.9937Z" fill="#694024"/>
<path d="M26.4745 17.4658C25.3202 17.4658 24.2763 16.2807 22.851 14.6537C22.1584 13.8653 21.3001 12.886 20.2462 11.8164C18.2286 9.76259 17.1697 7.22164 17.4858 5.18286C17.6715 3.97264 18.339 3.00849 19.3679 2.46113C20.5122 1.85352 21.6163 1.76313 22.6602 2.18997C24.3365 2.87793 25.7067 4.89662 26.7355 8.18579C26.8961 8.70302 27.0517 9.19012 27.2023 9.65713C28.4971 13.7247 29.2801 16.1802 27.4231 17.1996C27.0919 17.3854 26.7807 17.4658 26.4745 17.4658ZM21.3403 3.62615C20.9739 3.62615 20.5824 3.73663 20.1609 3.9626C19.6038 4.25888 19.2625 4.76104 19.1571 5.449C18.9262 6.95047 19.8296 8.98926 21.4557 10.6414C22.5398 11.7461 23.4181 12.7454 24.1207 13.5439C25.2951 14.8796 26.2236 15.9392 26.6101 15.7233C27.2474 15.3768 26.4394 12.8509 25.5912 10.1794C25.4407 9.71237 25.2851 9.22025 25.1245 8.70302C24.2763 5.99134 23.1722 4.23879 22.0178 3.76676C21.797 3.67135 21.5712 3.62615 21.3403 3.62615Z" fill="#694024"/>
<path d="M35.0209 40.7608C34.4136 40.7608 33.8364 40.6101 33.2994 40.3038C31.7235 39.41 30.6144 37.2406 30.0021 33.846C29.9067 33.3137 29.8114 32.8065 29.721 32.3295C28.9431 28.1314 28.4713 25.6005 30.4437 24.8221C32.115 24.1593 33.1288 25.6557 34.6645 27.9205C35.2518 28.7892 35.9845 29.8638 36.8929 31.059C38.6395 33.3488 39.3722 36.0053 38.8051 37.9888C38.4688 39.1639 37.6859 40.0377 36.6018 40.4545C36.0497 40.6553 35.5228 40.7608 35.0209 40.7608ZM31.1464 26.3788C31.1162 26.3788 31.0912 26.3838 31.0661 26.3939C30.3935 26.66 30.8753 29.2663 31.3873 32.0231C31.4776 32.5052 31.573 33.0124 31.6683 33.5497C32.1702 36.3417 33.0485 38.2198 34.1326 38.8375C34.6646 39.1388 35.2768 39.1488 35.9996 38.8726C36.5918 38.6467 36.9883 38.1947 37.179 37.5268C37.5955 36.0656 36.9531 33.9314 35.5479 32.0884C34.6093 30.8581 33.8666 29.7584 33.2643 28.8746C32.3308 27.4836 31.578 26.3788 31.1464 26.3788Z" fill="#694024"/>
<path d="M12.5821 26.9883C11.4027 26.9883 10.3337 26.7422 9.48046 26.245C8.4265 25.6274 7.76904 24.6532 7.63855 23.4982C7.493 22.2127 7.81421 21.1481 8.59714 20.3346C9.85185 19.029 12.2258 18.4917 15.6636 18.7377C16.2007 18.7779 16.7126 18.813 17.1994 18.8432C21.4554 19.1294 24.025 19.3001 24.291 21.3992C24.5168 23.1869 22.8205 23.7995 20.2458 24.7235C19.2621 25.08 18.0375 25.5219 16.6574 26.1044C15.2772 26.692 13.8669 26.9883 12.5821 26.9883ZM14.1329 20.3697C12.035 20.3697 10.5294 20.7614 9.81672 21.5046C9.39514 21.9465 9.23453 22.5341 9.31985 23.3074C9.39012 23.9351 9.7314 24.4322 10.3337 24.7838C11.6436 25.547 13.8669 25.4567 16.0049 24.5477C17.4303 23.9451 18.68 23.4932 19.6837 23.1316C21.355 22.529 22.68 22.052 22.6248 21.6101C22.5344 20.892 19.8945 20.7112 17.094 20.5254C16.6022 20.4903 16.0902 20.4601 15.5482 20.42C15.0463 20.3848 14.5746 20.3697 14.1329 20.3697Z" fill="#694024"/>
<path d="M43.3722 23.482C42.9757 23.482 42.5642 23.4719 42.1376 23.4468C41.5956 23.4167 41.0836 23.3916 40.5968 23.3665C36.3358 23.1506 33.7662 23.025 33.4651 20.926C33.2091 19.1433 34.8954 18.5055 37.455 17.5364C38.4337 17.1648 39.6533 16.7028 41.0234 16.0952C43.6533 14.9251 46.4036 14.8297 48.2053 15.8391C49.2693 16.4366 49.9419 17.4008 50.0924 18.5558C50.258 19.8413 49.9569 20.9109 49.189 21.7345C48.105 22.8945 46.1526 23.482 43.3722 23.482ZM42.2329 21.7596C45.0636 21.9203 47.0962 21.4984 47.9444 20.5845C48.3609 20.1376 48.5115 19.545 48.4111 18.7717C48.3308 18.144 47.9795 17.6519 47.3772 17.3104C46.0573 16.5672 43.8289 16.6978 41.711 17.6368C40.2957 18.2645 39.056 18.7365 38.0573 19.1132C36.3961 19.7459 35.0811 20.243 35.1464 20.6799C35.2467 21.398 37.8917 21.5336 40.6871 21.6742C41.174 21.7043 41.6909 21.7294 42.2329 21.7596Z" fill="#694024"/>
<path d="M15.5531 36.3869C14.4691 36.3869 13.5054 35.96 12.8078 35.1666C11.9546 34.1924 11.6134 33.1328 11.794 32.0231C12.0801 30.2354 13.7263 28.4376 16.6924 26.68C17.1541 26.4038 17.5958 26.1427 18.0174 25.8916C21.6761 23.6972 23.8894 22.3715 25.3047 23.9483C26.5092 25.289 25.4603 26.7604 23.8743 28.985C23.2671 29.8386 22.5142 30.8982 21.7112 32.1687C20.1755 34.6042 17.9421 36.2161 15.8894 36.3768C15.774 36.3818 15.6635 36.3869 15.5531 36.3869ZM23.6987 24.9526C22.8555 24.9526 20.9182 26.1176 18.8806 27.3379C18.459 27.589 18.0174 27.8551 17.5506 28.1313C15.1115 29.5775 13.656 31.0539 13.4603 32.2842C13.3649 32.8868 13.5657 33.4643 14.0776 34.0468C14.4942 34.5238 15.0563 34.7398 15.7489 34.6845C17.2595 34.564 19.0362 33.2232 20.2758 31.2598C21.0989 29.9491 21.8718 28.8695 22.4891 27.9957C23.523 26.5445 24.3361 25.3995 24.04 25.0681C23.9697 24.9928 23.8543 24.9526 23.6987 24.9526Z" fill="#694024"/>
<path d="M34.0825 18.8383C33.5405 18.8383 33.0838 18.6475 32.6873 18.2157C31.5531 16.9904 32.5468 15.5442 34.0474 13.3597C34.6396 12.496 35.3824 11.4214 36.1603 10.1359C37.6309 7.72045 39.7889 6.09846 41.7915 5.90764C42.9558 5.80219 44.0098 6.18885 44.7526 7.0124C45.5857 7.93638 45.932 8.94071 45.7814 10.0103C45.5305 11.7528 43.9395 13.5405 41.0436 15.3182C40.5819 15.5994 40.1453 15.8706 39.7337 16.1317C37.149 17.7386 35.3774 18.8383 34.0825 18.8383ZM42.1879 7.25846C42.1026 7.25846 42.0123 7.26348 41.9219 7.27352C40.3611 7.41915 38.5593 8.82521 37.3297 10.8489C36.5267 12.1646 35.7789 13.2593 35.1716 14.1381C33.937 15.9358 33.3096 16.8899 33.6861 17.2917C34.2682 17.9194 36.3611 16.6188 39.011 14.9717C39.4276 14.7106 39.8642 14.4394 40.326 14.1582C42.8203 12.6266 44.2406 11.1251 44.4263 9.82451C44.5217 9.1717 44.2958 8.55404 43.7388 7.93638C43.3373 7.48443 42.8153 7.25846 42.1879 7.25846Z" fill="#694024"/>
<path d="M34.0681 18.9938C33.4909 18.9938 32.9941 18.7879 32.5675 18.3259C31.3429 17.0103 32.3667 15.5188 33.9125 13.2641C34.5047 12.4004 35.2425 11.3258 36.0204 10.0453C37.516 7.58467 39.7193 5.93757 41.777 5.74173C42.9966 5.62623 44.0957 6.03801 44.8736 6.90173C45.7419 7.86086 46.0982 8.9154 45.9426 10.0302C45.6867 11.8229 44.0656 13.6458 41.1296 15.4536C40.6679 15.7348 40.2312 16.0059 39.8197 16.2671C37.2751 17.8489 35.4382 18.9938 34.0681 18.9938ZM42.1886 7.41896C42.1083 7.41896 42.028 7.42398 41.9426 7.429C40.432 7.5696 38.6804 8.94553 37.4709 10.9291C36.6679 12.2498 35.915 13.3445 35.3078 14.2283C34.299 15.6946 33.506 16.8546 33.8071 17.181C34.299 17.7133 36.5474 16.3123 38.9313 14.8359C39.3479 14.5748 39.7845 14.3036 40.2513 14.0224C42.6704 12.536 44.0957 11.0345 44.2764 9.79921C44.3617 9.19661 44.1509 8.62415 43.629 8.04666C43.2525 7.62484 42.7657 7.41896 42.1886 7.41896Z" fill="#694024"/>
<path d="M23.0265 19.7872C22.1482 19.7872 21.0441 19.4859 19.7041 19.1243C18.6953 18.8532 17.4356 18.5117 15.9701 18.2004C13.1545 17.6028 10.8709 16.0712 10.0027 14.1981C9.49076 13.0883 9.51084 11.9133 10.0679 10.8939C10.6852 9.75397 11.5585 9.06601 12.6627 8.85008C14.4393 8.49856 16.6978 9.42254 19.3728 11.5919C19.7894 11.9334 20.1909 12.2547 20.5723 12.5611C23.8998 15.2326 25.9073 16.8495 24.9236 18.7226C24.5121 19.501 23.8797 19.7872 23.0265 19.7872ZM13.4305 10.462C13.275 10.462 13.1344 10.4771 12.9939 10.5022C12.3967 10.6227 11.9249 11.0094 11.5535 11.6973C11.2524 12.2547 11.2474 12.8573 11.5384 13.4901C12.1758 14.866 14.0529 16.0662 16.3214 16.5482C17.832 16.8696 19.1169 17.2161 20.1457 17.4923C21.8622 17.9593 23.2172 18.3259 23.428 17.9292C23.7643 17.2864 21.7016 15.6293 19.5184 13.8717C19.1369 13.5654 18.7354 13.239 18.3139 12.8975C16.3515 11.3107 14.6451 10.462 13.4305 10.462Z" fill="#694024"/>
<path d="M44.2956 33.3436C42.6645 33.3436 40.682 32.4347 38.3784 30.6219C37.9518 30.2905 37.5453 29.9741 37.1588 29.6728C33.7912 27.0565 31.7586 25.4747 32.7121 23.5816C33.5252 21.9746 35.2717 22.4165 37.9217 23.0894C38.9355 23.3455 40.2002 23.6669 41.6707 23.9532C44.4963 24.5005 46.805 26.002 47.7034 27.86C48.2354 28.9597 48.2303 30.1348 47.6933 31.1693C47.0961 32.3192 46.2329 33.0172 45.1337 33.2583C44.8627 33.3135 44.5817 33.3436 44.2956 33.3436ZM39.4173 29.2912C41.6507 31.0437 43.5478 31.8673 44.7724 31.6011C45.3696 31.4705 45.8314 31.0738 46.1927 30.3859C46.4838 29.8235 46.4788 29.2209 46.1777 28.5932C45.5202 27.2273 43.6231 26.0572 41.3495 25.6153C39.8339 25.319 38.544 24.9926 37.5101 24.7315C35.7837 24.2946 34.4236 23.9481 34.2228 24.3449C33.8966 24.9926 35.9844 26.6146 38.1977 28.3371C38.5842 28.6383 38.9907 28.9597 39.4173 29.2912Z" fill="#694024"/>
<path d="M37.641 21.7183C38.1171 16.9301 34.6259 12.6625 29.8431 12.1864C25.0603 11.7103 20.7971 15.206 20.321 19.9942C19.8449 24.7824 23.3362 29.05 28.119 29.5261C32.9018 30.0022 37.1649 26.5065 37.641 21.7183Z" fill="white"/>
<path d="M28.9833 30.2471C28.6722 30.2471 28.361 30.232 28.0498 30.2019C22.9005 29.6897 19.1264 25.0798 19.6383 19.9276C20.1502 14.7754 24.7575 10.9992 29.9068 11.5114C35.0561 12.0236 38.8303 16.6334 38.3183 21.7906C37.8365 26.6265 33.7462 30.2471 28.9833 30.2471ZM28.9733 12.827C24.903 12.827 21.4099 15.9254 20.9984 20.0582C20.5618 24.4622 23.7838 28.3991 28.1853 28.841C32.5919 29.2729 36.5216 26.054 36.9582 21.65C37.3949 17.2461 34.1728 13.3041 29.7713 12.8672C29.5053 12.8421 29.2393 12.827 28.9733 12.827Z" fill="#694024"/>
<path d="M37.5188 22.9379C37.9245 18.8281 34.9259 15.1677 30.8213 14.762C26.7166 14.3564 23.0602 17.3591 22.6545 21.4688C22.2488 25.5786 25.2474 29.239 29.3521 29.6447C33.4567 30.0503 37.1131 27.0476 37.5188 22.9379Z" fill="#FEC344"/>
<path d="M28.983 30.4107C28.6668 30.4107 28.3506 30.3957 28.0294 30.3655C22.7897 29.8433 18.9504 25.1531 19.4723 19.9105C19.9993 14.6629 24.6919 10.8264 29.9215 11.3436C35.1611 11.8658 39.0005 16.5561 38.4786 21.7986C37.9918 26.7198 33.8261 30.4107 28.983 30.4107ZM28.9729 12.9857C24.988 12.9857 21.5601 16.0187 21.1586 20.0712C20.732 24.3848 23.8889 28.2464 28.2 28.6732C32.5112 29.1001 36.3657 25.9415 36.7973 21.6279C37.2239 17.3143 34.067 13.4527 29.7559 13.0258C29.4949 13.0007 29.2339 12.9857 28.9729 12.9857Z" fill="#694024"/>
<path d="M28.7622 64.6449C28.702 64.6449 28.6468 64.6399 28.5865 64.6248C28.1298 64.5294 27.8387 64.0825 27.9341 63.6205C29.7308 55.1138 29.2541 38.678 28.5012 29.7094C28.4611 29.2424 28.8074 28.8356 29.2741 28.7955C29.7359 28.7603 30.1474 29.1018 30.1876 29.5688C30.9504 38.6429 31.4222 55.2896 29.5903 63.972C29.505 64.3737 29.1537 64.6449 28.7622 64.6449Z" fill="#694024"/>
</svg>
