<svg width="40" height="41" viewBox="0 0 40 41" fill="none" xmlns="http://www.w3.org/2000/svg">
<circle cx="20" cy="20.3143" r="20" fill="#F3F3F3"/>
<g clip-path="url(#clip0_723_11285)">
<path d="M21.0002 15.5833C18.6752 15.5833 16.7842 13.7296 16.7842 11.4503C16.7842 9.16809 18.6752 7.31433 21.0002 7.31433C23.3253 7.31433 25.2163 9.16809 25.2163 11.4473C25.2163 13.7266 23.3253 15.5833 21.0002 15.5833ZM21.0002 8.50454C19.343 8.50454 17.9983 9.82568 17.9983 11.4473C17.9983 13.069 19.346 14.3902 21.0002 14.3902C22.6545 14.3902 24.0022 13.069 24.0022 11.4473C24.0022 9.82568 22.6575 8.50454 21.0002 8.50454Z" fill="#694125"/>
<path d="M20.9996 24.7242C20.6658 24.7242 20.3926 24.4564 20.3926 24.1291V18.0501C20.3926 17.7228 20.6658 17.455 20.9996 17.455C21.3335 17.455 21.6067 17.7228 21.6067 18.0501V24.1291C21.6067 24.4594 21.3366 24.7242 20.9996 24.7242Z" fill="#694125"/>
<path d="M26.7819 34.3143H15.2203C14.8865 34.3143 14.6133 34.0465 14.6133 33.7192V25.2449C14.6133 24.9176 14.8865 24.6498 15.2203 24.6498C15.5542 24.6498 15.8274 24.9176 15.8274 25.2449V33.1241H26.1748V25.2449C26.1748 24.9176 26.448 24.6498 26.7819 24.6498C27.1158 24.6498 27.3889 24.9176 27.3889 25.2449V33.7192C27.3889 34.0495 27.1158 34.3143 26.7819 34.3143Z" fill="#694125"/>
<path d="M10.6071 34.3143C10.2732 34.3143 10 34.0465 10 33.7192V22.7693C10 19.5914 11.8849 17.455 14.6865 17.455H27.3135C27.6474 17.455 27.9205 17.7228 27.9205 18.0501C27.9205 18.3774 27.6474 18.6452 27.3135 18.6452H14.6865C12.1247 18.6452 11.2141 20.8679 11.2141 22.7693V33.7192C11.2141 34.0495 10.9409 34.3143 10.6071 34.3143Z" fill="#694125"/>
<path d="M31.3926 34.3143C31.0587 34.3143 30.7855 34.0465 30.7855 33.7192V22.7693C30.7855 20.8679 29.8749 18.6452 27.3131 18.6452C26.9792 18.6452 26.7061 18.3774 26.7061 18.0501C26.7061 17.7228 26.9792 17.455 27.3131 17.455C30.1178 17.455 31.9997 19.5914 31.9997 22.7693V33.7192C31.9997 34.0495 31.7295 34.3143 31.3926 34.3143Z" fill="#694125"/>
</g>
<defs>
<clipPath id="clip0_723_11285">
<rect width="22" height="27" fill="white" transform="translate(10 7.31433)"/>
</clipPath>
</defs>
</svg>
