<svg width="39" height="44" viewBox="0 0 39 44" fill="none" xmlns="http://www.w3.org/2000/svg">
<g clip-path="url(#clip0_270_25321)">
<path d="M1.71094 21.7224C3.42229 25.8795 7.80273 32.9665 16.909 29.3055C12.7693 20.6152 4.74113 21.1635 1.71094 21.7224Z" fill="#FEC344"/>
<path d="M31.5999 3.01562C27.0572 3.92435 18.8825 7.13622 19.7198 18.4535C32.3692 15.4192 31.2388 6.60874 31.5999 3.01562Z" fill="#FEC344"/>
<path d="M18.7046 44.0018C18.4377 44.0018 18.1708 43.866 18.0242 43.6206C17.794 43.2446 17.9143 42.7536 18.2912 42.5291C19.3274 41.9024 20.641 36.9827 19.1128 33.5567C15.1406 24.6418 16.8833 19.1947 17.3701 17.9987C16.6217 12.8859 17.5271 8.69738 20.0601 5.54818C24.1003 0.51364 30.773 0.02272 31.0556 0.00182978C31.4377 -0.024283 31.7883 0.231622 31.8825 0.607646C31.9663 0.947112 33.8817 9.00029 29.6426 14.3691C27.3294 17.2937 23.666 18.8187 18.7412 18.897C18.265 20.3332 17.1503 25.2268 20.573 32.9091C22.2477 36.6694 21.1382 42.6596 19.1233 43.8869C18.9872 43.9653 18.8459 44.0018 18.7046 44.0018ZM30.4695 1.67305C28.7424 1.93417 24.1736 2.95257 21.2899 6.54569C19.1285 9.24053 18.3226 12.8545 18.8825 17.2989C23.2159 17.1945 26.4135 15.8784 28.3866 13.382C31.4848 9.4651 30.8149 3.65239 30.4695 1.67305Z" fill="#694024"/>
<path d="M12.1206 31.1229C10.6133 31.1229 9.1898 30.8043 7.85526 30.1724C1.98851 27.3888 0.0992229 19.5184 0.0207204 19.1894C-0.0734825 18.7872 0.162025 18.3747 0.554537 18.2493C0.690608 18.2075 14.1826 14.1287 18.9189 28.5012C19.0445 28.8772 18.8718 29.2898 18.5107 29.4621C16.2498 30.5693 14.1145 31.1229 12.1206 31.1229ZM1.78441 19.5758C2.38626 21.5239 4.35405 26.7569 8.54608 28.7414C11.0215 29.9165 13.9209 29.7755 17.1761 28.3341C13.3609 17.8942 4.44826 18.9857 1.78441 19.5758Z" fill="#694024"/>
<path d="M36.755 28.3045C32.8613 26.0431 25.0687 23.0663 20.0654 31.4955C28.6484 35.8929 34.6931 30.5868 36.755 28.3045Z" fill="#FEC344"/>
<path d="M25.6548 34.0619C23.9173 34.0619 21.9809 33.7643 19.8195 33.0644C19.4427 32.9443 19.2124 32.5578 19.2804 32.1662C20.0602 27.8158 21.9861 24.7919 25.0006 23.1625C30.7156 20.0812 38.1943 23.2043 38.5135 23.34C38.8956 23.5019 39.0892 23.9302 38.9584 24.3271C38.9165 24.442 35.5357 34.0619 25.6548 34.0619ZM20.9865 31.7588C31.6786 34.8453 36.0642 27.0272 37.158 24.536C35.2269 23.8727 29.8312 22.3634 25.7543 24.5673C23.3469 25.8678 21.7454 28.2858 20.9865 31.7588Z" fill="#694024"/>
</g>
<defs>
<clipPath id="clip0_270_25321">
<rect width="39" height="44" fill="white"/>
</clipPath>
</defs>
</svg>
