<svg width="272" height="199" viewBox="0 0 272 199" fill="none" xmlns="http://www.w3.org/2000/svg">
<path d="M268.372 126.914L259.388 129.321C258.515 129.555 257.622 129.039 257.388 128.166C257.155 127.296 257.67 126.4 258.543 126.166L267.527 123.759C268.396 123.526 269.294 124.044 269.527 124.913C269.761 125.786 269.242 126.681 268.372 126.914Z" fill="#693F23"/>
<path d="M265.084 132.609C264.214 132.842 263.318 132.327 263.084 131.454L260.677 122.47C260.444 121.601 260.958 120.704 261.831 120.47C262.701 120.237 263.598 120.752 263.832 121.625L266.239 130.609C266.468 131.479 265.953 132.376 265.084 132.609Z" fill="#693F23"/>
<path d="M35.5985 168.912L27.7804 171.007C27.0207 171.211 26.2433 170.762 26.0397 170.002C25.837 169.246 26.285 168.465 27.0447 168.262L34.8628 166.167C35.6195 165.964 36.4007 166.415 36.6035 167.172C36.8071 167.931 36.3552 168.71 35.5985 168.912Z" fill="#693F23"/>
<path d="M32.7368 173.869C31.9801 174.072 31.1997 173.624 30.9962 172.864L28.9013 165.046C28.6985 164.289 29.1466 163.509 29.9063 163.305C30.663 163.102 31.4434 163.551 31.6469 164.31L33.7418 172.128C33.9415 172.886 33.4935 173.666 32.7368 173.869Z" fill="#693F23"/>
<g clip-path="url(#clip0_723_11285)">
<path d="M204.544 23.9161C204.265 23.7528 204.172 23.3934 204.336 23.1134L205.909 20.4279C206.073 20.148 206.432 20.0533 206.711 20.2166C206.989 20.3798 207.082 20.7393 206.918 21.0193L205.346 23.7047C205.183 23.983 204.823 24.0793 204.544 23.9161Z" fill="#694024" stroke="#694125" stroke-width="1.5" stroke-miterlimit="10"/>
<path d="M211.988 11.2059C211.709 11.0426 211.616 10.6832 211.78 10.4032L213.353 7.71773C213.517 7.43775 213.876 7.34309 214.155 7.50635C214.433 7.66961 214.527 8.02907 214.363 8.30905L212.79 10.9945C212.626 11.2745 212.267 11.3691 211.988 11.2059Z" fill="#694024" stroke="#694125" stroke-width="1.5" stroke-miterlimit="10"/>
<path d="M214.848 16.0242C214.673 15.9217 214.556 15.7317 214.558 15.513C214.561 15.189 214.826 14.927 215.149 14.9284L218.25 14.9424C218.574 14.9438 218.834 15.2086 218.831 15.5326C218.829 15.8567 218.564 16.1186 218.24 16.1173L215.139 16.1033C215.032 16.1026 214.933 16.074 214.848 16.0242Z" fill="#694024" stroke="#694125" stroke-width="1.5" stroke-miterlimit="10"/>
<path d="M200.168 15.9606C199.993 15.8581 199.876 15.6681 199.879 15.4494C199.881 15.1254 200.147 14.8634 200.47 14.8648L203.571 14.8788C203.894 14.8802 204.155 15.145 204.152 15.469C204.149 15.7931 203.884 16.055 203.561 16.0537L200.46 16.0397C200.353 16.039 200.253 16.0104 200.168 15.9606Z" fill="#694024" stroke="#694125" stroke-width="1.5" stroke-miterlimit="10"/>
<path d="M206.011 11.0667C205.926 11.0169 205.851 10.943 205.8 10.8511L204.27 8.15338C204.111 7.87203 204.21 7.51254 204.491 7.35174C204.772 7.19095 205.131 7.28847 205.29 7.56982L206.819 10.2675C206.979 10.5489 206.88 10.9084 206.599 11.0692C206.409 11.1783 206.186 11.1692 206.011 11.0667Z" fill="#694024" stroke="#694125" stroke-width="1.5" stroke-miterlimit="10"/>
<path d="M213.248 23.8388C213.163 23.789 213.089 23.7161 213.036 23.6232L211.507 20.9255C211.348 20.6441 211.446 20.2846 211.728 20.1238C212.009 19.963 212.367 20.0606 212.527 20.3419L214.056 23.0396C214.215 23.321 214.117 23.6805 213.835 23.8413C213.646 23.9504 213.423 23.9413 213.248 23.8388Z" fill="#694024" stroke="#694125" stroke-width="1.5" stroke-miterlimit="10"/>
</g>
<g clip-path="url(#clip1_723_11285)">
<path d="M8.03 82.8701C7.75124 82.7068 7.65816 82.3473 7.82214 82.0674L9.39493 79.3819C9.55891 79.1019 9.91796 79.0073 10.1967 79.1705C10.4755 79.3338 10.5685 79.6933 10.4046 79.9732L8.83178 82.6587C8.6688 82.937 8.30875 83.0333 8.03 82.8701Z" fill="#694024" stroke="#694125" stroke-width="1.5" stroke-miterlimit="10"/>
<path d="M15.4741 70.1599C15.1953 69.9966 15.1023 69.6371 15.2662 69.3572L16.839 66.6717C17.003 66.3917 17.362 66.2971 17.6408 66.4603C17.9196 66.6236 18.0126 66.983 17.8487 67.263L16.2759 69.9485C16.1119 70.2285 15.7528 70.3231 15.4741 70.1599Z" fill="#694024" stroke="#694125" stroke-width="1.5" stroke-miterlimit="10"/>
<path d="M18.3338 74.9782C18.1587 74.8757 18.0417 74.6857 18.0442 74.467C18.0468 74.143 18.3121 73.881 18.6354 73.8824L21.7364 73.8964C22.0597 73.8977 22.3201 74.1626 22.3175 74.4866C22.3149 74.8107 22.0496 75.0726 21.7262 75.0712L18.6253 75.0573C18.5184 75.0566 18.4188 75.028 18.3338 74.9782Z" fill="#694024" stroke="#694125" stroke-width="1.5" stroke-miterlimit="10"/>
<path d="M3.65433 74.9146C3.47926 74.8121 3.36228 74.6221 3.36478 74.4034C3.36739 74.0794 3.63265 73.8174 3.956 73.8188L7.05692 73.8328C7.38026 73.8341 7.64062 74.099 7.63802 74.423C7.63541 74.7471 7.37015 75.009 7.0468 75.0076L3.94589 74.9937C3.839 74.993 3.73932 74.9644 3.65433 74.9146Z" fill="#694024" stroke="#694125" stroke-width="1.5" stroke-miterlimit="10"/>
<path d="M9.49719 70.0207C9.41221 69.9709 9.33682 69.897 9.28563 69.8051L7.75651 67.1074C7.59713 66.826 7.69582 66.4665 7.97718 66.3057C8.25854 66.1449 8.61688 66.2425 8.77625 66.5238L10.3054 69.2215C10.4647 69.5029 10.3661 69.8624 10.0847 70.0231C9.89523 70.1323 9.67226 70.1232 9.49719 70.0207Z" fill="#694024" stroke="#694125" stroke-width="1.5" stroke-miterlimit="10"/>
<path d="M16.7338 82.7928C16.6488 82.743 16.5751 82.67 16.5222 82.5772L14.9931 79.8795C14.8337 79.5981 14.9324 79.2386 15.2138 79.0778C15.4951 78.917 15.8535 79.0145 16.0128 79.2959L17.5419 81.9936C17.7013 82.275 17.6026 82.6344 17.3213 82.7952C17.1318 82.9044 16.9088 82.8953 16.7338 82.7928Z" fill="#694024" stroke="#694125" stroke-width="1.5" stroke-miterlimit="10"/>
</g>
<path d="M117.802 2.71162C118.204 4.21085 117.313 5.74915 115.817 6.1499C114.318 6.55161 112.779 5.66041 112.379 4.16481C111.978 2.66921 112.865 1.12825 114.364 0.726532C115.859 0.325787 117.401 1.21602 117.802 2.71162Z" fill="#693F23"/>
<path d="M244.89 180.542C245.157 181.541 244.563 182.567 243.566 182.834C242.567 183.102 241.541 182.508 241.274 181.511C241.007 180.513 241.598 179.486 242.597 179.218C243.594 178.951 244.622 179.545 244.89 180.542Z" fill="#693F23"/>
<circle cx="129.5" cy="109.5" r="87.5" stroke="#FF814E" stroke-width="4" stroke-linecap="round" stroke-dasharray="2 15"/>
<defs>
<clipPath id="clip0_723_11285">
<rect width="17.2572" height="19.6105" fill="white" transform="translate(206.719 2.8075) rotate(30.3564)"/>
</clipPath>
<clipPath id="clip1_723_11285">
<rect width="17.2572" height="19.6105" fill="white" transform="translate(10.2048 61.7615) rotate(30.3564)"/>
</clipPath>
</defs>
</svg>
