<svg width="251" height="168" viewBox="0 0 251 168" fill="none" xmlns="http://www.w3.org/2000/svg">
<g clip-path="url(#clip0_725_18688)">
<path d="M102.411 119.213L99.6614 129.483L103.127 133.152L106.653 129.477L102.411 119.213Z" fill="#F58051"/>
<path d="M125.19 119.213L122.446 129.483L125.912 133.152L129.432 129.477L125.19 119.213Z" fill="#F58051"/>
<path d="M148.354 119.213L145.604 129.483L149.076 133.152L152.596 129.477L148.354 119.213Z" fill="#F58051"/>
<path d="M161.374 81.7623H103.771C99.3244 81.7623 95.7205 78.1586 95.7205 73.7127V57.8059H161.368V81.7623H161.374Z" fill="#FEC344"/>
<path d="M126.55 112.415C125.966 112.415 125.467 111.982 125.395 111.392C125.322 110.754 125.774 110.177 126.411 110.098C130.202 109.641 131.207 104.275 131.207 101.501C131.207 98.8061 128.986 96.8509 125.924 96.8509C122.868 96.8509 120.641 98.8061 120.641 101.501C120.641 103.938 121.333 107.397 123.295 109.13C123.776 109.557 123.824 110.291 123.397 110.772C122.964 111.254 122.236 111.296 121.754 110.875C119.221 108.637 118.319 104.57 118.319 101.507C118.319 97.5307 121.586 94.5286 125.924 94.5286C130.262 94.5286 133.529 97.5307 133.529 101.507C133.529 105.255 132.091 111.765 126.688 112.415C126.64 112.409 126.598 112.415 126.55 112.415Z" fill="#694024"/>
<path d="M111.165 133.616C110.521 133.616 110.004 133.092 110.004 132.455V124.128C110.004 120.23 113.445 118.467 116.484 116.915C119.685 115.272 121.634 114.117 121.634 111.873V110.171C121.634 109.527 122.158 109.01 122.795 109.01C123.439 109.01 123.957 109.533 123.957 110.171V111.873C123.957 115.706 120.545 117.45 117.537 118.99C114.294 120.651 112.326 121.824 112.326 124.134V132.455C112.326 133.092 111.803 133.616 111.165 133.616Z" fill="#694024"/>
<path d="M140.683 133.616C140.039 133.616 139.522 133.092 139.522 132.455V124.128C139.522 121.818 137.566 120.645 134.347 118.984C131.363 117.444 127.982 115.7 127.982 111.873V110.171C127.982 109.527 128.505 109.01 129.143 109.01C129.787 109.01 130.304 109.533 130.304 110.171V111.873C130.304 114.123 132.235 115.278 135.412 116.921C138.427 118.473 141.844 120.236 141.844 124.134V132.455C141.85 133.092 141.327 133.616 140.683 133.616Z" fill="#694024"/>
<path d="M116.887 133.616C116.243 133.616 115.726 133.092 115.726 132.455V125.656C115.726 125.013 116.249 124.495 116.887 124.495C117.525 124.495 118.048 125.019 118.048 125.656V132.455C118.048 133.092 117.531 133.616 116.887 133.616Z" fill="#694024"/>
<path d="M134.961 133.616C134.317 133.616 133.8 133.092 133.8 132.455V125.656C133.8 125.013 134.323 124.495 134.961 124.495C135.605 124.495 136.122 125.019 136.122 125.656V132.455C136.122 133.092 135.605 133.616 134.961 133.616Z" fill="#694024"/>
<path d="M125.924 120.555C125.743 120.555 125.569 120.512 125.395 120.428L119.402 117.384C118.83 117.095 118.602 116.391 118.891 115.82C119.185 115.242 119.883 115.02 120.455 115.308L126.447 118.353C127.019 118.641 127.248 119.345 126.959 119.917C126.754 120.32 126.345 120.555 125.924 120.555Z" fill="#694024"/>
<path d="M125.924 120.555C125.503 120.555 125.094 120.32 124.889 119.917C124.594 119.345 124.823 118.641 125.401 118.353L131.393 115.308C131.965 115.02 132.663 115.242 132.957 115.82C133.246 116.391 133.018 117.095 132.446 117.384L126.453 120.428C126.285 120.512 126.104 120.555 125.924 120.555Z" fill="#694024"/>
<path d="M149.636 112.415C149.052 112.415 148.553 111.982 148.48 111.392C148.408 110.754 148.859 110.177 149.497 110.098C153.077 109.671 154.377 104.72 154.377 101.501C154.377 98.4452 151.675 96.8509 149.01 96.8509C145.953 96.8509 143.727 98.8061 143.727 101.501C143.727 104.088 144.551 107.451 146.393 109.142C146.868 109.575 146.898 110.315 146.465 110.784C146.026 111.26 145.292 111.29 144.822 110.857C142.295 108.534 141.405 104.365 141.405 101.501C141.405 97.5247 144.672 94.5226 149.01 94.5226C153.396 94.5226 156.705 97.5247 156.705 101.501C156.705 104.985 155.255 111.753 149.774 112.409C149.726 112.409 149.678 112.415 149.636 112.415Z" fill="#694024"/>
<path d="M141.67 118.317C141.26 118.317 140.869 118.1 140.653 117.721C140.34 117.161 140.538 116.452 141.098 116.139C143.661 114.701 144.708 113.468 144.708 111.873V110.171C144.708 109.527 145.231 109.01 145.869 109.01C146.513 109.01 147.03 109.533 147.03 110.171V111.873C147.03 115.068 144.467 116.915 142.235 118.166C142.061 118.268 141.868 118.317 141.67 118.317Z" fill="#694024"/>
<path d="M163.769 133.616C163.125 133.616 162.607 133.092 162.607 132.455V124.128C162.607 121.818 160.652 120.645 157.433 118.984C154.449 117.444 151.068 115.7 151.068 111.873V110.171C151.068 109.527 151.591 109.01 152.229 109.01C152.872 109.01 153.39 109.533 153.39 110.171V111.873C153.39 114.123 155.321 115.278 158.498 116.921C161.512 118.473 164.93 120.236 164.93 124.134V132.455C164.93 133.092 164.412 133.616 163.769 133.616Z" fill="#694024"/>
<path d="M158.047 133.616C157.403 133.616 156.886 133.092 156.886 132.455V125.656C156.886 125.013 157.409 124.495 158.047 124.495C158.691 124.495 159.208 125.019 159.208 125.656V132.455C159.208 133.092 158.685 133.616 158.047 133.616Z" fill="#694024"/>
<path d="M149.01 120.555C148.829 120.555 148.655 120.512 148.48 120.428L142.488 117.384C141.916 117.095 141.688 116.391 141.976 115.82C142.265 115.242 142.963 115.02 143.541 115.308L149.533 118.353C150.105 118.641 150.333 119.345 150.045 119.917C149.84 120.32 149.431 120.555 149.01 120.555Z" fill="#694024"/>
<path d="M149.01 120.555C148.583 120.555 148.173 120.32 147.969 119.911C147.68 119.333 147.915 118.635 148.492 118.353L154.575 115.308C155.141 115.02 155.845 115.254 156.14 115.826C156.428 116.403 156.194 117.101 155.616 117.384L149.533 120.428C149.365 120.512 149.184 120.555 149.01 120.555Z" fill="#694024"/>
<path d="M149.01 133.616C148.709 133.616 148.414 133.501 148.186 133.273L145.502 130.59C145.207 130.295 145.093 129.862 145.201 129.459L145.917 126.866C146.086 126.246 146.73 125.879 147.349 126.053C147.969 126.222 148.33 126.866 148.161 127.485L147.626 129.422L149.022 130.818L150.484 129.404L147.885 119.688C147.722 119.069 148.089 118.431 148.709 118.262C149.323 118.094 149.966 118.467 150.135 119.087L152.909 129.465C153.017 129.874 152.897 130.307 152.59 130.602L149.816 133.285C149.593 133.507 149.299 133.616 149.01 133.616Z" fill="#694024"/>
<path d="M103.47 112.415C102.886 112.415 102.387 111.982 102.315 111.392C102.243 110.754 102.694 110.177 103.332 110.098C107.122 109.641 108.127 104.275 108.127 101.501C108.127 98.8061 105.907 96.8509 102.844 96.8509C99.7877 96.8509 97.5616 98.8061 97.5616 101.501C97.5616 103.938 98.2535 107.397 100.215 109.13C100.696 109.557 100.744 110.291 100.317 110.772C99.884 111.254 99.156 111.296 98.6746 110.875C96.1416 108.637 95.2391 104.57 95.2391 101.507C95.2391 97.5307 98.5062 94.5286 102.844 94.5286C107.182 94.5286 110.449 97.5307 110.449 101.507C110.449 105.255 109.011 111.765 103.608 112.415C103.56 112.409 103.512 112.415 103.47 112.415Z" fill="#694024"/>
<path d="M110.178 118.317C109.986 118.317 109.787 118.268 109.607 118.166C107.375 116.915 104.812 115.068 104.812 111.873V110.171C104.812 109.527 105.335 109.01 105.973 109.01C106.617 109.01 107.134 109.533 107.134 110.171V111.873C107.134 113.468 108.181 114.701 110.744 116.139C111.304 116.452 111.502 117.161 111.189 117.721C110.979 118.1 110.582 118.317 110.178 118.317Z" fill="#694024"/>
<path d="M88.0793 133.616C87.4356 133.616 86.9181 133.092 86.9181 132.455V124.128C86.9181 120.23 90.3356 118.473 93.3499 116.915C96.5267 115.278 98.458 114.117 98.458 111.867V110.165C98.458 109.521 98.9815 109.004 99.6192 109.004C100.263 109.004 100.78 109.527 100.78 110.165V111.867C100.78 115.7 97.3931 117.438 94.4149 118.978C91.196 120.639 89.2405 121.812 89.2405 124.122V132.443C89.2405 133.092 88.7231 133.616 88.0793 133.616Z" fill="#694024"/>
<path d="M93.8011 133.616C93.1574 133.616 92.6399 133.092 92.6399 132.455V125.656C92.6399 125.013 93.1634 124.495 93.8011 124.495C94.4449 124.495 94.9624 125.019 94.9624 125.656V132.455C94.9684 133.092 94.4449 133.616 93.8011 133.616Z" fill="#694024"/>
<path d="M102.844 120.555C102.423 120.555 102.014 120.32 101.803 119.917C101.514 119.345 101.743 118.641 102.315 118.353L108.307 115.308C108.879 115.02 109.583 115.242 109.872 115.82C110.166 116.391 109.938 117.095 109.36 117.384L103.368 120.428C103.199 120.512 103.019 120.555 102.844 120.555Z" fill="#694024"/>
<path d="M102.844 120.555C102.664 120.555 102.489 120.512 102.315 120.428L96.3221 117.384C95.7505 117.095 95.5219 116.391 95.8107 115.82C96.0995 115.242 96.7974 115.02 97.375 115.308L103.368 118.353C103.939 118.641 104.168 119.345 103.879 119.917C103.674 120.32 103.265 120.555 102.844 120.555Z" fill="#694024"/>
<path d="M125.924 133.616C125.623 133.616 125.328 133.501 125.1 133.273L122.416 130.59C122.121 130.295 122.007 129.862 122.115 129.459L122.831 126.866C123 126.246 123.644 125.879 124.263 126.053C124.883 126.222 125.244 126.866 125.076 127.485L124.54 129.422L125.924 130.806L127.32 129.41L124.799 119.676C124.636 119.057 125.009 118.419 125.629 118.256C126.261 118.094 126.887 118.473 127.049 119.093L129.733 129.471C129.835 129.868 129.72 130.295 129.432 130.584L126.748 133.267C126.52 133.501 126.225 133.616 125.924 133.616Z" fill="#694024"/>
<path d="M102.844 133.616C102.543 133.616 102.249 133.501 102.02 133.273L99.3365 130.59C99.0477 130.301 98.9333 129.886 99.0296 129.495L99.6553 126.902C99.8058 126.282 100.45 125.903 101.057 126.041C101.683 126.192 102.068 126.823 101.918 127.443L101.442 129.404L102.844 130.806L104.24 129.41L101.719 119.676C101.557 119.057 101.93 118.419 102.549 118.256C103.181 118.094 103.807 118.473 103.969 119.093L106.653 129.471C106.755 129.868 106.641 130.295 106.352 130.584L103.668 133.267C103.434 133.501 103.139 133.616 102.844 133.616Z" fill="#694024"/>
<path d="M125.924 91.5687C125.545 91.5687 125.19 91.3882 124.973 91.0754L122.103 87.0084H106.665L103.795 91.0754C103.362 91.695 102.327 91.695 101.894 91.0754L99.0236 87.0084H93.9877C91.4186 87.0084 89.2466 84.8787 89.2466 82.3579C89.2466 81.7142 89.77 81.1968 90.4078 81.1968C91.0515 81.1968 91.569 81.7202 91.569 82.3579C91.569 83.6213 92.676 84.6862 93.9877 84.6862H99.6253C100.004 84.6862 100.359 84.8667 100.576 85.1795L102.85 88.3982L105.124 85.1795C105.341 84.8727 105.696 84.6862 106.075 84.6862H122.717C123.096 84.6862 123.451 84.8667 123.668 85.1795L125.942 88.3982L128.216 85.1795C128.433 84.8727 128.788 84.6862 129.167 84.6862H145.899C146.284 84.6862 146.639 84.8787 146.856 85.1915L149.04 88.3741L151.302 85.1795C151.519 84.8727 151.874 84.6862 152.253 84.6862H158.426C159.707 84.6862 160.754 83.6454 160.754 82.3579V65.3562C160.754 64.7125 161.278 64.1951 161.915 64.1951C162.553 64.1951 163.077 64.7185 163.077 65.3562V82.3519C163.077 84.9148 160.989 87.0024 158.426 87.0024H152.854L149.985 91.0693C149.768 91.3762 149.413 91.5627 149.034 91.5627C149.028 91.5627 149.028 91.5627 149.028 91.5627C148.643 91.5567 148.294 91.3702 148.077 91.0573L145.292 87.0024H129.745L126.875 91.0693C126.658 91.3822 126.303 91.5687 125.924 91.5687ZM90.4018 78.4173C89.758 78.4173 89.2405 77.8939 89.2405 77.2562V60.2545C89.2405 57.7337 91.4125 55.604 93.9816 55.604H158.402C160.965 55.604 163.053 57.6916 163.053 60.2545C163.053 60.8982 162.529 61.4156 161.891 61.4156C161.254 61.4156 160.73 60.8922 160.73 60.2545C160.73 58.9731 159.683 57.9262 158.402 57.9262H93.9816C92.67 57.9262 91.563 58.9911 91.563 60.2545V77.2502C91.569 77.8999 91.0455 78.4173 90.4018 78.4173Z" fill="#694024"/>
<path d="M128.878 71.1678C128.036 70.47 126.989 70.0127 125.852 69.8323L125.876 64.7606C126.363 64.899 126.814 65.1156 127.187 65.4224C127.771 65.9037 128.09 66.5234 128.09 67.1671C128.09 67.4559 128.198 67.7206 128.397 67.9251C128.595 68.1297 128.866 68.244 129.155 68.244C129.745 68.244 130.226 67.7687 130.226 67.1791C130.232 65.8796 129.636 64.6704 128.547 63.774C127.801 63.1543 126.881 62.7452 125.882 62.5587V62.1737C125.882 61.5841 125.407 61.1028 124.811 61.0968C124.221 61.0968 123.74 61.572 123.74 62.1616V62.5166C122.507 62.6971 121.375 63.2445 120.539 64.0688C119.679 64.917 119.203 66 119.197 67.125C119.191 68.4245 119.799 69.6397 120.918 70.5482C121.7 71.1859 122.657 71.607 123.692 71.7875L123.662 77.5269C123.036 77.3765 122.458 77.1178 121.989 76.7328C121.333 76.1853 120.972 75.4875 120.972 74.7535C120.972 74.4647 120.864 74.2 120.665 73.9954C120.467 73.7909 120.196 73.6766 119.907 73.6766C119.318 73.6766 118.842 74.1519 118.836 74.7414C118.83 76.1252 119.468 77.4186 120.629 78.3812C121.472 79.0791 122.519 79.5363 123.656 79.7168V79.9454C123.656 80.2342 123.764 80.4989 123.963 80.7035C124.161 80.908 124.432 81.0223 124.721 81.0223H124.727C125.316 81.0223 125.792 80.5471 125.798 79.9575V79.7289C126.935 79.5604 127.988 79.1152 128.836 78.4233C130.009 77.4728 130.659 76.1853 130.665 74.8016C130.683 73.4239 130.045 72.1304 128.878 71.1678ZM125.846 72.0282C126.471 72.1786 127.049 72.4373 127.518 72.8223C128.18 73.3698 128.541 74.0676 128.535 74.8016C128.535 75.5296 128.162 76.2335 127.5 76.7689C127.031 77.1479 126.453 77.4006 125.822 77.545L125.846 72.0282ZM123.716 69.5916C123.18 69.4532 122.687 69.2186 122.284 68.8937C121.682 68.4004 121.351 67.7807 121.351 67.137C121.357 65.9939 122.356 65.0253 123.734 64.7005L123.716 69.5916Z" fill="#694024"/>
<path d="M151.964 71.1678C151.122 70.47 150.075 70.0127 148.938 69.8323L148.962 64.7606C149.449 64.899 149.9 65.1156 150.273 65.4224C150.857 65.9037 151.176 66.5234 151.176 67.1671C151.176 67.4559 151.284 67.7206 151.483 67.9251C151.681 68.1297 151.952 68.244 152.241 68.244C152.83 68.244 153.312 67.7687 153.312 67.1791C153.318 65.8796 152.722 64.6704 151.633 63.774C150.887 63.1543 149.966 62.7452 148.968 62.5587V62.1737C148.968 61.5841 148.492 61.1028 147.897 61.0968C147.307 61.0968 146.826 61.572 146.826 62.1616V62.5166C145.586 62.6971 144.461 63.2445 143.625 64.0688C142.765 64.917 142.289 66 142.283 67.125C142.277 68.4245 142.885 69.6397 144.004 70.5482C144.786 71.1859 145.743 71.607 146.778 71.7875L146.748 77.5269C146.122 77.3765 145.544 77.1178 145.075 76.7328C144.419 76.1853 144.058 75.4875 144.058 74.7535C144.058 74.4647 143.95 74.2 143.751 73.9954C143.553 73.7909 143.282 73.6766 142.993 73.6766C142.404 73.6766 141.928 74.1519 141.922 74.7414C141.916 76.1252 142.554 77.4186 143.715 78.3812C144.557 79.0791 145.604 79.5363 146.742 79.7168V79.9454C146.736 80.535 147.217 81.0163 147.806 81.0223H147.812C148.402 81.0223 148.877 80.5471 148.883 79.9575V79.7289C150.021 79.5604 151.074 79.1152 151.922 78.4233C153.095 77.4728 153.745 76.1853 153.751 74.8016C153.763 73.4239 153.125 72.1304 151.964 71.1678ZM148.926 72.0282C149.551 72.1786 150.129 72.4373 150.598 72.8223C151.26 73.3698 151.621 74.0676 151.615 74.8016C151.615 75.5356 151.242 76.2335 150.58 76.7689C150.111 77.1479 149.533 77.4006 148.902 77.545L148.926 72.0282ZM146.802 69.5916C146.266 69.4532 145.773 69.2186 145.37 68.8937C144.768 68.4004 144.437 67.7807 144.437 67.137C144.443 65.9939 145.442 65.0253 146.82 64.7005L146.802 69.5916Z" fill="#694024"/>
<path d="M106.96 71.1678C106.117 70.47 105.07 70.0127 103.933 69.8323L103.957 64.7606C104.445 64.899 104.896 65.1156 105.269 65.4224C105.852 65.9037 106.171 66.5234 106.165 67.1671C106.165 67.4559 106.274 67.7206 106.472 67.9251C106.671 68.1297 106.941 68.244 107.23 68.244C107.82 68.244 108.295 67.7687 108.301 67.1791C108.307 65.8796 107.712 64.6704 106.623 63.774C105.877 63.1543 104.956 62.7452 103.957 62.5587V62.1737C103.957 61.8849 103.849 61.6202 103.65 61.4156C103.452 61.2111 103.181 61.0968 102.886 61.0968C102.297 61.0968 101.821 61.572 101.815 62.1616V62.5226C100.582 62.7091 99.4508 63.2445 98.6205 64.0688C97.7601 64.917 97.2848 66 97.2788 67.125C97.2727 68.4245 97.8804 69.6397 98.9995 70.5482C99.7817 71.1859 100.738 71.607 101.773 71.7875L101.743 77.5269C101.117 77.3765 100.54 77.1178 100.07 76.7328C99.4147 76.1853 99.0537 75.4875 99.0537 74.7535C99.0537 74.4647 98.9454 74.2 98.7468 73.9954C98.5483 73.7909 98.2775 73.6766 97.9887 73.6766C97.3991 73.6766 96.9178 74.1519 96.9178 74.7414C96.9118 76.1252 97.5495 77.4186 98.7107 78.3812C99.5531 79.0791 100.6 79.5363 101.737 79.7168V79.9454C101.737 80.535 102.212 81.0163 102.802 81.0223H102.808C103.398 81.0223 103.879 80.5471 103.879 79.9575V79.7289C105.016 79.5604 106.069 79.1152 106.917 78.4233C108.091 77.4728 108.74 76.1853 108.746 74.8016C108.759 73.4239 108.127 72.1304 106.96 71.1678ZM103.927 72.0282C104.553 72.1786 105.13 72.4373 105.6 72.8223C106.256 73.3698 106.617 74.0676 106.617 74.8016C106.611 75.5356 106.244 76.2335 105.582 76.7689C105.112 77.1479 104.535 77.4006 103.903 77.545L103.927 72.0282ZM101.797 69.5916C101.262 69.4532 100.768 69.2186 100.365 68.8937C99.7636 68.4004 99.4327 67.7807 99.4327 67.137C99.4387 65.9939 100.437 65.0253 101.815 64.7005L101.797 69.5916Z" fill="#694024"/>
</g>
<circle cx="125.5" cy="93.3379" r="72.5" stroke="#FF814E" stroke-width="4" stroke-linecap="round" stroke-dasharray="2 15"/>
<path d="M247.888 123.11L239.806 125.276C239.021 125.486 238.217 125.022 238.007 124.237C237.797 123.455 238.261 122.648 239.046 122.438L247.127 120.272C247.909 120.063 248.717 120.529 248.927 121.311C249.137 122.096 248.67 122.901 247.888 123.11Z" fill="#693F23"/>
<path d="M244.93 128.234C244.148 128.443 243.341 127.98 243.13 127.195L240.965 119.113C240.755 118.331 241.219 117.524 242.004 117.314C242.786 117.104 243.593 117.568 243.803 118.353L245.969 126.434C246.175 127.217 245.712 128.024 244.93 128.234Z" fill="#693F23"/>
<path d="M31.7585 149.947L24.7255 151.832C24.0422 152.015 23.3428 151.611 23.1597 150.928C22.9773 150.247 23.3804 149.545 24.0637 149.362L31.0967 147.478C31.7774 147.295 32.4801 147.701 32.6625 148.382C32.8456 149.065 32.4392 149.765 31.7585 149.947Z" fill="#693F23"/>
<path d="M29.1844 154.406C28.5037 154.588 27.8016 154.185 27.6185 153.502L25.7341 146.469C25.5517 145.788 25.9547 145.086 26.6381 144.903C27.3188 144.721 28.0208 145.124 28.2039 145.807L30.0884 152.84C30.2681 153.522 29.8651 154.224 29.1844 154.406Z" fill="#693F23"/>
<g clip-path="url(#clip1_725_18688)">
<path d="M183.735 19.5141C183.485 19.3673 183.401 19.0439 183.549 18.792L184.963 16.3763C185.111 16.1245 185.434 16.0393 185.685 16.1862C185.935 16.333 186.019 16.6564 185.872 16.9082L184.457 19.324C184.31 19.5743 183.986 19.661 183.735 19.5141Z" fill="#694024" stroke="#694125" stroke-width="1.5" stroke-miterlimit="10"/>
<path d="M190.432 8.08049C190.181 7.93363 190.097 7.61028 190.245 7.35841L191.66 4.94269C191.807 4.69083 192.13 4.60567 192.381 4.75254C192.632 4.8994 192.715 5.22275 192.568 5.47461L191.153 7.89034C191.006 8.1422 190.683 8.22735 190.432 8.08049Z" fill="#694024" stroke="#694125" stroke-width="1.5" stroke-miterlimit="10"/>
<path d="M193.004 12.4149C192.847 12.3227 192.742 12.1517 192.744 11.955C192.746 11.6635 192.985 11.4279 193.276 11.4291L196.065 11.4417C196.356 11.4429 196.59 11.6812 196.588 11.9727C196.586 12.2642 196.347 12.4998 196.056 12.4986L193.267 12.486C193.171 12.4854 193.081 12.4597 193.004 12.4149Z" fill="#694024" stroke="#694125" stroke-width="1.5" stroke-miterlimit="10"/>
<path d="M179.799 12.3577C179.642 12.2654 179.536 12.0945 179.539 11.8978C179.541 11.6063 179.78 11.3707 180.071 11.3719L182.86 11.3845C183.151 11.3857 183.385 11.6239 183.383 11.9154C183.38 12.2069 183.142 12.4426 182.851 12.4413L180.061 12.4288C179.965 12.4281 179.876 12.4024 179.799 12.3577Z" fill="#694024" stroke="#694125" stroke-width="1.5" stroke-miterlimit="10"/>
<path d="M185.055 7.95525C184.979 7.91047 184.911 7.84394 184.865 7.76128L183.489 5.33452C183.346 5.08143 183.435 4.75804 183.688 4.6134C183.941 4.46875 184.263 4.55648 184.407 4.80958L185.782 7.23634C185.926 7.48943 185.837 7.81282 185.584 7.95746C185.413 8.05564 185.213 8.04748 185.055 7.95525Z" fill="#694024" stroke="#694125" stroke-width="1.5" stroke-miterlimit="10"/>
<path d="M191.565 19.4446C191.489 19.3998 191.422 19.3342 191.375 19.2506L189.999 16.8238C189.856 16.5707 189.945 16.2474 190.198 16.1027C190.451 15.9581 190.773 16.0458 190.916 16.2989L192.292 18.7257C192.435 18.9787 192.347 19.3021 192.094 19.4468C191.923 19.545 191.723 19.5368 191.565 19.4446Z" fill="#694024" stroke="#694125" stroke-width="1.5" stroke-miterlimit="10"/>
</g>
<g clip-path="url(#clip2_725_18688)">
<path d="M6.95888 72.547C6.70812 72.4001 6.62439 72.0768 6.7719 71.8249L8.18672 69.4092C8.33423 69.1573 8.65722 69.0722 8.90797 69.219C9.15873 69.3659 9.24246 69.6892 9.09495 69.9411L7.68013 72.3568C7.53352 72.6072 7.20963 72.6939 6.95888 72.547Z" fill="#694024" stroke="#694125" stroke-width="1.5" stroke-miterlimit="10"/>
<path d="M13.6552 61.1134C13.4045 60.9665 13.3207 60.6431 13.4683 60.3913L14.8831 57.9756C15.0306 57.7237 15.3536 57.6385 15.6043 57.7854C15.8551 57.9323 15.9388 58.2556 15.7913 58.5075L14.3765 60.9232C14.229 61.1751 13.906 61.2602 13.6552 61.1134Z" fill="#694024" stroke="#694125" stroke-width="1.5" stroke-miterlimit="10"/>
<path d="M16.2278 65.4478C16.0703 65.3555 15.9651 65.1846 15.9673 64.9879C15.9697 64.6964 16.2083 64.4608 16.4992 64.462L19.2886 64.4746C19.5795 64.4758 19.8137 64.714 19.8114 65.0056C19.809 65.2971 19.5704 65.5327 19.2795 65.5315L16.4901 65.5189C16.3939 65.5183 16.3042 65.4926 16.2278 65.4478Z" fill="#694024" stroke="#694125" stroke-width="1.5" stroke-miterlimit="10"/>
<path d="M3.02256 65.3905C2.86507 65.2983 2.75984 65.1273 2.76209 64.9307C2.76443 64.6392 3.00305 64.4035 3.29393 64.4048L6.0834 64.4173C6.37427 64.4186 6.60848 64.6568 6.60613 64.9483C6.60379 65.2398 6.36517 65.4754 6.0743 65.4742L3.28483 65.4616C3.18868 65.461 3.09901 65.4353 3.02256 65.3905Z" fill="#694024" stroke="#694125" stroke-width="1.5" stroke-miterlimit="10"/>
<path d="M8.27867 60.9881C8.20222 60.9433 8.1344 60.8768 8.08835 60.7942L6.71281 58.3674C6.56944 58.1143 6.65822 57.7909 6.91132 57.6463C7.16442 57.5016 7.48677 57.5894 7.63014 57.8424L9.00568 60.2692C9.14905 60.5223 9.06027 60.8457 8.80717 60.9903C8.63673 61.0885 8.43616 61.0804 8.27867 60.9881Z" fill="#694024" stroke="#694125" stroke-width="1.5" stroke-miterlimit="10"/>
<path d="M14.7884 72.4774C14.712 72.4327 14.6457 72.367 14.5981 72.2835L13.2226 69.8567C13.0792 69.6036 13.168 69.2802 13.4211 69.1356C13.6742 68.9909 13.9965 69.0787 14.1399 69.3318L15.5154 71.7585C15.6588 72.0116 15.57 72.335 15.3169 72.4796C15.1465 72.5778 14.9459 72.5697 14.7884 72.4774Z" fill="#694024" stroke="#694125" stroke-width="1.5" stroke-miterlimit="10"/>
</g>
<path d="M58.5323 10.4393C58.8936 11.788 58.0919 13.1718 56.7466 13.5323C55.3979 13.8936 54.0141 13.0919 53.6536 11.7466C53.2931 10.4012 54.0907 9.01497 55.4393 8.6536C56.7847 8.29311 58.1718 9.09393 58.5323 10.4393Z" fill="#693F23"/>
<path d="M220.029 160.409C220.27 161.308 219.736 162.23 218.839 162.471C217.94 162.711 217.017 162.177 216.777 161.28C216.536 160.383 217.068 159.459 217.967 159.218C218.864 158.978 219.789 159.512 220.029 160.409Z" fill="#693F23"/>
<defs>
<clipPath id="clip0_725_18688">
<rect width="78.0117" height="78.0117" fill="white" transform="translate(86.9181 55.604)"/>
</clipPath>
<clipPath id="clip1_725_18688">
<rect width="15.524" height="17.6409" fill="white" transform="translate(185.692 0.525574) rotate(30.3564)"/>
</clipPath>
<clipPath id="clip2_725_18688">
<rect width="15.524" height="17.6409" fill="white" transform="translate(8.91529 53.5584) rotate(30.3564)"/>
</clipPath>
</defs>
</svg>
