<svg width="40" height="41" viewBox="0 0 40 41" fill="none" xmlns="http://www.w3.org/2000/svg">
<circle cx="20" cy="20.3143" r="20" fill="#F3F3F3"/>
<g clip-path="url(#clip0_723_11285)">
<path d="M31.3023 28.2204C30.9186 28.2204 30.6046 27.9088 30.6046 27.5281V10.1959L25.0369 4.69896H10.3954V26.3477C10.3954 26.7284 10.0814 27.04 9.69771 27.04C9.31397 27.04 9 26.7284 9 26.3477V4.00665C9 3.62587 9.31397 3.31433 9.69771 3.31433H25.3264C25.5113 3.31433 25.6892 3.38702 25.8183 3.5151L31.7942 9.41709C31.9267 9.54863 32 9.72517 32 9.90863V27.5281C32 27.9088 31.686 28.2204 31.3023 28.2204Z" fill="#694125"/>
<path d="M26.3306 15.1045H14.6684C14.2847 15.1045 13.9707 14.7929 13.9707 14.4121C13.9707 14.0314 14.2847 13.7198 14.6684 13.7198H26.3341C26.7179 13.7198 27.0318 14.0314 27.0318 14.4121C27.0283 14.7929 26.7179 15.1045 26.3306 15.1045Z" fill="#694024"/>
<path d="M26.2164 18.2683H14.5542C14.1704 18.2683 13.8564 17.9568 13.8564 17.576C13.8564 17.1953 14.1704 16.8837 14.5542 16.8837H26.2164C26.6001 16.8837 26.9141 17.1953 26.9141 17.576C26.9141 17.9568 26.6036 18.2683 26.2164 18.2683Z" fill="#694024"/>
<path d="M26.3908 11.9406H14.7251C14.3413 11.9406 14.0273 11.629 14.0273 11.2483C14.0273 10.8675 14.3413 10.5559 14.7251 10.5559H26.3908C26.7745 10.5559 27.0885 10.8675 27.0885 11.2483C27.0885 11.629 26.7745 11.9406 26.3908 11.9406Z" fill="#694024"/>
<path d="M18.0669 38.3143C13.9923 38.3143 10.6816 35.0258 10.6816 30.9862C10.6816 26.9465 13.9958 23.658 18.0669 23.658C22.138 23.658 25.4522 26.9465 25.4522 30.9862C25.4522 35.0258 22.1415 38.3143 18.0669 38.3143ZM18.0669 25.0392C14.7632 25.0392 12.0771 27.7046 12.0771 30.9827C12.0771 34.2608 14.7632 36.9262 18.0669 36.9262C21.3706 36.9262 24.0567 34.2608 24.0567 30.9827C24.0567 27.7046 21.3706 25.0392 18.0669 25.0392Z" fill="#694125"/>
<path d="M17.4841 34.0462C17.3132 34.0462 17.1492 33.9839 17.0201 33.8697L14.7351 31.8481C14.4491 31.592 14.4212 31.1558 14.6793 30.8719C14.934 30.5846 15.377 30.5604 15.6631 30.8166L17.4074 32.3604L20.6482 28.4281C20.8924 28.1304 21.332 28.0888 21.6285 28.3311C21.9285 28.5735 21.9704 29.0096 21.7262 29.3038L18.0249 33.7901C17.9062 33.9354 17.7283 34.0289 17.5399 34.0427C17.5225 34.0462 17.5016 34.0462 17.4841 34.0462Z" fill="#694125"/>
</g>
<defs>
<clipPath id="clip0_723_11285">
<rect width="23" height="35" fill="white" transform="translate(9 3.31433)"/>
</clipPath>
</defs>
</svg>
