<svg width="23" height="27" viewBox="0 0 23 27" fill="none" xmlns="http://www.w3.org/2000/svg">
<g clip-path="url(#clip0_270_9693)">
<path d="M22.6623 3.36719V21.9137C22.6623 24.5377 20.5235 26.6673 17.8833 26.6673H2.06641V24.5668" stroke="#694024" stroke-miterlimit="10" stroke-linecap="round" stroke-linejoin="round"/>
<path d="M20.5501 4.19915V0.335938H15.3213" stroke="#694024" stroke-miterlimit="10" stroke-linecap="round" stroke-linejoin="round"/>
<path d="M15.3217 0.335938H0.336914V24.5644H16.237C16.9679 24.5644 17.5616 23.9738 17.5616 23.2468V21.5914H19.2258C19.9567 21.5914 20.5505 21.0009 20.5505 20.2739V4.19915" stroke="#694024" stroke-miterlimit="10" stroke-linecap="round" stroke-linejoin="round"/>
<path d="M1.68652 12.0681L1.79672 11.69C3.09886 7.25417 6.27663 3.59899 10.5024 1.67969H1.68652V12.0681Z" fill="#FEC344"/>
<path d="M3.60742 13.4527C4.26636 15.0454 5.94858 17.761 9.45019 16.3585C7.85794 13.0277 4.77013 13.2379 3.60742 13.4527Z" fill="#FEC344"/>
<path d="M15.0925 6.28516C13.3473 6.63412 10.2032 7.86221 10.5248 12.1997C15.3893 11.0387 14.9553 7.66312 15.0925 6.28516Z" fill="#FEC344"/>
<path d="M10.1384 21.9882C10.0349 21.9882 9.93371 21.9368 9.87749 21.8428C9.78978 21.6997 9.83476 21.5118 9.98094 21.4245C10.379 21.1829 10.885 19.2994 10.298 17.9886C8.77101 14.5728 9.44119 12.4879 9.62786 12.0293C9.33999 10.0698 9.68858 8.46588 10.6601 7.26016C12.2141 5.33415 14.7779 5.14401 14.8859 5.13729C15.0321 5.12835 15.1693 5.22454 15.203 5.3677C15.2345 5.49744 15.9721 8.5822 14.3417 10.638C13.4533 11.7587 12.0432 12.3425 10.1519 12.3716C9.9697 12.9219 9.54015 14.7964 10.8558 17.7403C11.499 19.1809 11.0739 21.476 10.298 21.9457C10.2463 21.9748 10.1923 21.9882 10.1384 21.9882ZM14.6588 5.77483C13.9953 5.87549 12.2411 6.26472 11.1324 7.64268C10.3025 8.67391 9.99219 10.0608 10.2058 11.7609C11.8723 11.7206 13.1002 11.2173 13.8581 10.2599C15.0501 8.75892 14.7914 6.53315 14.6588 5.77483Z" fill="#694024"/>
<path d="M7.60795 17.0554C7.02772 17.0554 6.48123 16.9347 5.96847 16.6908C3.71277 15.626 2.98636 12.6106 2.95712 12.4831C2.92114 12.3288 3.0111 12.1722 3.16403 12.123C3.21575 12.1073 8.40183 10.5437 10.2212 16.0511C10.2685 16.1965 10.2032 16.353 10.0638 16.4202C9.19346 16.8429 8.37259 17.0554 7.60795 17.0554ZM3.63406 12.6308C3.8657 13.3779 4.62135 15.3822 6.23159 16.1428C7.1829 16.5924 8.29838 16.5387 9.54879 15.9862C8.08248 11.9888 4.65733 12.4071 3.63406 12.6308Z" fill="#694024"/>
<path d="M17.0761 15.9751C15.5806 15.1094 12.585 13.9685 10.6621 17.1987C13.9591 18.8809 16.2822 16.8497 17.0761 15.9751Z" fill="#FEC344"/>
<path d="M12.8075 18.1827C12.1395 18.1827 11.3951 18.0687 10.5653 17.8002C10.4191 17.7532 10.3314 17.6056 10.3584 17.4557C10.6575 15.7892 11.3974 14.6305 12.5578 14.0064C14.7551 12.8275 17.6292 14.022 17.7507 14.0735C17.8969 14.1361 17.9711 14.2994 17.9216 14.4515C17.9058 14.4985 16.606 18.1827 12.8075 18.1827ZM11.0151 17.3014C15.1239 18.4847 16.8084 15.4895 17.2312 14.5343C16.489 14.2793 14.4155 13.7021 12.848 14.5477C11.9214 15.0443 11.3052 15.9704 11.0151 17.3014Z" fill="#694024"/>
</g>
<defs>
<clipPath id="clip0_270_9693">
<rect width="23" height="27" fill="white"/>
</clipPath>
</defs>
</svg>
