<svg width="273" height="195" viewBox="0 0 273 195" fill="none" xmlns="http://www.w3.org/2000/svg">
<path d="M269.61 144.07L260.626 146.477C259.754 146.711 258.86 146.195 258.626 145.322C258.393 144.452 258.908 143.556 259.781 143.322L268.765 140.915C269.634 140.682 270.532 141.2 270.765 142.069C270.999 142.942 270.48 143.837 269.61 144.07Z" fill="#693F23"/>
<path d="M266.322 149.765C265.452 149.998 264.555 149.483 264.322 148.61L261.914 139.626C261.681 138.757 262.196 137.86 263.069 137.626C263.939 137.393 264.835 137.908 265.069 138.781L267.477 147.765C267.706 148.635 267.191 149.532 266.322 149.765Z" fill="#693F23"/>
<path d="M144.974 183.023L137.156 185.117C136.396 185.321 135.619 184.872 135.415 184.112C135.212 183.356 135.66 182.575 136.42 182.372L144.238 180.277C144.995 180.074 145.776 180.525 145.979 181.282C146.183 182.042 145.731 182.82 144.974 183.023Z" fill="#693F23"/>
<path d="M142.112 187.979C141.355 188.182 140.575 187.734 140.371 186.974L138.277 179.156C138.074 178.399 138.522 177.619 139.282 177.415C140.038 177.213 140.819 177.661 141.022 178.42L143.117 186.238C143.317 186.996 142.869 187.776 142.112 187.979Z" fill="#693F23"/>
<g clip-path="url(#clip0_723_11285)">
<path d="M204.544 23.9161C204.265 23.7528 204.172 23.3934 204.336 23.1134L205.909 20.4279C206.073 20.148 206.432 20.0533 206.711 20.2166C206.99 20.3798 207.083 20.7393 206.919 21.0193L205.346 23.7047C205.183 23.983 204.823 24.0793 204.544 23.9161Z" fill="#694024" stroke="#694125" stroke-width="1.5" stroke-miterlimit="10"/>
<path d="M211.988 11.2059C211.709 11.0426 211.616 10.6832 211.78 10.4032L213.353 7.71773C213.517 7.43775 213.876 7.34309 214.155 7.50635C214.433 7.66961 214.527 8.02907 214.363 8.30905L212.79 10.9945C212.626 11.2745 212.267 11.3691 211.988 11.2059Z" fill="#694024" stroke="#694125" stroke-width="1.5" stroke-miterlimit="10"/>
<path d="M214.848 16.0242C214.673 15.9217 214.556 15.7317 214.558 15.513C214.561 15.189 214.826 14.927 215.149 14.9284L218.25 14.9424C218.574 14.9438 218.834 15.2086 218.831 15.5326C218.829 15.8567 218.564 16.1186 218.24 16.1173L215.139 16.1033C215.032 16.1026 214.933 16.074 214.848 16.0242Z" fill="#694024" stroke="#694125" stroke-width="1.5" stroke-miterlimit="10"/>
<path d="M200.168 15.9606C199.993 15.8581 199.876 15.6681 199.878 15.4494C199.881 15.1254 200.146 14.8634 200.47 14.8648L203.571 14.8788C203.894 14.8802 204.154 15.145 204.152 15.469C204.149 15.7931 203.884 16.055 203.56 16.0537L200.46 16.0397C200.353 16.039 200.253 16.0104 200.168 15.9606Z" fill="#694024" stroke="#694125" stroke-width="1.5" stroke-miterlimit="10"/>
<path d="M206.011 11.0667C205.926 11.0169 205.851 10.943 205.8 10.8511L204.27 8.15338C204.111 7.87203 204.21 7.51254 204.491 7.35174C204.772 7.19095 205.131 7.28847 205.29 7.56982L206.819 10.2675C206.979 10.5489 206.88 10.9084 206.599 11.0692C206.409 11.1783 206.186 11.1692 206.011 11.0667Z" fill="#694024" stroke="#694125" stroke-width="1.5" stroke-miterlimit="10"/>
<path d="M213.248 23.8388C213.163 23.789 213.089 23.7161 213.036 23.6232L211.507 20.9255C211.348 20.6441 211.447 20.2846 211.728 20.1238C212.009 19.963 212.368 20.0606 212.527 20.3419L214.056 23.0396C214.215 23.321 214.117 23.6805 213.835 23.8413C213.646 23.9504 213.423 23.9413 213.248 23.8388Z" fill="#694024" stroke="#694125" stroke-width="1.5" stroke-miterlimit="10"/>
</g>
<g clip-path="url(#clip1_723_11285)">
<path d="M8.03049 82.8701C7.75173 82.7068 7.65865 82.3473 7.82263 82.0674L9.39542 79.3819C9.5594 79.1019 9.91845 79.0073 10.1972 79.1705C10.476 79.3338 10.569 79.6933 10.4051 79.9732L8.83226 82.6587C8.66929 82.937 8.30924 83.0333 8.03049 82.8701Z" fill="#694024" stroke="#694125" stroke-width="1.5" stroke-miterlimit="10"/>
<path d="M15.4743 70.1599C15.1956 69.9966 15.1025 69.6371 15.2665 69.3572L16.8393 66.6717C17.0032 66.3917 17.3623 66.2971 17.641 66.4603C17.9198 66.6236 18.0129 66.983 17.8489 67.263L16.2761 69.9485C16.1121 70.2285 15.7531 70.3231 15.4743 70.1599Z" fill="#694024" stroke="#694125" stroke-width="1.5" stroke-miterlimit="10"/>
<path d="M18.334 74.9782C18.1589 74.8757 18.042 74.6857 18.0445 74.467C18.0471 74.143 18.3123 73.881 18.6357 73.8824L21.7366 73.8964C22.06 73.8977 22.3203 74.1626 22.3177 74.4866C22.3151 74.8107 22.0498 75.0726 21.7265 75.0712L18.6256 75.0573C18.5187 75.0566 18.419 75.028 18.334 74.9782Z" fill="#694024" stroke="#694125" stroke-width="1.5" stroke-miterlimit="10"/>
<path d="M3.65433 74.9146C3.47926 74.8121 3.36228 74.6221 3.36478 74.4034C3.36739 74.0794 3.63265 73.8174 3.956 73.8188L7.05692 73.8328C7.38026 73.8341 7.64062 74.099 7.63802 74.423C7.63541 74.7471 7.37015 75.009 7.0468 75.0076L3.94589 74.9937C3.839 74.993 3.73932 74.9644 3.65433 74.9146Z" fill="#694024" stroke="#694125" stroke-width="1.5" stroke-miterlimit="10"/>
<path d="M9.49744 70.0207C9.41245 69.9709 9.33706 69.897 9.28587 69.8051L7.75675 67.1074C7.59738 66.826 7.69607 66.4665 7.97743 66.3057C8.25878 66.1449 8.61713 66.2425 8.7765 66.5238L10.3056 69.2215C10.465 69.5029 10.3663 69.8624 10.0849 70.0231C9.89547 70.1323 9.67251 70.1232 9.49744 70.0207Z" fill="#694024" stroke="#694125" stroke-width="1.5" stroke-miterlimit="10"/>
<path d="M16.7342 82.7928C16.6493 82.743 16.5756 82.67 16.5227 82.5772L14.9936 79.8795C14.8342 79.5981 14.9329 79.2386 15.2142 79.0778C15.4956 78.917 15.8539 79.0145 16.0133 79.2959L17.5424 81.9936C17.7018 82.275 17.6031 82.6344 17.3218 82.7952C17.1323 82.9044 16.9093 82.8953 16.7342 82.7928Z" fill="#694024" stroke="#694125" stroke-width="1.5" stroke-miterlimit="10"/>
</g>
<path d="M117.802 2.71162C118.204 4.21085 117.313 5.74915 115.817 6.1499C114.318 6.55161 112.78 5.66041 112.379 4.16481C111.978 2.66921 112.865 1.12825 114.364 0.726532C115.86 0.325787 117.402 1.21602 117.802 2.71162Z" fill="#693F23"/>
<path d="M50.15 190.712C50.5517 192.211 49.6605 193.749 48.1649 194.15C46.6656 194.552 45.1273 193.661 44.7266 192.165C44.3258 190.669 45.2125 189.128 46.7117 188.727C48.2073 188.326 49.7492 189.216 50.15 190.712Z" fill="#693F23"/>
<path d="M214.1 143.808C214.368 144.807 213.774 145.833 212.777 146.1C211.777 146.368 210.752 145.774 210.484 144.777C210.217 143.779 210.808 142.752 211.808 142.484C212.805 142.217 213.833 142.811 214.1 143.808Z" fill="#693F23"/>
<path d="M210.3 55L114.79 81.46L140.15 99.28L142.21 128.72L210.3 55Z" fill="#FFC72C"/>
<path d="M207.13 58.48L139.15 97.73M103 71.96L210.3 56.65L143.39 141.91L139.63 104.97L139.47 98.27L138.91 97.87L138.84 97.19L133.12 93.7L103 71.96Z" stroke="#694024" stroke-width="5" stroke-miterlimit="10" stroke-linecap="round" stroke-linejoin="round"/>
<path d="M65.4976 145.289L55.9999 151.447" stroke="#694024" stroke-width="3.488" stroke-miterlimit="10" stroke-linecap="round" stroke-linejoin="round"/>
<path d="M81.5073 108.349L72.0097 114.507" stroke="#694024" stroke-width="3.488" stroke-miterlimit="10" stroke-linecap="round" stroke-linejoin="round"/>
<path d="M119.229 107.977L91.0098 126.284" stroke="#694024" stroke-width="3.488" stroke-miterlimit="10" stroke-linecap="round" stroke-linejoin="round"/>
<path d="M109.01 140L89.0098 153.284" stroke="#694024" stroke-width="3.488" stroke-miterlimit="10" stroke-linecap="round" stroke-linejoin="round"/>
<defs>
<clipPath id="clip0_723_11285">
<rect width="17.2572" height="19.6105" fill="white" transform="translate(206.719 2.8075) rotate(30.3564)"/>
</clipPath>
<clipPath id="clip1_723_11285">
<rect width="17.2572" height="19.6105" fill="white" transform="translate(10.2051 61.7615) rotate(30.3564)"/>
</clipPath>
</defs>
</svg>
