<svg width="42" height="44" viewBox="0 0 42 44" fill="none" xmlns="http://www.w3.org/2000/svg">
<g clip-path="url(#clip0_270_23357)">
<path d="M9.12482 14.201C8.60086 6.96534 14.1855 0.82681 20.9331 0.793156C27.9874 0.752771 33.4763 7.2413 32.8692 14.2145C33.521 14.2548 34.1727 14.2616 34.8181 14.3491C38.4347 14.8068 41.4443 18.051 41.9171 21.8338C42.4922 26.3838 39.636 30.6243 35.5018 31.5868C34.9459 31.7146 34.3772 31.8021 33.8085 31.8156C32.243 31.8493 30.6775 31.8358 29.1056 31.8291C28.2558 31.8223 27.6104 31.1964 27.5913 30.3685C27.5721 29.5473 28.1855 28.8675 29.0481 28.854C30.5561 28.8271 32.0641 28.854 33.5721 28.8406C36.3005 28.8137 38.4667 26.9694 39.0545 24.1896C39.7255 20.9924 37.5082 17.7078 34.4156 17.2905C33.4443 17.1558 32.5306 17.3039 31.6168 17.6405C30.4283 18.0712 29.4507 17.1491 29.6999 15.8501C29.7638 15.5202 29.8341 15.1904 29.898 14.8539C30.767 9.95383 27.5018 4.92589 22.8437 3.97684C17.8852 2.97395 13.2973 6.10379 12.1664 11.2798C11.8405 12.7606 11.898 14.2414 12.2558 15.7154C12.505 16.7251 12.0577 17.5799 11.1695 17.7212C10.8309 17.7751 10.4475 17.6606 10.1088 17.5395C7.16955 16.4962 3.96827 18.2058 3.06092 21.3222C1.96188 25.0982 4.59447 28.8069 8.40917 28.8473C9.85964 28.8608 11.3101 28.854 12.7606 28.8473C13.2846 28.8473 13.751 28.9752 14.0769 29.4329C14.4028 29.8839 14.4858 30.3887 14.2622 30.9137C14.0322 31.4656 13.6041 31.8223 13.0354 31.8223C11.1504 31.8291 9.25262 31.8896 7.37402 31.7416C3.89798 31.4656 0.850061 28.4906 0.166355 24.8761C-0.766552 19.9424 2.17913 15.3183 6.86284 14.4029C7.59127 14.2481 8.34527 14.2616 9.12482 14.201Z" fill="#281B11"/>
<path d="M22.3968 20.1326C22.3968 20.4422 22.3968 20.6105 22.3968 20.772C22.3968 25.3827 22.3968 29.9933 22.3968 34.6039C22.3968 35.4116 21.9176 36.0107 21.1956 36.1184C20.4991 36.226 19.8345 35.7885 19.6429 35.0683C19.5917 34.8664 19.5917 34.6443 19.5917 34.4289C19.5917 29.8789 19.5917 25.3288 19.5917 20.7855C19.5917 20.6172 19.5917 20.449 19.5917 20.2807C19.547 20.2403 19.5087 20.1999 19.4639 20.1595C19.3809 20.2941 19.317 20.4422 19.2211 20.5566C18.1413 21.8153 17.0486 23.0605 15.9623 24.3125C15.547 24.7903 15.0358 24.9653 14.4544 24.7836C13.924 24.6153 13.5917 24.2182 13.4767 23.6394C13.3809 23.148 13.5151 22.7172 13.8282 22.3605C15.8665 20.0047 17.9112 17.6422 19.9623 15.2999C20.5566 14.62 21.4512 14.6402 22.0518 15.3268C24.0837 17.6557 26.1093 19.9845 28.1285 22.3269C28.7163 23.0067 28.678 23.9086 28.071 24.474C27.4703 25.0394 26.6205 24.9923 26.0326 24.3259C24.9591 23.1076 23.8984 21.8692 22.8313 20.6441C22.7163 20.4893 22.6013 20.3615 22.3968 20.1326Z" fill="#F58051"/>
<path d="M22.3967 40.5039C22.3967 40.8741 22.4031 41.2443 22.3967 41.6145C22.3776 42.4424 21.7705 43.0684 20.991 43.0684C20.2178 43.0684 19.598 42.4357 19.5916 41.6145C19.5788 40.8606 19.5788 40.1068 19.5916 39.3529C19.6044 38.5318 20.237 37.9125 21.0165 37.926C21.7705 37.9395 22.3776 38.5587 22.3967 39.3529C22.4095 39.7366 22.3967 40.1203 22.3967 40.5039Z" fill="#FEC344"/>
</g>
<defs>
<clipPath id="clip0_270_23357">
<rect width="42" height="42.2764" fill="white" transform="translate(0 0.792969)"/>
</clipPath>
</defs>
</svg>
