<svg width="57" height="58" viewBox="0 0 57 58" fill="none" xmlns="http://www.w3.org/2000/svg">
<circle cx="28.1713" cy="29.2221" r="27.8432" fill="#F5F5F5"/>
<path d="M37.5594 15.6562H7.11255V55.5541H37.5594V15.6562Z" fill="white"/>
<path d="M41.3157 11.1523H10.8689V51.0502H41.3157V11.1523Z" fill="white"/>
<path d="M45.3406 6.41016H14.8938V46.308H45.3406V6.41016Z" fill="white"/>
<path d="M49.23 2.06641H18.7832V41.9643H49.23V2.06641Z" fill="white"/>
<path d="M30.4287 44.9688C28.037 44.9688 26.0938 46.9094 26.0938 49.2917C26.0938 51.6768 28.0398 53.6147 30.4287 53.6147C32.8203 53.6147 34.7636 51.6741 34.7636 49.2917C34.7636 46.9066 32.8203 44.9688 30.4287 44.9688Z" fill="#FEC445"/>
<path d="M38.3179 14.1445H6.35417C5.93618 14.1445 5.5957 14.4841 5.5957 14.9009V56.3116C5.5957 56.7284 5.93618 57.068 6.35417 57.068H38.3179C38.7359 57.068 39.0764 56.7284 39.0764 56.3116V14.9009C39.0764 14.4841 38.7359 14.1445 38.3179 14.1445ZM37.5594 55.5552H7.11265V15.6573H37.5594V55.5552Z" fill="#694125"/>
<path d="M42.2071 9.64062H10.2433C9.82535 9.64062 9.48486 9.98017 9.48486 10.397V12.5668C9.48486 12.9836 9.82535 13.3232 10.2433 13.3232C10.6613 13.3232 11.0018 12.9836 11.0018 12.5668V11.1534H41.4486V51.0513H40.5656C40.1476 51.0513 39.8071 51.3908 39.8071 51.8077C39.8071 52.2245 40.1476 52.5641 40.5656 52.5641H42.2071C42.6251 52.5641 42.9655 52.2245 42.9655 51.8077V10.397C42.9655 9.98017 42.6251 9.64062 42.2071 9.64062Z" fill="#694125"/>
<path d="M46.0964 5.13672H14.1354C13.7174 5.13672 13.377 5.47626 13.377 5.8931V8.11809C13.377 8.53493 13.7174 8.87447 14.1354 8.87447C14.5534 8.87447 14.8939 8.53493 14.8939 8.11809V6.64949H45.3407V46.5474H44.5435C44.1255 46.5474 43.785 46.8869 43.785 47.3038C43.785 47.7206 44.1255 48.0601 44.5435 48.0601H46.0992C46.5172 48.0601 46.8576 47.7206 46.8576 47.3038V5.8931C46.8549 5.47626 46.5172 5.13672 46.0964 5.13672Z" fill="#694125"/>
<path d="M49.9883 0.628906H18.0246C17.6066 0.628906 17.2661 0.968451 17.2661 1.38529V3.53574C17.2661 3.95258 17.6066 4.29212 18.0246 4.29212C18.4426 4.29212 18.7831 3.95258 18.7831 3.53574V2.14167H49.2299V42.0396H48.4049C47.987 42.0396 47.6465 42.3791 47.6465 42.7959C47.6465 43.2128 47.987 43.5523 48.4049 43.5523H49.9883C50.4063 43.5523 50.7468 43.2128 50.7468 42.7959V1.38529C50.7468 0.968451 50.4063 0.628906 49.9883 0.628906Z" fill="#694125"/>
<path d="M11.4697 41.7003H33.1996C33.6176 41.7003 33.958 41.3607 33.958 40.9439C33.958 40.527 33.6176 40.1875 33.1996 40.1875H11.4697C11.0517 40.1875 10.7112 40.527 10.7112 40.9439C10.7112 41.3607 11.0517 41.7003 11.4697 41.7003Z" fill="#694125"/>
<path d="M11.4697 46.3682H21.0779C21.4959 46.3682 21.8363 46.0287 21.8363 45.6119C21.8363 45.195 21.4959 44.8555 21.0779 44.8555H11.4697C11.0517 44.8555 10.7112 45.195 10.7112 45.6119C10.7112 46.0287 11.0517 46.3682 11.4697 46.3682Z" fill="#694125"/>
<path d="M30.4287 44.9688C28.037 44.9688 26.0938 46.9094 26.0938 49.2917C26.0938 51.6768 28.0398 53.6147 30.4287 53.6147C32.8203 53.6147 34.7636 51.6741 34.7636 49.2917C34.7636 46.9066 32.8203 44.9688 30.4287 44.9688ZM30.4287 52.102C28.873 52.102 27.6107 50.8404 27.6107 49.2917C27.6107 47.7403 28.8757 46.4815 30.4287 46.4815C31.9844 46.4815 33.2466 47.7431 33.2466 49.2917C33.2466 50.8404 31.9816 52.102 30.4287 52.102Z" fill="#694125"/>
<path d="M22.2627 28.933C19.6468 28.933 17.5181 27.4285 17.5181 25.5817C17.5181 23.7322 19.6468 22.2305 22.2627 22.2305C24.9062 22.2305 27.0571 23.735 27.0571 25.5817C27.0571 25.9351 26.7692 26.2222 26.4149 26.2222C26.0606 26.2222 25.7727 25.9351 25.7727 25.5817C25.7727 24.4775 24.1339 23.5114 22.2627 23.5114C20.3886 23.5114 18.8025 24.4582 18.8025 25.5817C18.8025 26.7053 20.3886 27.6521 22.2627 27.6521C22.617 27.6521 22.9049 27.9392 22.9049 28.2926C22.9049 28.6459 22.617 28.933 22.2627 28.933Z" fill="#FEC445"/>
<path d="M22.2627 34.3052C19.6468 34.3052 17.5181 32.8007 17.5181 30.9539C17.5181 30.6006 17.806 30.3135 18.1603 30.3135C18.5146 30.3135 18.8025 30.6006 18.8025 30.9539C18.8025 32.0775 20.3886 33.0243 22.2627 33.0243C24.1312 33.0243 25.7727 32.0581 25.7727 30.9539C25.7727 29.858 24.1644 28.9332 22.2627 28.9332C21.9083 28.9332 21.6205 28.6461 21.6205 28.2928C21.6205 27.9394 21.9083 27.6523 22.2627 27.6523C24.9505 27.6523 27.0571 29.1044 27.0571 30.9567C27.0571 32.8035 24.9062 34.3052 22.2627 34.3052Z" fill="#FEC445"/>
<path d="M22.2626 23.511C21.9082 23.511 21.6204 23.2239 21.6204 22.8705V20.6014C21.6204 20.248 21.9082 19.9609 22.2626 19.9609C22.6169 19.9609 22.9048 20.248 22.9048 20.6014V22.8705C22.9048 23.2239 22.6169 23.511 22.2626 23.511Z" fill="#FEC445"/>
<path d="M22.2628 36.5746C21.9085 36.5746 21.6206 36.2875 21.6206 35.9342V33.6678C21.6206 33.3144 21.9085 33.0273 22.2628 33.0273C22.6171 33.0273 22.905 33.3144 22.905 33.6678V35.9342C22.905 36.2875 22.6171 36.5746 22.2628 36.5746Z" fill="#FEC445"/>
</svg>
