<svg width="40" height="41" viewBox="0 0 40 41" fill="none" xmlns="http://www.w3.org/2000/svg">
<circle cx="20" cy="20.3143" r="20" fill="#F3F3F3"/>
<g clip-path="url(#clip0_723_11285)">
<path d="M34.2871 15.0909C34.1694 15.0909 34.0517 15.0624 33.9412 15.0019L20.9986 7.84177L8.05962 15.0019C7.71368 15.1941 7.28214 15.0695 7.08955 14.7242C6.89697 14.3788 7.02179 13.948 7.36774 13.7557L20.6527 6.40334C20.8667 6.28585 21.1306 6.28585 21.3446 6.40334L34.6331 13.7557C34.979 13.948 35.1038 14.3788 34.9112 14.7242C34.7793 14.9591 34.5368 15.0909 34.2871 15.0909Z" fill="#694125"/>
<path d="M31.6479 28.2397C31.2555 28.2397 30.9346 27.9192 30.9346 27.5276V12.919C30.9346 12.5273 31.2555 12.2069 31.6479 12.2069C32.0402 12.2069 32.3611 12.5273 32.3611 12.919V27.5276C32.3611 27.9228 32.0437 28.2397 31.6479 28.2397Z" fill="#694125"/>
<path d="M10.349 28.2397C9.95672 28.2397 9.63574 27.9192 9.63574 27.5276V12.919C9.63574 12.5273 9.95672 12.2069 10.349 12.2069C10.7413 12.2069 11.0623 12.5273 11.0623 12.919V27.5276C11.0623 27.9228 10.7449 28.2397 10.349 28.2397Z" fill="#694125"/>
<path d="M19.6185 28.2397C19.2262 28.2397 18.9053 27.9192 18.9053 27.5276V18.4698C18.9053 17.0741 17.7676 15.9383 16.3695 15.9383C14.9715 15.9383 13.8338 17.0741 13.8338 18.4698V27.5276C13.8338 27.9192 13.5128 28.2397 13.1205 28.2397C12.7282 28.2397 12.4072 27.9192 12.4072 27.5276V18.4698C12.4072 16.2872 14.1869 14.5141 16.3695 14.5141C18.5522 14.5141 20.3318 16.2908 20.3318 18.4698V27.5276C20.3318 27.9228 20.0108 28.2397 19.6185 28.2397Z" fill="#694125"/>
<path d="M28.8842 28.2397C28.4919 28.2397 28.1709 27.9192 28.1709 27.5276V18.4698C28.1709 17.0741 27.0332 15.9383 25.6352 15.9383C24.2371 15.9383 23.0994 17.0741 23.0994 18.4698V27.5276C23.0994 27.9192 22.7784 28.2397 22.3861 28.2397C21.9938 28.2397 21.6729 27.9192 21.6729 27.5276V18.4698C21.6729 16.2872 23.4525 14.5141 25.6352 14.5141C27.8178 14.5141 29.5974 16.2908 29.5974 18.4698V27.5276C29.5974 27.9228 29.2765 28.2397 28.8842 28.2397Z" fill="#694125"/>
<path d="M34.2867 31.9176C33.8944 31.9176 33.5734 31.5972 33.5734 31.2056V28.845C33.5734 28.5103 33.3024 28.2397 32.9671 28.2397H9.03286C8.69762 28.2397 8.42657 28.5103 8.42657 28.845V31.2056C8.42657 31.5972 8.10559 31.9176 7.71328 31.9176C7.32098 31.9176 7 31.5972 7 31.2056V28.845C7 27.727 7.913 26.8155 9.03286 26.8155H32.9671C34.087 26.8155 35 27.727 35 28.845V31.2056C35 31.5972 34.679 31.9176 34.2867 31.9176Z" fill="#694125"/>
<path d="M28.5951 31.9176H13.4057C13.0134 31.9176 12.6924 31.5972 12.6924 31.2056C12.6924 30.8139 13.0134 30.4935 13.4057 30.4935H28.5951C28.9874 30.4935 29.3084 30.8139 29.3084 31.2056C29.3084 31.5972 28.9874 31.9176 28.5951 31.9176Z" fill="#694125"/>
<path d="M26.2771 35.3143H15.724C15.3317 35.3143 15.0107 34.9939 15.0107 34.6022C15.0107 34.2106 15.3317 33.8901 15.724 33.8901H26.2771C26.6694 33.8901 26.9904 34.2106 26.9904 34.6022C26.9904 34.9939 26.6694 35.3143 26.2771 35.3143Z" fill="#694125"/>
</g>
<defs>
<clipPath id="clip0_723_11285">
<rect width="28" height="29" fill="white" transform="translate(7 6.31433)"/>
</clipPath>
</defs>
</svg>
