<svg width="66" height="58" viewBox="0 0 66 58" fill="none" xmlns="http://www.w3.org/2000/svg">
<circle cx="33.2523" cy="29.3245" r="28.6409" fill="#F5F5F5"/>
<path d="M25.4485 8.06223C25.4485 7.7485 25.6996 7.49387 26.0091 7.49387H30.6719L31.9477 4.90553C32.043 4.71343 32.237 4.5918 32.4489 4.5918H49.6236C49.8355 4.5918 50.0295 4.71343 50.1248 4.90553L51.4006 7.49387H65.3667C65.6761 7.49387 65.9272 7.7485 65.9272 8.06223V11.6895C65.9272 12.0033 65.6761 12.2579 65.3667 12.2579H26.0091C25.6996 12.2579 25.4485 12.0033 25.4485 11.6895" fill="white"/>
<path d="M26.8801 41.2986C26.8801 41.6123 27.1313 41.867 27.4407 41.867H27.7972C28.6986 41.867 29.4318 41.1235 29.4318 40.2085V23.8384C29.4318 20.3509 26.6335 17.5137 23.1478 17.5137C22.9359 17.5137 22.742 17.6353 22.6467 17.8274L19.4144 24.3807V18.6504H19.5703C19.8797 18.6504 20.1309 18.3958 20.1309 18.082C20.1309 17.7683 19.8797 17.5137 19.5703 17.5137H18.1397C17.8303 17.5137 17.5791 17.7683 17.5791 18.082C17.5791 18.3958 17.8303 18.6504 18.1397 18.6504H18.2944V24.3807L15.0633 17.8274C14.968 17.6353 14.7258 17.5137 14.5139 17.5137C11.0844 17.5137 8.29162 20.3362 8.27705 23.8112H2.83392C1.73632 23.81 0.842773 24.716 0.842773 25.83V27.2805C0.842773 27.5942 1.09391 27.8488 1.40334 27.8488H3.70504V29.4573C3.70504 29.5119 3.71513 29.5641 3.72971 29.6153H3.6602C2.89558 29.6153 2.27447 30.245 2.27447 31.0192V33.6984C2.27447 34.4737 2.8967 35.1034 3.6602 35.1034H3.70504V37.4371C3.70504 37.7509 3.95618 38.0055 4.26561 38.0055H11.8748L11.8524 57.2594C11.8524 57.5732 12.1035 57.8289 12.4118 57.8289C12.4129 57.8289 12.4129 57.8289 12.4129 57.8289C12.5295 57.8289 14.3794 57.8733 16.6419 57.9119L18.6521 41.1417H19.0557L21.0793 57.9653C23.4079 57.9778 25.2937 57.9506 25.2937 57.8289V40.2096" fill="white"/>
<path d="M38.464 25.2693C38.3497 25.2693 38.2364 25.2352 38.1378 25.1636L32.4222 21.0236C32.1699 20.8406 32.1128 20.4848 32.2921 20.2302C32.4726 19.9733 32.8213 19.9176 33.0747 20.0983L38.4035 23.9586L46.7582 15.5161C46.9566 15.3138 47.2706 15.2945 47.4925 15.4661L53.5187 20.104L57.5895 15.1319C57.788 14.8898 58.1411 14.8602 58.3788 15.058C58.6176 15.2592 58.6501 15.6162 58.4517 15.8583L54.0378 21.2487C53.846 21.484 53.5063 21.5215 53.2664 21.3385L47.2022 16.6711L38.8575 25.1033C38.751 25.2124 38.6086 25.2693 38.464 25.2693Z" fill="#FEC445"/>
<path d="M58.0211 19.3041C57.7117 19.3041 57.4605 19.0495 57.4605 18.7358V16.0645H54.8247C54.5153 16.0645 54.2642 15.8098 54.2642 15.4961C54.2642 15.1824 54.5153 14.9277 54.8247 14.9277H58.0211C58.3305 14.9277 58.5817 15.1824 58.5817 15.4961V18.7358C58.5817 19.0495 58.3305 19.3041 58.0211 19.3041Z" fill="#FEC445"/>
<path d="M51.1147 30.0516C50.8176 30.0516 50.571 29.8163 50.5553 29.5117C50.5385 29.1991 50.7761 28.9308 51.0867 28.916L53.7169 28.7796L53.5824 26.1106C53.5655 25.798 53.8032 25.5297 54.1138 25.5149C54.4524 25.4797 54.6867 25.74 54.7013 26.0537L54.8649 29.29C54.8728 29.44 54.8212 29.5878 54.7214 29.6992C54.6216 29.8118 54.4826 29.8777 54.3335 29.8856L51.1428 30.0516C51.1327 30.0516 51.1237 30.0516 51.1147 30.0516Z" fill="#694125"/>
<path d="M32.8773 33.9375C32.7226 33.9375 32.5701 33.8728 32.4591 33.7477C32.2528 33.5136 32.273 33.1555 32.5039 32.9452L37.2452 28.6472C37.4459 28.4676 37.743 28.4551 37.9549 28.6165L41.0112 30.9411L48.0654 23.6479C48.2739 23.4342 48.6114 23.4205 48.8356 23.6194L54.0074 28.2084C54.2406 28.4153 54.2641 28.7734 54.0601 29.0098C53.8549 29.2474 53.5018 29.2701 53.2697 29.0632L48.4959 24.8278L41.4675 32.0938C41.269 32.2972 40.954 32.3188 40.7309 32.1506L37.65 29.8067L33.2506 33.7955C33.1452 33.8898 33.0107 33.9375 32.8773 33.9375Z" fill="#694125"/>
<path d="M65.3667 12.2618H26.0091C25.6996 12.2618 25.4485 12.0072 25.4485 11.6934C25.4485 11.3797 25.6996 11.1251 26.0091 11.1251H64.805V8.6345H51.0542C50.8423 8.6345 50.6483 8.51287 50.553 8.32077L49.2772 5.73243H32.7953L31.5195 8.32077C31.4242 8.51287 31.2302 8.6345 31.0183 8.6345H26.0091C25.6996 8.6345 25.4485 8.37988 25.4485 8.06614C25.4485 7.7524 25.6996 7.49777 26.0091 7.49777H30.6719L31.9477 4.90944C32.043 4.71733 32.237 4.5957 32.4489 4.5957H49.6236C49.8355 4.5957 50.0295 4.71733 50.1248 4.90944L51.4006 7.49777H65.3667C65.6761 7.49777 65.9272 7.7524 65.9272 8.06614V11.6934C65.9272 12.0083 65.6761 12.2618 65.3667 12.2618Z" fill="#694125"/>
<path d="M63.2194 38.3837H28.8711V37.247H62.6589V14.5977H63.78V37.8154C63.78 38.1291 63.5289 38.3837 63.2194 38.3837Z" fill="#694125"/>
<path d="M41.5972 37.8125H40.4761V41.4398H41.5972V37.8125Z" fill="#694125"/>
<path d="M41.0366 47.812C39.1486 47.812 37.6138 46.2558 37.6138 44.3415C37.6138 42.4273 39.1486 40.8711 41.0366 40.8711C42.9246 40.8711 44.4606 42.4273 44.4606 44.3415C44.4594 46.2558 42.9235 47.812 41.0366 47.812ZM41.0366 42.0078C39.7675 42.0078 38.7349 43.0548 38.7349 44.3415C38.7349 45.6283 39.7675 46.6752 41.0366 46.6752C42.3069 46.6752 43.3394 45.6283 43.3394 44.3415C43.3383 43.0548 42.3057 42.0078 41.0366 42.0078Z" fill="#694125"/>
<path d="M4.26565 30.0284C3.95621 30.0284 3.70508 29.7738 3.70508 29.46V27.2832C3.70508 26.9695 3.95621 26.7148 4.26565 26.7148C4.57508 26.7148 4.82622 26.9695 4.82622 27.2832V29.46C4.82622 29.7738 4.57508 30.0284 4.26565 30.0284Z" fill="#694125"/>
<path d="M14.2842 38.0099H4.26565C3.95621 38.0099 3.70508 37.7553 3.70508 37.4416V34.5395C3.70508 34.2258 3.95621 33.9711 4.26565 33.9711C4.57508 33.9711 4.82622 34.2258 4.82622 34.5395V36.8732H13.7247V25.8333C13.7247 25.3468 13.3334 24.9512 12.8536 24.9512H11.4219C11.1124 24.9512 10.8613 24.6966 10.8613 24.3828C10.8613 24.0691 11.1124 23.8145 11.4219 23.8145H12.8525C13.9512 23.8145 14.8447 24.7204 14.8447 25.8333V37.4416C14.8447 37.7553 14.5947 38.0099 14.2842 38.0099Z" fill="#694125"/>
<path d="M11.4218 27.8521H1.40334C1.09391 27.8521 0.842773 27.5975 0.842773 27.2838V25.8333C0.842773 24.7193 1.73632 23.8145 2.83392 23.8145H12.8524C13.1619 23.8145 13.413 24.0691 13.413 24.3828C13.413 24.6966 13.1619 24.9512 12.8524 24.9512C12.3726 24.9512 11.9824 25.3479 11.9824 25.8333V27.2838C11.9824 27.5975 11.7313 27.8521 11.4218 27.8521ZM1.96391 26.7154H10.8613V25.8333C10.8613 25.5173 10.933 25.2172 11.062 24.9512H2.83392C2.35407 24.9512 1.96391 25.3479 1.96391 25.8333V26.7154Z" fill="#694125"/>
<path d="M4.87234 35.1084H3.66039C2.89577 35.1084 2.27466 34.4775 2.27466 33.7034V31.023C2.27466 30.2478 2.89689 29.6191 3.66039 29.6191H4.87234C5.63696 29.6191 6.25807 30.2489 6.25807 31.023V33.7023C6.25807 34.4775 5.63583 35.1084 4.87234 35.1084ZM3.66039 30.7559C3.51464 30.7559 3.3958 30.8752 3.3958 31.023V33.7023C3.3958 33.85 3.51464 33.9705 3.66039 33.9705H4.87234C5.01809 33.9705 5.13693 33.85 5.13693 33.7023V31.023C5.13693 30.8752 5.01809 30.7559 4.87234 30.7559H3.66039Z" fill="#694125"/>
<path d="M18.8529 15.7535C15.9492 15.7535 13.9995 13.4846 13.9995 10.1063C13.9995 6.7279 15.9503 4.45898 18.8529 4.45898C21.7567 4.45898 23.7075 6.7279 23.7075 10.1063C23.7075 13.4846 21.7567 15.7535 18.8529 15.7535ZM18.8529 5.59571C16.0983 5.59571 15.1207 8.02604 15.1207 10.1063C15.1207 12.1865 16.0983 14.6168 18.8529 14.6168C21.6087 14.6168 22.5863 12.1865 22.5863 10.1063C22.5874 8.02604 21.6087 5.59571 18.8529 5.59571Z" fill="#694125"/>
<path d="M25.2937 57.8337C24.9843 57.8337 24.7332 57.579 24.7332 57.2653V26.793C24.7332 26.4792 24.9843 26.2246 25.2937 26.2246C25.6032 26.2246 25.8543 26.4792 25.8543 26.793V57.2653C25.8543 57.579 25.6032 57.8337 25.2937 57.8337Z" fill="#694125"/>
<path d="M16.707 57.8337C16.6902 57.8337 16.6745 57.8326 16.6577 57.8314C16.3494 57.8053 16.1195 57.5279 16.1476 57.2165L17.5793 40.5293C17.6039 40.2348 17.8461 40.0098 18.1376 40.0098H19.5682C19.8597 40.0098 20.1018 40.2348 20.1265 40.5293L21.5571 57.2165C21.584 57.5279 21.3553 57.8053 21.047 57.8314C20.7409 57.8519 20.4662 57.6268 20.4404 57.3142L19.0547 41.1465H18.6511L17.2642 57.3142C17.2396 57.6109 16.994 57.8337 16.707 57.8337Z" fill="#694125"/>
<path d="M12.4131 57.8349C12.1037 57.8349 11.8525 57.5791 11.8525 57.2654L11.875 37.4715C11.875 37.1589 12.1261 36.9043 12.4355 36.9043C12.4355 36.9043 12.4355 36.9043 12.4367 36.9043C12.745 36.9043 12.9961 37.1601 12.9961 37.4738L12.9737 57.2677C12.9737 57.5803 12.7237 57.8349 12.4131 57.8349Z" fill="#694125"/>
<path d="M27.7973 41.8728H27.4408C27.1314 41.8728 26.8802 41.6182 26.8802 41.3045C26.8802 40.9907 27.1314 40.7361 27.4408 40.7361H27.7973C28.081 40.7361 28.3108 40.5019 28.3108 40.2143V23.8443C28.3108 21.0832 26.1739 18.82 23.4899 18.6642L19.3551 27.0476C19.2598 27.2397 19.0659 27.3613 18.854 27.3613C18.6421 27.3613 18.4481 27.2397 18.3528 27.0476L14.2203 18.6665C11.5116 18.8415 9.39604 21.098 9.39604 23.8443C9.39604 24.158 9.14491 24.4127 8.83547 24.4127C8.52604 24.4127 8.2749 24.158 8.2749 23.8443C8.2749 20.3568 11.0733 17.5195 14.5118 17.5195C14.7237 17.5195 14.9659 17.6412 15.0612 17.8333L18.8529 25.5232L22.6457 17.8333C22.741 17.6412 22.9349 17.5195 23.1468 17.5195C26.6324 17.5195 29.4308 20.3568 29.4308 23.8443V40.2143C29.4319 41.1294 28.6987 41.8728 27.7973 41.8728Z" fill="#694125"/>
<path d="M19.5693 18.6563H18.1387C17.8293 18.6563 17.5781 18.4016 17.5781 18.0879C17.5781 17.7742 17.8293 17.5195 18.1387 17.5195H19.5693C19.8787 17.5195 20.1298 17.7742 20.1298 18.0879C20.1298 18.4028 19.8787 18.6563 19.5693 18.6563Z" fill="#694125"/>
<path d="M18.8528 26.6372C18.5434 26.6372 18.2922 26.3826 18.2922 26.0689V18.0879C18.2922 17.7742 18.5434 17.5195 18.8528 17.5195C19.1622 17.5195 19.4134 17.7742 19.4134 18.0879V26.0689C19.4134 26.3826 19.1634 26.6372 18.8528 26.6372Z" fill="#694125"/>
<path d="M18.8529 5.58984C16.0982 5.58984 15.1206 8.02017 15.1206 10.1004C15.1206 12.1806 16.0982 14.6109 18.8529 14.6109C21.6086 14.6109 22.5863 12.1806 22.5863 10.1004C22.5874 8.02017 21.6086 5.58984 18.8529 5.58984Z" fill="white"/>
<path d="M18.8529 15.7496C21.7567 15.7496 23.7075 13.4807 23.7075 10.1024C23.7075 6.72399 21.7567 4.45508 18.8529 4.45508C15.9492 4.45508 13.9995 6.72399 13.9995 10.1024C13.9995 13.4807 15.9503 15.7496 18.8529 15.7496ZM18.8529 5.59181C21.6087 5.59181 22.5863 8.02214 22.5863 10.1024C22.5863 12.1826 21.6087 14.6129 18.8529 14.6129C16.0983 14.6129 15.1207 12.1826 15.1207 10.1024C15.1207 8.02214 16.0983 5.59181 18.8529 5.59181Z" fill="#694125"/>
<path d="M41.0368 42.0078C39.7677 42.0078 38.7351 43.0547 38.7351 44.3415C38.7351 45.6283 39.7677 46.6752 41.0368 46.6752C42.307 46.6752 43.3396 45.6283 43.3396 44.3415C43.3385 43.0547 42.3059 42.0078 41.0368 42.0078Z" fill="white"/>
</svg>
