<svg width="251" height="175" viewBox="0 0 251 175" fill="none" xmlns="http://www.w3.org/2000/svg">
<g clip-path="url(#clip0_725_18686)">
<path d="M150.018 128.315H121.089C116.221 128.315 112.274 124.402 112.274 119.575V102.303H150.018V128.315Z" fill="#FEC344"/>
<path d="M125.497 125.676C121.788 125.676 118.882 123.605 118.882 120.966C118.882 120.3 119.423 119.764 120.095 119.764C120.767 119.764 121.307 120.3 121.307 120.966C121.307 122.057 123.033 123.272 125.503 123.272C127.954 123.272 129.792 122.05 129.792 120.966C129.792 119.875 127.954 118.66 125.503 118.66C124.838 118.66 124.291 118.125 124.291 117.458C124.291 116.792 124.831 116.256 125.503 116.256C129.265 116.256 132.21 118.327 132.21 120.966C132.21 123.605 129.259 125.676 125.497 125.676Z" fill="#694024"/>
<path d="M125.497 128.726C124.831 128.726 124.285 128.191 124.285 127.524V124.474C124.285 123.808 124.825 123.272 125.497 123.272C126.162 123.272 126.709 123.808 126.709 124.474V127.524C126.709 128.191 126.169 128.726 125.497 128.726Z" fill="#694024"/>
<path d="M125.497 118.654C121.788 118.654 118.882 116.583 118.882 113.944C118.882 111.305 121.788 109.234 125.497 109.234C129.259 109.234 132.203 111.305 132.203 113.944C132.203 114.61 131.663 115.146 130.991 115.146C130.319 115.146 129.779 114.61 129.779 113.944C129.779 112.853 127.941 111.638 125.49 111.638C123.02 111.638 121.294 112.853 121.294 113.944C121.294 115.035 123.02 116.25 125.49 116.25C126.156 116.25 126.702 116.785 126.702 117.452C126.702 118.118 126.169 118.654 125.497 118.654Z" fill="#694024"/>
<path d="M125.497 111.638C124.831 111.638 124.285 111.102 124.285 110.436V107.386C124.285 106.719 124.825 106.184 125.497 106.184C126.162 106.184 126.709 106.719 126.709 107.386V110.436C126.709 111.096 126.169 111.638 125.497 111.638Z" fill="#694024"/>
<path d="M150.933 139.165H100.067C97.9586 139.165 96.2457 137.466 96.2457 135.376V132.698C96.2457 132.032 96.7859 131.496 97.4579 131.496H153.549C154.214 131.496 154.761 132.032 154.761 132.698V135.376C154.754 137.532 153.114 139.165 150.933 139.165ZM98.6635 133.9V135.376C98.6635 136.14 99.2893 136.761 100.06 136.761H150.927C151.75 136.761 152.323 136.193 152.323 135.376V133.9H98.6635Z" fill="#694024"/>
<path d="M151.118 133.9C150.452 133.9 149.906 133.364 149.906 132.698V104.982C149.906 104.113 149.194 103.414 148.324 103.414H102.669C101.793 103.414 101.088 104.119 101.088 104.982V127.982C101.088 128.648 100.548 129.184 99.8757 129.184C99.2103 129.184 98.6635 128.648 98.6635 127.982V104.982C98.6635 102.793 100.455 101.01 102.669 101.01H148.324C150.531 101.01 152.33 102.793 152.33 104.982V132.691C152.33 133.358 151.79 133.9 151.118 133.9Z" fill="#694024"/>
<path d="M126.34 81.4264C125.727 81.4264 125.207 80.9692 125.134 80.3551C125.062 79.6954 125.543 79.1009 126.208 79.0291C131.472 78.4608 132.862 71.2231 132.862 67.4736C132.862 63.6653 129.838 61.0066 125.503 61.0066C121.168 61.0066 118.144 63.6653 118.144 67.4736C118.144 70.9879 119.258 75.5017 121.735 77.6573C122.236 78.095 122.288 78.8527 121.854 79.3492C121.412 79.8456 120.648 79.8979 120.147 79.4602C116.886 76.6318 115.727 71.2361 115.727 67.4736C115.72 62.3392 119.831 58.6093 125.497 58.6093C131.162 58.6093 135.28 62.3392 135.28 67.4801C135.28 72.3009 133.422 80.6687 126.472 81.4199C126.426 81.4264 126.38 81.4264 126.34 81.4264Z" fill="#694024"/>
<path d="M105.93 98.8871C105.265 98.8871 104.718 98.3515 104.718 97.6852V97.2214C104.718 92.2634 109.185 89.9837 113.124 87.9652C116.866 86.0643 120.095 84.4117 120.095 81.0606V78.8397C120.095 78.1734 120.635 77.6377 121.307 77.6377C121.972 77.6377 122.519 78.1734 122.519 78.8397V81.0606C122.519 85.8814 118.125 88.1285 114.238 90.1078C110.588 91.9695 107.142 93.7332 107.142 97.2279V97.6917C107.142 98.3515 106.602 98.8871 105.93 98.8871Z" fill="#694024"/>
<path d="M145.07 98.8871C144.405 98.8871 143.858 98.3515 143.858 97.6852V97.2214C143.858 93.7266 140.412 91.9695 136.762 90.1012C132.882 88.1154 128.481 85.8749 128.481 81.0541V78.8331C128.481 78.1668 129.021 77.6312 129.693 77.6312C130.365 77.6312 130.906 78.1668 130.906 78.8331V81.0541C130.906 84.4117 134.134 86.0578 137.876 87.9652C141.815 89.9771 146.282 92.2569 146.282 97.2214V97.6852C146.276 98.3515 145.735 98.8871 145.07 98.8871Z" fill="#694024"/>
<path d="M125.497 92.1458C125.312 92.1458 125.121 92.1001 124.943 92.0152L116.932 87.9521C116.339 87.6516 116.102 86.9266 116.405 86.3387C116.708 85.7442 117.44 85.5156 118.039 85.8161L126.05 89.8791C126.643 90.1796 126.88 90.9047 126.577 91.4926C126.366 91.9041 125.938 92.1458 125.497 92.1458Z" fill="#694024"/>
<path d="M125.497 92.1458C125.055 92.1458 124.634 91.9041 124.416 91.4926C124.113 90.9047 124.35 90.1796 124.943 89.8791L132.954 85.8161C133.547 85.5156 134.279 85.7442 134.588 86.3387C134.891 86.9266 134.654 87.6516 134.061 87.9521L126.05 92.0152C125.872 92.1001 125.688 92.1458 125.497 92.1458Z" fill="#694024"/>
<path d="M125.497 98.8871C124.831 98.8871 124.285 98.3515 124.285 97.6852V90.9439C124.285 90.2776 124.825 89.742 125.497 89.742C126.162 89.742 126.709 90.2776 126.709 90.9439V97.6852C126.709 98.3515 126.169 98.8871 125.497 98.8871Z" fill="#694024"/>
<path d="M98.6635 133.9V135.376C98.6635 136.14 99.2894 136.761 100.06 136.761H150.927C151.75 136.761 152.323 136.193 152.323 135.376V133.9H98.6635Z" fill="#F58051"/>
</g>
<circle cx="125.5" cy="100.338" r="72.5" stroke="#FF814E" stroke-width="4" stroke-linecap="round" stroke-dasharray="2 15"/>
<path d="M247.888 123.11L239.806 125.276C239.021 125.486 238.217 125.022 238.007 124.237C237.797 123.455 238.261 122.648 239.046 122.438L247.127 120.272C247.909 120.063 248.717 120.529 248.927 121.311C249.137 122.096 248.67 122.901 247.888 123.11Z" fill="#693F23"/>
<path d="M244.93 128.234C244.148 128.443 243.341 127.98 243.13 127.195L240.965 119.113C240.755 118.331 241.219 117.525 242.004 117.314C242.786 117.105 243.593 117.568 243.803 118.353L245.969 126.434C246.175 127.217 245.712 128.024 244.93 128.234Z" fill="#693F23"/>
<path d="M31.7585 149.947L24.7255 151.832C24.0422 152.015 23.3428 151.611 23.1597 150.928C22.9773 150.247 23.3804 149.545 24.0637 149.362L31.0967 147.478C31.7774 147.295 32.4801 147.701 32.6625 148.382C32.8456 149.065 32.4392 149.765 31.7585 149.947Z" fill="#693F23"/>
<path d="M29.1844 154.406C28.5037 154.588 27.8016 154.185 27.6185 153.502L25.7341 146.469C25.5517 145.788 25.9547 145.086 26.6381 144.903C27.3188 144.721 28.0208 145.124 28.2039 145.807L30.0884 152.84C30.2681 153.522 29.8651 154.224 29.1844 154.406Z" fill="#693F23"/>
<g clip-path="url(#clip1_725_18686)">
<path d="M183.735 19.5142C183.485 19.3673 183.401 19.0439 183.549 18.7921L184.963 16.3763C185.111 16.1245 185.434 16.0393 185.685 16.1862C185.935 16.3331 186.019 16.6564 185.872 16.9083L184.457 19.324C184.31 19.5743 183.986 19.661 183.735 19.5142Z" fill="#694024" stroke="#694125" stroke-width="1.5" stroke-miterlimit="10"/>
<path d="M190.432 8.08055C190.181 7.93369 190.097 7.61034 190.245 7.35848L191.66 4.94275C191.807 4.69089 192.13 4.60573 192.381 4.7526C192.632 4.89946 192.715 5.22281 192.568 5.47467L191.153 7.8904C191.006 8.14226 190.683 8.22742 190.432 8.08055Z" fill="#694024" stroke="#694125" stroke-width="1.5" stroke-miterlimit="10"/>
<path d="M193.004 12.4149C192.847 12.3227 192.742 12.1518 192.744 11.9551C192.746 11.6636 192.985 11.4279 193.276 11.4292L196.065 11.4417C196.356 11.443 196.59 11.6812 196.588 11.9727C196.586 12.2642 196.347 12.4998 196.056 12.4986L193.267 12.486C193.171 12.4854 193.081 12.4597 193.004 12.4149Z" fill="#694024" stroke="#694125" stroke-width="1.5" stroke-miterlimit="10"/>
<path d="M179.799 12.3578C179.642 12.2655 179.536 12.0946 179.539 11.8979C179.541 11.6064 179.78 11.3708 180.071 11.372L182.86 11.3846C183.151 11.3858 183.385 11.624 183.383 11.9155C183.38 12.207 183.142 12.4427 182.851 12.4414L180.061 12.4289C179.965 12.4282 179.876 12.4025 179.799 12.3578Z" fill="#694024" stroke="#694125" stroke-width="1.5" stroke-miterlimit="10"/>
<path d="M185.055 7.95531C184.979 7.91053 184.911 7.844 184.865 7.76135L183.489 5.33458C183.346 5.08149 183.435 4.75811 183.688 4.61346C183.941 4.46882 184.263 4.55655 184.407 4.80964L185.782 7.2364C185.926 7.48949 185.837 7.81288 185.584 7.95752C185.413 8.0557 185.213 8.04755 185.055 7.95531Z" fill="#694024" stroke="#694125" stroke-width="1.5" stroke-miterlimit="10"/>
<path d="M191.565 19.4446C191.489 19.3999 191.422 19.3342 191.375 19.2507L189.999 16.8239C189.856 16.5708 189.945 16.2474 190.198 16.1028C190.451 15.9581 190.773 16.0459 190.916 16.299L192.292 18.7257C192.435 18.9788 192.347 19.3022 192.094 19.4468C191.923 19.545 191.723 19.5369 191.565 19.4446Z" fill="#694024" stroke="#694125" stroke-width="1.5" stroke-miterlimit="10"/>
</g>
<g clip-path="url(#clip2_725_18686)">
<path d="M6.95888 72.547C6.70812 72.4001 6.62439 72.0768 6.7719 71.8249L8.18672 69.4092C8.33423 69.1573 8.65722 69.0722 8.90797 69.219C9.15873 69.3659 9.24246 69.6892 9.09495 69.9411L7.68013 72.3568C7.53352 72.6072 7.20963 72.6939 6.95888 72.547Z" fill="#694024" stroke="#694125" stroke-width="1.5" stroke-miterlimit="10"/>
<path d="M13.6552 61.1134C13.4045 60.9665 13.3207 60.6432 13.4683 60.3913L14.8831 57.9756C15.0306 57.7237 15.3536 57.6386 15.6043 57.7854C15.8551 57.9323 15.9388 58.2556 15.7913 58.5075L14.3765 60.9232C14.229 61.1751 13.906 61.2603 13.6552 61.1134Z" fill="#694024" stroke="#694125" stroke-width="1.5" stroke-miterlimit="10"/>
<path d="M16.2278 65.4478C16.0703 65.3555 15.9651 65.1846 15.9673 64.9879C15.9697 64.6964 16.2083 64.4608 16.4992 64.462L19.2886 64.4746C19.5795 64.4758 19.8137 64.714 19.8114 65.0056C19.809 65.2971 19.5704 65.5327 19.2795 65.5315L16.4901 65.5189C16.3939 65.5183 16.3042 65.4926 16.2278 65.4478Z" fill="#694024" stroke="#694125" stroke-width="1.5" stroke-miterlimit="10"/>
<path d="M3.02256 65.3906C2.86507 65.2984 2.75984 65.1274 2.76209 64.9307C2.76443 64.6392 3.00305 64.4036 3.29393 64.4048L6.0834 64.4174C6.37427 64.4186 6.60848 64.6569 6.60613 64.9484C6.60379 65.2399 6.36517 65.4755 6.0743 65.4743L3.28483 65.4617C3.18868 65.4611 3.09901 65.4354 3.02256 65.3906Z" fill="#694024" stroke="#694125" stroke-width="1.5" stroke-miterlimit="10"/>
<path d="M8.27867 60.9881C8.20222 60.9434 8.1344 60.8768 8.08835 60.7942L6.71281 58.3674C6.56944 58.1143 6.65822 57.7909 6.91132 57.6463C7.16442 57.5017 7.48677 57.5894 7.63014 57.8425L9.00568 60.2692C9.14905 60.5223 9.06027 60.8457 8.80717 60.9904C8.63673 61.0885 8.43616 61.0804 8.27867 60.9881Z" fill="#694024" stroke="#694125" stroke-width="1.5" stroke-miterlimit="10"/>
<path d="M14.7884 72.4775C14.712 72.4327 14.6457 72.3671 14.5981 72.2835L13.2226 69.8567C13.0792 69.6036 13.168 69.2803 13.4211 69.1356C13.6742 68.991 13.9965 69.0787 14.1399 69.3318L15.5154 71.7586C15.6588 72.0116 15.57 72.335 15.3169 72.4797C15.1465 72.5779 14.9459 72.5697 14.7884 72.4775Z" fill="#694024" stroke="#694125" stroke-width="1.5" stroke-miterlimit="10"/>
</g>
<path d="M76.5323 11.4393C76.8936 12.788 76.0919 14.1718 74.7466 14.5323C73.3979 14.8937 72.0141 14.092 71.6536 12.7466C71.2931 11.4012 72.0907 10.015 73.4393 9.65363C74.7847 9.29314 76.1718 10.094 76.5323 11.4393Z" fill="#693F23"/>
<path d="M220.029 160.409C220.27 161.308 219.736 162.23 218.839 162.471C217.94 162.712 217.017 162.177 216.777 161.28C216.536 160.383 217.068 159.459 217.967 159.218C218.864 158.978 219.789 159.512 220.029 160.409Z" fill="#693F23"/>
<defs>
<clipPath id="clip0_725_18686">
<rect width="58.5088" height="80.5556" fill="white" transform="translate(96.2457 58.6093)"/>
</clipPath>
<clipPath id="clip1_725_18686">
<rect width="15.524" height="17.6409" fill="white" transform="translate(185.692 0.525635) rotate(30.3564)"/>
</clipPath>
<clipPath id="clip2_725_18686">
<rect width="15.524" height="17.6409" fill="white" transform="translate(8.91529 53.5585) rotate(30.3564)"/>
</clipPath>
</defs>
</svg>
