<svg width="251" height="171" viewBox="0 0 251 171" fill="none" xmlns="http://www.w3.org/2000/svg">
<g clip-path="url(#clip0_725_18689)">
<path d="M142.517 69.7612C143.287 61.96 137.596 55.0115 129.807 54.2413C122.018 53.4711 115.08 59.1709 114.31 66.9721C113.54 74.7733 119.231 81.7218 127.02 82.492C134.809 83.2621 141.747 77.5624 142.517 69.7612Z" fill="#FEC344"/>
<path d="M151.43 109.029C150.771 109.029 150.201 108.532 150.126 107.859C150.045 107.138 150.568 106.485 151.288 106.41C155.697 105.921 157.293 99.9088 157.293 95.9847C157.293 92.5842 154.528 90.1223 150.724 90.1223C146.919 90.1223 144.154 92.591 144.154 95.9847C144.154 98.9362 145.017 103.126 147.436 105.2C147.986 105.676 148.047 106.506 147.572 107.057C147.103 107.607 146.274 107.669 145.717 107.199C142.626 104.547 141.525 99.6639 141.525 95.9847C141.525 91.0608 145.391 87.4904 150.717 87.4904C156.043 87.4904 159.909 91.0608 159.909 95.9847C159.909 100.174 158.163 108.287 151.573 109.022C151.526 109.022 151.478 109.029 151.43 109.029Z" fill="#694024"/>
<path d="M132.741 134.92C132.014 134.92 131.43 134.328 131.43 133.607V123.494C131.43 118.775 135.574 116.625 139.229 114.735C143.115 112.722 145.472 111.3 145.472 108.532V106.513C145.472 105.785 146.063 105.2 146.784 105.2C147.511 105.2 148.095 105.792 148.095 106.513V108.532C148.095 113.103 144.025 115.211 140.432 117.074C136.457 119.135 134.046 120.59 134.046 123.501V133.614C134.059 134.328 133.468 134.92 132.741 134.92Z" fill="#694024"/>
<path d="M168.706 134.92C167.98 134.92 167.395 134.328 167.395 133.607V123.494C167.395 120.59 164.963 119.128 160.969 117.067C157.354 115.204 153.258 113.096 153.258 108.526V106.506C153.258 105.778 153.849 105.193 154.569 105.193C155.296 105.193 155.88 105.785 155.88 106.506V108.526C155.88 111.294 158.258 112.715 162.171 114.728C165.853 116.625 170.024 118.768 170.024 123.494V133.607C170.018 134.328 169.427 134.92 168.706 134.92Z" fill="#694024"/>
<path d="M139.718 134.92C138.991 134.92 138.407 134.328 138.407 133.607V125.317C138.407 124.589 138.998 124.004 139.718 124.004C140.445 124.004 141.029 124.596 141.029 125.317V133.607C141.029 134.328 140.438 134.92 139.718 134.92Z" fill="#694024"/>
<path d="M161.634 134.92C160.907 134.92 160.323 134.328 160.323 133.607V125.317C160.323 124.589 160.914 124.004 161.634 124.004C162.361 124.004 162.945 124.596 162.945 125.317V133.607C162.945 134.328 162.361 134.92 161.634 134.92Z" fill="#694024"/>
<path d="M150.724 119.04C150.52 119.04 150.323 118.992 150.126 118.897L142.748 115.156C142.103 114.83 141.845 114.041 142.171 113.388C142.504 112.735 143.292 112.484 143.937 112.81L151.315 116.551C151.96 116.877 152.218 117.666 151.892 118.319C151.668 118.775 151.206 119.04 150.724 119.04Z" fill="#694024"/>
<path d="M150.724 119.04C150.248 119.04 149.786 118.781 149.555 118.326C149.223 117.68 149.481 116.884 150.126 116.557L157.402 112.817C158.041 112.477 158.835 112.742 159.168 113.381C159.501 114.028 159.243 114.823 158.598 115.15L151.322 118.89C151.131 118.992 150.928 119.04 150.724 119.04Z" fill="#694024"/>
<path d="M150.724 134.92C150.391 134.92 150.065 134.797 149.807 134.546L146.471 131.309C146.138 130.982 145.996 130.499 146.111 130.044L146.919 126.806C147.096 126.106 147.816 125.657 148.509 125.847C149.216 126.024 149.644 126.738 149.467 127.439L148.842 129.942L150.703 131.751L152.49 129.962L149.447 118.047C149.27 117.346 149.691 116.625 150.398 116.449C151.104 116.272 151.818 116.693 151.994 117.394L155.221 130.037C155.337 130.486 155.201 130.962 154.875 131.288L151.648 134.525C151.396 134.791 151.064 134.92 150.724 134.92Z" fill="#694024"/>
<path d="M125.873 74.9495C121.851 74.9495 118.699 72.6848 118.699 69.7944C118.699 69.0667 119.29 68.4819 120.01 68.4819C120.73 68.4819 121.321 69.0735 121.321 69.7944C121.321 70.9914 123.19 72.3244 125.873 72.3244C128.529 72.3244 130.52 70.9914 130.52 69.7944C130.52 68.3935 128.346 67.1625 125.873 67.1625C125.146 67.1625 124.562 66.5708 124.562 65.8499C124.562 65.1222 125.153 64.5374 125.873 64.5374C129.949 64.5374 133.149 66.8497 133.149 69.7944C133.149 72.6848 129.956 74.9495 125.873 74.9495Z" fill="#694024"/>
<path d="M125.873 78.1868C125.146 78.1868 124.562 77.5952 124.562 76.8743V73.637C124.562 72.9093 125.153 72.3245 125.873 72.3245C126.6 72.3245 127.184 72.9161 127.184 73.637V76.8743C127.184 77.5952 126.6 78.1868 125.873 78.1868Z" fill="#694024"/>
<path d="M125.873 67.1626C121.851 67.1626 118.699 64.8979 118.699 62.0075C118.699 59.1171 121.851 56.8524 125.873 56.8524C129.949 56.8524 133.149 59.1171 133.149 62.0075C133.149 62.7352 132.558 63.3201 131.838 63.3201C131.111 63.3201 130.527 62.7284 130.527 62.0075C130.527 60.8173 128.536 59.4776 125.88 59.4776C123.203 59.4776 121.328 60.8105 121.328 62.0075C121.328 63.2044 123.196 64.5374 125.88 64.5374C126.607 64.5374 127.191 65.1291 127.191 65.85C127.184 66.5709 126.6 67.1626 125.873 67.1626Z" fill="#694024"/>
<path d="M125.873 59.4775C125.146 59.4775 124.562 58.8858 124.562 58.1649V54.9277C124.562 54.2 125.153 53.6151 125.873 53.6151C126.6 53.6151 127.184 54.2068 127.184 54.9277V58.1649C127.184 58.8858 126.6 59.4775 125.873 59.4775Z" fill="#694024"/>
<path d="M125.873 85.0625C115.343 85.0625 106.783 76.4458 106.783 65.85C106.783 55.3086 115.343 46.7327 125.873 46.7327C136.457 46.7327 145.065 55.3086 145.065 65.85C145.065 76.439 136.457 85.0625 125.873 85.0625ZM125.873 49.3646C116.79 49.3646 109.405 56.7572 109.405 65.85C109.405 74.9972 116.797 82.4305 125.873 82.4305C135.01 82.4305 142.443 74.9904 142.443 65.85C142.443 56.7572 135.01 49.3646 125.873 49.3646Z" fill="#694024"/>
<path d="M101.831 109.029C101.172 109.029 100.601 108.532 100.526 107.859C100.445 107.138 100.968 106.485 101.688 106.41C106.097 105.921 107.694 99.9088 107.694 95.9847C107.694 92.5842 104.929 90.1223 101.124 90.1223C97.3197 90.1223 94.5548 92.591 94.5548 95.9847C94.5548 99.1607 95.5398 103.248 97.7545 105.213C98.298 105.696 98.3456 106.526 97.8632 107.07C97.3741 107.607 96.5521 107.662 96.0086 107.179C92.999 104.499 91.9324 99.6367 91.9324 95.9847C91.9324 91.0608 95.798 87.4904 101.124 87.4904C106.45 87.4904 110.316 91.0608 110.316 95.9847C110.316 100.174 108.57 108.287 101.98 109.022C101.933 109.022 101.878 109.029 101.831 109.029Z" fill="#694024"/>
<path d="M83.1416 134.92C82.4147 134.92 81.8304 134.328 81.8304 133.607V123.494C81.8304 118.775 85.9745 116.625 89.6294 114.735C93.5153 112.722 95.8727 111.3 95.8727 108.532V106.513C95.8727 105.785 96.4637 105.2 97.1839 105.2C97.904 105.2 98.495 105.792 98.495 106.513V108.532C98.495 113.103 94.4257 115.211 90.8319 117.074C86.8645 119.135 84.4527 120.59 84.4527 123.501V133.614C84.4527 134.328 83.8685 134.92 83.1416 134.92Z" fill="#694024"/>
<path d="M119.005 134.92C118.278 134.92 117.694 134.328 117.694 133.607V123.494C117.694 120.584 115.282 119.128 111.308 117.067C107.714 115.204 103.645 113.096 103.645 108.526V106.506C103.645 105.778 104.236 105.193 104.956 105.193C105.676 105.193 106.267 105.785 106.267 106.506V108.526C106.267 111.294 108.624 112.715 112.51 114.728C116.165 116.625 120.309 118.768 120.309 123.488V133.6C120.316 134.328 119.725 134.92 119.005 134.92Z" fill="#694024"/>
<path d="M90.1118 134.92C89.3849 134.92 88.8006 134.328 88.8006 133.607V125.317C88.8006 124.589 89.3917 124.004 90.1118 124.004C90.8319 124.004 91.4229 124.596 91.4229 125.317V133.607C91.4229 134.328 90.8387 134.92 90.1118 134.92Z" fill="#694024"/>
<path d="M112.035 134.92C111.308 134.92 110.723 134.328 110.723 133.607V125.317C110.723 124.589 111.314 124.004 112.035 124.004C112.761 124.004 113.346 124.596 113.346 125.317V133.607C113.346 134.328 112.755 134.92 112.035 134.92Z" fill="#694024"/>
<path d="M101.124 119.04C100.92 119.04 100.723 118.992 100.526 118.897L93.1485 115.156C92.5031 114.83 92.2449 114.041 92.571 113.388C92.9039 112.735 93.692 112.484 94.3374 112.81L101.715 116.551C102.361 116.877 102.619 117.666 102.293 118.319C102.062 118.775 101.6 119.04 101.124 119.04Z" fill="#694024"/>
<path d="M101.124 119.04C100.649 119.04 100.187 118.781 99.9556 118.326C99.6228 117.68 99.8809 116.884 100.526 116.557L107.802 112.817C108.448 112.477 109.242 112.742 109.569 113.381C109.901 114.028 109.643 114.823 108.998 115.15L101.722 118.89C101.532 118.992 101.321 119.04 101.124 119.04Z" fill="#694024"/>
<path d="M101.124 134.92C100.791 134.92 100.465 134.797 100.207 134.546L96.8781 131.309C96.5453 130.982 96.4026 130.499 96.5181 130.044L97.3265 126.806C97.5032 126.106 98.2233 125.657 98.9162 125.847C99.6227 126.024 100.051 126.738 99.8741 127.439L99.2491 129.942L101.111 131.751L102.897 129.962L99.8469 118.047C99.6703 117.346 100.092 116.625 100.791 116.449C101.518 116.272 102.211 116.693 102.395 117.394L105.628 130.037C105.744 130.486 105.608 130.962 105.282 131.295L102.048 134.532C101.797 134.791 101.457 134.92 101.124 134.92Z" fill="#694024"/>
<path d="M110.554 86.4906C110.058 86.4906 109.569 86.2526 109.338 85.8037C109.011 85.1508 109.174 84.4163 109.827 84.0899L110.03 83.9879C110.669 83.6614 111.464 83.9267 111.797 84.5728C112.123 85.2257 111.858 86.0146 111.206 86.3342C111.009 86.4362 110.778 86.4906 110.554 86.4906Z" fill="#694024"/>
<path d="M141.254 86.5518C140.948 86.5518 140.642 86.4362 140.398 86.1914L140.296 86.0894C139.786 85.5725 139.786 84.7428 140.296 84.2259C140.812 83.7159 141.641 83.7159 142.157 84.2259C142.667 84.7428 142.721 85.6201 142.205 86.137C141.94 86.409 141.6 86.5518 141.254 86.5518Z" fill="#694024"/>
</g>
<circle cx="125.5" cy="96.3379" r="72.5" stroke="#FF814E" stroke-width="4" stroke-linecap="round" stroke-dasharray="2 15"/>
<path d="M247.888 125.11L239.806 127.276C239.021 127.486 238.217 127.022 238.007 126.237C237.797 125.455 238.261 124.648 239.046 124.438L247.127 122.272C247.909 122.063 248.717 122.529 248.927 123.311C249.137 124.096 248.67 124.901 247.888 125.11Z" fill="#693F23"/>
<path d="M244.93 130.234C244.148 130.443 243.341 129.98 243.13 129.195L240.965 121.113C240.755 120.331 241.219 119.525 242.004 119.314C242.786 119.105 243.593 119.568 243.803 120.353L245.969 128.434C246.175 129.217 245.712 130.024 244.93 130.234Z" fill="#693F23"/>
<path d="M31.7585 151.947L24.7255 153.832C24.0422 154.015 23.3428 153.611 23.1597 152.928C22.9773 152.247 23.3804 151.545 24.0637 151.362L31.0967 149.477C31.7774 149.295 32.4801 149.701 32.6625 150.381C32.8456 151.065 32.4392 151.765 31.7585 151.947Z" fill="#693F23"/>
<path d="M29.1844 156.406C28.5037 156.588 27.8016 156.185 27.6185 155.502L25.7341 148.469C25.5517 147.788 25.9547 147.086 26.6381 146.903C27.3188 146.721 28.0208 147.124 28.2039 147.807L30.0884 154.84C30.2681 155.522 29.8651 156.224 29.1844 156.406Z" fill="#693F23"/>
<g clip-path="url(#clip1_725_18689)">
<path d="M183.735 21.514C183.485 21.3671 183.401 21.0438 183.549 20.7919L184.963 18.3762C185.111 18.1243 185.434 18.0391 185.685 18.186C185.935 18.3329 186.019 18.6562 185.872 18.9081L184.457 21.3238C184.31 21.5741 183.986 21.6608 183.735 21.514Z" fill="#694024" stroke="#694125" stroke-width="1.5" stroke-miterlimit="10"/>
<path d="M190.432 10.0804C190.181 9.93351 190.097 9.61015 190.245 9.35829L191.66 6.94257C191.807 6.6907 192.13 6.60555 192.381 6.75241C192.632 6.89927 192.715 7.22263 192.568 7.47449L191.153 9.89022C191.006 10.1421 190.683 10.2272 190.432 10.0804Z" fill="#694024" stroke="#694125" stroke-width="1.5" stroke-miterlimit="10"/>
<path d="M193.004 14.4148C192.847 14.3226 192.742 14.1516 192.744 13.955C192.746 13.6634 192.985 13.4278 193.276 13.4291L196.065 13.4416C196.356 13.4429 196.59 13.6811 196.588 13.9726C196.586 14.2641 196.347 14.4997 196.056 14.4985L193.267 14.4859C193.171 14.4853 193.081 14.4596 193.004 14.4148Z" fill="#694024" stroke="#694125" stroke-width="1.5" stroke-miterlimit="10"/>
<path d="M179.799 14.3576C179.642 14.2653 179.536 14.0944 179.539 13.8977C179.541 13.6062 179.78 13.3706 180.071 13.3718L182.86 13.3844C183.151 13.3856 183.385 13.6238 183.383 13.9153C183.38 14.2069 183.142 14.4425 182.851 14.4412L180.061 14.4287C179.965 14.4281 179.876 14.4023 179.799 14.3576Z" fill="#694024" stroke="#694125" stroke-width="1.5" stroke-miterlimit="10"/>
<path d="M185.055 9.95513C184.979 9.91035 184.911 9.84382 184.865 9.76116L183.489 7.3344C183.346 7.08131 183.435 6.75792 183.688 6.61328C183.941 6.46863 184.263 6.55636 184.407 6.80945L185.782 9.23622C185.926 9.48931 185.837 9.81269 185.584 9.95734C185.413 10.0555 185.213 10.0474 185.055 9.95513Z" fill="#694024" stroke="#694125" stroke-width="1.5" stroke-miterlimit="10"/>
<path d="M191.565 21.4444C191.489 21.3996 191.422 21.334 191.375 21.2504L189.999 18.8237C189.856 18.5706 189.945 18.2472 190.198 18.1025C190.451 17.9579 190.773 18.0456 190.916 18.2987L192.292 20.7255C192.435 20.9786 192.347 21.3019 192.094 21.4466C191.923 21.5448 191.723 21.5366 191.565 21.4444Z" fill="#694024" stroke="#694125" stroke-width="1.5" stroke-miterlimit="10"/>
</g>
<g clip-path="url(#clip2_725_18689)">
<path d="M6.95888 74.5469C6.70812 74.4001 6.62439 74.0767 6.7719 73.8248L8.18672 71.4091C8.33423 71.1573 8.65722 71.0721 8.90797 71.219C9.15873 71.3658 9.24246 71.6892 9.09495 71.941L7.68013 74.3568C7.53352 74.6071 7.20963 74.6938 6.95888 74.5469Z" fill="#694024" stroke="#694125" stroke-width="1.5" stroke-miterlimit="10"/>
<path d="M13.6552 63.1133C13.4045 62.9665 13.3207 62.6431 13.4683 62.3913L14.8831 59.9755C15.0306 59.7237 15.3536 59.6385 15.6043 59.7854C15.8551 59.9322 15.9388 60.2556 15.7913 60.5075L14.3765 62.9232C14.229 63.175 13.906 63.2602 13.6552 63.1133Z" fill="#694024" stroke="#694125" stroke-width="1.5" stroke-miterlimit="10"/>
<path d="M16.2278 67.4478C16.0703 67.3555 15.9651 67.1846 15.9673 66.9879C15.9697 66.6964 16.2083 66.4608 16.4992 66.462L19.2886 66.4746C19.5795 66.4758 19.8137 66.714 19.8114 67.0056C19.809 67.2971 19.5704 67.5327 19.2795 67.5315L16.4901 67.5189C16.3939 67.5183 16.3042 67.4926 16.2278 67.4478Z" fill="#694024" stroke="#694125" stroke-width="1.5" stroke-miterlimit="10"/>
<path d="M3.02256 67.3905C2.86507 67.2983 2.75984 67.1273 2.76209 66.9307C2.76443 66.6392 3.00305 66.4035 3.29393 66.4048L6.0834 66.4173C6.37427 66.4186 6.60848 66.6568 6.60613 66.9483C6.60379 67.2398 6.36517 67.4754 6.0743 67.4742L3.28483 67.4616C3.18868 67.461 3.09901 67.4353 3.02256 67.3905Z" fill="#694024" stroke="#694125" stroke-width="1.5" stroke-miterlimit="10"/>
<path d="M8.27867 62.9881C8.20222 62.9433 8.1344 62.8768 8.08835 62.7941L6.71281 60.3674C6.56944 60.1143 6.65822 59.7909 6.91132 59.6462C7.16442 59.5016 7.48677 59.5893 7.63014 59.8424L9.00568 62.2692C9.14905 62.5223 9.06027 62.8457 8.80717 62.9903C8.63673 63.0885 8.43616 63.0803 8.27867 62.9881Z" fill="#694024" stroke="#694125" stroke-width="1.5" stroke-miterlimit="10"/>
<path d="M14.7884 74.4773C14.712 74.4326 14.6457 74.3669 14.5981 74.2834L13.2226 71.8566C13.0792 71.6035 13.168 71.2801 13.4211 71.1355C13.6742 70.9908 13.9965 71.0786 14.1399 71.3317L15.5154 73.7584C15.6588 74.0115 15.57 74.3349 15.3169 74.4796C15.1465 74.5777 14.9459 74.5696 14.7884 74.4773Z" fill="#694024" stroke="#694125" stroke-width="1.5" stroke-miterlimit="10"/>
</g>
<path d="M105.706 2.43935C106.067 3.788 105.265 5.1718 103.92 5.53229C102.571 5.89366 101.188 5.09197 100.827 3.74658C100.467 2.40119 101.264 1.015 102.613 0.653634C103.958 0.293139 105.345 1.09396 105.706 2.43935Z" fill="#693F23"/>
<path d="M220.029 162.409C220.27 163.308 219.736 164.23 218.839 164.471C217.94 164.712 217.017 164.177 216.777 163.28C216.536 162.383 217.068 161.459 217.967 161.218C218.864 160.978 219.789 161.512 220.029 162.409Z" fill="#693F23"/>
<defs>
<clipPath id="clip0_725_18689">
<rect width="88.1871" height="88.1871" fill="white" transform="translate(81.8304 46.7327)"/>
</clipPath>
<clipPath id="clip1_725_18689">
<rect width="15.524" height="17.6409" fill="white" transform="translate(185.692 2.52551) rotate(30.3564)"/>
</clipPath>
<clipPath id="clip2_725_18689">
<rect width="15.524" height="17.6409" fill="white" transform="translate(8.91529 55.5585) rotate(30.3564)"/>
</clipPath>
</defs>
</svg>
