<svg width="50" height="60" viewBox="0 0 50 60" fill="none" xmlns="http://www.w3.org/2000/svg">
<g clip-path="url(#clip0_270_25436)">
<path d="M23.9318 31.2098C30.673 30.836 35.832 25.1072 35.455 18.414C35.0779 11.7209 29.3074 6.59797 22.5663 6.97171C15.8251 7.34546 10.666 13.0743 11.0431 19.7675C11.4202 26.4606 17.1907 31.5835 23.9318 31.2098Z" fill="white"/>
<path d="M23.2553 32.1324C23.1417 32.1324 23.0281 32.1324 22.9145 32.127C15.6712 31.9446 9.9317 25.9451 10.1156 18.7543C10.2022 15.277 11.6573 12.0411 14.1998 9.63707C16.7423 7.23299 20.0853 5.96119 23.5799 6.04705C30.8232 6.2295 36.5627 12.229 36.3787 19.4197C36.2922 22.8971 34.837 26.1329 32.2946 28.537C29.8333 30.8659 26.6308 32.1324 23.2553 32.1324ZM22.9578 30.3239C25.9763 30.4044 28.8433 29.3044 31.0342 27.233C33.2304 25.1616 34.48 22.3765 34.5557 19.3768C34.7126 13.1842 29.7683 8.01646 23.5312 7.86084C20.5235 7.79108 17.6456 8.88043 15.4548 10.9518C13.264 13.0232 12.009 15.8136 11.9332 18.808C11.7763 24.9953 16.7206 30.163 22.9578 30.3239Z" fill="#694024"/>
<path d="M25.5161 31.2566C31.3027 30.9364 35.7317 26.0185 35.4086 20.2722C35.0854 14.5259 30.1324 10.1272 24.3458 10.4475C18.5592 10.7677 14.1301 15.6856 14.4533 21.4319C14.7765 27.1782 19.7294 31.5769 25.5161 31.2566Z" fill="#FEC344"/>
<path d="M23.2553 32.1324C23.1417 32.1324 23.0281 32.1324 22.9145 32.127C15.6712 31.9446 9.9317 25.9451 10.1156 18.7543C10.2022 15.277 11.6573 12.0411 14.1998 9.63707C16.7423 7.23299 20.0853 5.96119 23.5799 6.04705C30.8232 6.2295 36.5627 12.229 36.3787 19.4197C36.2922 22.8971 34.837 26.1329 32.2946 28.537C29.8333 30.8659 26.6308 32.1324 23.2553 32.1324ZM22.9578 30.3239C25.9763 30.4044 28.8433 29.3044 31.0342 27.233C33.2304 25.1616 34.48 22.3765 34.5557 19.3768C34.7126 13.1842 29.7683 8.01646 23.5312 7.86084C20.5235 7.79108 17.6456 8.88043 15.4548 10.9518C13.264 13.0232 12.009 15.8136 11.9332 18.808C11.7763 24.9953 16.7206 30.163 22.9578 30.3239Z" fill="#694024"/>
<path d="M24.6401 60.0008C14.1511 60.0008 8.02757 55.9386 4.7386 52.531C1.1521 48.8176 0.0810172 45.1149 0.0377412 44.9592C-0.0325823 44.7285 -0.000125274 44.4816 0.118884 44.2724C0.237893 44.0631 0.438044 43.9128 0.670653 43.8484C0.859985 43.7948 19.6905 38.8686 25.5165 58.8471C25.5976 59.1208 25.5435 59.4159 25.3704 59.6413C25.1973 59.8667 24.9268 60.0008 24.6401 60.0008ZM2.10958 45.3778C3.3159 48.3722 8.271 57.688 23.396 58.1763C18.4463 43.4513 5.73394 44.6963 2.10958 45.3778Z" fill="#694024"/>
<path d="M25.3655 60.0008C25.0787 60.0008 24.8083 59.8667 24.6352 59.6413C24.4621 59.4159 24.408 59.1208 24.4891 58.8471C30.3151 38.8686 49.1456 43.7948 49.3349 43.8484C49.5676 43.9128 49.7677 44.0684 49.8867 44.2724C50.0057 44.4816 50.0382 44.7285 49.9733 44.9592C49.9246 45.1095 45.505 60.0008 25.3655 60.0008ZM43.9471 45.0183C38.6133 45.0183 30.3692 46.9877 26.6042 58.1763C41.5615 57.6826 46.641 48.3507 47.8798 45.3778C47.0089 45.2115 45.624 45.0183 43.9471 45.0183Z" fill="#694024"/>
<path d="M25.0833 60.0013C25.067 60.0013 25.0508 60.0013 25.0292 60.0013C24.5261 59.9745 24.142 59.5452 24.1691 59.0461C25.4187 36.7815 24.4287 32.6173 24.142 31.9036C24.0014 31.8124 23.8878 31.689 23.812 31.528C23.5956 31.0772 23.7904 30.5406 24.2448 30.326C24.5639 30.1757 24.9318 30.2133 25.2401 30.4172C25.8622 30.8304 27.5121 31.9358 25.9812 59.1427C25.965 59.631 25.5593 60.0013 25.0833 60.0013ZM25.0292 31.9627C25.0238 31.9627 25.0183 31.968 25.0183 31.968C25.0183 31.968 25.0238 31.968 25.0292 31.9627Z" fill="#694024"/>
<path d="M21.6109 38.2128C21.5785 38.2128 21.546 38.2128 21.5135 38.2075C21.3134 38.1914 21.1186 38.1753 20.9185 38.1538C20.1612 38.0787 19.6148 37.4079 19.6905 36.6566C19.7663 35.9053 20.4371 35.358 21.1998 35.4385C21.3675 35.4546 21.5352 35.4707 21.7029 35.4814C22.4602 35.5351 23.0336 36.1897 22.9795 36.941C22.9308 37.6601 22.3304 38.2128 21.6109 38.2128ZM27.9617 37.5313C27.3666 37.5313 26.8203 37.1503 26.6417 36.5547C26.4254 35.8302 26.8419 35.0736 27.5668 34.8535C27.7291 34.8053 27.8913 34.757 28.0482 34.7033C28.7731 34.4672 29.5466 34.8535 29.7901 35.5726C30.0281 36.2863 29.6386 37.0591 28.9137 37.3006C28.7244 37.3596 28.5405 37.4186 28.3511 37.4776C28.2213 37.5098 28.0915 37.5313 27.9617 37.5313ZM13.3236 35.5136C13.0693 35.5136 12.8151 35.4438 12.5879 35.3043C12.4202 35.197 12.2525 35.0897 12.0902 34.9823C11.4627 34.5584 11.295 33.7105 11.7223 33.0881C12.1497 32.4656 13.0044 32.2992 13.6319 32.7232C13.7726 32.8144 13.9132 32.911 14.0593 32.9968C14.703 33.3993 14.8923 34.2418 14.4866 34.8804C14.2269 35.2882 13.778 35.5136 13.3236 35.5136ZM35.4646 33.1203C35.1076 33.1203 34.756 32.9861 34.4855 32.7124C33.95 32.1758 33.9554 31.3118 34.4963 30.7806C34.6153 30.6625 34.7344 30.5391 34.8534 30.421C35.3781 29.8737 36.249 29.8576 36.8008 30.3781C37.3526 30.8986 37.3688 31.7626 36.8441 32.3099C36.7088 32.4495 36.5682 32.589 36.4275 32.7285C36.1625 32.9915 35.8108 33.1203 35.4646 33.1203ZM7.30279 29.2566C6.82675 29.2566 6.36154 29.0097 6.10729 28.5697C6.00992 28.398 5.91255 28.2262 5.82059 28.0545C5.46356 27.3891 5.71781 26.5627 6.38858 26.2085C7.05936 25.8544 7.89242 26.1066 8.24945 26.772C8.33059 26.9222 8.41174 27.0671 8.49288 27.212C8.87154 27.8667 8.63894 28.6985 7.97898 29.0741C7.76801 29.1975 7.5354 29.2566 7.30279 29.2566ZM40.0032 25.7363C39.868 25.7363 39.7273 25.7148 39.5921 25.6719C38.8672 25.4465 38.4615 24.6791 38.6887 23.9601C38.7374 23.7991 38.7861 23.6435 38.8293 23.4825C39.0295 22.758 39.7868 22.3287 40.5225 22.5273C41.2528 22.7258 41.6856 23.4825 41.4854 24.2069C41.4313 24.4001 41.3772 24.5879 41.3177 24.7757C41.1338 25.3607 40.5874 25.7363 40.0032 25.7363ZM4.96048 20.9228C4.21397 20.9228 3.60269 20.3325 3.58646 19.5919C3.58105 19.431 3.58105 19.27 3.58105 19.1036V19.007C3.58105 18.2504 4.19774 17.644 4.95507 17.644C5.7124 17.644 6.32908 18.2557 6.32908 19.007V19.0983C6.32908 19.2378 6.32908 19.3773 6.33449 19.5222C6.35072 20.2788 5.75026 20.9013 4.99293 20.9228C4.98211 20.9228 4.9713 20.9228 4.96048 20.9228ZM40.4846 17.0966C39.8355 17.0966 39.2621 16.6405 39.1323 15.9858C39.0998 15.8195 39.0674 15.6585 39.0295 15.4975C38.8618 14.7623 39.327 14.0325 40.0681 13.8662C40.8092 13.6998 41.5449 14.1613 41.7126 14.8965C41.7559 15.0897 41.7992 15.2828 41.837 15.476C41.9777 16.2166 41.4908 16.9303 40.7443 17.0752C40.6578 17.0913 40.5712 17.0966 40.4846 17.0966ZM6.84839 12.4817C6.64283 12.4817 6.42645 12.4334 6.23171 12.3368C5.55011 11.9987 5.27964 11.1777 5.62044 10.5015C5.7124 10.3244 5.79895 10.1527 5.89632 9.981C6.25876 9.31558 7.09723 9.0741 7.7626 9.42827C8.43337 9.78781 8.6768 10.6142 8.31978 11.2796C8.23863 11.4299 8.15749 11.5801 8.08176 11.7304C7.83833 12.208 7.35688 12.4817 6.84839 12.4817ZM36.8062 9.25655C36.4059 9.25655 36.0056 9.08483 35.7351 8.74676C35.6323 8.61797 35.5241 8.48918 35.4105 8.36576C34.9129 7.79694 34.9778 6.93297 35.5512 6.43927C36.1246 5.94558 36.9955 6.00997 37.4932 6.5788C37.623 6.72905 37.7529 6.87931 37.8773 7.03493C38.3533 7.61985 38.2613 8.48382 37.6717 8.95605C37.4121 9.1546 37.1091 9.25655 36.8062 9.25655ZM12.5446 5.92411C12.1118 5.92411 11.6899 5.72556 11.4194 5.34993C10.9812 4.73281 11.1273 3.88494 11.7494 3.44491C11.9117 3.33222 12.074 3.21953 12.2417 3.1122C12.8746 2.699 13.7293 2.87072 14.1512 3.49857C14.5677 4.12642 14.3946 4.97429 13.7617 5.39286C13.6211 5.48408 13.4804 5.58068 13.3452 5.67727C13.0964 5.83825 12.8205 5.92411 12.5446 5.92411ZM29.8388 4.05129C29.6602 4.05129 29.4817 4.0191 29.3032 3.94397C29.1463 3.87958 28.9895 3.81518 28.8272 3.75078C28.1185 3.47711 27.7669 2.68827 28.0428 1.98529C28.3187 1.28231 29.1139 0.933506 29.8225 1.20718C30.0065 1.27695 30.1904 1.35207 30.3689 1.4272C31.0721 1.72234 31.3967 2.52191 31.1046 3.21416C30.8828 3.73469 30.3743 4.05129 29.8388 4.05129ZM20.6697 2.79023C19.9827 2.79023 19.393 2.2858 19.3065 1.59355C19.2091 0.842279 19.7446 0.160766 20.502 0.0695399C20.6967 0.0427086 20.8915 0.0266099 21.0916 0.00514489C21.8489 -0.0592501 22.5197 0.488107 22.59 1.23938C22.6604 1.99066 22.1032 2.65607 21.3458 2.72583C21.1782 2.74193 21.005 2.75803 20.8374 2.77949C20.7833 2.78486 20.7238 2.79023 20.6697 2.79023Z" fill="#694024"/>
</g>
<defs>
<clipPath id="clip0_270_25436">
<rect width="50" height="60" fill="white"/>
</clipPath>
</defs>
</svg>
