<svg width="59" height="58" viewBox="0 0 59 58" fill="none" xmlns="http://www.w3.org/2000/svg">
<circle cx="29.4986" cy="28.8812" r="28.6409" fill="#F5F5F5"/>
<path d="M29.6833 41.2459C36.5799 41.2459 42.1707 35.5926 42.1707 28.619C42.1707 21.6454 36.5799 15.9922 29.6833 15.9922C22.7866 15.9922 17.1958 21.6454 17.1958 28.619C17.1958 35.5926 22.7866 41.2459 29.6833 41.2459Z" fill="white"/>
<path d="M29.6791 34.8582C28.7148 34.8582 27.7829 34.5601 27.0572 34.0185C26.757 33.7969 26.6933 33.3699 26.9147 33.0664C27.1339 32.765 27.5561 32.6962 27.8552 32.9222C28.3519 33.2924 28.9999 33.4955 29.6791 33.4955C31.1423 33.4955 32.3334 32.5608 32.3334 31.411C32.3334 30.2613 31.1423 29.3277 29.6791 29.3277C27.4729 29.3277 25.6782 27.7826 25.6782 25.8816C25.6782 23.9817 27.4729 22.4355 29.6791 22.4355C30.7913 22.4355 31.8626 22.8385 32.6174 23.5395C32.8906 23.7939 32.9089 24.2241 32.6573 24.5014C32.4046 24.781 31.9803 24.7952 31.706 24.5429C31.1974 24.069 30.4577 23.7982 29.6791 23.7982C28.2159 23.7982 27.0248 24.7329 27.0248 25.8816C27.0248 27.0303 28.2159 27.965 29.6791 27.965C31.8852 27.965 33.68 29.51 33.68 31.411C33.68 33.3121 31.8852 34.8582 29.6791 34.8582Z" fill="#694125"/>
<path d="M29.679 23.8015C29.3064 23.8015 29.0051 23.4969 29.0051 23.1202V21.2771C29.0051 20.9003 29.3064 20.5957 29.679 20.5957C30.0515 20.5957 30.3528 20.9003 30.3528 21.2771V23.1202C30.3517 23.4969 30.0504 23.8015 29.679 23.8015Z" fill="#694125"/>
<path d="M29.679 36.7039C29.3064 36.7039 29.0051 36.3992 29.0051 36.0225V34.1794C29.0051 33.8027 29.3064 33.498 29.679 33.498C30.0515 33.498 30.3528 33.8027 30.3528 34.1794V36.0225C30.3517 36.3992 30.0504 36.7039 29.679 36.7039Z" fill="#694125"/>
<path d="M29.6835 41.2459C22.7983 41.2459 17.196 35.5821 17.196 28.619C17.196 21.6559 22.7983 15.9922 29.6835 15.9922C36.5687 15.9922 42.171 21.6559 42.171 28.619C42.171 35.5821 36.5687 41.2459 29.6835 41.2459ZM29.6835 17.3527C23.5402 17.3527 18.5426 22.4061 18.5426 28.6179C18.5426 34.8298 23.5402 39.8832 29.6835 39.8832C35.8268 39.8832 40.8244 34.8298 40.8244 28.6179C40.8244 22.4072 35.8268 17.3527 29.6835 17.3527Z" fill="#694125"/>
<path d="M29.701 53.2602C19.6691 53.2602 10.7873 47.1739 7.07152 37.7529C6.93329 37.4034 7.10175 37.0071 7.44731 36.8673C7.7907 36.733 8.18377 36.899 8.32199 37.2473C11.8326 46.1486 20.2242 51.8985 29.6999 51.8985C42.386 51.8985 52.7062 41.4632 52.7062 28.6365C52.7062 28.2631 53.0043 27.9595 53.3736 27.9551L54.8638 27.942L51.1674 23.6705L47.4786 27.9322L48.9732 27.9377C49.1524 27.9377 49.3241 28.0108 49.4505 28.1397C49.5757 28.2674 49.6459 28.441 49.6448 28.6223C49.5746 39.6812 40.6172 48.6796 29.6794 48.6796C25.3016 48.6796 21.1442 47.2721 17.6595 44.6133C17.3625 44.3862 17.3042 43.9593 17.5278 43.659C17.7513 43.3587 18.1724 43.2998 18.4705 43.5258C21.7198 46.0077 25.5954 47.3191 29.6783 47.3191C39.6529 47.3191 47.8609 39.2968 48.281 29.2982L45.996 29.2916C45.7325 29.2906 45.4928 29.1344 45.3848 28.8909C45.2768 28.6474 45.3179 28.3635 45.4917 28.1626L50.6599 22.1899C50.9158 21.895 51.418 21.895 51.6739 22.1899L56.8432 28.1626C57.0159 28.3624 57.058 28.6463 56.9501 28.8887C56.8432 29.1322 56.6045 29.2895 56.3421 29.2916L54.0431 29.3124C53.69 42.578 42.9055 53.2602 29.701 53.2602Z" fill="#FEC445"/>
<path d="M15.1876 42.0521C15.0007 42.0521 14.815 41.9735 14.6822 41.8207C14.2708 41.3468 13.8809 40.8554 13.5138 40.3444C13.2946 40.0398 13.3615 39.6139 13.6628 39.3933C13.9652 39.1728 14.3852 39.2405 14.6034 39.544C14.9457 40.0201 15.3096 40.4798 15.694 40.922C15.9391 41.2037 15.9121 41.635 15.6325 41.8818C15.505 41.9954 15.3463 42.0521 15.1876 42.0521Z" fill="#FEC445"/>
<path d="M8.2786 35.2635C8.08422 35.2635 7.89957 35.1783 7.77106 35.0309L2.60287 29.056C2.42902 28.8551 2.3869 28.5679 2.49705 28.3244C2.60719 28.082 2.84584 27.927 3.11041 27.927C3.11149 27.927 3.11257 27.927 3.11364 27.927L5.35867 27.9379C5.76253 14.6515 16.546 4.00977 29.7008 4.00977C39.3568 4.00977 48.1102 9.78487 52.0009 18.7243C52.151 19.0683 51.9966 19.4701 51.6553 19.6219C51.313 19.7704 50.9178 19.6164 50.7688 19.2725C47.0919 10.8276 38.8223 5.37138 29.7008 5.37138C17.0643 5.37138 6.74412 15.7653 6.69445 28.5417C6.69337 28.723 6.62102 28.937 6.49467 29.0647C6.36833 29.1914 6.19663 29.3028 6.01846 29.3028C6.01738 29.3028 6.01738 29.3028 6.0163 29.3028L4.59953 29.2962L8.2786 33.5481L11.9641 29.2897H10.3865C10.0139 29.2897 9.71264 28.985 9.71264 28.6083C9.71264 17.3562 18.67 8.29988 29.6792 8.29988C34.0904 8.29988 38.2716 9.72591 41.7725 12.4229C42.0673 12.65 42.1245 13.077 41.8999 13.3762C41.6742 13.6764 41.2531 13.7354 40.9561 13.505C37.6928 10.9903 33.7934 9.66149 29.6792 9.66149C19.5976 9.66149 11.3616 17.8039 11.0668 27.927H13.4468C13.7114 27.927 13.95 28.082 14.0601 28.3255C14.1703 28.569 14.1282 28.8551 13.9543 29.056L8.78613 35.0298C8.65763 35.1783 8.47297 35.2635 8.2786 35.2635Z" fill="#FEC445"/>
<path d="M45.4906 17.9896C45.2779 17.9896 45.0694 17.8881 44.9377 17.6981C44.5522 17.1412 44.13 16.5975 43.6818 16.0821C43.4367 15.7993 43.4637 15.3691 43.7434 15.1201C44.0231 14.8722 44.4485 14.9006 44.6947 15.1823C45.1731 15.7337 45.6267 16.3179 46.0413 16.9174C46.2541 17.2242 46.1795 17.6501 45.8761 17.8652C45.7584 17.9492 45.6245 17.9896 45.4906 17.9896Z" fill="#FEC445"/>
</svg>
