<svg width="26" height="23" viewBox="0 0 26 23" fill="none" xmlns="http://www.w3.org/2000/svg">
<g clip-path="url(#clip0_270_14434)">
<path d="M13.0156 20.6763C13.4948 20.198 13.9271 19.7921 14.3279 19.3583C14.617 19.0451 14.9478 18.9257 15.3724 18.9276C18.1384 18.9384 20.905 18.9333 23.671 18.9327C24.4007 18.9327 24.6242 18.711 24.6242 17.9913C24.6242 12.7738 24.6242 7.55688 24.6242 2.33934C24.6242 1.59361 24.4071 1.3751 23.662 1.3751C16.5594 1.3751 9.45692 1.37447 2.35503 1.37637C2.20601 1.37637 2.05441 1.37955 1.90924 1.40877C1.64587 1.46149 1.47629 1.62918 1.42362 1.89025C1.39471 2.03381 1.39086 2.18371 1.39086 2.33108C1.38957 7.54862 1.38957 12.7655 1.39086 17.9831C1.39086 18.1304 1.39343 18.281 1.42426 18.4239C1.4795 18.6837 1.64973 18.852 1.91373 18.9009C2.06983 18.9295 2.23234 18.9327 2.39165 18.9327C5.5848 18.9346 8.77859 18.934 11.9717 18.934C12.0572 18.934 12.1426 18.9302 12.228 18.9352C12.749 18.9638 13.0021 19.2179 13.0143 19.7337C13.0207 20.0157 13.0156 20.2997 13.0156 20.6763Z" fill="white"/>
<path d="M13.018 0.0134767C16.6377 0.0134767 20.258 0.0115711 23.8777 0.0147472C24.8939 0.0153824 25.6545 0.588334 25.9262 1.54622C25.993 1.78124 25.9994 2.02452 25.9994 2.26654C26.0007 7.52537 26.0007 12.7836 25.9994 18.0424C25.9994 19.2213 25.4084 20.0166 24.353 20.251C24.168 20.2923 23.9721 20.2923 23.7807 20.2929C21.0578 20.2955 18.3348 20.2961 15.6119 20.291C15.4275 20.2904 15.2984 20.338 15.1667 20.4701C14.4184 21.2228 13.661 21.9679 12.9024 22.7105C12.5536 23.0522 12.1913 23.0903 11.8823 22.8369C11.6755 22.6667 11.6235 22.4354 11.6222 22.1871C11.6196 21.6694 11.6068 21.1517 11.628 20.6353C11.6389 20.3717 11.5869 20.2853 11.2907 20.2866C8.27937 20.2999 5.26801 20.2675 2.25728 20.3075C0.960368 20.3234 -0.00766256 19.3579 4.57111e-05 18.0742C0.0315212 12.7944 0.0315212 7.51457 4.57111e-05 2.23478C-0.00766256 0.945317 0.964222 -0.0132017 2.25471 0.000137523C5.84163 0.0376144 9.42983 0.0134767 13.018 0.0134767ZM13.0155 20.6759C13.4947 20.1976 13.927 19.7917 14.3278 19.3579C14.6169 19.0447 14.9477 18.9253 15.3723 18.9272C18.1383 18.938 20.9049 18.9329 23.6709 18.9323C24.4006 18.9323 24.6241 18.7106 24.6241 17.9909C24.6241 12.7734 24.6241 7.55649 24.6241 2.33895C24.6241 1.59322 24.407 1.37471 23.6619 1.37471C16.5593 1.37471 9.45681 1.37408 2.35492 1.37598C2.2059 1.37598 2.0543 1.37916 1.90913 1.40838C1.64576 1.4611 1.47618 1.62879 1.42351 1.88986C1.3946 2.03342 1.39075 2.18332 1.39075 2.33069C1.38946 7.54823 1.38946 12.7651 1.39075 17.9827C1.39075 18.1301 1.39332 18.2806 1.42415 18.4235C1.47939 18.6833 1.64962 18.8516 1.91362 18.9005C2.06972 18.9291 2.23223 18.9323 2.39154 18.9323C5.58469 18.9342 8.77848 18.9336 11.9716 18.9336C12.0571 18.9336 12.1425 18.9298 12.2279 18.9348C12.7489 18.9634 13.002 19.2175 13.0142 19.7333C13.0206 20.0153 13.0155 20.2993 13.0155 20.6759Z" fill="#693F23"/>
<path d="M14.5326 5.73043C14.5326 4.89324 13.8466 4.21484 12.9999 4.21484C12.1533 4.21484 11.4673 4.89324 11.4673 5.73043C11.4673 6.56763 12.1533 7.24602 12.9999 7.24602C13.8466 7.24602 14.5326 6.56699 14.5326 5.73043Z" fill="#693F23"/>
<path d="M13 7.62584C11.9427 7.62584 11.0833 6.77531 11.0833 5.7304C11.0833 4.6855 11.9434 3.83496 13 3.83496C14.0567 3.83496 14.9168 4.6855 14.9168 5.7304C14.9168 6.77531 14.0574 7.62584 13 7.62584ZM13 4.5953C12.3673 4.5953 11.8522 5.10473 11.8522 5.7304C11.8522 6.35607 12.3673 6.86551 13 6.86551C13.6328 6.86551 14.1479 6.35607 14.1479 5.7304C14.1479 5.10473 13.6334 4.5953 13 4.5953Z" fill="#693F23"/>
<path d="M14.4274 13.402V8.46777H10.9426V10.381H11.5734V13.402H10.9426V15.333H15.0582V13.402H14.4274Z" fill="#693F23"/>
<path d="M15.0582 15.7131H10.9426C10.73 15.7131 10.5579 15.5429 10.5579 15.3327V13.4016C10.5579 13.1914 10.73 13.0212 10.9426 13.0212H11.1887V10.7611H10.9426C10.73 10.7611 10.5579 10.5909 10.5579 10.3806V8.4674C10.5579 8.25715 10.73 8.08691 10.9426 8.08691H14.4274C14.64 8.08691 14.8122 8.25715 14.8122 8.4674V13.0212H15.0582C15.2708 13.0212 15.443 13.1914 15.443 13.4016V15.3327C15.4423 15.5429 15.2702 15.7131 15.0582 15.7131ZM11.3268 14.9522H14.6728V13.7821H14.4268C14.2142 13.7821 14.042 13.6119 14.042 13.4016V8.84788H11.3268V10.0008H11.5728C11.7854 10.0008 11.9576 10.171 11.9576 10.3813V13.4023C11.9576 13.6125 11.7854 13.7828 11.5728 13.7828H11.3268V14.9522Z" fill="#693F23"/>
</g>
<defs>
<clipPath id="clip0_270_14434">
<rect width="26" height="23" fill="white"/>
</clipPath>
</defs>
</svg>
