<svg width="23" height="24" viewBox="0 0 23 24" fill="none" xmlns="http://www.w3.org/2000/svg">
<g clip-path="url(#clip0_270_24133)">
<path d="M11.4996 17.0871C14.2053 17.0871 16.3986 14.8937 16.3986 12.1881C16.3986 9.48243 14.2053 7.28906 11.4996 7.28906C8.79395 7.28906 6.60059 9.48243 6.60059 12.1881C6.60059 14.8937 8.79395 17.0871 11.4996 17.0871Z" fill="#281B11"/>
<path d="M11.5002 20.0395C7.17091 20.0395 3.64844 16.517 3.64844 12.1877C3.64844 7.85841 7.17091 4.33594 11.5002 4.33594C15.8295 4.33594 19.352 7.85841 19.352 12.1877C19.352 16.517 15.8295 20.0395 11.5002 20.0395ZM11.5002 5.15715C7.6236 5.15715 4.46965 8.3111 4.46965 12.1877C4.46965 16.0643 7.6236 19.2183 11.5002 19.2183C15.3768 19.2183 18.5308 16.0643 18.5308 12.1877C18.5308 8.3111 15.3768 5.15715 11.5002 5.15715Z" fill="#281B11"/>
<path d="M11.5004 23.6882C11.2736 23.6882 11.0898 23.5044 11.0898 23.2776V19.6294C11.0898 19.4025 11.2736 19.2188 11.5004 19.2188C11.7273 19.2188 11.9111 19.4025 11.9111 19.6294V23.2776C11.9111 23.5044 11.7273 23.6882 11.5004 23.6882Z" fill="#281B11"/>
<path d="M11.5004 5.15693C11.2736 5.15693 11.0898 4.97318 11.0898 4.74632V1.0981C11.0898 0.871245 11.2736 0.6875 11.5004 0.6875C11.7273 0.6875 11.9111 0.871245 11.9111 1.0981V4.74632C11.9111 4.97318 11.7273 5.15693 11.5004 5.15693Z" fill="#281B11"/>
<path d="M22.5901 12.5986H18.9419C18.715 12.5986 18.5312 12.4148 18.5312 12.1879C18.5312 11.9611 18.715 11.7773 18.9419 11.7773H22.5901C22.8169 11.7773 23.0007 11.9611 23.0007 12.1879C23.0007 12.4148 22.8169 12.5986 22.5901 12.5986Z" fill="#281B11"/>
<path d="M4.05882 12.5986H0.410604C0.183745 12.5986 0 12.4148 0 12.1879C0 11.9611 0.183745 11.7773 0.410604 11.7773H4.05882C4.28568 11.7773 4.46943 11.9611 4.46943 12.1879C4.46943 12.4148 4.28568 12.5986 4.05882 12.5986Z" fill="#281B11"/>
</g>
<defs>
<clipPath id="clip0_270_24133">
<rect width="23" height="23" fill="white" transform="translate(0 0.6875)"/>
</clipPath>
</defs>
</svg>
