<svg width="37" height="41" viewBox="0 0 37 41" fill="none" xmlns="http://www.w3.org/2000/svg">
<g clip-path="url(#clip0_1082_26722)">
<path d="M7.28885 24.4629V32.3095C7.28885 34.8354 7.97367 37.2017 9.16369 39.2376C10.7522 39.876 12.4868 40.2289 14.3055 40.2289C21.9311 40.2289 28.1114 34.0625 28.1114 26.4539V24.4629H7.28885Z" fill="#FEC344"/>
<path d="M14.5777 40.718C6.69385 40.718 0.28067 34.3192 0.28067 26.453V18.6064C0.28067 18.3376 0.499588 18.1191 0.769026 18.1191H28.3836C28.653 18.1191 28.872 18.3376 28.872 18.6064V26.453C28.8748 34.3192 22.4616 40.718 14.5777 40.718ZM1.26019 19.0965V26.453C1.26019 33.7787 7.23553 39.7407 14.5777 39.7407C21.9199 39.7407 27.8952 33.7787 27.8952 26.453V19.0965H1.26019Z" fill="#694024"/>
<path d="M14.5777 40.9988C6.53948 40.9988 0 34.474 0 26.4537V18.6071C0 18.1843 0.345217 17.8398 0.769021 17.8398H28.3836C28.8074 17.8398 29.1526 18.1843 29.1526 18.6071V26.4537C29.1554 34.474 22.6159 40.9988 14.5777 40.9988ZM0.769021 18.3999C0.653948 18.3999 0.561329 18.4923 0.561329 18.6071V26.4537C0.561329 34.1659 6.84821 40.4387 14.5777 40.4387C22.3072 40.4387 28.5941 34.1659 28.5941 26.4537V18.6071C28.5941 18.4923 28.5015 18.3999 28.3864 18.3999H0.769021ZM14.5777 40.0215C7.07836 40.0215 0.979519 33.9363 0.979519 26.4537V18.8172H28.1759V26.4537C28.1759 33.9335 22.0743 40.0215 14.5777 40.0215ZM1.54085 19.3772V26.4537C1.54085 33.6254 7.38989 39.4614 14.5777 39.4614C21.7655 39.4614 27.6146 33.6254 27.6146 26.4537V19.3772H1.54085Z" fill="#694125"/>
<path d="M9.82044 19.0976H4.25767C4.06962 19.0976 3.89842 18.9911 3.81703 18.8203L3.32025 17.7954C0.387305 11.7298 2.94696 4.41529 9.02616 1.49172C15.1053 -1.43465 22.4363 1.11927 25.3664 7.18484L27.0027 10.5733C27.1206 10.8169 27.0168 11.1081 26.7754 11.2258L22.1865 13.4352C21.9423 13.5529 21.6504 13.4492 21.5326 13.2084L20.0114 10.0608C18.5238 6.98602 14.8078 5.68945 11.7261 7.17364C8.64445 8.65783 7.34498 12.3655 8.8325 15.4403L10.2611 18.3947C10.3341 18.5459 10.3256 18.7251 10.2358 18.8679C10.1432 19.0107 9.98884 19.0976 9.82044 19.0976ZM4.56359 18.1202H9.04019L7.95121 15.8659C6.23074 12.3039 7.73229 8.01095 11.3023 6.29433C14.8696 4.57771 19.175 6.0759 20.8955 9.63795L22.2034 12.3403L25.9109 10.5565L24.4852 7.6105C21.788 2.02939 15.0436 -0.32011 9.45277 2.37103C3.85912 5.06217 1.50435 11.7914 4.20154 17.3697L4.56359 18.1202Z" fill="#694024"/>
<path d="M9.82044 19.3782H4.25767C3.96297 19.3782 3.69073 19.2074 3.56443 18.9441L3.06765 17.9192C0.0673513 11.7136 2.68595 4.23106 8.90548 1.24029C15.1222 -1.75329 22.6215 0.859437 25.619 7.06222L27.2553 10.4507C27.4406 10.8315 27.2778 11.2936 26.8961 11.4756L22.3072 13.6851C21.9255 13.8699 21.4624 13.7075 21.28 13.3266L19.7588 10.1846C18.3386 7.24705 14.791 6.01209 11.8468 7.42907C8.90267 8.84605 7.66494 12.3857 9.0851 15.3233L10.5137 18.2776C10.6288 18.5185 10.6147 18.7957 10.4716 19.0197C10.3284 19.2438 10.0871 19.3782 9.82044 19.3782ZM14.3251 0.559799C12.585 0.559799 10.8196 0.940647 9.14965 1.74435C3.20799 4.60071 0.707266 11.7472 3.57285 17.6728L4.06963 18.6977C4.10331 18.7705 4.17909 18.8153 4.25767 18.8153H9.82044C9.89341 18.8153 9.95797 18.7789 9.99726 18.7173C10.0366 18.6557 10.0394 18.5801 10.0085 18.5157L8.5799 15.5613C7.02502 12.3465 8.38344 8.4708 11.6055 6.91941C14.8275 5.36801 18.7119 6.72338 20.2668 9.93819L21.7852 13.0802C21.8357 13.1838 21.9592 13.2286 22.063 13.1782L26.6519 10.9687C26.7557 10.9183 26.7978 10.7951 26.7501 10.6915L25.1138 7.30305C23.0538 3.04651 18.7736 0.559799 14.3251 0.559799ZM9.48645 18.4009H4.38678L3.94894 17.4935C1.1844 11.7752 3.59811 4.87795 9.32928 2.1196C15.0604 -0.638753 21.9732 1.76955 24.7378 7.48788L26.2842 10.6887L22.0714 12.7161L20.6429 9.76177C18.9869 6.33693 14.8528 4.89755 11.423 6.54696C7.99332 8.19637 6.5507 12.3241 8.20381 15.7461L9.48645 18.4009ZM4.74041 17.8408H8.59394L7.69862 15.9898C5.91079 12.2905 7.47128 7.82952 11.1789 6.04289C14.8864 4.25907 19.3574 5.81607 21.1481 9.51534L22.3325 11.9656L25.5348 10.4255L24.2326 7.73151C21.6027 2.29042 15.0268 -0.000272137 9.57346 2.62366C4.12015 5.24759 1.82431 11.8088 4.45414 17.2499L4.74041 17.8408Z" fill="#694125"/>
<path d="M14.5047 28.5874C15.8068 28.5874 16.8623 27.5343 16.8623 26.2351C16.8623 24.936 15.8068 23.8828 14.5047 23.8828C13.2027 23.8828 12.1472 24.936 12.1472 26.2351C12.1472 27.5343 13.2027 28.5874 14.5047 28.5874Z" fill="#694024"/>
<path d="M14.5047 28.8682C13.0509 28.8682 11.8665 27.6864 11.8665 26.2359C11.8665 24.7853 13.0509 23.6035 14.5047 23.6035C15.9586 23.6035 17.143 24.7853 17.143 26.2359C17.143 27.6864 15.9586 28.8682 14.5047 28.8682ZM14.5047 24.1636C13.3596 24.1636 12.4278 25.0933 12.4278 26.2359C12.4278 27.3784 13.3596 28.3081 14.5047 28.3081C15.6498 28.3081 16.5817 27.3784 16.5817 26.2359C16.5817 25.0933 15.6498 24.1636 14.5047 24.1636Z" fill="#694125"/>
<path d="M14.5048 29.0773C12.9358 29.0773 11.656 27.8031 11.656 26.2349C11.656 24.6667 12.933 23.3926 14.5048 23.3926C16.0765 23.3926 17.3535 24.6667 17.3535 26.2349C17.3535 27.8031 16.0737 29.0773 14.5048 29.0773ZM14.5048 24.3699C13.4747 24.3699 12.6355 25.2072 12.6355 26.2349C12.6355 27.2627 13.4747 28.1 14.5048 28.1C15.5348 28.1 16.374 27.2627 16.374 26.2349C16.374 25.2072 15.5348 24.3699 14.5048 24.3699Z" fill="#694024"/>
<path d="M14.5047 29.3581C12.7787 29.3581 11.3753 27.9579 11.3753 26.2357C11.3753 24.5135 12.7787 23.1133 14.5047 23.1133C16.2308 23.1133 17.6342 24.5135 17.6342 26.2357C17.6342 27.9579 16.228 29.3581 14.5047 29.3581ZM14.5047 23.6734C13.0902 23.6734 11.9367 24.8215 11.9367 26.2357C11.9367 27.6499 13.0874 28.798 14.5047 28.798C15.9221 28.798 17.0728 27.6499 17.0728 26.2357C17.0728 24.8215 15.9193 23.6734 14.5047 23.6734ZM14.5047 28.3808C13.3203 28.3808 12.3549 27.4174 12.3549 26.2357C12.3549 25.0539 13.3203 24.0906 14.5047 24.0906C15.6891 24.0906 16.6546 25.0539 16.6546 26.2357C16.6546 27.4174 15.6891 28.3808 14.5047 28.3808ZM14.5047 24.6507C13.6291 24.6507 12.9162 25.362 12.9162 26.2357C12.9162 27.1094 13.6291 27.8207 14.5047 27.8207C15.3804 27.8207 16.0933 27.1094 16.0933 26.2357C16.0933 25.362 15.3804 24.6507 14.5047 24.6507Z" fill="#694125"/>
<path d="M14.4374 35.9115C14.168 35.9115 13.949 35.693 13.949 35.4242V29.1318C13.949 28.863 14.168 28.6445 14.4374 28.6445C14.7068 28.6445 14.9257 28.863 14.9257 29.1318V35.4242C14.9257 35.6902 14.7068 35.9115 14.4374 35.9115Z" fill="#694024"/>
<path d="M14.4374 36.1922C14.0136 36.1922 13.6684 35.8478 13.6684 35.4249V29.1325C13.6684 28.7097 14.0136 28.3652 14.4374 28.3652C14.8612 28.3652 15.2064 28.7097 15.2064 29.1325V35.4249C15.2064 35.845 14.8612 36.1922 14.4374 36.1922ZM14.4374 28.9197C14.3223 28.9197 14.2297 29.0121 14.2297 29.1269V35.4193C14.2297 35.5341 14.3223 35.6266 14.4374 35.6266C14.5525 35.6266 14.6451 35.5341 14.6451 35.4193V29.1269C14.6451 29.0149 14.5525 28.9197 14.4374 28.9197Z" fill="#694125"/>
<path d="M29.9721 10.9293C29.8655 10.9293 29.7588 10.8957 29.669 10.8229C29.4585 10.6549 29.422 10.3469 29.5904 10.1368L31.9228 7.20767C32.0912 6.99764 32.3999 6.96123 32.6104 7.12926C32.8209 7.29728 32.8574 7.60532 32.689 7.81534L30.3566 10.7445C30.2612 10.8677 30.1181 10.9293 29.9721 10.9293Z" fill="#694024"/>
<path d="M29.9721 11.2088C29.7981 11.2088 29.6297 11.15 29.4922 11.0408C29.161 10.7776 29.1049 10.2931 29.3687 9.95986L31.701 7.03069C31.8301 6.87107 32.0126 6.76745 32.2175 6.74505C32.4223 6.72265 32.6244 6.77866 32.7844 6.90747C33.1156 7.17071 33.1717 7.65517 32.9079 7.98841L30.5756 10.9204C30.4296 11.1052 30.2107 11.2088 29.9721 11.2088ZM32.3073 7.30232C32.2989 7.30232 32.2904 7.30232 32.282 7.30512C32.2259 7.31072 32.1782 7.33873 32.1417 7.38353L29.8094 10.3127C29.7364 10.4023 29.7532 10.5339 29.843 10.6067C29.8908 10.6431 29.9385 10.6515 29.9721 10.6515C30.0367 10.6515 30.0956 10.6235 30.1349 10.5731L32.4673 7.64397C32.5402 7.55435 32.5234 7.42274 32.4336 7.34993C32.3999 7.31912 32.355 7.30232 32.3073 7.30232Z" fill="#694125"/>
<path d="M33.632 18.9472C33.5282 18.9472 33.4215 18.9136 33.3317 18.8436L30.3651 16.5529C30.1518 16.3877 30.1125 16.0797 30.2781 15.8668C30.4437 15.654 30.7524 15.6148 30.9657 15.78L33.9323 18.0707C34.1456 18.2359 34.1849 18.544 34.0193 18.7568C33.9239 18.8828 33.778 18.9472 33.632 18.9472Z" fill="#694024"/>
<path d="M33.632 19.2273C33.4608 19.2273 33.298 19.1713 33.1605 19.0677L30.1939 16.777C30.0311 16.651 29.9272 16.469 29.902 16.2673C29.8767 16.0629 29.9301 15.8613 30.0564 15.6989C30.3174 15.3628 30.8001 15.3012 31.1369 15.5616L34.1035 17.8523C34.2663 17.9784 34.3702 18.1604 34.3954 18.362C34.4207 18.5664 34.3674 18.768 34.2411 18.9305C34.0951 19.1209 33.8734 19.2273 33.632 19.2273ZM30.6682 15.9593C30.6065 15.9593 30.5447 15.9873 30.5026 16.0405C30.4689 16.0853 30.4549 16.1385 30.4605 16.1945C30.4661 16.2505 30.497 16.2981 30.5391 16.3317L33.5057 18.6224C33.5534 18.6588 33.6011 18.6672 33.632 18.6672C33.6966 18.6672 33.7583 18.6392 33.7976 18.586C33.8313 18.5412 33.8453 18.488 33.8397 18.432C33.8341 18.376 33.8032 18.3284 33.7611 18.2948L30.7945 16.0041C30.758 15.9733 30.7131 15.9593 30.6682 15.9593Z" fill="#694125"/>
<path d="M30.3398 13.6868C30.0956 13.6868 29.8851 13.5048 29.8543 13.2556C29.8206 12.9867 30.0142 12.7459 30.2809 12.7123L36.1692 12.0038C36.4359 11.9702 36.68 12.1634 36.7137 12.4295C36.7474 12.6983 36.5537 12.9391 36.2871 12.9727L30.3988 13.6812C30.3791 13.6868 30.3595 13.6868 30.3398 13.6868Z" fill="#694024"/>
<path d="M30.3398 13.9669C29.9497 13.9669 29.6213 13.6757 29.5764 13.2892C29.5512 13.0848 29.6073 12.8832 29.7336 12.7235C29.8599 12.5611 30.0423 12.4603 30.2472 12.4351L36.1355 11.7266C36.3376 11.7014 36.5397 11.7574 36.6997 11.8834C36.8625 12.0094 36.9663 12.1943 36.9916 12.3987C37.0168 12.6031 36.9607 12.8047 36.8344 12.9644C36.7081 13.1268 36.5257 13.2276 36.3208 13.2528L30.4324 13.9613C30.4044 13.9669 30.3707 13.9669 30.3398 13.9669ZM36.231 12.2811C36.2226 12.2811 36.2141 12.2811 36.2057 12.2839L30.3174 12.9952C30.2612 13.0008 30.2135 13.0288 30.177 13.0736C30.1434 13.1184 30.1265 13.1716 30.1349 13.2276C30.149 13.3396 30.25 13.4236 30.3651 13.4096L36.2534 12.6983C36.3096 12.6927 36.3573 12.6647 36.3938 12.6199C36.4274 12.5751 36.4443 12.5219 36.4359 12.4659C36.4302 12.4099 36.4022 12.3595 36.3573 12.3259C36.3208 12.2951 36.2759 12.2811 36.231 12.2811Z" fill="#694125"/>
</g>
<defs>
<clipPath id="clip0_1082_26722">
<rect width="37" height="41" fill="white"/>
</clipPath>
</defs>
</svg>
