<svg width="58" height="59" viewBox="0 0 58 59" fill="none" xmlns="http://www.w3.org/2000/svg">
<circle cx="28.7447" cy="29.4378" r="28.6409" fill="#F5F5F5"/>
<g clip-path="url(#clip0_0_1)">
<path d="M34.8745 11.6812C35.4417 8.73256 37.4014 -2.43695 27.5484 4.26086C27.5484 4.26086 23.363 1.36579 22.3118 3.72504C21.2607 6.08429 20.7719 9.19532 21.1741 9.73115C21.3616 9.97957 21.7286 10.8012 21.9032 11.8907C29.8494 12.5418 33.3923 12.0709 34.8745 11.6812Z" fill="white"/>
<path d="M43.6379 30.7802C41.2936 26.0113 39.6464 23.2494 38.5247 21.6484C27.6606 23.303 21.4338 22.6129 18.0992 21.7248C13.5549 30.1973 6.38263 45.655 11.7346 50.9175C18.8267 57.8897 21.2431 56.6345 43.6379 55.6522C43.6379 55.6522 49.1853 42.0699 43.6379 30.7802Z" fill="white"/>
<path d="M14.0452 47.9297H1.70215V52.1254H14.0452V47.9297Z" fill="white"/>
<path d="M16.0211 52.2422H3.67798V56.4379H16.0211V52.2422Z" fill="white"/>
<path d="M52.3211 38.9609H39.978V43.1566H52.3211V38.9609Z" fill="white"/>
<path d="M54.2984 43.2734H41.9553V47.4691H54.2984V43.2734Z" fill="white"/>
<path d="M53.2074 47.9883H40.8643V52.184H53.2074V47.9883Z" fill="white"/>
<path d="M55.1846 52.3008H42.8416V56.4965H55.1846V52.3008Z" fill="white"/>
<path d="M35.6245 16.2656H20.9419V19.0617H35.6245V16.2656Z" fill="#FEC445"/>
<path d="M24.8035 57.3248C23.0553 57.3248 21.392 57.302 19.8521 57.1851C19.4003 57.1494 19.0605 56.7516 19.0958 56.2937C19.1311 55.8374 19.5365 55.5111 19.9739 55.5257C21.9528 55.6767 24.1801 55.6686 26.5452 55.6572L28.3687 55.6523L29.8125 55.654C33.0349 55.6556 36.0762 55.667 38.6127 55.3373C39.0806 55.287 39.4732 55.602 39.5309 56.0566C39.5902 56.5129 39.2729 56.9286 38.8226 56.987C36.1787 57.328 33.0861 57.3085 29.8093 57.3166L28.3703 57.315L26.5533 57.3199C25.9588 57.3215 25.3771 57.3248 24.8035 57.3248ZM10.068 45.358C10.0456 45.358 10.0232 45.3564 9.99912 45.3548C9.54725 45.3158 9.21235 44.9131 9.25081 44.4568C9.85971 37.2508 12.3226 27.5102 17.4117 21.7833C17.7146 21.4424 18.2305 21.4148 18.5686 21.7216C18.9051 22.0285 18.934 22.5546 18.6295 22.8956C13.8144 28.3155 11.4733 37.66 10.8868 44.5965C10.8484 45.0316 10.4894 45.358 10.068 45.358ZM45.0895 36.2782C44.7258 36.2782 44.3941 36.033 44.2964 35.6596C42.8718 30.238 40.7311 25.8248 38.1096 22.8972C37.8051 22.5578 37.8292 22.0318 38.1641 21.7233C38.5006 21.4164 39.0213 21.4391 39.3226 21.7801C42.162 24.948 44.3685 29.4749 45.8827 35.2325C45.9981 35.6758 45.7385 36.1305 45.2994 36.249C45.2305 36.2701 45.1584 36.2782 45.0895 36.2782Z" fill="#694024"/>
<path d="M35.0571 11.9181C34.9834 11.9181 34.9097 11.9084 34.836 11.8872C34.3985 11.7622 34.1454 11.3043 34.2687 10.8627C35.267 7.25967 34.7879 3.93431 33.1791 3.29132C32.4741 3.04289 31.4774 3.379 30.3958 4.25418C29.2309 5.26738 27.5067 5.26738 26.3194 4.23632C25.2586 3.379 24.2571 3.03315 23.5296 3.30269C21.9705 3.92457 21.5042 7.18336 22.4705 10.8741C22.5858 11.3173 22.3246 11.7736 21.8872 11.8905C21.4417 12.0188 20.9995 11.7444 20.8825 11.3011C19.6455 6.57447 20.4787 2.73439 22.9544 1.74555C24.2779 1.26818 25.7986 1.68872 27.3625 2.95684C27.9602 3.47318 28.7662 3.4748 29.3479 2.9747C30.931 1.68872 32.442 1.2698 33.7496 1.73418C36.2781 2.74413 37.1274 6.67838 35.8423 11.3125C35.7461 11.6794 35.416 11.9181 35.0571 11.9181Z" fill="#694024"/>
<path d="M34.4275 20.2946H22.3103C20.8057 20.2946 19.5366 18.9762 19.5366 17.4174C19.5366 15.8651 20.7801 14.6035 22.3103 14.6035H34.4275C35.993 14.6035 37.2637 15.8651 37.2637 17.4174C37.2637 19.0038 35.9914 20.2946 34.4275 20.2946ZM22.3103 16.2662C21.695 16.2662 21.1759 16.7923 21.1759 17.4174C21.1759 18.0653 21.7062 18.6319 22.3103 18.6319H34.4275C35.0749 18.6319 35.6261 18.075 35.6261 17.4174C35.6261 16.7728 35.1005 16.2662 34.4275 16.2662H22.3103Z" fill="#694024"/>
<path d="M28.3687 39.4759C25.0294 39.4759 22.3118 37.5258 22.3118 35.1276C22.3118 32.7294 25.0294 30.7793 28.3687 30.7793C31.7434 30.7793 34.4882 32.7294 34.4882 35.1276C34.4882 35.5871 34.1213 35.9589 33.6694 35.9589C33.2175 35.9589 32.8506 35.5871 32.8506 35.1276C32.8506 33.6971 30.7579 32.442 28.3703 32.442C25.9764 32.442 23.9526 33.6711 23.9526 35.1276C23.9526 36.5841 25.9764 37.8132 28.3703 37.8132C28.8222 37.8132 29.1892 38.185 29.1892 38.6445C29.1892 39.1041 28.8206 39.4759 28.3687 39.4759Z" fill="#FEC445"/>
<path d="M28.3687 46.4441C25.0294 46.4441 22.3118 44.4941 22.3118 42.0958C22.3118 41.6363 22.6787 41.2645 23.1306 41.2645C23.5825 41.2645 23.9494 41.6363 23.9494 42.0958C23.9494 43.5523 25.9732 44.7815 28.3671 44.7815C30.7547 44.7815 32.8474 43.5263 32.8474 42.0958C32.8474 40.6751 30.7947 39.4752 28.3671 39.4752C27.9153 39.4752 27.5483 39.1033 27.5483 38.6438C27.5483 38.1843 27.9153 37.8125 28.3671 37.8125C31.7994 37.8125 34.4866 39.6944 34.4866 42.0975C34.4882 44.4941 31.7417 46.4441 28.3687 46.4441Z" fill="#FEC445"/>
<path d="M28.3689 32.4427C27.917 32.4427 27.55 32.0709 27.55 31.6114V28.6692C27.55 28.2097 27.917 27.8379 28.3689 27.8379C28.8207 27.8379 29.1877 28.2097 29.1877 28.6692V31.6114C29.1877 32.0693 28.8207 32.4427 28.3689 32.4427Z" fill="#FEC445"/>
<path d="M28.3689 49.3864C27.917 49.3864 27.55 49.0146 27.55 48.5551V45.6145C27.55 45.155 27.917 44.7832 28.3689 44.7832C28.8207 44.7832 29.1877 45.155 29.1877 45.6145V48.5551C29.1877 49.0129 28.8207 49.3864 28.3689 49.3864Z" fill="#FEC445"/>
<path d="M55.0596 57.3148H42.8191C42.3672 57.3148 42.0002 56.943 42.0002 56.4835V52.1985C42.0002 51.739 42.3672 51.3672 42.8191 51.3672H55.0596C55.5115 51.3672 55.8784 51.739 55.8784 52.1985V56.4835C55.8784 56.9414 55.5115 57.3148 55.0596 57.3148ZM43.6379 55.6505H54.2392V53.0299H43.6379V55.6505Z" fill="#FEC445"/>
<path d="M53.039 53.0305C52.5871 53.0305 52.2201 52.6587 52.2201 52.1992V48.6822H41.6188V51.3678H42.819C43.2709 51.3678 43.6378 51.7397 43.6378 52.1992C43.6378 52.6587 43.2709 53.0305 42.819 53.0305H40.8C40.3481 53.0305 39.9812 52.6587 39.9812 52.1992V47.8509C39.9812 47.3914 40.3481 47.0195 40.8 47.0195H53.0406C53.4924 47.0195 53.8594 47.3914 53.8594 47.8509V52.1992C53.8594 52.6587 53.4908 53.0305 53.039 53.0305Z" fill="#FEC445"/>
<path d="M54.1767 48.6824H53.039C52.5871 48.6824 52.2202 48.3105 52.2202 47.851C52.2202 47.3915 52.5871 47.0197 53.039 47.0197H53.3563V44.399H42.6909V47.851C42.6909 48.3105 42.3239 48.6824 41.872 48.6824C41.4202 48.6824 41.0532 48.3105 41.0532 47.851V43.5677C41.0532 43.1082 41.4202 42.7363 41.872 42.7363H54.1767C54.6285 42.7363 54.9955 43.1082 54.9955 43.5677V47.851C54.9955 48.3105 54.6285 48.6824 54.1767 48.6824Z" fill="#FEC445"/>
<path d="M52.4718 44.3997C52.0199 44.3997 51.653 44.0278 51.653 43.5683V40.0514H41.0517V42.737H41.8737C42.3256 42.737 42.6925 43.1088 42.6925 43.5683C42.6925 44.0278 42.3256 44.3997 41.8737 44.3997H40.2329C39.781 44.3997 39.4141 44.0278 39.4141 43.5683V39.22C39.4141 38.7605 39.781 38.3887 40.2329 38.3887H52.4734C52.9253 38.3887 53.2922 38.7605 53.2922 39.22V43.5683C53.2922 44.0278 52.9237 44.3997 52.4718 44.3997Z" fill="#FEC445"/>
<path d="M16 57.3148H3.69699C3.24512 57.3148 2.87817 56.943 2.87817 56.4835V52.1985C2.87817 51.739 3.24512 51.3672 3.69699 51.3672H16C16.4519 51.3672 16.8188 51.739 16.8188 52.1985V56.4835C16.8204 56.9414 16.4535 57.3148 16 57.3148ZM4.5158 55.6505H15.1812V53.0299H4.5158V55.6505Z" fill="#FEC445"/>
<path d="M13.9186 53.0305C13.4668 53.0305 13.0998 52.6587 13.0998 52.1992V48.6822H2.4969V51.3678H3.69708C4.14895 51.3678 4.51589 51.7397 4.51589 52.1992C4.51589 52.6587 4.14895 53.0305 3.69708 53.0305H1.67648C1.22461 53.0305 0.857666 52.6587 0.857666 52.1992V47.8509C0.857666 47.3914 1.22461 47.0195 1.67648 47.0195H13.917C14.3689 47.0195 14.7358 47.3914 14.7358 47.8509V52.1992C14.7374 52.6587 14.3705 53.0305 13.9186 53.0305Z" fill="#FEC445"/>
</g>
<defs>
<clipPath id="clip0_0_1">
<rect width="55.0208" height="55.7745" fill="white" transform="translate(0.857666 1.55078)"/>
</clipPath>
</defs>
</svg>
