<svg width="217" height="158" viewBox="0 0 217 158" fill="none" xmlns="http://www.w3.org/2000/svg">
<circle cx="104" cy="87.8262" r="68" stroke="#FF814E" stroke-width="4" stroke-linecap="round" stroke-dasharray="2 15"/>
<path d="M127.857 117.363L136.239 122.167L144.618 117.363V107.761L136.239 102.959L127.857 107.761V117.363Z" fill="white"/>
<path d="M95.9758 117.363L104.357 122.167L112.739 117.363V107.761L104.357 102.959L95.9758 107.761V117.363Z" fill="white"/>
<path d="M63.8059 117.365L72.1875 122.169L80.5691 117.365V107.763L72.1875 102.961L63.8059 107.763V117.365Z" fill="white"/>
<path d="M117.134 50.6369V49.1166C117.134 42.5767 91.6164 42.5747 91.6164 49.1166V50.6566C84.3006 49.6108 74.114 51.1865 74.114 55.3104V60.3023C74.114 63.5722 80.5332 65.2843 86.8727 65.2843C88.5841 65.2843 90.2815 65.1597 91.8375 64.9225C93.011 67.5361 98.7209 68.8962 104.373 68.8962C110.011 68.8962 115.707 67.542 116.901 64.9423C118.419 65.1657 120.066 65.2843 121.728 65.2843C128.067 65.2843 134.487 63.5742 134.487 60.3023V55.3104C134.487 51.2141 124.434 49.6345 117.134 50.6369Z" fill="white"/>
<path d="M121.727 60.2931C119.777 60.2931 117.914 60.1409 116.189 59.8404C115.647 59.7455 115.284 59.2335 115.38 58.6957C115.475 58.158 115.995 57.8001 116.533 57.8931C118.123 58.1718 119.92 58.3181 121.727 58.3181C128.694 58.3181 132.494 56.3332 132.494 55.3131C132.494 54.293 128.694 52.3081 121.727 52.3081C119.94 52.3081 118.159 52.4524 116.579 52.7233C116.033 52.8142 115.521 52.4564 115.428 51.9186C115.334 51.3809 115.697 50.8689 116.238 50.776C123.582 49.5087 134.484 51.0468 134.484 55.3111C134.486 58.583 128.067 60.2931 121.727 60.2931Z" fill="#FEC445"/>
<path d="M121.727 65.2846C119.713 65.2846 117.715 65.1126 115.95 64.7884C115.41 64.6895 115.051 64.1735 115.153 63.6358C115.252 63.1 115.76 62.7402 116.314 62.845C117.962 63.1475 119.835 63.3076 121.729 63.3076C128.696 63.3076 132.496 61.3227 132.496 60.3026V55.3108C132.496 54.7651 132.942 54.3223 133.492 54.3223C134.042 54.3223 134.488 54.7651 134.488 55.3108V60.3026C134.486 63.5725 128.067 65.2846 121.727 65.2846Z" fill="#FEC445"/>
<path d="M86.8727 60.2942C80.5312 60.2942 74.114 58.5821 74.114 55.3122C74.114 51.0459 85.0139 49.5078 92.3615 50.777C92.9034 50.8699 93.268 51.3819 93.1724 51.9197C93.0767 52.4574 92.5607 52.8172 92.0208 52.7243C90.4429 52.4515 88.6618 52.3092 86.8727 52.3092C79.9056 52.3092 76.1063 54.294 76.1063 55.3142C76.1063 56.3343 79.9076 58.3192 86.8727 58.3192C88.6817 58.3192 90.4768 58.1729 92.0666 57.8941C92.6085 57.8012 93.1245 58.159 93.2202 58.6968C93.3158 59.2345 92.9532 59.7465 92.4113 59.8414C90.686 60.1419 88.8212 60.2942 86.8727 60.2942Z" fill="#FEC445"/>
<path d="M86.8727 65.2846C80.5312 65.2846 74.114 63.5745 74.114 60.3026V55.3108C74.114 54.7651 74.5603 54.3223 75.1102 54.3223C75.66 54.3223 76.1063 54.7651 76.1063 55.3108V60.3026C76.1063 61.3227 79.9076 63.3076 86.8727 63.3076C88.7674 63.3076 90.6402 63.1475 92.2878 62.845C92.8297 62.7442 93.3497 63.1 93.4493 63.6358C93.5489 64.1735 93.1923 64.6895 92.6524 64.7884C90.8832 65.1126 88.8849 65.2846 86.8727 65.2846Z" fill="#FEC445"/>
<path d="M104.373 58.9627C98.0332 58.9627 91.614 57.2526 91.614 53.9807C91.614 53.435 92.0603 52.9922 92.6102 52.9922C93.16 52.9922 93.6063 53.435 93.6063 53.9807C93.6063 55.0008 97.4056 56.9857 104.373 56.9857C111.34 56.9857 115.139 55.0008 115.139 53.9807C115.139 53.435 115.585 52.9922 116.135 52.9922C116.685 52.9922 117.131 53.435 117.131 53.9807C117.133 57.2526 110.714 58.9627 104.373 58.9627Z" fill="#FEC445"/>
<path d="M104.373 63.9545C98.0332 63.9545 91.614 62.2424 91.614 58.9725V53.9826C91.614 53.437 92.0603 52.9941 92.6102 52.9941C93.16 52.9941 93.6063 53.437 93.6063 53.9826V58.9725C93.6063 59.9926 97.4056 61.9775 104.373 61.9775C111.34 61.9775 115.139 59.9926 115.139 58.9725V53.9826C115.139 53.437 115.585 52.9941 116.135 52.9941C116.685 52.9941 117.131 53.437 117.131 53.9826V58.9725C117.133 62.2444 110.714 63.9545 104.373 63.9545Z" fill="#FEC445"/>
<path d="M104.373 54.0985C98.0332 54.0985 91.614 52.3885 91.614 49.1166C91.614 42.5747 117.131 42.5767 117.131 49.1166C117.133 52.3885 110.714 54.0985 104.373 54.0985ZM104.373 46.1116C97.4056 46.1116 93.6063 48.0964 93.6063 49.1166C93.6063 50.1367 97.4056 52.1216 104.373 52.1216C111.34 52.1216 115.139 50.1367 115.139 49.1166C115.141 48.0964 111.34 46.1116 104.373 46.1116Z" fill="#FEC445"/>
<path d="M104.373 59.0893C98.0332 59.0893 91.614 57.3792 91.614 54.1073V49.1174C91.614 48.5717 92.0603 48.1289 92.6102 48.1289C93.16 48.1289 93.6063 48.5717 93.6063 49.1174V54.1073C93.6063 55.1274 97.4056 57.1123 104.373 57.1123C111.34 57.1123 115.139 55.1274 115.139 54.1073V49.1174C115.139 48.5717 115.585 48.1289 116.135 48.1289C116.685 48.1289 117.131 48.5717 117.131 49.1174V54.1073C117.133 57.3792 110.714 59.0893 104.373 59.0893Z" fill="#FEC445"/>
<path d="M104.373 68.8959C98.0334 68.8959 91.6143 67.1858 91.6143 63.914V58.9221C91.6143 58.3764 92.0605 57.9336 92.6104 57.9336C93.1603 57.9336 93.6066 58.3764 93.6066 58.9221V63.914C93.6066 64.9341 97.4059 66.919 104.373 66.919C111.34 66.919 115.139 64.9341 115.139 63.914V58.9221C115.139 58.3764 115.586 57.9336 116.135 57.9336C116.685 57.9336 117.132 58.3764 117.132 58.9221V63.914C117.134 67.1858 110.714 68.8959 104.373 68.8959Z" fill="#FEC445"/>
<path d="M104.373 63.9041C98.0334 63.9041 91.6143 62.192 91.6143 58.9221C91.6143 58.3764 92.0605 57.9336 92.6104 57.9336C93.1603 57.9336 93.6066 58.3764 93.6066 58.9221C93.6066 59.9422 97.4059 61.9271 104.373 61.9271C111.34 61.9271 115.139 59.9422 115.139 58.9221C115.139 58.3764 115.586 57.9336 116.135 57.9336C116.685 57.9336 117.132 58.3764 117.132 58.9221C117.134 62.194 110.714 63.9041 104.373 63.9041Z" fill="#FEC445"/>
<path d="M104.373 97.2511C103.823 97.2511 103.377 96.8083 103.377 96.2627V80.3381C103.377 79.7925 103.823 79.3496 104.373 79.3496C104.923 79.3496 105.369 79.7925 105.369 80.3381V96.2627C105.369 96.8083 104.925 97.2511 104.373 97.2511Z" fill="#FBFBFB"/>
<path d="M104.373 76.4273C103.823 76.4273 103.377 75.9845 103.377 75.4388V74.2131C103.377 73.6675 103.823 73.2246 104.373 73.2246C104.923 73.2246 105.369 73.6675 105.369 74.2131V75.4388C105.369 75.9845 104.925 76.4273 104.373 76.4273Z" fill="#FBFBFB"/>
<path d="M136.467 97.2517C135.917 97.2517 135.471 96.8089 135.471 96.2632V86.4634C135.471 85.6567 134.809 85.0024 133.999 85.0024H74.7495C73.9387 85.0024 73.2772 85.6587 73.2772 86.4634V96.2632C73.2772 96.8089 72.8309 97.2517 72.2811 97.2517C71.7312 97.2517 71.2849 96.8089 71.2849 96.2632V86.4634C71.2849 84.5674 72.8389 83.0254 74.7495 83.0254H133.999C135.909 83.0254 137.463 84.5674 137.463 86.4634V96.2632C137.463 96.8089 137.019 97.2517 136.467 97.2517Z" fill="#FBFBFB"/>
<path d="M136.238 124.296C136.067 124.296 135.893 124.253 135.74 124.164L126.362 118.79C126.053 118.614 125.864 118.288 125.864 117.934V107.19C125.864 106.836 126.053 106.509 126.362 106.333L135.74 100.962C136.047 100.786 136.429 100.786 136.736 100.962L146.114 106.333C146.423 106.509 146.612 106.836 146.612 107.19V117.934C146.612 118.288 146.423 118.614 146.114 118.79L136.736 124.164C136.583 124.251 136.409 124.296 136.238 124.296ZM127.856 117.363L136.238 122.165L144.62 117.363V107.761L136.238 102.959L127.856 107.761V117.363Z" fill="#FEC445"/>
<path d="M104.357 124.296C104.186 124.296 104.012 124.253 103.859 124.164L94.4812 118.79C94.1724 118.614 93.9832 118.288 93.9832 117.934V107.19C93.9832 106.836 94.1724 106.509 94.4812 106.333L103.859 100.962C104.166 100.786 104.548 100.786 104.855 100.962L114.233 106.333C114.542 106.509 114.731 106.836 114.731 107.19V117.934C114.731 118.288 114.542 118.614 114.233 118.79L104.855 124.164C104.702 124.251 104.528 124.296 104.357 124.296ZM95.9755 117.363L104.357 122.165L112.739 117.363V107.761L104.357 102.959L95.9755 107.761V117.363Z" fill="#FEC445"/>
<path d="M72.1876 124.296C72.0163 124.296 71.843 124.253 71.6896 124.164L62.3118 118.79C62.003 118.614 61.8137 118.288 61.8137 117.934V107.19C61.8137 106.836 62.003 106.509 62.3118 106.333L71.6896 100.962C71.9964 100.786 72.3789 100.786 72.6857 100.962L82.0635 106.333C82.3723 106.509 82.5615 106.836 82.5615 107.19V117.934C82.5615 118.288 82.3723 118.614 82.0635 118.79L72.6857 124.164C72.5303 124.251 72.359 124.296 72.1876 124.296ZM63.806 117.363L72.1876 122.165L80.5692 117.363V107.761L72.1876 102.959L63.806 107.761V117.363Z" fill="#FEC445"/>
<path d="M106.844 113.174C106.294 113.174 105.848 112.732 105.848 112.186C105.848 111.379 105.186 110.725 104.375 110.725C103.564 110.725 102.903 111.381 102.903 112.186C102.903 112.732 102.457 113.174 101.907 113.174C101.357 113.174 100.911 112.732 100.911 112.186C100.911 110.29 102.465 108.748 104.375 108.748C106.286 108.748 107.84 110.29 107.84 112.186C107.84 112.732 107.394 113.174 106.844 113.174Z" fill="#FEC445"/>
<path d="M74.75 113.174C74.2001 113.174 73.7538 112.732 73.7538 112.186C73.7538 111.379 73.0924 110.725 72.2815 110.725C71.4686 110.725 70.8092 111.381 70.8092 112.186C70.8092 112.732 70.3629 113.174 69.813 113.174C69.2632 113.174 68.8169 112.732 68.8169 112.186C68.8169 110.29 70.3709 108.748 72.2815 108.748C74.1921 108.748 75.7461 110.29 75.7461 112.186C75.7461 112.732 75.2998 113.174 74.75 113.174Z" fill="#FEC445"/>
<path d="M138.936 113.174C138.386 113.174 137.939 112.732 137.939 112.186C137.939 111.379 137.278 110.725 136.467 110.725C135.654 110.725 134.995 111.381 134.995 112.186C134.995 112.732 134.548 113.174 133.999 113.174C133.449 113.174 133.002 112.732 133.002 112.186C133.002 110.29 134.556 108.748 136.467 108.748C138.378 108.748 139.932 110.29 139.932 112.186C139.932 112.732 139.487 113.174 138.936 113.174Z" fill="#FEC445"/>
<path d="M214.361 105.545L207.403 107.409C206.727 107.59 206.035 107.191 205.853 106.515C205.673 105.841 206.072 105.147 206.748 104.966L213.706 103.101C214.379 102.921 215.075 103.322 215.255 103.996C215.436 104.672 215.034 105.364 214.361 105.545Z" fill="#FBFBFB"/>
<path d="M211.814 109.957C211.14 110.137 210.446 109.739 210.265 109.063L208.4 102.105C208.22 101.431 208.618 100.737 209.295 100.555C209.968 100.375 210.663 100.774 210.844 101.45L212.708 108.408C212.886 109.082 212.487 109.777 211.814 109.957Z" fill="#FBFBFB"/>
<path d="M28.2769 128.651L22.2217 130.273C21.6333 130.431 21.0312 130.083 20.8735 129.495C20.7165 128.909 21.0635 128.304 21.6519 128.147L27.7071 126.524C28.2932 126.367 28.8982 126.717 29.0553 127.303C29.2129 127.891 28.863 128.494 28.2769 128.651Z" fill="#FBFBFB"/>
<path d="M26.0602 132.491C25.4742 132.648 24.8697 132.301 24.7121 131.712L23.0896 125.657C22.9326 125.071 23.2796 124.467 23.8679 124.309C24.454 124.152 25.0584 124.499 25.2161 125.087L26.8386 131.142C26.9933 131.729 26.6463 132.334 26.0602 132.491Z" fill="#FBFBFB"/>
<g clip-path="url(#clip0_0_1)">
<path d="M159.126 16.3482C158.911 16.2218 158.838 15.9434 158.965 15.7265L160.184 13.6466C160.311 13.4298 160.589 13.3565 160.805 13.4829C161.02 13.6093 161.093 13.8877 160.966 14.1046L159.747 16.1845C159.621 16.4 159.342 16.4747 159.126 16.3482Z" fill="#FBFBFB" stroke="#FBFBFB" stroke-width="1.5" stroke-miterlimit="10"/>
<path d="M164.892 6.50447C164.676 6.37802 164.604 6.09962 164.731 5.88277L165.949 3.80287C166.076 3.58602 166.354 3.5127 166.57 3.63915C166.786 3.76559 166.858 4.044 166.731 4.26085L165.513 6.34075C165.386 6.5576 165.108 6.63091 164.892 6.50447Z" fill="#FBFBFB" stroke="#FBFBFB" stroke-width="1.5" stroke-miterlimit="10"/>
<path d="M167.107 10.2369C166.972 10.1575 166.881 10.0103 166.883 9.84097C166.885 9.58999 167.09 9.38712 167.341 9.38817L169.742 9.399C169.993 9.40006 170.195 9.60517 170.193 9.85615C170.191 10.1071 169.985 10.31 169.735 10.3089L167.333 10.2981C167.25 10.2976 167.173 10.2755 167.107 10.2369Z" fill="#FBFBFB" stroke="#FBFBFB" stroke-width="1.5" stroke-miterlimit="10"/>
<path d="M155.738 10.1881C155.602 10.1087 155.511 9.96148 155.513 9.79214C155.515 9.54116 155.721 9.33829 155.971 9.33935L158.373 9.35017C158.623 9.35123 158.825 9.55634 158.823 9.80733C158.821 10.0583 158.615 10.2612 158.365 10.2601L155.963 10.2493C155.881 10.2488 155.803 10.2266 155.738 10.1881Z" fill="#FBFBFB" stroke="#FBFBFB" stroke-width="1.5" stroke-miterlimit="10"/>
<path d="M160.263 6.39758C160.197 6.35903 160.139 6.30175 160.099 6.23058L158.915 4.14117C158.791 3.92326 158.868 3.64484 159.086 3.5203C159.303 3.39576 159.581 3.47129 159.704 3.6892L160.889 5.77861C161.012 5.99652 160.936 6.27495 160.718 6.39948C160.571 6.48401 160.398 6.47699 160.263 6.39758Z" fill="#FBFBFB" stroke="#FBFBFB" stroke-width="1.5" stroke-miterlimit="10"/>
<path d="M165.868 16.2902C165.802 16.2516 165.745 16.1951 165.704 16.1232L164.519 14.0338C164.396 13.8158 164.472 13.5374 164.69 13.4129C164.908 13.2883 165.186 13.3639 165.309 13.5818L166.494 15.6712C166.617 15.8891 166.541 16.1675 166.323 16.2921C166.176 16.3766 166.003 16.3696 165.868 16.2902Z" fill="#FBFBFB" stroke="#FBFBFB" stroke-width="1.5" stroke-miterlimit="10"/>
</g>
<g clip-path="url(#clip1_0_1)">
<path d="M6.92451 62.0103C6.70862 61.8839 6.63652 61.6055 6.76353 61.3886L7.98167 59.3087C8.10867 59.0919 8.38676 59.0186 8.60266 59.145C8.81855 59.2715 8.89065 59.5499 8.76364 59.7667L7.5455 61.8466C7.41927 62.0621 7.14041 62.1368 6.92451 62.0103Z" fill="#FBFBFB" stroke="#FBFBFB" stroke-width="1.5" stroke-miterlimit="10"/>
<path d="M12.6899 52.1666C12.474 52.0401 12.4019 51.7617 12.5289 51.5449L13.7471 49.465C13.8741 49.2481 14.1521 49.1748 14.368 49.3013C14.5839 49.4277 14.656 49.7061 14.529 49.923L13.3109 52.0029C13.1839 52.2197 12.9058 52.293 12.6899 52.1666Z" fill="#FBFBFB" stroke="#FBFBFB" stroke-width="1.5" stroke-miterlimit="10"/>
<path d="M14.9052 55.899C14.7696 55.8196 14.679 55.6724 14.681 55.5031C14.683 55.2521 14.8884 55.0492 15.1389 55.0503L17.5406 55.0611C17.791 55.0622 17.9926 55.2673 17.9906 55.5183C17.9886 55.7692 17.7832 55.9721 17.5327 55.9711L15.131 55.9602C15.0483 55.9597 14.9711 55.9376 14.9052 55.899Z" fill="#FBFBFB" stroke="#FBFBFB" stroke-width="1.5" stroke-miterlimit="10"/>
<path d="M3.5356 55.8502C3.40001 55.7708 3.3094 55.6236 3.31134 55.4543C3.31336 55.2033 3.51881 55.0004 3.76924 55.0015L6.17093 55.0123C6.42137 55.0133 6.62302 55.2185 6.621 55.4694C6.61899 55.7204 6.41354 55.9233 6.1631 55.9222L3.76141 55.9114C3.67863 55.9109 3.60142 55.8887 3.5356 55.8502Z" fill="#FBFBFB" stroke="#FBFBFB" stroke-width="1.5" stroke-miterlimit="10"/>
<path d="M8.06093 52.0597C7.99511 52.0211 7.93672 51.9639 7.89707 51.8927L6.71275 49.8033C6.58932 49.5854 6.66575 49.3069 6.88367 49.1824C7.10158 49.0579 7.37912 49.1334 7.50256 49.3513L8.68688 51.4407C8.81031 51.6586 8.73388 51.9371 8.51596 52.0616C8.36921 52.1461 8.19653 52.1391 8.06093 52.0597Z" fill="#FBFBFB" stroke="#FBFBFB" stroke-width="1.5" stroke-miterlimit="10"/>
<path d="M13.6657 61.9523C13.5998 61.9137 13.5428 61.8572 13.5018 61.7853L12.3175 59.6959C12.1941 59.478 12.2705 59.1995 12.4884 59.075C12.7063 58.9504 12.9839 59.026 13.1073 59.2439L14.2916 61.3333C14.415 61.5512 14.3386 61.8296 14.1207 61.9542C13.9739 62.0387 13.8013 62.0317 13.6657 61.9523Z" fill="#FBFBFB" stroke="#FBFBFB" stroke-width="1.5" stroke-miterlimit="10"/>
</g>
<path d="M190.375 137.658C190.582 138.432 190.122 139.226 189.35 139.433C188.576 139.64 187.781 139.18 187.574 138.408C187.367 137.636 187.825 136.84 188.599 136.633C189.372 136.426 190.168 136.885 190.375 137.658Z" fill="#FBFBFB"/>
<defs>
<clipPath id="clip0_0_1">
<rect width="13.3659" height="15.1885" fill="white" transform="translate(160.811) rotate(30.3564)"/>
</clipPath>
<clipPath id="clip1_0_1">
<rect width="13.3659" height="15.1885" fill="white" transform="translate(8.60913 45.6621) rotate(30.3564)"/>
</clipPath>
</defs>
</svg>
