<svg width="57" height="57" viewBox="0 0 57 57" fill="none" xmlns="http://www.w3.org/2000/svg">
<circle cx="28.1713" cy="28.6245" r="27.8432" fill="#F5F5F5"/>
<path d="M42.9485 54.9289H13.8383C11.2818 54.9289 9.20801 52.8941 9.20801 50.3856V11.8087C9.20801 10.4752 10.3093 9.39453 11.6684 9.39453H43.4031C44.6544 9.39453 45.669 10.3901 45.669 11.6179V52.2595C45.669 53.7333 44.4505 54.9289 42.9485 54.9289Z" fill="white"/>
<path d="M45.6691 55.7304H12.5238C10.2438 55.7304 8.38794 53.9094 8.38794 51.6722V7.76568C8.38794 7.32192 8.75583 6.96094 9.20808 6.96094C9.66032 6.96094 10.0282 7.31962 10.0282 7.76568V51.6745C10.0282 53.0242 11.1483 54.1232 12.5238 54.1232H44.8489V10.196H10.8648C10.4125 10.196 10.0446 9.835 10.0446 9.39125C10.0446 8.94749 10.4125 8.58651 10.8648 8.58651H45.6691C46.1213 8.58651 46.4892 8.94749 46.4892 9.39125V54.9256C46.4892 55.3694 46.1213 55.7304 45.6691 55.7304Z" fill="#694024"/>
<path d="M10.8648 10.1966C9.49864 10.1966 8.38794 9.10678 8.38794 7.76632C8.38794 6.43275 9.48692 5.34751 10.8413 5.33371L41.4817 3.70814C41.7043 3.69664 41.9269 3.77482 42.0909 3.92657C42.2549 4.07832 42.3463 4.28985 42.3463 4.51058V6.13615C42.3463 6.57991 41.9784 6.94089 41.5262 6.94089C41.0739 6.94089 40.7061 6.57991 40.7061 6.13615V5.3613L10.9093 6.94319C10.8952 6.94319 10.8812 6.94319 10.8648 6.94319C10.4031 6.94319 10.0282 7.31337 10.0282 7.76632C10.0282 8.21927 10.4031 8.58715 10.8648 8.58715C11.317 8.58715 11.6849 8.94813 11.6849 9.39189C11.6849 9.83565 11.3193 10.1966 10.8648 10.1966Z" fill="#694024"/>
<path d="M36.5538 28.0899H18.3233C17.8711 28.0899 17.5032 27.729 17.5032 27.2852C17.5032 26.8415 17.8711 26.4805 18.3233 26.4805H36.5538C37.006 26.4805 37.3739 26.8415 37.3739 27.2852C37.3739 27.729 37.006 28.0899 36.5538 28.0899Z" fill="#FEC546"/>
<path d="M25.782 36.2193C25.5172 36.2193 25.2571 36.0928 25.0978 35.8606C22.8318 32.5244 22.5624 28.4662 22.5342 27.3028C22.4663 24.4747 23.4715 21.0994 25.0978 18.7058C25.3485 18.3357 25.8593 18.2368 26.2342 18.4828C26.6115 18.7288 26.7123 19.2301 26.4615 19.598C24.8095 22.0283 24.123 25.1989 24.1722 27.2637C24.2261 29.4365 24.8541 32.6025 26.4615 34.9685C26.7123 35.3386 26.6115 35.8376 26.2342 36.0836C26.096 36.1756 25.939 36.2193 25.782 36.2193Z" fill="#FEC546"/>
<path d="M29.0953 36.217C28.9383 36.217 28.7813 36.1733 28.6407 36.0813C28.2634 35.8353 28.1627 35.334 28.4134 34.9662C30.063 32.5359 30.7519 29.3652 30.7027 27.3005C30.6488 25.1277 30.0209 21.9616 28.4134 19.598C28.1627 19.2278 28.2634 18.7288 28.6407 18.4828C29.0179 18.2368 29.5264 18.3357 29.7772 18.7058C32.0431 22.0421 32.3125 26.1002 32.3407 27.2637C32.4086 30.0917 31.4034 33.467 29.7772 35.8606C29.6202 36.0928 29.3601 36.217 29.0953 36.217Z" fill="#FEC546"/>
<path d="M27.4386 37.0289C21.96 37.0289 17.5032 32.6557 17.5032 27.2801C17.5032 21.9044 21.96 17.5312 27.4386 17.5312C32.9171 17.5312 37.3739 21.9044 37.3739 27.2801C37.3739 32.6557 32.9171 37.0289 27.4386 37.0289ZM27.4386 19.1407C22.8645 19.1407 19.1434 22.7919 19.1434 27.2801C19.1434 31.7682 22.8645 35.4194 27.4386 35.4194C32.0126 35.4194 35.7337 31.7682 35.7337 27.2801C35.7337 22.7919 32.0126 19.1407 27.4386 19.1407Z" fill="#FEC546"/>
<path d="M35.7267 45.1564H19.98C19.5278 45.1564 19.1599 44.7954 19.1599 44.3516C19.1599 43.9079 19.5278 43.5469 19.98 43.5469H35.7243C36.1766 43.5469 36.5445 43.9079 36.5445 44.3516C36.5445 44.7954 36.1789 45.1564 35.7267 45.1564Z" fill="#FEC546"/>
</svg>
