<svg width="85" height="96" viewBox="0 0 85 96" fill="none" xmlns="http://www.w3.org/2000/svg">
<g clip-path="url(#clip0_270_8300)">
<path d="M3.72949 47.3928C7.45936 56.463 17.0065 71.9255 36.8535 63.9379C27.8311 44.9771 10.3224 46.1736 3.72949 47.3928Z" fill="#FEC344"/>
<path d="M68.8711 6.57812C58.9704 8.5608 41.1537 15.5685 42.9787 40.2607C70.5478 33.6404 68.0841 14.4177 68.8711 6.57812Z" fill="#FEC344"/>
<path d="M40.7658 94.2704C44.0622 92.265 46.7655 80.4259 43.241 72.5066C33.7965 51.3011 39.648 39.4963 39.648 39.4963C34.1615 3.95633 67.7988 1.73438 67.7988 1.73438C67.7988 1.73438 77.1292 39.69 39.648 39.4963" stroke="#694024" stroke-width="3.0457" stroke-miterlimit="10" stroke-linecap="round" stroke-linejoin="round"/>
<path d="M39.591 62.7281C29.6789 32.6349 1.7334 41.4657 1.7334 41.4657C1.7334 41.4657 10.0372 77.1538 39.591 62.7281Z" stroke="#694024" stroke-width="3.0457" stroke-miterlimit="10" stroke-linecap="round" stroke-linejoin="round"/>
<path d="M80.1067 61.7471C71.6204 56.8132 54.6364 50.3183 43.7319 68.7092C62.4383 78.3035 75.6126 66.7266 80.1067 61.7471Z" fill="#FEC344"/>
<path d="M43.7319 70.4881C73.9017 80.2761 83.2549 52.5301 83.2549 52.5301C83.2549 52.5301 49.5264 38.1387 43.7319 70.4881Z" stroke="#694024" stroke-width="3.0457" stroke-miterlimit="10" stroke-linecap="round" stroke-linejoin="round"/>
</g>
<defs>
<clipPath id="clip0_270_8300">
<rect width="85" height="96" fill="white"/>
</clipPath>
</defs>
</svg>
