<svg width="287" height="211" viewBox="0 0 287 211" fill="none" xmlns="http://www.w3.org/2000/svg">
<path d="M36.8006 171.989L28.7525 174.145C27.9705 174.355 27.1702 173.892 26.9607 173.11C26.752 172.332 27.2132 171.528 27.9952 171.319L36.0433 169.162C36.8223 168.953 37.6265 169.418 37.8352 170.197C38.0447 170.979 37.5796 171.78 36.8006 171.989Z" fill="#693F23"/>
<path d="M33.8543 177.092C33.0754 177.3 32.272 176.839 32.0625 176.057L29.906 168.009C29.6973 167.23 30.1585 166.427 30.9405 166.217C31.7195 166.008 32.5228 166.47 32.7324 167.252L34.8889 175.3C35.0945 176.079 34.6333 176.883 33.8543 177.092Z" fill="#693F23"/>
<g clip-path="url(#clip0_0_1)">
<path d="M92.967 21.7299C92.68 21.5618 92.5842 21.1918 92.753 20.9036L94.372 18.1391C94.5408 17.8509 94.9104 17.7535 95.1974 17.9215C95.4844 18.0896 95.5802 18.4596 95.4114 18.7478L93.7923 21.5123C93.6245 21.7987 93.2539 21.8979 92.967 21.7299Z" fill="#694024" stroke="#694125" stroke-width="1.5" stroke-miterlimit="10"/>
<path d="M100.629 8.64589C100.342 8.47783 100.246 8.1078 100.415 7.81958L102.034 5.05516C102.203 4.76694 102.573 4.6695 102.86 4.83756C103.146 5.00562 103.242 5.37565 103.073 5.66386L101.454 8.42829C101.286 8.71651 100.916 8.81395 100.629 8.64589Z" fill="#694024" stroke="#694125" stroke-width="1.5" stroke-miterlimit="10"/>
<path d="M103.572 13.6067C103.392 13.5011 103.272 13.3055 103.274 13.0804C103.277 12.7469 103.55 12.4772 103.883 12.4786L107.075 12.493C107.408 12.4944 107.676 12.767 107.673 13.1006C107.671 13.4342 107.398 13.7038 107.065 13.7024L103.873 13.688C103.763 13.6873 103.66 13.6579 103.572 13.6067Z" fill="#694024" stroke="#694125" stroke-width="1.5" stroke-miterlimit="10"/>
<path d="M88.4611 13.5403C88.2809 13.4347 88.1605 13.2391 88.1631 13.014C88.1657 12.6804 88.4388 12.4108 88.7717 12.4122L91.9638 12.4266C92.2967 12.428 92.5647 12.7006 92.562 13.0342C92.5593 13.3678 92.2862 13.6374 91.9534 13.636L88.7613 13.6216C88.6512 13.6209 88.5486 13.5915 88.4611 13.5403Z" fill="#694024" stroke="#694125" stroke-width="1.5" stroke-miterlimit="10"/>
<path d="M94.4753 8.50333C94.3878 8.45209 94.3102 8.37596 94.2575 8.28137L92.6834 5.50431C92.5194 5.21469 92.621 4.84462 92.9106 4.6791C93.2002 4.51358 93.5691 4.61397 93.7332 4.90359L95.3073 7.68065C95.4713 7.97027 95.3697 8.34034 95.0801 8.50586C94.885 8.61821 94.6555 8.60888 94.4753 8.50333Z" fill="#694024" stroke="#694125" stroke-width="1.5" stroke-miterlimit="10"/>
<path d="M101.925 21.6518C101.837 21.6005 101.761 21.5254 101.707 21.4298L100.133 18.6528C99.9686 18.3631 100.07 17.9931 100.36 17.8275C100.649 17.662 101.018 17.7624 101.182 18.052L102.756 20.8291C102.921 21.1187 102.819 21.4888 102.529 21.6543C102.334 21.7666 102.105 21.7573 101.925 21.6518Z" fill="#694024" stroke="#694125" stroke-width="1.5" stroke-miterlimit="10"/>
</g>
<g clip-path="url(#clip1_0_1)">
<path d="M8.42399 83.4174C8.13704 83.2493 8.04122 82.8793 8.21002 82.5911L9.82907 79.8266C9.99787 79.5384 10.3675 79.441 10.6544 79.609C10.9414 79.7771 11.0372 80.1471 10.8684 80.4353L9.24935 83.1998C9.08158 83.4862 8.71094 83.5854 8.42399 83.4174Z" fill="#694024" stroke="#694125" stroke-width="1.5" stroke-miterlimit="10"/>
<path d="M16.0861 70.3334C15.7991 70.1653 15.7033 69.7953 15.8721 69.5071L17.4912 66.7427C17.66 66.4544 18.0296 66.357 18.3165 66.5251C18.6035 66.6931 18.6993 67.0631 18.5305 67.3514L16.9115 70.1158C16.7427 70.404 16.3731 70.5015 16.0861 70.3334Z" fill="#694024" stroke="#694125" stroke-width="1.5" stroke-miterlimit="10"/>
<path d="M19.0295 75.2942C18.8493 75.1886 18.7289 74.993 18.7314 74.7679C18.7341 74.4344 19.0072 74.1647 19.34 74.1661L22.5321 74.1805C22.865 74.1819 23.133 74.4545 23.1303 74.7881C23.1277 75.1217 22.8546 75.3913 22.5217 75.3899L19.3296 75.3755C19.2196 75.3748 19.117 75.3454 19.0295 75.2942Z" fill="#694024" stroke="#694125" stroke-width="1.5" stroke-miterlimit="10"/>
<path d="M3.91816 75.2278C3.73794 75.1222 3.61752 74.9266 3.6201 74.7015C3.62278 74.3679 3.89584 74.0983 4.2287 74.0997L7.42082 74.1141C7.75368 74.1155 8.0217 74.3881 8.01901 74.7217C8.01633 75.0553 7.74327 75.3249 7.41041 75.3235L4.21829 75.3091C4.10826 75.3084 4.00565 75.279 3.91816 75.2278Z" fill="#694024" stroke="#694125" stroke-width="1.5" stroke-miterlimit="10"/>
<path d="M9.93233 70.1908C9.84485 70.1396 9.76724 70.0635 9.71455 69.9689L8.14045 67.1918C7.97639 66.9022 8.07798 66.5321 8.36762 66.3666C8.65725 66.2011 9.02613 66.3015 9.19019 66.5911L10.7643 69.3681C10.9283 69.6578 10.8268 70.0278 10.5371 70.1934C10.3421 70.3057 10.1126 70.2964 9.93233 70.1908Z" fill="#694024" stroke="#694125" stroke-width="1.5" stroke-miterlimit="10"/>
<path d="M17.3815 83.3393C17.2941 83.288 17.2182 83.2129 17.1638 83.1173L15.5897 80.3403C15.4256 80.0506 15.5272 79.6806 15.8168 79.515C16.1065 79.3495 16.4754 79.4499 16.6394 79.7395L18.2135 82.5166C18.3776 82.8062 18.276 83.1763 17.9863 83.3418C17.7913 83.4541 17.5618 83.4448 17.3815 83.3393Z" fill="#694024" stroke="#694125" stroke-width="1.5" stroke-miterlimit="10"/>
</g>
<circle cx="142" cy="118.109" r="90" stroke="#FF814E" stroke-width="4" stroke-linecap="round" stroke-dasharray="2 15"/>
<g clip-path="url(#clip2_0_1)">
<path d="M101.89 112.177C101.89 109.187 104.318 106.761 107.313 106.761H125.582C125.573 96.6942 117.399 88.5332 107.315 88.5332C97.2264 88.5332 89.0488 96.7 89.0488 106.776C89.0488 114.963 94.4514 121.892 101.89 124.199V112.177V112.177Z" fill="#FEC546"/>
<path d="M159.156 94.0059L148.264 98.0662C146.959 98.5535 145.506 97.8903 145.018 96.5868L142.777 90.5886C142.289 89.2852 142.954 87.8347 144.259 87.3473L155.151 83.287C156.456 82.7996 157.908 83.4629 158.396 84.7664L160.637 90.7645C161.125 92.068 160.461 93.5185 159.156 94.0059Z" fill="#FEC546"/>
<path d="M181.256 164.39L180.127 162.64C177.708 158.891 175.825 157.011 172.071 154.594L170.318 153.467L172.071 152.339C175.825 149.922 177.708 148.042 180.127 144.293L181.256 142.543L182.385 144.293C184.805 148.042 186.688 149.922 190.442 152.339L192.194 153.467L190.442 154.594C186.688 157.011 184.805 158.891 182.385 162.64L181.256 164.39ZM175.198 153.467C177.722 155.263 179.46 156.996 181.256 159.517C183.055 156.996 184.791 155.26 187.315 153.467C184.791 151.67 183.052 149.937 181.256 147.416C179.457 149.937 177.722 151.67 175.198 153.467Z" fill="#694125"/>
<path d="M201.659 120.568H101.891V136.27H201.659V120.568Z" fill="#FEC546"/>
<path d="M203 137.615H100.547V119.229H119.59V121.91H103.232V134.931H200.315V121.91H141.96V119.229H203V137.615Z" fill="#694125"/>
<path d="M143.98 146.766H117.547V156.715H143.98V146.766Z" fill="#F58051"/>
<path d="M171.5 160C175.09 160 178 157.09 178 153.5C178 149.91 175.09 147 171.5 147C167.91 147 165 149.91 165 153.5C165 157.09 167.91 160 171.5 160Z" fill="#FEC546"/>
<path d="M171.835 164.39L170.705 162.64C168.286 158.891 166.403 157.011 162.649 154.594L160.896 153.467L162.649 152.339C166.403 149.922 168.286 148.042 170.705 144.293L171.835 142.543L172.964 144.293C175.383 148.042 177.266 149.922 181.02 152.339L182.773 153.467L181.02 154.594C177.266 157.011 175.383 158.891 172.964 162.64L171.835 164.39ZM165.776 153.467C168.3 155.263 170.038 156.996 171.835 159.517C173.633 156.996 175.369 155.26 177.893 153.467C175.369 151.67 173.631 149.937 171.835 147.416C170.038 149.937 168.3 151.67 165.776 153.467Z" fill="#694125"/>
<path d="M147.38 99.569C146.835 99.569 146.289 99.4507 145.778 99.2172C144.839 98.7904 144.123 98.0204 143.762 97.0543L141.522 91.0562C140.777 89.0606 141.793 86.8343 143.791 86.0875L154.683 82.0271C156.681 81.2831 158.91 82.2982 159.658 84.2938L161.899 90.292C162.26 91.258 162.222 92.3077 161.795 93.2449C161.368 94.1821 160.597 94.8973 159.629 95.2578L148.738 99.3181C148.293 99.4882 147.837 99.569 147.38 99.569ZM156.032 84.4697C155.896 84.4697 155.754 84.4927 155.622 84.5447L144.727 88.605C144.118 88.8328 143.806 89.5134 144.034 90.1218L146.275 96.12C146.384 96.4142 146.604 96.6506 146.89 96.7804C147.175 96.9102 147.496 96.9217 147.793 96.8121L158.685 92.7518C158.98 92.6422 159.217 92.423 159.346 92.1376C159.476 91.8521 159.488 91.532 159.378 91.2349L157.137 85.2368C156.961 84.7638 156.511 84.4697 156.032 84.4697Z" fill="#694125"/>
<path d="M165.431 106.762L168.312 105.686L166.747 101.502L152.639 106.762H165.431Z" fill="#F58051"/>
<path d="M101.891 125.68L93.6641 128.748L95.2291 132.932L101.891 130.449V125.68Z" fill="#F58051"/>
<path d="M91.3588 148.285C88.6156 148.285 86.0284 146.606 85.0149 143.89L66.4306 94.1769C65.7982 92.487 65.8646 90.65 66.6154 89.0092C67.3661 87.3683 68.7117 86.1168 70.4038 85.4852L153.713 54.4273C157.207 53.1238 161.111 54.9031 162.416 58.3953L180.994 108.102H107.313C105.063 108.102 103.232 109.931 103.232 112.177V144.314L93.7151 147.861C92.9412 148.149 92.1442 148.285 91.3588 148.285ZM156.072 56.6824C155.598 56.6824 155.119 56.766 154.648 56.939L71.3423 87.997C70.323 88.3776 69.5116 89.1332 69.0582 90.1223C68.6049 91.1114 68.5673 92.2188 68.9485 93.2368L87.5299 142.953C88.3153 145.058 90.6716 146.13 92.7766 145.343L100.547 142.448V112.177C100.547 108.451 103.582 105.421 107.313 105.421H177.125L159.898 59.3326C159.286 57.6975 157.726 56.6824 156.072 56.6824Z" fill="#694125"/>
<path d="M196.235 172H107.312C103.582 172 100.547 168.969 100.547 165.243V112.177C100.547 108.451 103.582 105.42 107.312 105.42H196.235C199.965 105.42 203 108.451 203 112.177V165.243C203 168.966 199.965 172 196.235 172ZM107.312 108.102C105.063 108.102 103.232 109.93 103.232 112.177V165.243C103.232 167.49 105.063 169.318 107.312 169.318H196.235C198.484 169.318 200.315 167.49 200.315 165.243V112.177C200.315 109.93 198.484 108.102 196.235 108.102H107.312Z" fill="#694125"/>
</g>
<path d="M284.127 141.28L274.879 143.758C273.98 143.999 273.061 143.468 272.82 142.569C272.58 141.674 273.11 140.751 274.009 140.51L283.257 138.032C284.152 137.792 285.076 138.326 285.316 139.221C285.556 140.12 285.022 141.04 284.127 141.28Z" fill="#693F23"/>
<path d="M280.742 147.143C279.847 147.382 278.923 146.853 278.683 145.954L276.205 136.706C275.965 135.811 276.495 134.888 277.393 134.647C278.288 134.407 279.212 134.937 279.452 135.836L281.93 145.084C282.167 145.98 281.637 146.903 280.742 147.143Z" fill="#693F23"/>
<g clip-path="url(#clip3_0_1)">
<path d="M210.717 22.7299C210.43 22.5618 210.334 22.1918 210.503 21.9036L212.122 19.1391C212.291 18.8509 212.66 18.7535 212.947 18.9215C213.234 19.0896 213.33 19.4596 213.161 19.7478L211.542 22.5123C211.375 22.7987 211.004 22.8979 210.717 22.7299Z" fill="#694024" stroke="#694125" stroke-width="1.5" stroke-miterlimit="10"/>
<path d="M218.379 9.64589C218.092 9.47783 217.996 9.1078 218.165 8.81958L219.784 6.05516C219.953 5.76694 220.323 5.6695 220.61 5.83756C220.896 6.00562 220.992 6.37565 220.823 6.66386L219.204 9.42829C219.036 9.71651 218.666 9.81395 218.379 9.64589Z" fill="#694024" stroke="#694125" stroke-width="1.5" stroke-miterlimit="10"/>
<path d="M221.322 14.6067C221.142 14.5011 221.022 14.3055 221.024 14.0804C221.027 13.7469 221.3 13.4772 221.633 13.4786L224.825 13.493C225.158 13.4944 225.426 13.767 225.423 14.1006C225.421 14.4342 225.148 14.7038 224.815 14.7024L221.623 14.688C221.513 14.6873 221.41 14.6579 221.322 14.6067Z" fill="#694024" stroke="#694125" stroke-width="1.5" stroke-miterlimit="10"/>
<path d="M206.211 14.5403C206.031 14.4347 205.91 14.2391 205.913 14.014C205.916 13.6804 206.189 13.4108 206.522 13.4122L209.714 13.4266C210.047 13.428 210.315 13.7006 210.312 14.0342C210.309 14.3678 210.036 14.6374 209.703 14.636L206.511 14.6216C206.401 14.6209 206.299 14.5915 206.211 14.5403Z" fill="#694024" stroke="#694125" stroke-width="1.5" stroke-miterlimit="10"/>
<path d="M212.225 9.50333C212.138 9.45209 212.06 9.37596 212.008 9.28137L210.433 6.50431C210.269 6.21469 210.371 5.84462 210.661 5.6791C210.95 5.51358 211.319 5.61397 211.483 5.90359L213.057 8.68065C213.221 8.97027 213.12 9.34034 212.83 9.50586C212.635 9.61821 212.406 9.60888 212.225 9.50333Z" fill="#694024" stroke="#694125" stroke-width="1.5" stroke-miterlimit="10"/>
<path d="M219.675 22.6518C219.587 22.6005 219.511 22.5254 219.457 22.4298L217.883 19.6528C217.719 19.3631 217.82 18.9931 218.11 18.8275C218.399 18.662 218.768 18.7624 218.932 19.052L220.506 21.8291C220.671 22.1187 220.569 22.4888 220.279 22.6543C220.084 22.7666 219.855 22.7573 219.675 22.6518Z" fill="#694024" stroke="#694125" stroke-width="1.5" stroke-miterlimit="10"/>
</g>
<path d="M252.248 183.961C252.524 184.99 251.912 186.046 250.886 186.321C249.857 186.597 248.801 185.985 248.526 184.959C248.251 183.932 248.859 182.875 249.888 182.599C250.915 182.324 251.973 182.935 252.248 183.961Z" fill="#693F23"/>
<defs>
<clipPath id="clip0_0_1">
<rect width="17.7648" height="20.1873" fill="white" transform="translate(95.2031) rotate(30.3564)"/>
</clipPath>
<clipPath id="clip1_0_1">
<rect width="17.7648" height="20.1873" fill="white" transform="translate(10.6602 61.6875) rotate(30.3564)"/>
</clipPath>
<clipPath id="clip2_0_1">
<rect width="137" height="118" fill="white" transform="translate(66 54)"/>
</clipPath>
<clipPath id="clip3_0_1">
<rect width="17.7648" height="20.1873" fill="white" transform="translate(212.953 1) rotate(30.3564)"/>
</clipPath>
</defs>
</svg>
