<svg width="57" height="57" viewBox="0 0 57 57" fill="none" xmlns="http://www.w3.org/2000/svg">
<circle cx="28.1713" cy="28.6948" r="27.8432" fill="#F5F5F5"/>
<g clip-path="url(#clip0_0_1)">
<path d="M44.5635 43.2823L35.0889 54.1876H11.1772V7.67578H44.3287L44.5635 43.2823Z" fill="white"/>
<path d="M35.0891 54.1877H11.759C10.5011 54.1877 9.48022 53.1731 9.48022 51.9261V39.0405C9.48022 38.6291 9.81837 38.2944 10.2341 38.2944C10.6497 38.2944 10.9879 38.6291 10.9879 39.0405V51.9261C10.9879 52.3503 11.3347 52.6956 11.759 52.6956H35.0891L44.5637 43.2824L44.568 7.9594C44.568 7.53521 44.2212 7.18988 43.7969 7.18988H18.5758C18.1601 7.18988 17.8219 6.85522 17.8219 6.44382C17.8219 6.03242 18.1601 5.69775 18.5758 5.69775H43.7969C45.0547 5.69775 46.0756 6.7124 46.0756 7.9594V43.2738C46.0756 43.6746 45.9184 44.0519 45.632 44.3354L36.1617 53.7465C35.8795 54.0257 35.4897 54.1877 35.0891 54.1877Z" fill="#694024"/>
<path d="M35.4057 48.8823C34.99 48.8823 34.6519 48.5476 34.6519 48.1362V43.5874C34.6519 43.176 34.99 42.8413 35.4057 42.8413H44.5594C44.9751 42.8413 45.3132 43.176 45.3132 43.5874C45.3132 43.9988 44.9751 44.3334 44.5594 44.3334H36.1595V48.1362C36.1595 48.5476 35.8214 48.8823 35.4057 48.8823Z" fill="#694024"/>
<path d="M8.88781 32.5389C4.68788 32.5389 1.26978 29.1432 1.26978 24.9695V10.4149C1.26978 10.0035 1.60792 9.66882 2.02361 9.66882C2.4393 9.66882 2.77744 10.0035 2.77744 10.4149V24.9695C2.77744 28.3204 5.51925 31.0446 8.88781 31.0446C12.2564 31.0446 14.9982 28.3183 14.9982 24.9695V8.14259C15.0003 6.04508 13.2859 4.33979 11.1773 4.33979C9.06873 4.33979 7.3543 6.04508 7.3543 8.14259V24.9717C7.3543 25.8137 8.04352 26.5 8.88781 26.5C9.7321 26.5 10.4213 25.8137 10.4213 24.9717V10.4149C10.4213 10.0035 10.7595 9.66882 11.1752 9.66882C11.5908 9.66882 11.929 10.0035 11.929 10.4149V24.9695C11.929 26.6343 10.5635 27.99 8.88781 27.99C7.21214 27.99 5.84663 26.6343 5.84663 24.9695V8.14259C5.84663 5.22227 8.23736 2.84766 11.1773 2.84766C14.1173 2.84766 16.508 5.22227 16.508 8.14259V24.9717C16.508 29.1432 13.0899 32.5389 8.88781 32.5389Z" fill="#694024"/>
<path d="M17.9188 38.6285H37.8244C38.2077 38.6285 38.52 38.3215 38.52 37.94C38.52 37.5606 38.2099 37.2515 37.8244 37.2515H17.9188C17.5354 37.2515 17.2231 37.5584 17.2231 37.94C17.2231 38.3194 17.5354 38.6285 17.9188 38.6285Z" fill="#694125"/>
<path d="M17.9188 34.2183H37.8244C38.2077 34.2183 38.52 33.9114 38.52 33.5298C38.52 33.1483 38.2099 32.8413 37.8244 32.8413H17.9188C17.5354 32.8413 17.2231 33.1483 17.2231 33.5298C17.2231 33.9114 17.5354 34.2183 17.9188 34.2183Z" fill="#694125"/>
<path d="M17.9188 42.8726H26.7193C27.1027 42.8726 27.415 42.5657 27.415 42.1841C27.415 41.8026 27.1048 41.4956 26.7193 41.4956H17.9188C17.5354 41.4956 17.2231 41.8026 17.2231 42.1841C17.2231 42.5657 17.5354 42.8726 17.9188 42.8726Z" fill="#694125"/>
<path d="M27.8027 21.4011C25.4077 21.4011 23.4563 20.0347 23.4563 18.3529C23.4563 16.6711 25.4055 15.3047 27.8027 15.3047C30.2236 15.3047 32.1943 16.6711 32.1943 18.3529C32.1943 18.6748 31.9316 18.9348 31.6063 18.9348C31.2811 18.9348 31.0183 18.6748 31.0183 18.3529C31.0183 17.351 29.5171 16.4707 27.8027 16.4707C26.0861 16.4707 24.6323 17.3319 24.6323 18.3529C24.6323 19.3739 26.0839 20.2351 27.8027 20.2351C28.1279 20.2351 28.3907 20.4952 28.3907 20.817C28.3907 21.1389 28.1279 21.4011 27.8027 21.4011Z" fill="#FEC445"/>
<path d="M27.8027 26.2849C25.4077 26.2849 23.4563 24.9185 23.4563 23.2367C23.4563 22.9148 23.7191 22.6547 24.0443 22.6547C24.3695 22.6547 24.6323 22.9148 24.6323 23.2367C24.6323 24.2577 26.0839 25.1189 27.8027 25.1189C29.515 25.1189 31.0183 24.2407 31.0183 23.2367C31.0183 22.2412 29.5451 21.3992 27.8027 21.3992C27.4775 21.3992 27.2147 21.1392 27.2147 20.8173C27.2147 20.4954 27.4775 20.2354 27.8027 20.2354C30.2667 20.2354 32.1943 21.5548 32.1943 23.2388C32.1943 24.9185 30.2236 26.2849 27.8027 26.2849Z" fill="#FEC445"/>
<path d="M27.8026 16.4707C27.4774 16.4707 27.2146 16.2107 27.2146 15.8888V13.8275C27.2146 13.5057 27.4774 13.2456 27.8026 13.2456C28.1278 13.2456 28.3906 13.5057 28.3906 13.8275V15.8888C28.3906 16.2107 28.1278 16.4707 27.8026 16.4707Z" fill="#FEC445"/>
<path d="M27.8026 28.3457C27.4774 28.3457 27.2146 28.0857 27.2146 27.7638V25.7025C27.2146 25.3807 27.4774 25.1206 27.8026 25.1206C28.1278 25.1206 28.3906 25.3807 28.3906 25.7025V27.7638C28.3906 28.0857 28.1278 28.3457 27.8026 28.3457Z" fill="#FEC445"/>
</g>
<defs>
<clipPath id="clip0_0_1">
<rect width="44.8058" height="51.3399" fill="white" transform="translate(1.26978 2.84766)"/>
</clipPath>
</defs>
</svg>
