<svg width="57" height="57" viewBox="0 0 57 57" fill="none" xmlns="http://www.w3.org/2000/svg">
<circle cx="28.1713" cy="28.3745" r="27.8432" fill="#F5F5F5"/>
<g clip-path="url(#clip0_0_1)">
<path d="M49.3848 15.7852L54.284 20.6442L48.8899 25.9604L44.043 20.8728L49.3848 15.7852Z" fill="#FEC445"/>
<path d="M54.2837 20.6441C54.0266 20.389 53.6105 20.389 53.3534 20.6441L49.6029 24.3626C49.2221 24.7404 48.5574 24.7404 48.1753 24.3626L45.6342 21.8411C45.2412 21.4513 45.2412 20.8161 45.6342 20.4263L49.3834 16.7078C49.6405 16.4527 49.6405 16.0401 49.3834 15.785C49.1263 15.53 48.7102 15.53 48.4531 15.785L44.705 19.5036C44.0622 20.1412 43.8778 21.0627 44.1471 21.8651L39.5997 22.3127C39.3547 22.3367 39.1436 22.4943 39.0527 22.7217L34.2857 34.6726C34.2263 34.6882 34.1669 34.7087 34.1111 34.7423C31.9314 36.05 26.2475 38.3466 25.1267 36.8585C24.815 36.4434 25.2068 35.6242 25.5864 34.8326C25.7138 34.5667 25.8448 34.2924 25.9539 34.0241C26.2014 33.4142 26.0158 32.7357 25.4906 32.3351C24.9642 31.9321 24.251 31.9273 23.7185 32.3231C23.2842 32.6455 22.8209 33.0244 22.3745 33.3913C21.2246 34.3357 19.6478 35.6278 18.9467 35.4413C18.7745 35.3956 18.6241 35.2055 18.4991 34.8747C18.1328 33.899 18.8933 32.3892 19.5034 31.1754C19.706 30.7724 19.8977 30.391 20.0529 30.0313C20.304 29.4454 20.1075 28.7874 19.5738 28.4313C19.0413 28.0752 18.3524 28.1413 17.8987 28.5913C17.0278 29.4562 16.1169 30.693 15.1526 32.0018C13.224 34.622 11.037 37.5923 9.06111 37.6236C8.28603 37.6308 7.55704 37.1857 6.81593 36.2449C6.22279 35.4918 6.14516 33.9929 6.43991 32.1739C10.6125 29.117 15.4643 24.2784 16.465 21.2648C16.9866 19.6949 16.4541 18.8299 15.9155 18.3812C15.1659 17.7568 13.566 17.0398 11.2578 19.2485C8.75059 21.651 6.07602 27.0105 5.22938 31.3991C3.36143 32.7429 1.75062 33.6452 0.952498 33.6945C0.589824 33.7174 0.314483 34.0265 0.337529 34.3862C0.360575 34.746 0.667453 35.0202 1.03498 34.9962C1.93014 34.9408 3.35294 34.2515 4.98558 33.1844C4.86913 34.8013 5.0911 36.1739 5.78006 37.0485C6.76377 38.2961 7.85664 38.9289 9.03078 38.9289C9.04776 38.9289 9.06596 38.9289 9.08294 38.9289C11.7138 38.8868 14.0015 35.7781 16.2151 32.7718C17.1491 31.5038 18.0297 30.3068 18.8412 29.5212C18.7029 29.8448 18.5197 30.2081 18.3257 30.5931C17.6015 32.0319 16.7003 33.8232 17.2655 35.3294C17.5457 36.0777 17.997 36.5397 18.6046 36.7009C19.9644 37.0606 21.5412 35.7661 23.2115 34.3959C23.6663 34.0217 24.0969 33.6692 24.5045 33.3673C24.5275 33.3504 24.5954 33.2999 24.6864 33.3685C24.7737 33.4347 24.7434 33.508 24.7325 33.5357C24.6379 33.7667 24.5202 34.0121 24.3965 34.2708C23.9004 35.3054 23.2842 36.5914 24.0702 37.6368C26.3021 40.6023 34.7066 35.9069 34.7903 35.8575C34.8546 35.8191 34.908 35.7697 34.9529 35.7156C34.9723 35.712 34.9905 35.7048 35.0099 35.6987C35.0305 35.6927 35.0511 35.6891 35.0705 35.6807L35.0742 35.6795C35.0754 35.6795 35.0754 35.6795 35.0766 35.6783L47.2838 30.889C47.513 30.7988 47.6719 30.5895 47.6962 30.3465L48.1474 25.8375C48.3827 25.9157 48.6302 25.9578 48.8861 25.9578C49.5071 25.9578 50.0905 25.7184 50.5296 25.2829L54.2801 21.5644C54.5409 21.3117 54.5409 20.8979 54.2837 20.6441ZM12.1723 20.1905C12.9535 19.4434 13.6412 19.0681 14.2271 19.0681C14.5376 19.0681 14.819 19.1728 15.0701 19.3833C15.1938 19.4855 15.5686 19.7983 15.2156 20.8594C14.3836 23.3665 10.4766 27.2932 6.88749 30.1444C7.86999 26.5233 9.91745 22.3475 12.1723 20.1905ZM37.5413 33.3119L41.4313 29.4538C41.7005 29.5802 41.9892 29.6511 42.2815 29.6511C42.7886 29.6511 43.2968 29.4598 43.6825 29.0761C44.4539 28.3098 44.4539 27.0634 43.6825 26.2983C42.9099 25.532 41.6532 25.532 40.8806 26.2983C40.2717 26.9022 40.1504 27.8009 40.5009 28.5311L36.611 32.3892L40.1273 23.5722L45.0313 23.0898L46.9162 24.9593L46.4299 29.8232L37.5413 33.3119ZM41.8109 28.1558C41.5513 27.8983 41.5513 27.4797 41.8109 27.2222C42.0705 26.9648 42.4926 26.966 42.7522 27.2222C43.0117 27.4797 43.0117 27.8983 42.7522 28.1558C42.4926 28.4132 42.0693 28.412 41.8109 28.1558Z" fill="#694125"/>
<path d="M41.8111 28.156C41.5516 27.8985 41.5516 27.4799 41.8111 27.2224C42.0707 26.965 42.4928 26.9662 42.7524 27.2224C43.012 27.4799 43.012 27.8985 42.7524 28.156C42.4928 28.4134 42.0695 28.4122 41.8111 28.156Z" fill="#FEC445"/>
</g>
<defs>
<clipPath id="clip0_0_1">
<rect width="54.1403" height="23.3363" fill="white" transform="translate(0.336426 15.5938)"/>
</clipPath>
</defs>
</svg>
