<svg width="57" height="56" viewBox="0 0 57 56" fill="none" xmlns="http://www.w3.org/2000/svg">
<circle cx="28.1713" cy="28.0151" r="27.8432" fill="#F5F5F5"/>
<path d="M45.2249 42.574L35.7289 53.6033H11.7632V6.5625H44.9897L45.2249 42.574Z" fill="white"/>
<path d="M35.729 53.6001H12.3461C11.0855 53.6001 10.0623 52.5739 10.0623 51.3127V38.2805C10.0623 37.8645 10.4012 37.526 10.8178 37.526C11.2344 37.526 11.5733 37.8645 11.5733 38.2805V51.3127C11.5733 51.7417 11.9209 52.091 12.3461 52.091H35.729L45.2251 42.5707L45.2294 6.84596C45.2294 6.41694 44.8818 6.0677 44.4566 6.0677H19.1784C18.7618 6.0677 18.4228 5.72923 18.4228 5.31314C18.4228 4.89706 18.7618 4.55859 19.1784 4.55859H44.4566C45.7173 4.55859 46.7405 5.58478 46.7405 6.84596V42.5621C46.7405 42.9674 46.5829 43.349 46.2958 43.6357L36.804 53.1538C36.5213 53.4362 36.1305 53.6001 35.729 53.6001Z" fill="#694024"/>
<path d="M36.0463 48.2425C35.6297 48.2425 35.2908 47.904 35.2908 47.488V42.8874C35.2908 42.4713 35.6297 42.1328 36.0463 42.1328H45.2207C45.6373 42.1328 45.9763 42.4713 45.9763 42.8874C45.9763 43.3034 45.6373 43.6419 45.2207 43.6419H36.8019V47.488C36.8019 47.904 36.4629 48.2425 36.0463 48.2425Z" fill="#694024"/>
<path d="M9.46852 31.7086C5.25908 31.7086 1.83325 28.2744 1.83325 24.0532V9.33298C1.83325 8.9169 2.17217 8.57843 2.58879 8.57843C3.00542 8.57843 3.34433 8.9169 3.34433 9.33298V24.0532C3.34433 27.4422 6.09234 30.1974 9.46852 30.1974C12.8447 30.1974 15.5927 27.44 15.5927 24.0532V7.03484C15.5949 4.91348 13.8766 3.18879 11.7632 3.18879C9.64985 3.18879 7.93154 4.91348 7.93154 7.03484V24.0553C7.93154 24.9069 8.62231 25.6011 9.46852 25.6011C10.3147 25.6011 11.0055 24.9069 11.0055 24.0553V9.33298C11.0055 8.9169 11.3444 8.57843 11.761 8.57843C12.1777 8.57843 12.5166 8.9169 12.5166 9.33298V24.0532C12.5166 25.7369 11.148 27.108 9.46852 27.108C7.78906 27.108 6.42046 25.7369 6.42046 24.0532V7.03484C6.42046 4.08131 8.8166 1.67969 11.7632 1.67969C14.7098 1.67969 17.1059 4.08131 17.1059 7.03484V24.0553C17.1059 28.2744 13.6801 31.7086 9.46852 31.7086Z" fill="#694024"/>
<path d="M29.093 14.75C34.276 14.75 38.4768 18.9453 38.4768 24.1215C38.4768 31.4105 32.221 33.493 29.093 42.8645C25.9651 33.493 19.7092 31.4105 19.7092 24.1215C19.7092 18.9453 23.91 14.75 29.093 14.75Z" fill="#FEC546"/>
<path d="M29.0929 27.7004C27.1177 27.7004 25.5095 26.0943 25.5095 24.1217C25.5095 22.1491 27.1177 20.543 29.0929 20.543C31.0681 20.543 32.6764 22.1491 32.6764 24.1217C32.6764 26.0943 31.0703 27.7004 29.0929 27.7004Z" fill="white"/>
<path d="M29.0929 43.3273C28.8965 43.3273 28.7217 43.2022 28.6612 43.0147C27.2494 38.7849 25.1814 36.0534 23.3552 33.641C21.1555 30.7349 19.2537 28.2233 19.2537 24.1272C19.2537 18.7074 23.6682 14.3008 29.0929 14.3008C34.5177 14.3008 38.9322 18.7095 38.9322 24.1272C38.9322 28.2255 37.0326 30.7349 34.8307 33.641C33.0045 36.0512 30.9365 38.7849 29.5247 43.0147C29.4642 43.2022 29.2894 43.3273 29.0929 43.3273ZM29.0929 15.2127C24.1711 15.2127 20.1646 19.2118 20.1646 24.1293C20.1646 27.9215 21.8937 30.2045 24.0805 33.0934C25.7707 35.3269 27.6661 37.8277 29.0908 41.5228C30.5177 37.8277 32.4108 35.3247 34.1011 33.0934C36.29 30.2024 38.0169 27.9193 38.0169 24.1293C38.0213 19.2118 34.0169 15.2127 29.0929 15.2127Z" fill="#694024"/>
<path d="M29.093 43.5397C28.8037 43.5397 28.5468 43.3543 28.4562 43.0805C27.0552 38.8852 24.998 36.1666 23.1825 33.7693C20.9591 30.8309 19.0378 28.2934 19.0378 24.124C19.0378 18.5856 23.5495 14.082 29.093 14.082C34.6387 14.082 39.1481 18.5878 39.1481 24.124C39.1481 28.2934 37.2269 30.8309 35.0035 33.7672C33.188 36.1666 31.1308 38.883 29.7298 43.0783C29.6391 43.3543 29.3823 43.5397 29.093 43.5397ZM29.093 14.5132C23.7869 14.5132 19.4696 18.8249 19.4696 24.124C19.4696 28.149 21.3498 30.6326 23.5279 33.5085C25.3628 35.9338 27.4438 38.6804 28.8663 42.9425C28.8987 43.0417 28.9915 43.1063 29.0952 43.1063C29.1988 43.1063 29.2894 43.0395 29.324 42.9425C30.7465 38.6804 32.8275 35.9317 34.6624 33.5085C36.8405 30.6326 38.7207 28.149 38.7207 24.124C38.7186 18.8249 34.4012 14.5132 29.093 14.5132ZM29.093 42.119L28.8922 41.5972C27.4761 37.9301 25.583 35.4272 23.91 33.2196C21.6973 30.2984 19.9488 27.9895 19.9488 24.1262C19.9488 19.0901 24.0503 14.994 29.093 14.994C34.1357 14.994 38.2372 19.0901 38.2372 24.1262C38.2372 27.9895 36.4886 30.2984 34.276 33.2217C32.603 35.4293 30.7098 37.9323 29.2938 41.5994L29.093 42.119ZM29.093 15.4251C24.2899 15.4251 20.3805 19.3272 20.3805 24.1262C20.3805 27.845 22.0902 30.1022 24.2532 32.9609C25.8636 35.0887 27.6812 37.4882 29.093 40.9376C30.5048 37.4882 32.3202 35.0887 33.9328 32.9609C36.0958 30.1022 37.8054 27.845 37.8054 24.1262C37.8054 19.3272 33.8961 15.4251 29.093 15.4251Z" fill="#694024"/>
<path d="M29.0929 27.7082C27.1177 27.7082 25.5095 26.1021 25.5095 24.1295C25.5095 22.1569 27.1177 20.5508 29.0929 20.5508C31.0681 20.5508 32.6764 22.1569 32.6764 24.1295C32.6764 26.1021 31.0703 27.7082 29.0929 27.7082ZM29.0929 21.4606C27.6207 21.4606 26.4205 22.6571 26.4205 24.1295C26.4205 25.5998 27.6186 26.7985 29.0929 26.7985C30.5652 26.7985 31.7654 25.602 31.7654 24.1295C31.7654 22.6571 30.5673 21.4606 29.0929 21.4606Z" fill="#694024"/>
<path d="M29.093 27.9207C26.9969 27.9207 25.2937 26.2175 25.2937 24.1263C25.2937 22.0352 26.9991 20.332 29.093 20.332C31.1869 20.332 32.8923 22.0352 32.8923 24.1263C32.8923 26.2175 31.1891 27.9207 29.093 27.9207ZM29.093 20.761C27.2365 20.761 25.7254 22.2701 25.7254 24.1242C25.7254 25.9782 27.2365 27.4873 29.093 27.4873C30.9495 27.4873 32.4605 25.9782 32.4605 24.1242C32.4605 22.2701 30.9516 20.761 29.093 20.761ZM29.093 27.0087C27.4999 27.0087 26.2047 25.7152 26.2047 24.1242C26.2047 22.5332 27.4999 21.2396 29.093 21.2396C30.6861 21.2396 31.9813 22.5332 31.9813 24.1242C31.9813 25.7152 30.6861 27.0087 29.093 27.0087ZM29.093 21.673C27.7395 21.673 26.6364 22.7725 26.6364 24.1263C26.6364 25.4802 27.7373 26.5797 29.093 26.5797C30.4486 26.5797 31.5496 25.4802 31.5496 24.1263C31.5496 22.7725 30.4486 21.673 29.093 21.673Z" fill="#694024"/>
</svg>
