<svg width="65" height="65" viewBox="0 0 65 65" fill="none" xmlns="http://www.w3.org/2000/svg">
<circle cx="32.5" cy="32.5" r="32.5" fill="#F5F5F5"/>
<path d="M27.1131 50.9484C26.5549 53.0685 25.3423 54.9216 23.1584 54.9216H16.0238C15.8965 54.9216 15.7737 54.9732 15.6844 55.063L9.84277 60.9319C9.53907 61.237 9.02101 61.0216 9.02101 60.5909V55.4062C9.02101 55.1392 8.80664 54.9216 8.53867 54.9216H6.0265C3.84258 54.9216 2.07178 53.1426 2.07178 50.9484V37.7658C2.07178 35.5717 3.84258 33.7926 6.0265 33.7926H18.201C18.201 33.7904 32.2491 31.4639 27.1131 50.9484Z" fill="white"/>
<path d="M48.9101 14.1445H54.7361C58.1549 14.1445 60.9261 16.9287 60.9261 20.3634V40.9989C60.9261 44.4337 58.1549 47.2178 54.7361 47.2178H51.6545C51.2391 47.2178 50.9019 47.5566 50.9019 47.9739V56.0908C50.9019 56.7661 50.0913 57.1026 49.6157 56.627L40.4714 47.4399C40.3307 47.2986 40.1387 47.2178 39.9377 47.2178H28.5469C25.1281 47.2178 22.3569 44.4337 22.3569 40.9989V20.3634C22.3569 16.9287 25.1281 14.1445 28.5469 14.1445H36.7712H48.9101Z" fill="white"/>
<path d="M51.9202 24.0207H44.6404V10.2637L31.365 28.29H38.6447V42.0447L51.9202 24.0207Z" fill="#FEC546"/>
<path d="M9.50344 61.9984C9.32256 61.9984 9.13945 61.9625 8.96527 61.8907C8.44051 61.6731 8.10109 61.1616 8.10109 60.5895V55.8446H6.02659C3.338 55.8446 1.15186 53.6482 1.15186 50.9493V37.7666C1.15186 35.0655 3.338 32.8691 6.02659 32.8691H18.2011C18.708 32.8691 19.1212 33.2819 19.1212 33.7935C19.1212 34.305 18.7103 34.7178 18.2011 34.7178H6.02659C4.35404 34.7178 2.99188 36.0863 2.99188 37.7666V50.9493C2.99188 52.6297 4.35404 53.9982 6.02659 53.9982H8.53876C9.3114 53.9982 9.93888 54.6286 9.93888 55.4048V59.5261L15.0325 54.4087C15.2982 54.1418 15.6488 53.9959 16.0239 53.9959H23.1585C24.831 53.9959 26.1932 52.6274 26.1932 50.9471C26.1932 50.4378 26.6041 50.0227 27.1132 50.0227C27.6223 50.0227 28.0332 50.4355 28.0332 50.9471C28.0332 53.6482 25.8471 55.8446 23.1585 55.8446H16.2048L10.4927 61.5834C10.2247 61.8548 9.86742 61.9984 9.50344 61.9984Z" fill="#694125"/>
<path d="M50.147 57.7719C49.7115 57.7719 49.2872 57.6014 48.9657 57.2783L39.8705 48.1407H28.549C24.6278 48.1407 21.439 44.937 21.439 40.9974V20.362C21.439 16.4224 24.6278 13.2188 28.549 13.2188H36.7733C37.2802 13.2188 37.6933 13.6315 37.6933 14.1431C37.6933 14.6546 37.2824 15.0674 36.7733 15.0674H28.549C25.6438 15.0674 23.279 17.4432 23.279 20.362V40.9974C23.279 43.9162 25.6438 46.292 28.549 46.292H39.9397C40.3863 46.292 40.8061 46.467 41.1232 46.7834L49.9839 55.6855V47.9724C49.9839 47.0459 50.7343 46.292 51.6565 46.292H54.7381C57.6433 46.292 60.0081 43.9162 60.0081 40.9974V20.362C60.0081 17.4432 57.6433 15.0674 54.7381 15.0674H48.9121C48.4052 15.0674 47.9921 14.6546 47.9921 14.1431C47.9921 13.6315 48.403 13.2188 48.9121 13.2188H54.7381C58.6593 13.2188 61.8481 16.4224 61.8481 20.362V40.9974C61.8481 44.937 58.6593 48.1407 54.7381 48.1407H51.824V56.0893C51.824 56.7713 51.4176 57.3815 50.7923 57.6418C50.5802 57.7293 50.3613 57.7719 50.147 57.7719Z" fill="#694125"/>
<path d="M13.1813 48.0669C12.9468 48.0669 12.7101 47.9771 12.5315 47.7954L9.23326 44.4818C8.87374 44.1206 8.87374 43.5351 9.23326 43.1761C9.59278 42.8172 10.1756 42.8149 10.5329 43.1761L13.1813 45.8369L17.5491 41.4486C17.9086 41.0874 18.4915 41.0874 18.8487 41.4486C19.2083 41.8098 19.2083 42.3954 18.8487 42.7543L13.8311 47.7954C13.6525 47.9771 13.4158 48.0669 13.1813 48.0669Z" fill="#694125"/>
<path d="M38.6446 42.9693C38.5486 42.9693 38.4525 42.9536 38.3565 42.9222C37.9791 42.7966 37.7246 42.4444 37.7246 42.045V29.2124H31.3649C31.0165 29.2124 30.6994 29.0149 30.5431 28.7053C30.3868 28.3935 30.418 28.0211 30.6257 27.7406L43.9012 9.71433C44.1379 9.39351 44.551 9.26115 44.9284 9.38678C45.3057 9.51242 45.5603 9.86464 45.5603 10.264V23.0967H51.92C52.2684 23.0967 52.5855 23.2941 52.7418 23.6037C52.8981 23.9133 52.8668 24.2879 52.6592 24.5684L39.3837 42.5947C39.2073 42.8347 38.9304 42.9693 38.6446 42.9693ZM33.1893 27.366H38.6446C39.1515 27.366 39.5646 27.7788 39.5646 28.2903V39.2452L50.0956 24.9453H44.6403C44.1334 24.9453 43.7203 24.5325 43.7203 24.021V13.0661L33.1893 27.366Z" fill="#694125"/>
</svg>
