<svg width="68" height="65" viewBox="0 0 68 65" fill="none" xmlns="http://www.w3.org/2000/svg">
<circle cx="32.5" cy="32.5" r="32.5" fill="#F5F5F5"/>
<g clip-path="url(#clip0_0_1)">
<path d="M33.5417 51.9396C45.2473 51.9396 54.7365 42.3207 54.7365 30.4551C54.7365 18.5896 45.2473 8.9707 33.5417 8.9707C21.8362 8.9707 12.3469 18.5896 12.3469 30.4551C12.3469 42.3207 21.8362 51.9396 33.5417 51.9396Z" fill="white"/>
<path d="M33.6911 45.7614C41.7461 45.7614 48.2758 39.1423 48.2758 30.9774C48.2758 22.8124 41.7461 16.1934 33.6911 16.1934C25.6362 16.1934 19.1064 22.8124 19.1064 30.9774C19.1064 39.1423 25.6362 45.7614 33.6911 45.7614Z" fill="#FFC647"/>
<path d="M33.6911 37.7852C37.6024 37.7852 40.7731 34.5712 40.7731 30.6065C40.7731 26.6418 37.6024 23.4277 33.6911 23.4277C29.7798 23.4277 26.6091 26.6418 26.6091 30.6065C26.6091 34.5712 29.7798 37.7852 33.6911 37.7852Z" fill="white"/>
<path d="M54.3982 27.4063C53.9342 27.4063 53.5213 27.0715 53.4348 26.5932C51.6417 16.9032 43.2661 9.87198 33.5259 9.87198C30.2582 9.87198 27.1439 10.6373 24.2576 12.14C23.7739 12.3911 23.1841 12.1998 22.9324 11.7095C22.6847 11.2192 22.8734 10.6174 23.3571 10.3662C26.4754 8.73597 29.9908 7.875 33.5259 7.875C44.2137 7.875 53.3955 15.5919 55.3656 26.2185C55.4639 26.7606 55.1139 27.2788 54.5791 27.3824C54.5201 27.4023 54.4572 27.4063 54.3982 27.4063Z" fill="#694024"/>
<path d="M16.7076 44.5585C16.4127 44.5585 16.1217 44.4269 15.929 44.1718C12.9012 40.2018 11.3008 35.4425 11.3008 30.4082C11.3008 26.781 12.1698 23.1777 13.8174 19.9849C14.0691 19.4986 14.6628 19.3073 15.1426 19.5624C15.6223 19.8175 15.8111 20.4194 15.5594 20.9056C14.0612 23.8154 13.2669 27.0999 13.2669 30.4042C13.2669 34.9921 14.7258 39.3289 17.4862 42.9481C17.8165 43.3826 17.7379 44.0084 17.3092 44.3472C17.1284 44.4907 16.916 44.5585 16.7076 44.5585Z" fill="#694024"/>
<path d="M33.526 52.9363C28.9842 52.9363 24.6155 51.5572 20.8917 48.9464C20.4434 48.6315 20.3333 48.0136 20.6439 47.5592C20.9546 47.1088 21.5641 46.9932 22.0124 47.3081C25.4059 49.6878 29.3853 50.9433 33.526 50.9433C43.1364 50.9433 51.4845 44.0237 53.3838 34.4932C53.49 33.9551 54.009 33.6003 54.5399 33.712C55.0707 33.8196 55.4168 34.3457 55.3106 34.8838C53.2265 45.347 44.0644 52.9363 33.526 52.9363Z" fill="#694024"/>
<path d="M47.3949 28.5153C46.9388 28.5153 46.5298 28.1884 46.4315 27.7181C45.185 21.5398 39.7585 17.0516 33.5259 17.0516C31.0525 17.0516 28.642 17.7491 26.5579 19.0685C26.0979 19.3595 25.4923 19.216 25.2053 18.7496C24.9182 18.2833 25.0598 17.6694 25.5198 17.3784C27.9185 15.8598 30.6907 15.0586 33.5298 15.0586C40.6904 15.0586 46.9309 20.2125 48.3662 27.3155C48.4763 27.8536 48.1302 28.3797 47.5994 28.4914C47.5286 28.5073 47.4618 28.5153 47.3949 28.5153Z" fill="#694024"/>
<path d="M21.682 39.2766C21.3635 39.2766 21.0489 39.1171 20.8601 38.8261C19.24 36.323 18.3828 33.4132 18.3828 30.4078C18.3828 27.4781 19.2007 24.6281 20.7461 22.1687C21.0371 21.7024 21.6466 21.5669 22.1027 21.8658C22.5589 22.1608 22.6965 22.7786 22.4055 23.241C21.0607 25.3814 20.3489 27.8567 20.3489 30.4078C20.3489 33.0226 21.0961 35.5576 22.5038 37.734C22.8027 38.1924 22.6768 38.8102 22.2207 39.1131C22.0555 39.2247 21.8668 39.2766 21.682 39.2766Z" fill="#694024"/>
<path d="M33.5259 45.7619C30.8638 45.7619 28.2449 45.0524 25.9563 43.7091C25.4845 43.4341 25.3272 42.8242 25.5985 42.3459C25.8698 41.8716 26.4715 41.7042 26.9433 41.9832C28.937 43.1511 31.2137 43.7689 33.5298 43.7689C39.5934 43.7689 44.8508 39.6115 46.3175 33.6565C46.4473 33.1224 46.982 32.7955 47.509 32.931C48.0359 33.0626 48.3544 33.6047 48.2246 34.1388C46.5338 40.9787 40.4899 45.7619 33.5259 45.7619Z" fill="#694024"/>
<path d="M39.9669 28.4226C39.5933 28.4226 39.2394 28.2073 39.0743 27.8406C38.0833 25.6483 35.9049 24.2293 33.5259 24.2293C32.8377 24.2293 32.1614 24.3449 31.5165 24.5721C31.0053 24.7515 30.443 24.4804 30.2621 23.9583C30.0812 23.4401 30.3526 22.8701 30.8677 22.6907C31.721 22.3878 32.6175 22.2363 33.5259 22.2363C36.6717 22.2363 39.5501 24.1097 40.8595 27.0115C41.0836 27.5098 40.8674 28.1037 40.3758 28.3309C40.2421 28.3947 40.1045 28.4226 39.9669 28.4226Z" fill="#694024"/>
<path d="M26.908 33.9636C26.5108 33.9636 26.1373 33.7204 25.9879 33.3218C25.6379 32.3931 25.4609 31.4125 25.4609 30.412C25.4609 29.4116 25.6379 28.435 25.9839 27.5103C26.1766 26.9961 26.7429 26.737 27.254 26.9323C27.7613 27.1276 28.0169 27.7016 27.8242 28.2198C27.5608 28.9213 27.4271 29.6587 27.4271 30.416C27.4271 31.1734 27.5608 31.9148 27.8242 32.6163C28.0169 33.1305 27.7613 33.7084 27.254 33.9038C27.14 33.9396 27.022 33.9636 26.908 33.9636Z" fill="#694024"/>
<path d="M33.5258 38.5836C32.9556 38.5836 32.3894 38.5238 31.8389 38.4042C31.308 38.2886 30.9699 37.7585 31.0839 37.2204C31.1979 36.6823 31.717 36.3395 32.2518 36.4551C32.6686 36.5468 33.0972 36.5906 33.5297 36.5906C35.8773 36.5906 37.9771 35.2633 39.0113 33.1228C39.2512 32.6285 39.8371 32.4213 40.3247 32.6644C40.8123 32.9076 41.0128 33.5015 40.7769 33.9957C39.4045 36.8258 36.6283 38.5836 33.5258 38.5836Z" fill="#694024"/>
<path d="M9.81047 56.0972C9.5588 56.0972 9.30714 56.0015 9.11446 55.8062C8.7291 55.4156 8.7291 54.7858 9.11446 54.3952L31.8782 31.3203C32.2636 30.9297 32.8849 30.9297 33.2702 31.3203C33.6556 31.7109 33.6556 32.3407 33.2702 32.7314L10.5065 55.8062C10.3138 55.9975 10.0621 56.0972 9.81047 56.0972Z" fill="#694024"/>
<path d="M9.8105 55.1017L3.98291 53.7864L7.05006 50.6773C8.56791 49.1387 10.7582 48.493 12.8541 48.9633L15.3156 49.5174L9.8105 55.1017Z" fill="white"/>
<path d="M9.81053 56.098C9.73975 56.098 9.66897 56.09 9.59819 56.0741L3.7706 54.7627C3.42063 54.6829 3.14144 54.4159 3.0392 54.0691C2.9409 53.7183 3.03527 53.3437 3.28693 53.0846L6.35408 49.9795C8.11966 48.1898 10.6284 47.4484 13.0664 47.9984L15.528 48.5525C15.878 48.6322 16.1572 48.8993 16.2594 49.2461C16.3577 49.5968 16.2633 49.9715 16.0117 50.2306L10.5065 55.811C10.3178 55.9943 10.0661 56.098 9.81053 56.098ZM5.94513 53.2081L9.49595 54.0093L13.3495 50.1031L12.6378 49.9436C10.8604 49.545 9.03194 50.0831 7.74217 51.3865L5.94513 53.2081Z" fill="#694024"/>
<path d="M9.81055 55.1019L11.1043 61.0091L14.1714 57.9C15.6893 56.3614 16.3263 54.1412 15.8623 52.0167L15.3157 49.5215L9.81055 55.1019Z" fill="#FFC647"/>
<path d="M11.1042 62.0007C11.0137 62.0007 10.9193 61.9888 10.8289 61.9608C10.4829 61.8612 10.2233 61.5742 10.1447 61.2195L8.85099 55.3122C8.77627 54.9814 8.87851 54.6306 9.11445 54.3915L14.6196 48.8111C14.8752 48.556 15.2448 48.4564 15.5909 48.56C15.9369 48.6596 16.1964 48.9466 16.2751 49.3014L16.8216 51.7966C17.3643 54.2679 16.6329 56.811 14.8673 58.6007L11.8002 61.7057C11.6114 61.9011 11.3598 62.0007 11.1042 62.0007ZM10.8879 55.4159L11.6783 59.0152L13.4792 57.1936C14.7651 55.8902 15.2999 54.0327 14.9027 52.2311L14.7454 51.5096L10.8879 55.4159Z" fill="#694024"/>
<path d="M31.4496 29.2761C31.198 29.2761 30.9463 29.1805 30.7536 28.9851L13.613 11.6103C13.2276 11.2196 13.2276 10.5898 13.613 10.1992C13.9984 9.80859 14.6196 9.80859 15.005 10.1992L32.1457 27.5741C32.531 27.9647 32.531 28.5945 32.1457 28.9851C31.953 29.1765 31.7013 29.2761 31.4496 29.2761Z" fill="#694024"/>
<path d="M14.3091 10.9053L15.6028 4.99805L18.6699 8.10711C20.1878 9.6457 20.8248 11.8659 20.3608 13.9904L19.8142 16.4856L14.3091 10.9053Z" fill="#FFC647"/>
<path d="M19.8141 17.4812C19.5585 17.4812 19.3069 17.3775 19.1181 17.1902L13.613 11.6098C13.377 11.3707 13.2748 11.0199 13.3495 10.6891L14.6432 4.78185C14.7219 4.4271 14.9853 4.14409 15.3274 4.04046C15.6735 3.93682 16.0431 4.03647 16.2987 4.29157L19.3619 7.40064C21.1275 9.19034 21.8589 11.7334 21.3162 14.2047L20.7697 16.6999C20.691 17.0547 20.4276 17.3377 20.0855 17.4413C19.9989 17.4652 19.9046 17.4812 19.8141 17.4812ZM15.3864 10.5854L19.24 14.4917L19.3973 13.7702C19.7905 11.9686 19.2597 10.1151 17.9699 8.80769L16.1729 6.98211L15.3864 10.5854Z" fill="#694024"/>
<path d="M14.309 10.9062L8.48145 12.2176L11.5486 15.3267C13.0664 16.8653 15.2567 17.511 17.3526 17.0407L19.8142 16.4866L14.309 10.9062Z" fill="white"/>
<path d="M15.9764 18.1877C14.0732 18.1877 12.2368 17.4303 10.8566 16.0273L7.78947 12.9182C7.53387 12.6591 7.4395 12.2844 7.54174 11.9337C7.64398 11.5829 7.92317 11.3198 8.27314 11.2401L14.1007 9.92871C14.4271 9.85297 14.7731 9.95661 15.0091 10.1958L20.5142 15.7761C20.7698 16.0352 20.8642 16.4099 20.7619 16.7607C20.6597 17.1114 20.3805 17.3745 20.0305 17.4542L17.569 18.0083C17.0342 18.1319 16.5033 18.1877 15.9764 18.1877ZM10.4437 12.7946L12.2447 14.6202C13.5305 15.9236 15.363 16.4657 17.1403 16.0631L17.8521 15.9037L13.9985 11.9974L10.4437 12.7946Z" fill="#694024"/>
<path d="M63.8119 31.7196H36.298C35.7554 31.7196 35.3149 31.2731 35.3149 30.7231C35.3149 30.173 35.7554 29.7266 36.298 29.7266H63.808C64.3506 29.7266 64.791 30.173 64.791 30.7231C64.791 31.2731 64.3546 31.7196 63.8119 31.7196Z" fill="#694024"/>
<path d="M63.8122 30.7213L67.0169 25.6152H62.6836C60.5366 25.6152 58.539 26.7273 57.383 28.5649L56.0303 30.7213H63.8122Z" fill="white"/>
<path d="M63.8121 31.7182H56.0302C55.6723 31.7182 55.342 31.5189 55.169 31.2C54.996 30.8811 55.0078 30.4905 55.2005 30.1876L56.5532 28.0311C57.8941 25.8947 60.1826 24.6191 62.6796 24.6191H67.0129C67.3708 24.6191 67.7011 24.8184 67.8741 25.1373C68.0471 25.4562 68.0353 25.8468 67.8426 26.1498L64.6379 31.2558C64.4609 31.5428 64.1463 31.7182 63.8121 31.7182ZM57.8193 29.7252H63.2734L65.2277 26.6121H62.6835C60.8629 26.6121 59.1917 27.5409 58.2126 29.0994L57.8193 29.7252Z" fill="#694024"/>
<path d="M63.8122 30.8301L67.0169 35.9361H62.6836C60.5366 35.9361 58.539 34.824 57.383 32.9865L56.0303 30.8301H63.8122Z" fill="#FFC647"/>
<path d="M67.0168 36.9291H62.6835C60.1865 36.9291 57.894 35.6536 56.5571 33.5171L55.2044 31.3607C55.0117 31.0538 54.9999 30.6631 55.1729 30.3483C55.3459 30.0334 55.6762 29.8301 56.0341 29.8301H63.816C64.1502 29.8301 64.4648 30.0055 64.6457 30.2925L67.8505 35.3985C68.0432 35.7054 68.055 36.096 67.8819 36.4109C67.7089 36.7258 67.3747 36.9291 67.0168 36.9291ZM57.8193 31.8271L58.2125 32.4529C59.1917 34.0114 60.8629 34.9401 62.6835 34.9401H65.2277L63.2733 31.8271H57.8193Z" fill="#694024"/>
<path d="M23.2155 59.9001C22.9638 59.9001 22.7122 59.8044 22.5195 59.6091C22.1341 59.2184 22.1341 58.5887 22.5195 58.198L26.6995 53.9609C27.0848 53.5703 27.7061 53.5703 28.0915 53.9609C28.4768 54.3516 28.4768 54.9814 28.0915 55.372L23.9115 59.6091C23.7188 59.8004 23.4672 59.9001 23.2155 59.9001Z" fill="#694024"/>
<path d="M43.4665 59.9001C43.2149 59.9001 42.9632 59.8044 42.7705 59.6091L38.5905 55.372C38.2052 54.9814 38.2052 54.3516 38.5905 53.9609C38.9759 53.5703 39.5972 53.5703 39.9825 53.9609L44.1625 58.198C44.5479 58.5887 44.5479 59.2184 44.1625 59.6091C43.9698 59.8004 43.7182 59.9001 43.4665 59.9001Z" fill="#694024"/>
</g>
<defs>
<clipPath id="clip0_0_1">
<rect width="65" height="58" fill="white" transform="translate(3 4)"/>
</clipPath>
</defs>
</svg>
