<svg width="85" height="65" viewBox="0 0 85 65" fill="none" xmlns="http://www.w3.org/2000/svg">
<circle cx="42.5" cy="32.5" r="32.5" fill="#F5F5F5"/>
<path d="M66.5123 11.123H17.9688V46.605H66.5123V11.123Z" fill="white"/>
<path d="M1.63501 42.0854L5.91193 52.7274H13.6957C13.6957 52.7274 12.178 53.6276 12.2186 54.8884C12.2592 56.1491 72.7457 55.5198 72.7457 55.5198L72.7335 53.0248L67.8084 52.7274L65.6202 46.1345L61.8553 43.2057H55.3292H53.399C53.399 43.2057 50.4529 40.0569 48.3134 39.9693L43.0084 49.1937L38.3332 39.3379C38.3332 39.3379 32.7458 40.2463 31.5978 43.2036C31.5978 43.2036 22.5178 42.3339 20.9594 44.2648C19.401 46.1956 19.271 47.6437 19.271 47.6437L17.3753 41.3054L1.63501 42.0854Z" fill="white"/>
<path d="M17.3753 41.3066L19.271 47.645L17.7227 52.7266H5.91193L1.63501 42.0847L17.3753 41.3066Z" fill="#FFC647"/>
<path d="M65.6223 46.1341L67.8106 41.1543L83.4289 42.189L79.4588 52.3197L67.8106 52.727L65.6223 46.1341Z" fill="#FFC647"/>
<path d="M31.5958 55.644C38.5892 55.6908 46.4746 55.6827 53.4599 55.6521L54.6566 53.3628L53.3989 43.2056C53.3989 43.2056 50.4528 40.0569 48.3133 39.9693L43.0083 49.1936L38.3332 39.3379C38.3332 39.3379 34.739 39.9245 32.7234 41.6822L31.5958 43.2036L29.948 54.5604L31.5958 55.644Z" fill="#FFC647"/>
<path d="M57.9524 39.3293C60.108 39.3293 61.8555 37.3524 61.8555 34.9137C61.8555 32.475 60.108 30.498 57.9524 30.498C55.7968 30.498 54.0493 32.475 54.0493 34.9137C54.0493 37.3524 55.7968 39.3293 57.9524 39.3293Z" fill="#FFC647"/>
<path d="M42.8154 36.4159C45.3985 36.4159 47.4925 34.1052 47.4925 31.2548C47.4925 28.4044 45.3985 26.0938 42.8154 26.0938C40.2322 26.0938 38.1382 28.4044 38.1382 31.2548C38.1382 34.1052 40.2322 36.4159 42.8154 36.4159Z" fill="#FFC647"/>
<path d="M27.0711 56.1475H2.13083C1.7834 56.1475 1.50098 55.8665 1.50098 55.5162C1.50098 55.1679 1.78136 54.8848 2.13083 54.8848H27.0711C27.4185 54.8848 27.7009 55.1658 27.7009 55.5162C27.7009 55.8665 27.4185 56.1475 27.0711 56.1475Z" fill="#694125"/>
<path d="M27.0712 56.4539H2.13091C1.61687 56.4539 1.19629 56.0343 1.19629 55.517C1.19629 54.9996 1.61484 54.5801 2.13091 54.5801H27.0712C27.5852 54.5801 28.0058 54.9996 28.0058 55.517C28.0058 56.0343 27.5852 56.4539 27.0712 56.4539ZM2.13091 55.1931C1.95212 55.1931 1.80583 55.3398 1.80583 55.519C1.80583 55.6982 1.95212 55.8449 2.13091 55.8449H27.0712C27.25 55.8449 27.3962 55.6982 27.3962 55.519C27.3962 55.3398 27.25 55.1931 27.0712 55.1931H2.13091Z" fill="#694226"/>
<path d="M27.071 40.5225C24.3626 40.5225 22.5442 38.386 22.5442 35.2046C22.5442 32.0233 24.3626 29.8867 27.071 29.8867C29.7794 29.8867 31.5958 32.0233 31.5958 35.2046C31.5958 38.386 29.7794 40.5225 27.071 40.5225ZM27.071 31.1475C24.6613 31.1475 23.8019 33.2433 23.8019 35.2046C23.8019 37.166 24.6613 39.2618 27.071 39.2618C29.4807 39.2618 30.3381 37.166 30.3381 35.2046C30.3381 33.2433 29.4807 31.1475 27.071 31.1475Z" fill="#694125"/>
<path d="M27.0711 40.8289C24.1819 40.8289 22.2395 38.5681 22.2395 35.2055C22.2395 31.8428 24.1819 29.582 27.0711 29.582C29.9603 29.582 31.9007 31.8428 31.9007 35.2055C31.9007 38.5681 29.9603 40.8289 27.0711 40.8289ZM27.0711 30.1931C24.5456 30.1931 22.849 32.2074 22.849 35.2055C22.849 38.2035 24.5456 40.2179 27.0711 40.2179C29.5966 40.2179 31.2911 38.2035 31.2911 35.2055C31.2911 32.2074 29.5966 30.1931 27.0711 30.1931ZM27.0711 39.5681C25.3441 39.5681 23.4972 38.4215 23.4972 35.2055C23.4972 31.9895 25.3441 30.8428 27.0711 30.8428C28.7981 30.8428 30.643 31.9895 30.643 35.2055C30.643 38.4215 28.7981 39.5681 27.0711 39.5681ZM27.0711 31.4538C26.3762 31.4538 24.1067 31.7247 24.1067 35.2055C24.1067 38.6862 26.3762 38.9571 27.0711 38.9571C29.2553 38.9571 30.0335 37.0181 30.0335 35.2055C30.0335 33.3928 29.2553 31.4538 27.0711 31.4538Z" fill="#694226"/>
<path d="M9.98991 53.0243H5.24771C4.99577 53.0243 4.76821 52.8735 4.66865 52.6414L0.412049 42.6838C0.237315 42.2703 0.27795 41.7978 0.525829 41.423C0.773708 41.0483 1.18819 40.8242 1.63722 40.8242H16.1584C16.8939 40.8242 17.5421 41.2662 17.8143 41.9526L19.6389 46.8326C19.7608 47.1585 19.5962 47.523 19.2711 47.6452C18.9481 47.7654 18.5824 47.6025 18.4625 47.2766L16.64 42.4068C16.5648 42.2194 16.3697 42.085 16.1564 42.085H1.63519L5.66626 51.7615H9.98991C10.3373 51.7615 10.6198 52.0426 10.6198 52.3929C10.6198 52.7432 10.3373 53.0243 9.98991 53.0243Z" fill="#694125"/>
<path d="M9.98991 53.3306H5.24771C4.87386 53.3306 4.53658 53.1086 4.38826 52.7623L0.131659 42.8047C-0.0837108 42.2956 -0.0329161 41.7151 0.269821 41.2548C0.57459 40.7945 1.0866 40.5195 1.63518 40.5195H16.1564C17.0158 40.5195 17.7778 41.0369 18.0947 41.8393L19.9233 46.7255C20.0107 46.9597 20.0026 47.2122 19.901 47.4404C19.7974 47.6685 19.6125 47.8416 19.3788 47.9312C18.8953 48.1104 18.3548 47.864 18.176 47.3833L16.3535 42.5135C16.3271 42.4463 16.2397 42.3913 16.1564 42.3913H2.09234L5.86944 51.4568H9.98991C10.504 51.4568 10.9245 51.8764 10.9245 52.3937C10.9245 52.911 10.504 53.3306 9.98991 53.3306ZM1.63518 41.1306C1.28978 41.1306 0.970789 41.3037 0.777769 41.5929C0.588812 41.8821 0.556303 42.2446 0.692433 42.5644L4.94904 52.52C4.99983 52.6401 5.11768 52.7175 5.24771 52.7175H9.98991C10.1687 52.7175 10.315 52.5709 10.315 52.3917C10.315 52.2124 10.1687 52.0658 9.98991 52.0658H5.46308L1.17803 41.7803H16.1564C16.4916 41.7803 16.7984 41.986 16.9224 42.2935L18.7469 47.1695C18.8099 47.3365 18.9968 47.422 19.1655 47.3589C19.2447 47.3283 19.3097 47.2672 19.3463 47.1898C19.3808 47.1104 19.3849 47.0228 19.3544 46.9414L17.5279 42.0593C17.3044 41.4972 16.7659 41.1306 16.1564 41.1306H1.63518Z" fill="#694226"/>
<path d="M21.8434 56.1529L12.2614 56.1509C11.914 56.1509 11.6316 55.8678 11.6316 55.5195V54.2547C11.6316 52.8799 12.747 51.7638 14.1185 51.7638L17.3044 51.7617C17.5299 50.7434 18.0297 48.5009 18.0338 48.4826C18.7632 44.9631 21.9186 42.3887 25.5372 42.3887H29.3204C29.6678 42.3887 29.9502 42.6697 29.9502 43.0201C29.9502 43.3704 29.6698 43.6514 29.3204 43.6514H25.5372C22.5118 43.6514 19.8725 45.8022 19.2589 48.7637C19.2346 48.8757 18.4218 52.5296 18.4218 52.5296C18.3589 52.8168 18.1028 53.0225 17.8082 53.0225L14.1185 53.0265C13.4419 53.0265 12.8893 53.5785 12.8893 54.2567V54.8902L21.3354 54.8922L22.1705 51.1181C22.2457 50.78 22.5728 50.5662 22.9202 50.6395C23.2595 50.7148 23.4729 51.0509 23.3977 51.391L22.4549 55.658C22.394 55.9472 22.138 56.1529 21.8434 56.1529Z" fill="#694125"/>
<path d="M21.8435 56.4593L12.2615 56.4572C11.7475 56.4572 11.3269 56.0377 11.3269 55.5203V54.2555C11.3269 52.7137 12.5785 51.4591 14.1186 51.4591L17.0606 51.457C17.2455 50.622 17.7331 48.4345 17.7392 48.406C18.4951 44.7501 21.7764 42.084 25.5373 42.084H29.3204C29.8345 42.084 30.2551 42.5036 30.2551 43.0209C30.2551 43.5382 29.8365 43.9578 29.3204 43.9578H25.5373C22.6562 43.9578 20.1408 46.0067 19.5577 48.8276C19.5333 48.9437 18.7186 52.5976 18.7186 52.5976C18.6231 53.0294 18.2472 53.3288 17.8063 53.3288L14.1166 53.3329C13.6066 53.3329 13.1921 53.7484 13.1921 54.2576V54.5855L21.0897 54.5875L21.8719 51.0538C21.9837 50.5466 22.4713 50.233 22.9833 50.3409C23.4892 50.4529 23.8062 50.954 23.6964 51.4591L22.7537 55.726C22.6602 56.1497 22.2762 56.4593 21.8435 56.4593ZM25.5373 42.695C22.0629 42.695 19.0335 45.1554 18.3325 48.5445C18.3163 48.6138 17.8408 50.7523 17.6011 51.8277L17.5483 52.066L14.1186 52.0681C12.9158 52.0681 11.9364 53.0498 11.9364 54.2535V55.5183C11.9364 55.6975 12.0827 55.8442 12.2615 55.8442L21.8435 55.8462C21.9938 55.8462 22.1279 55.7383 22.1604 55.5916L23.1032 51.3247C23.1418 51.1495 23.0321 50.9764 22.8573 50.9356C22.6785 50.899 22.5099 51.0028 22.4713 51.1821L21.5834 55.1944L12.5866 55.1924V54.2535C12.5866 53.4062 13.2754 52.7178 14.1206 52.7178L17.8104 52.7137C17.9607 52.7137 18.0948 52.6078 18.1273 52.4591C18.1273 52.4591 18.94 48.8052 18.9644 48.6932C19.6065 45.5933 22.3717 43.3406 25.5393 43.3406H29.3225C29.5013 43.3406 29.6476 43.194 29.6476 43.0148C29.6476 42.8355 29.5013 42.6889 29.3225 42.6889H25.5373V42.695Z" fill="#694226"/>
<path d="M82.8662 56.1475H57.926C57.5786 56.1475 57.2961 55.8665 57.2961 55.5162C57.2961 55.1679 57.5765 54.8848 57.926 54.8848H82.8662C83.2137 54.8848 83.4961 55.1658 83.4961 55.5162C83.4961 55.8665 83.2157 56.1475 82.8662 56.1475Z" fill="#694125"/>
<path d="M82.8663 56.4539H57.9261C57.412 56.4539 56.9915 56.0343 56.9915 55.517C56.9915 54.9996 57.41 54.5801 57.9261 54.5801H82.8663C83.3804 54.5801 83.8009 54.9996 83.8009 55.517C83.8009 56.0343 83.3824 56.4539 82.8663 56.4539ZM57.9261 55.1931C57.7473 55.1931 57.601 55.3398 57.601 55.519C57.601 55.6982 57.7473 55.8449 57.9261 55.8449H82.8663C83.0451 55.8449 83.1914 55.6982 83.1914 55.519C83.1914 55.3398 83.0451 55.1931 82.8663 55.1931H57.9261Z" fill="#694226"/>
<path d="M57.9259 40.5225C55.2176 40.5225 53.4011 38.386 53.4011 35.2046C53.4011 32.0233 55.2196 29.8867 57.9259 29.8867C60.6323 29.8867 62.4528 32.0233 62.4528 35.2046C62.4528 38.386 60.6343 40.5225 57.9259 40.5225ZM57.9259 31.1475C55.5162 31.1475 54.6588 33.2433 54.6588 35.2046C54.6588 37.166 55.5183 39.2618 57.9259 39.2618C60.3357 39.2618 61.1951 37.166 61.1951 35.2046C61.1951 33.2433 60.3357 31.1475 57.9259 31.1475Z" fill="#694125"/>
<path d="M57.926 40.8289C55.0368 40.8289 53.0964 38.5681 53.0964 35.2055C53.0964 31.8428 55.0368 29.582 57.926 29.582C60.8152 29.582 62.7576 31.8428 62.7576 35.2055C62.7576 38.5681 60.8152 40.8289 57.926 40.8289ZM57.926 30.1931C55.4005 30.1931 53.706 32.2074 53.706 35.2055C53.706 38.2035 55.4025 40.2179 57.926 40.2179C60.4515 40.2179 62.1481 38.2035 62.1481 35.2055C62.1481 32.2074 60.4515 30.1931 57.926 30.1931ZM57.926 39.5681C56.199 39.5681 54.3541 38.4215 54.3541 35.2055C54.3541 31.9895 56.199 30.8428 57.926 30.8428C59.653 30.8428 61.5 31.9895 61.5 35.2055C61.5 38.4215 59.653 39.5681 57.926 39.5681ZM57.926 31.4538C55.7418 31.4538 54.9637 33.3928 54.9637 35.2055C54.9637 37.0181 55.7418 38.9571 57.926 38.9571C58.6209 38.9571 60.8904 38.6862 60.8904 35.2055C60.8904 31.7247 58.6209 31.4538 57.926 31.4538Z" fill="#694226"/>
<path d="M79.7494 53.0243H75.0072C74.6597 53.0243 74.3773 52.7433 74.3773 52.393C74.3773 52.0426 74.6577 51.7616 75.0072 51.7616H79.3349L83.4289 42.1869L68.8427 42.085C68.6294 42.085 68.4363 42.2174 68.3571 42.415L66.5386 47.2746C66.4167 47.6005 66.051 47.7635 65.73 47.6433C65.4049 47.5211 65.2403 47.1565 65.3622 46.8306L67.1848 41.9608C67.457 41.2663 68.1072 40.8223 68.8427 40.8223H83.3639C83.8129 40.8223 84.2295 41.0463 84.4753 41.4231C84.7232 41.7979 84.7638 42.2704 84.585 42.6838L80.3305 52.6394C80.2289 52.8736 80.0013 53.0243 79.7494 53.0243Z" fill="#694125"/>
<path d="M79.7494 53.3307H75.0072C74.4932 53.3307 74.0726 52.9111 74.0726 52.3938C74.0726 51.8765 74.4911 51.4569 75.0072 51.4569H79.1338L82.9678 42.4891L68.8387 42.3893C68.7534 42.3893 68.6701 42.4464 68.6396 42.5278L66.8232 47.3814C66.6423 47.862 66.1039 48.1085 65.6224 47.9293C65.3867 47.8396 65.2018 47.6665 65.0982 47.4384C64.9945 47.2103 64.9864 46.9557 65.0758 46.7235L66.8983 41.8537C67.2173 41.039 67.9792 40.5176 68.8428 40.5176H83.364C83.9166 40.5176 84.4266 40.7925 84.7293 41.2549C85.0341 41.7172 85.0849 42.2956 84.8655 42.8028L80.6109 52.7584C80.4605 53.1087 80.1253 53.3307 79.7494 53.3307ZM75.0092 52.0699C74.8304 52.0699 74.6842 52.2166 74.6842 52.3958C74.6842 52.5751 74.8304 52.7217 75.0092 52.7217H79.7514C79.8815 52.7217 79.9993 52.6443 80.0501 52.5241L84.3047 42.5686C84.4428 42.2488 84.4103 41.8863 84.2194 41.597C84.0284 41.3078 83.7094 41.1347 83.3619 41.1347H68.8407C68.2312 41.1347 67.6907 41.5054 67.4652 42.0798L65.6447 46.9455C65.6142 47.027 65.6163 47.1146 65.6528 47.194C65.6894 47.2734 65.7524 47.3345 65.8337 47.3651C66.0003 47.4262 66.1872 47.3406 66.2502 47.1736L68.0686 42.314C68.1946 41.9962 68.5034 41.7844 68.8387 41.7844L83.8861 41.8903L79.532 52.074H75.0092V52.0699Z" fill="#694226"/>
<path d="M63.1538 56.1548C62.8592 56.1548 62.6032 55.9491 62.5402 55.6619L61.5974 51.395C61.5223 51.0548 61.7356 50.7188 62.0749 50.6434C62.4284 50.5701 62.7515 50.7839 62.8246 51.122L63.6597 54.8961L72.1058 54.8941V54.2606C72.1058 53.5824 71.5552 53.0304 70.8766 53.0304L67.1889 53.0264C66.8943 53.0264 66.6403 52.8207 66.5753 52.5335C66.5753 52.5335 65.7403 48.7879 65.7362 48.7635C65.1226 45.8041 62.4813 43.6554 59.458 43.6554H55.6748C55.3273 43.6554 55.0449 43.3743 55.0449 43.024C55.0449 42.6736 55.3253 42.3926 55.6748 42.3926H59.458C63.0745 42.3926 66.234 44.965 66.9675 48.5109C66.9817 48.5802 67.4693 50.7636 67.6928 51.7656L70.8766 51.7677C72.2481 51.7677 73.3635 52.8858 73.3635 54.2586V55.5234C73.3635 55.8717 73.0831 56.1548 72.7337 56.1548H63.1538ZM72.7357 55.5214H72.7479H72.7357Z" fill="#694125"/>
<path d="M63.1539 56.4593C62.7191 56.4593 62.3371 56.1518 62.2416 55.7261L61.2988 51.4592C61.1871 50.9561 61.5061 50.455 62.0079 50.343C62.522 50.2351 63.0096 50.5487 63.1214 51.0538L63.9036 54.5876L71.8012 54.5855V54.2576C71.8012 53.7484 71.3867 53.333 70.8767 53.333L67.189 53.3289C66.7501 53.3289 66.3743 53.0274 66.2788 52.5977C66.0268 51.4693 65.4437 48.846 65.4376 48.8196C64.8545 46.0027 62.3391 43.9558 59.458 43.9558H55.6749C55.1608 43.9558 54.7402 43.5363 54.7402 43.0189C54.7402 42.5016 55.1588 42.082 55.6749 42.082H59.458C63.2189 42.082 66.5023 44.7583 67.2662 48.4428C67.2723 48.4672 67.3576 48.8521 67.4714 49.3634C67.6157 50.009 67.8046 50.8563 67.9367 51.453L70.8767 51.4551C72.4148 51.4551 73.6684 52.7097 73.6684 54.2515V55.5163C73.6684 56.0316 73.2498 56.4532 72.7338 56.4532L63.1539 56.4593ZM62.2111 50.9316C62.1867 50.9316 62.1624 50.9337 62.1359 50.9398C61.9653 50.9785 61.8556 51.1516 61.8942 51.3268L62.8369 55.5937C62.8694 55.7404 63.0035 55.8483 63.1539 55.8483L72.7358 55.8463C72.9146 55.8463 73.0609 55.6996 73.0609 55.5204V54.2556C73.0609 53.0498 72.0815 52.0702 70.8787 52.0702L67.4491 52.0681L67.3962 51.8298C67.2642 51.2392 67.0427 50.2371 66.8781 49.5019C66.7644 48.9866 66.677 48.6016 66.6709 48.5731C65.9638 45.1656 62.9324 42.6951 59.458 42.6951H55.6749C55.4961 42.6951 55.3498 42.8417 55.3498 43.021C55.3498 43.2002 55.4961 43.3468 55.6749 43.3468H59.458C62.6256 43.3468 65.3909 45.5974 66.0349 48.6994C66.0492 48.7686 66.872 52.4653 66.872 52.4653C66.9066 52.614 67.0366 52.7199 67.189 52.7199L70.8767 52.724C71.7219 52.724 72.4087 53.4124 72.4087 54.2597V55.1986L63.4119 55.2006L62.524 51.1883C62.4935 51.0314 62.3635 50.9316 62.2111 50.9316ZM72.748 55.8259L72.7358 55.2149H72.748V55.8259Z" fill="#694226"/>
<path d="M43.0086 37.4735C39.835 37.4735 37.7036 35.0213 37.7036 31.3735C37.7036 27.7257 39.835 25.2734 43.0086 25.2734C46.1823 25.2734 48.3136 27.7257 48.3136 31.3735C48.3136 35.0213 46.1823 37.4735 43.0086 37.4735ZM43.0086 26.5362C40.0219 26.5362 38.9613 29.1432 38.9613 31.3755C38.9613 33.6078 40.0219 36.2148 43.0086 36.2148C45.9953 36.2148 47.0559 33.6078 47.0559 31.3755C47.0559 29.1432 45.9953 26.5362 43.0086 26.5362Z" fill="#694125"/>
<path d="M43.0087 37.7798C39.6542 37.7798 37.3989 35.2054 37.3989 31.3743C37.3989 27.5432 39.6522 24.9688 43.0087 24.9688C46.3652 24.9688 48.6185 27.5432 48.6185 31.3743C48.6185 35.2074 46.3652 37.7798 43.0087 37.7798ZM43.0087 25.5818C40.0179 25.5818 38.0085 27.9098 38.0085 31.3763C38.0085 34.8428 40.0179 37.1708 43.0087 37.1708C45.9995 37.1708 48.0089 34.8428 48.0089 31.3763C48.0089 27.9098 45.9995 25.5818 43.0087 25.5818ZM43.0087 36.5191C41.558 36.5191 40.3836 35.9264 39.6136 34.8041C38.9959 33.9039 38.6566 32.6859 38.6566 31.3743C38.6566 30.0626 38.9959 28.8447 39.6136 27.9444C40.3836 26.8222 41.556 26.2295 43.0087 26.2295C44.4614 26.2295 45.6338 26.8222 46.4038 27.9444C47.0215 28.8447 47.3608 30.0626 47.3608 31.3743C47.3608 32.6859 47.0215 33.9039 46.4038 34.8041C45.6338 35.9264 44.4594 36.5191 43.0087 36.5191ZM43.0087 26.8425C40.2475 26.8425 39.2661 29.2846 39.2661 31.3763C39.2661 33.468 40.2455 35.9101 43.0087 35.9101C45.7719 35.9101 46.7513 33.468 46.7513 31.3763C46.7513 29.2846 45.7719 26.8425 43.0087 26.8425Z" fill="#694226"/>
<path d="M50.0224 61.6935C49.675 61.6935 49.3926 61.4125 49.3926 61.0621V56.3736C49.3926 56.0253 49.673 55.7422 50.0224 55.7422C50.3699 55.7422 50.6523 56.0233 50.6523 56.3736V61.0621C50.6523 61.4125 50.3719 61.6935 50.0224 61.6935Z" fill="#694125"/>
<path d="M50.0225 61.9999C49.5085 61.9999 49.0879 61.5803 49.0879 61.063V56.3744C49.0879 55.8591 49.5064 55.4375 50.0225 55.4375C50.5386 55.4375 50.9572 55.8571 50.9572 56.3744V61.063C50.9572 61.5803 50.5386 61.9999 50.0225 61.9999ZM50.0225 56.0506C49.8437 56.0506 49.6974 56.1972 49.6974 56.3764V61.065C49.6974 61.2442 49.8437 61.3909 50.0225 61.3909C50.2013 61.3909 50.3476 61.2442 50.3476 61.065V56.3764C50.3476 56.1972 50.2013 56.0506 50.0225 56.0506Z" fill="#694226"/>
<path d="M35.9929 61.6935C35.6455 61.6935 35.363 61.4125 35.363 61.0621V56.3736C35.363 56.0253 35.6434 55.7422 35.9929 55.7422C36.3403 55.7422 36.6228 56.0233 36.6228 56.3736V61.0621C36.6228 61.4125 36.3424 61.6935 35.9929 61.6935Z" fill="#694125"/>
<path d="M35.993 61.9999C35.4789 61.9999 35.0583 61.5803 35.0583 61.063V56.3744C35.0583 55.8591 35.4769 55.4375 35.993 55.4375C36.5091 55.4375 36.9276 55.8571 36.9276 56.3744V61.063C36.9276 61.5803 36.5091 61.9999 35.993 61.9999ZM35.993 56.0506C35.8142 56.0506 35.6679 56.1972 35.6679 56.3764V61.065C35.6679 61.2442 35.8142 61.3909 35.993 61.3909C36.1718 61.3909 36.3181 61.2442 36.3181 61.065V56.3764C36.3181 56.1972 36.1718 56.0506 35.993 56.0506Z" fill="#694226"/>
<path d="M43.7888 40.6007H42.2304C41.883 40.6007 41.6006 40.3196 41.6006 39.9693C41.6006 39.621 41.881 39.3379 42.2304 39.3379H43.7888C44.1363 39.3379 44.4187 39.619 44.4187 39.9693C44.4166 40.3196 44.1363 40.6007 43.7888 40.6007Z" fill="#694125"/>
<path d="M43.7889 40.907H42.2305C41.7165 40.907 41.2959 40.4874 41.2959 39.9701C41.2959 39.4528 41.7144 39.0332 42.2305 39.0332H43.7889C44.3029 39.0332 44.7235 39.4528 44.7235 39.9701C44.7235 40.4874 44.3029 40.907 43.7889 40.907ZM42.2305 39.6463C42.0517 39.6463 41.9054 39.7929 41.9054 39.9721C41.9054 40.1514 42.0517 40.298 42.2305 40.298H43.7889C43.9677 40.298 44.114 40.1514 44.114 39.9721C44.114 39.7929 43.9677 39.6463 43.7889 39.6463H42.2305Z" fill="#694226"/>
<path d="M43.0085 49.1937C42.6611 49.1937 42.3787 48.9126 42.3787 48.5623V39.9693C42.3787 39.621 42.659 39.3379 43.0085 39.3379C43.356 39.3379 43.6384 39.619 43.6384 39.9693V48.5623C43.6384 48.9126 43.356 49.1937 43.0085 49.1937Z" fill="#694125"/>
<path d="M43.0086 49.5C42.4946 49.5 42.074 49.0804 42.074 48.5631V39.9701C42.074 39.4548 42.4925 39.0332 43.0086 39.0332C43.5247 39.0332 43.9432 39.4528 43.9432 39.9701V48.5631C43.9432 49.0804 43.5227 49.5 43.0086 49.5ZM43.0086 39.6463C42.8298 39.6463 42.6835 39.7929 42.6835 39.9721V48.5651C42.6835 48.7444 42.8298 48.891 43.0086 48.891C43.1874 48.891 43.3337 48.7444 43.3337 48.5651V39.9721C43.3337 39.7909 43.1874 39.6463 43.0086 39.6463Z" fill="#694226"/>
<path d="M52.2534 56.2896H46.4607C45.9162 56.2896 45.073 56.1145 44.37 55.8986C44.3314 55.9088 44.2908 55.9169 44.2502 55.921L39.768 56.2896H32.1955C31.2203 56.2896 30.2613 55.8782 29.6924 55.2183C29.2433 54.6989 29.0564 54.0676 29.156 53.3954L30.7753 44.3401C31.3259 41.6231 34.3492 39.3399 37.3786 39.3399H38.3336C38.5815 39.3399 38.805 39.4845 38.9065 39.7106L42.897 48.5887C42.9112 48.6152 42.9681 48.6274 43.0087 48.6274C43.0514 48.6274 43.1063 48.6132 43.1408 48.548L47.1109 39.7086C47.2125 39.4825 47.438 39.3379 47.6839 39.3379H48.2406C51.0323 39.3379 53.4867 41.4337 54.0739 44.3238L55.293 53.3995C55.4088 53.982 55.2422 54.6093 54.8155 55.1287C54.2405 55.8354 53.2347 56.2896 52.2534 56.2896ZM35.3753 50.7253C39.319 50.8638 43.9088 54.3283 44.1161 54.4851C44.5813 54.7071 45.8837 55.0289 46.4607 55.0289H52.2534C52.8548 55.0289 53.507 54.7417 53.8463 54.3303C54.0353 54.1022 54.1044 53.8578 54.0556 53.6093L52.8365 44.5356C52.3753 42.2728 50.441 40.6007 48.2426 40.6007H48.0923L44.2684 49.1081C44.0023 49.6071 43.5268 49.8902 43.0087 49.8902H43.0067C42.4886 49.8902 42.0132 49.6051 41.7693 49.1468L37.9272 40.6007H37.3786C34.9506 40.6007 32.4414 42.4582 32.0106 44.5764L30.3974 53.5971C30.3547 53.8843 30.436 54.1511 30.6432 54.3934C30.9764 54.7784 31.586 55.0289 32.1955 55.0289H39.7172L42.3789 54.8089C40.6762 53.6928 37.3095 51.7436 34.652 52.0043C34.463 52.0247 34.2558 51.9473 34.1196 51.7966C33.9855 51.6459 33.9327 51.4402 33.9754 51.2426L34.8348 47.3097C34.908 46.9695 35.2412 46.7577 35.5846 46.829C35.9239 46.9044 36.1392 47.2404 36.0641 47.5806L35.3753 50.7253Z" fill="#694125"/>
<path d="M52.2533 56.596H46.4607C45.8532 56.596 44.9897 56.4025 44.3578 56.2131C44.3314 56.2171 44.305 56.2212 44.2786 56.2233L39.768 56.5919L32.1934 56.5939C31.1329 56.5939 30.0845 56.1438 29.4587 55.4167C28.9507 54.8281 28.7394 54.1132 28.8512 53.3494L30.4725 44.2839C31.0516 41.4345 34.211 39.0332 37.3766 39.0332H38.3315C38.6972 39.0332 39.0325 39.2491 39.1828 39.5852L43.0087 48.0987L46.8325 39.5872C46.9829 39.2511 47.3181 39.0352 47.6838 39.0352H48.2405C51.1765 39.0352 53.7569 41.2349 54.3725 44.2656L54.3766 44.2859L55.5956 53.3616C55.7277 54.0195 55.5306 54.7425 55.0532 55.3251C54.4213 56.097 53.3221 56.596 52.2533 56.596ZM44.3761 55.5817L44.4594 55.6082C45.2091 55.8383 45.9954 55.987 46.4607 55.987H52.2533C53.1453 55.987 54.0596 55.5756 54.5818 54.9381C54.9434 54.4961 55.0938 53.9584 54.9942 53.4635L53.7731 44.3776C53.2103 41.6361 50.8859 39.6463 48.2405 39.6463H47.6838C47.5558 39.6463 47.44 39.7216 47.3872 39.8377L43.4069 48.6955C43.3256 48.8462 43.1753 48.9338 43.0067 48.9338C42.9437 48.9338 42.7324 48.9195 42.6308 48.7403L42.6165 48.7138L38.6261 39.8357C38.5733 39.7196 38.4575 39.6442 38.3295 39.6442H37.3745C34.4812 39.6442 31.5941 41.8215 31.0699 44.398L29.4526 53.4472C29.3693 54.0195 29.5298 54.5653 29.9199 55.0175C30.4319 55.6143 31.3035 55.9829 32.1934 55.9829L39.7538 55.9809L44.2237 55.6143C44.244 55.6122 44.2664 55.6082 44.2887 55.602L44.3761 55.5817ZM52.2533 55.3352H46.4607C45.8308 55.3352 44.4899 55.0012 43.986 54.7629L43.9331 54.7303C43.7422 54.5857 39.2031 51.1681 35.3651 51.0316L34.9994 51.0194L35.7653 47.5162C35.7836 47.4307 35.7694 47.3451 35.7227 47.2718C35.6759 47.1985 35.6028 47.1476 35.5195 47.1292C35.3427 47.0946 35.1721 47.2005 35.1335 47.3757L34.274 51.3106C34.2517 51.4125 34.2801 51.5184 34.3472 51.5958C34.4122 51.6691 34.5239 51.7139 34.6194 51.7037C37.1896 51.4512 40.347 53.1152 42.5454 54.5552L43.2891 55.0419L39.7172 55.3352H32.1955C31.5006 55.3352 30.8017 55.044 30.4116 54.5939C30.1495 54.2884 30.0397 53.9278 30.0946 53.5531L31.7099 44.5222C32.167 42.2675 34.8145 40.296 37.3766 40.296H38.1222L42.0416 49.0132C42.2366 49.3676 42.6044 49.5855 43.0067 49.5855H43.0432C43.4394 49.5733 43.793 49.3452 43.9961 48.9725L47.8951 40.2939H48.2426C50.5832 40.2939 52.6394 42.0516 53.1351 44.4713L53.1392 44.4917L54.3583 53.5653C54.4213 53.8871 54.3278 54.2232 54.082 54.5226C53.6837 55.0094 52.9502 55.3352 52.2533 55.3352ZM44.2745 54.2211C44.7255 54.4248 45.9487 54.7222 46.4627 54.7222H52.2554C52.7613 54.7222 53.3322 54.4757 53.6126 54.1356C53.7406 53.9788 53.7894 53.826 53.7569 53.6671L52.5358 44.5853C52.0989 42.4692 50.3191 40.9294 48.2893 40.905L44.5386 49.2515C44.2237 49.8422 43.6507 50.1945 43.0107 50.1945H42.7059V50.166C42.198 50.0743 41.753 49.7566 41.5031 49.2902L41.493 49.2719L37.7321 40.905H37.3806C35.0847 40.905 32.7156 42.6484 32.3113 44.6363L30.7001 53.6509C30.6716 53.8443 30.7285 54.0215 30.8768 54.1947C31.1491 54.5104 31.6814 54.7222 32.1995 54.7222H39.7091L41.4483 54.5776C39.6237 53.4675 36.8666 52.0907 34.6865 52.3066C34.4 52.3372 34.0952 52.219 33.8981 51.997C33.699 51.773 33.6198 51.4675 33.6828 51.1742L34.5422 47.2412C34.6519 46.7341 35.1395 46.4204 35.6516 46.5264C35.8994 46.5813 36.1067 46.726 36.2408 46.9378C36.3749 47.1476 36.4196 47.3981 36.3647 47.6425L35.7532 50.4389C39.577 50.7607 43.8559 53.9075 44.2745 54.2211Z" fill="#694226"/>
<path d="M34.7371 51.7824C34.6091 51.7824 34.4811 51.7437 34.3694 51.6623C34.089 51.4586 34.024 51.0635 34.2271 50.7824L35.1699 49.4728C35.558 48.931 36.2996 48.4279 37.1204 48.7375L40.2189 49.32C41.0032 49.2283 45.8348 48.7355 49.0511 49.8414L48.7991 47.2935C48.7666 46.9472 49.0186 46.6376 49.364 46.603C49.7114 46.5806 50.0162 46.823 50.0528 47.1692L50.4083 50.7783C50.4307 51.0105 50.323 51.2366 50.13 51.3649C49.9349 51.4932 49.687 51.5054 49.4818 51.3954C46.5581 49.817 40.3347 50.5746 40.2737 50.5828C40.2067 50.5909 40.1417 50.5889 40.0787 50.5767L36.8238 49.9636C36.777 49.9555 36.7323 49.9412 36.6876 49.9229C36.4682 49.8251 36.1858 50.206 36.1837 50.2101L35.241 51.5197C35.1231 51.6928 34.9301 51.7824 34.7371 51.7824Z" fill="#694125"/>
<path d="M34.7372 52.0874C34.5401 52.0874 34.3511 52.0263 34.1906 51.9102C33.9874 51.7635 33.8554 51.5477 33.8147 51.2992C33.7761 51.0527 33.833 50.8042 33.9793 50.6026L34.9221 49.293C35.363 48.6759 36.2244 48.0872 37.2017 48.4396L40.2311 49.0099C41.2125 48.8979 45.5199 48.4864 48.7037 49.4091L48.4965 47.3214C48.4477 46.8082 48.8236 46.3479 49.3356 46.2969C49.8578 46.2644 50.3048 46.6289 50.3576 47.134L50.7132 50.7452C50.7457 51.0914 50.5892 51.4234 50.3007 51.6169C50.0122 51.8084 49.6444 51.8267 49.3397 51.6637C46.5297 50.1443 40.3754 50.8755 40.3144 50.8837C40.2108 50.8959 40.1153 50.8918 40.0219 50.8735L36.769 50.2625C36.7141 50.2523 36.6613 50.238 36.6084 50.2177C36.5617 50.2441 36.4825 50.3195 36.4337 50.3847L35.491 51.6943C35.3203 51.9428 35.0358 52.0874 34.7372 52.0874ZM36.6145 48.9488C36.1107 48.9488 35.6718 49.295 35.4178 49.6515L34.473 50.9631C34.4222 51.0344 34.4019 51.1199 34.4161 51.2055C34.4304 51.291 34.4751 51.3664 34.5462 51.4173C34.6864 51.5191 34.8977 51.4845 34.9993 51.344L35.9441 50.0323C36.0233 49.9244 36.3971 49.4559 36.8177 49.6453C36.838 49.6535 36.8604 49.6616 36.8848 49.6657L40.1417 50.2788C40.1743 50.2849 40.2068 50.2869 40.2433 50.2808C40.3023 50.2727 46.5846 49.4824 49.6302 51.1281C49.7359 51.1851 49.8639 51.179 49.9655 51.1118C50.065 51.0446 50.1199 50.9285 50.1077 50.8083L49.7521 47.1992C49.7338 47.022 49.5794 46.8957 49.3884 46.91C49.2198 46.9263 49.0898 47.0872 49.106 47.2664L49.4047 50.2869L48.9557 50.1321C45.7495 49.0302 40.8102 49.5618 40.2576 49.625L40.2108 49.6311L37.0148 49.0241C36.8787 48.9712 36.7446 48.9488 36.6145 48.9488Z" fill="#694226"/>
<path d="M67.1805 37.4734C66.8331 37.4734 66.5506 37.1924 66.5506 36.8421V12.6233C66.5506 12.11 66.1341 11.6904 65.6221 11.6904H18.8584C18.3464 11.6904 17.9299 12.108 17.9299 12.6233V36.8441C17.9299 37.1924 17.6495 37.4755 17.3 37.4755C16.9526 37.4755 16.6702 37.1944 16.6702 36.8441V12.6233C16.6702 11.4134 17.6515 10.4297 18.8564 10.4297H65.6221C66.827 10.4297 67.8083 11.4134 67.8083 12.6233V36.8441C67.8104 37.1924 67.53 37.4734 67.1805 37.4734Z" fill="#694125"/>
<path d="M67.1806 37.7798C66.6665 37.7798 66.246 37.3602 66.246 36.8429V12.6241C66.246 12.2778 65.9656 11.9968 65.6222 11.9968H18.8585C18.5151 11.9968 18.2347 12.2778 18.2347 12.6241V36.8449C18.2347 37.3602 17.8162 37.7818 17.3001 37.7818C16.784 37.7818 16.3655 37.3623 16.3655 36.8449V12.6241C16.3655 11.2472 17.483 10.125 18.8565 10.125H65.6222C66.9957 10.125 68.1132 11.2452 68.1132 12.6241V36.8449C68.1152 37.3602 67.6967 37.7798 67.1806 37.7798ZM18.8585 11.3857H65.6242C66.3049 11.3857 66.8575 11.9418 66.8575 12.6241V36.8449C66.8575 37.0242 67.0038 37.1708 67.1826 37.1708C67.3614 37.1708 67.5077 37.0242 67.5077 36.8449V12.6241C67.5077 11.5833 66.6625 10.736 65.6263 10.736H18.8585C17.8202 10.736 16.977 11.5833 16.977 12.6241V36.8449C16.977 37.0242 17.1233 37.1708 17.3021 37.1708C17.4809 37.1708 17.6272 37.0242 17.6272 36.8449V12.6241C17.6252 11.9418 18.1778 11.3857 18.8585 11.3857Z" fill="#694226"/>
<path d="M21.5874 27.4468C21.3984 27.4468 21.2095 27.3613 21.0855 27.1963C20.8762 26.9193 20.9291 26.5242 21.2074 26.3124L25.4945 23.0577C25.6733 22.9212 25.9131 22.8906 26.1223 22.9803L31.2485 25.182L42.6509 16.8008C42.848 16.6562 43.104 16.6379 43.3194 16.7519L54.5999 22.7827L59.8399 17.5463C60.0837 17.3018 60.484 17.2998 60.7298 17.5483C60.9736 17.7947 60.9736 18.1939 60.7278 18.4404L55.1587 24.0068C54.9636 24.2023 54.6629 24.2492 54.4191 24.1168L43.0736 18.0554L31.7016 26.4162C31.5228 26.5486 31.2871 26.5751 31.0819 26.4875L25.9618 24.2878L21.9673 27.3226C21.8535 27.4061 21.7194 27.4468 21.5874 27.4468Z" fill="#694125"/>
<path d="M21.5873 27.7526C21.2927 27.7526 21.0225 27.6182 20.8437 27.3819C20.6933 27.1823 20.6283 26.9359 20.6629 26.6894C20.6974 26.4409 20.8254 26.223 21.0245 26.0702L25.3096 22.8155C25.5737 22.6119 25.9313 22.5671 26.2422 22.7015L31.2079 24.8339L42.4701 16.5546C42.7627 16.3408 43.1406 16.3143 43.4616 16.4833L54.543 22.4082L59.6245 17.3306C59.7992 17.1555 60.0329 17.0577 60.2828 17.0577C60.5327 17.0577 60.7684 17.1555 60.9452 17.3327C61.3089 17.6993 61.3068 18.294 60.9411 18.6565L55.372 24.2229C55.0794 24.5162 54.6385 24.5814 54.2728 24.3859L43.102 18.4121L31.8845 26.6589C31.6183 26.8544 31.2668 26.8951 30.9641 26.7648L26.0085 24.6343L22.1542 27.5611C21.9876 27.6874 21.7925 27.7526 21.5873 27.7526ZM25.8724 23.2371C25.8033 23.2371 25.7363 23.2596 25.6794 23.3023L21.3923 26.5591C21.3232 26.612 21.2785 26.6874 21.2663 26.7729C21.2541 26.8585 21.2765 26.944 21.3293 27.0133C21.435 27.1538 21.6463 27.1823 21.7824 27.0764L25.9191 23.9357L31.2018 26.2047C31.3074 26.2495 31.4293 26.2352 31.5228 26.168L43.0492 17.6952L54.5593 23.8502C54.6852 23.9174 54.8376 23.895 54.9392 23.7932L60.5104 18.2268C60.6384 18.1005 60.6384 17.8948 60.5124 17.7665C60.3925 17.6443 60.1772 17.6443 60.0553 17.7665L54.6548 23.1638L43.1751 17.0271C43.0634 16.9681 42.9313 16.9783 42.8297 17.0516L31.2871 25.5346L26.0024 23.2636C25.9598 23.2453 25.9151 23.2371 25.8724 23.2371Z" fill="#694226"/>
<path d="M68.7409 8.56551H15.7417C15.3942 8.56551 15.1118 8.28444 15.1118 7.93412C15.1118 7.58584 15.3922 7.30273 15.7417 7.30273H68.7409C69.0884 7.30273 69.3708 7.5838 69.3708 7.93412C69.3688 8.28444 69.0884 8.56551 68.7409 8.56551Z" fill="#694125"/>
<path d="M68.741 8.87176H15.7418C15.2277 8.87176 14.8071 8.45219 14.8071 7.93486C14.8071 7.41753 15.2277 7 15.7418 7H68.741C69.2551 7 69.6756 7.41957 69.6756 7.9369C69.6756 8.45423 69.2551 8.87176 68.741 8.87176ZM15.7418 7.61102C15.563 7.61102 15.4167 7.75767 15.4167 7.9369C15.4167 8.11613 15.563 8.26278 15.7418 8.26278H68.741C68.9198 8.26278 69.0661 8.11613 69.0661 7.9369C69.0661 7.75767 68.9198 7.61102 68.741 7.61102H15.7418Z" fill="#694226"/>
<path d="M60.5773 21.4223C60.2299 21.4223 59.9495 21.1412 59.9475 20.7929L59.9414 18.2979L57.4524 18.304H57.4504C57.103 18.304 56.8226 18.023 56.8206 17.6747C56.8185 17.3264 57.101 17.0433 57.4484 17.0433L60.5672 17.0352H60.5692C60.9166 17.0352 61.197 17.3162 61.199 17.6645L61.2072 20.7889C61.2072 21.1371 60.9268 21.4202 60.5773 21.4223Z" fill="#694125"/>
<path d="M60.5794 21.7285C60.0653 21.7285 59.6447 21.309 59.6447 20.7957L59.6387 18.6062L57.4545 18.6103C56.9384 18.6103 56.5199 18.1907 56.5178 17.6775C56.5178 17.4269 56.6133 17.1927 56.7901 17.0155C56.9668 16.8383 57.2005 16.7406 57.4504 16.7406L60.5672 16.7324C61.0812 16.7324 61.5018 17.152 61.5018 17.6652L61.5099 20.7896C61.5099 21.0401 61.4144 21.2743 61.2377 21.4515C61.0629 21.6287 60.8293 21.7265 60.5794 21.7285ZM60.2462 17.9932L60.2523 20.7937C60.2523 20.9729 60.3985 21.1175 60.5773 21.1175H60.5794C60.6647 21.1175 60.748 21.0829 60.809 21.0218C60.8699 20.9607 60.9024 20.8792 60.9024 20.7916L60.8943 17.6673C60.8943 17.4881 60.748 17.3434 60.5692 17.3434L57.4504 17.3516C57.363 17.3516 57.2818 17.3862 57.2208 17.4473C57.1599 17.5084 57.1274 17.5899 57.1274 17.6775C57.1274 17.8567 57.2736 18.0013 57.4524 18.0013L60.2462 17.9932Z" fill="#694226"/>
<path d="M27.0712 31.1484C24.6614 31.1484 23.802 33.2442 23.802 35.2056C23.802 37.167 24.6614 39.2628 27.0712 39.2628C29.4809 39.2628 30.3383 37.167 30.3383 35.2056C30.3383 33.2442 29.4809 31.1484 27.0712 31.1484Z" fill="#FFC647"/>
</svg>
