<svg width="40" height="41" viewBox="0 0 40 41" fill="none" xmlns="http://www.w3.org/2000/svg">
<circle cx="20" cy="20.3143" r="20" fill="#F3F3F3"/>
<g clip-path="url(#clip0_723_11285)">
<path d="M20.5 34.3143C20.3363 34.3143 20.1787 34.2481 20.0644 34.1284C17.6611 31.6764 12.4342 25.515 11.1059 22.8109C10.3707 21.3202 10 19.7097 10 18.0267C10 12.1206 14.7109 7.31433 20.5 7.31433C23.3049 7.31433 25.94 8.43001 27.9232 10.4534C29.9064 12.4767 31 15.1682 31 18.0267C31 19.7097 30.6293 21.3202 29.8941 22.814C28.5688 25.5181 23.342 31.6764 20.9356 34.1315C20.8213 34.2481 20.6637 34.3143 20.5 34.3143ZM20.5 8.57498C15.3906 8.57498 11.2357 12.8139 11.2357 18.0267C11.2357 19.5111 11.5631 20.9325 12.2118 22.2499C13.3857 24.6483 18.0441 30.1889 20.5 32.7858C22.9559 30.1889 27.6112 24.6483 28.7882 22.2499C29.4338 20.9325 29.7643 19.5111 29.7643 18.0267C29.7643 15.5023 28.8005 13.1291 27.0521 11.3421C25.3005 9.55829 22.9744 8.57498 20.5 8.57498Z" fill="#694125"/>
<path d="M20.4996 22.6596C17.6144 22.6596 15.2666 20.2644 15.2666 17.3208C15.2666 14.3771 17.6144 11.9819 20.4996 11.9819C23.3849 11.9819 25.7326 14.3771 25.7326 17.3208C25.7326 20.2644 23.3849 22.6596 20.4996 22.6596ZM20.4996 13.2457C18.2971 13.2457 16.5023 15.0736 16.5023 17.3239C16.5023 19.5742 18.294 21.4021 20.4996 21.4021C22.7053 21.4021 24.497 19.5742 24.497 17.3239C24.497 15.0736 22.7022 13.2457 20.4996 13.2457Z" fill="#694125"/>
</g>
<defs>
<clipPath id="clip0_723_11285">
<rect width="21" height="27" fill="white" transform="translate(10 7.31433)"/>
</clipPath>
</defs>
</svg>
