<svg width="251" height="169" viewBox="0 0 251 169" fill="none" xmlns="http://www.w3.org/2000/svg">
<circle cx="125.5" cy="94.5" r="72.5" stroke="#FF814E" stroke-width="4" stroke-linecap="round" stroke-dasharray="2 15"/>
<g clip-path="url(#clip0_725_18687)">
<path d="M115.641 115.082L110.994 132.71L116.858 139.017L122.813 132.697L115.641 115.082Z" fill="#F58051"/>
<path d="M161.425 84.3378C162.37 74.6343 155.387 65.9914 145.828 65.0334C136.27 64.0753 127.755 71.1648 126.811 80.8682C125.866 90.5717 132.85 99.2146 142.408 100.173C151.967 101.131 160.481 94.0412 161.425 84.3378Z" fill="#FEC344"/>
<path d="M141.987 88.3594C141.968 88.3594 141.955 88.3594 141.935 88.3594C139.768 88.3462 137.724 87.6263 136.175 86.3317C134.568 84.9778 133.683 83.1681 133.696 81.2329C133.696 80.5988 134.21 80.0837 134.828 80.0837H134.835C135.459 80.0837 135.967 80.6054 135.967 81.2395C135.961 82.4746 136.553 83.6502 137.627 84.5485C138.766 85.5061 140.302 86.0411 141.948 86.0477C141.961 86.0477 141.974 86.0477 141.987 86.0477C143.621 86.0477 145.144 85.5326 146.283 84.5947C147.37 83.7031 147.969 82.534 147.975 81.2989C147.982 80.0639 147.39 78.8882 146.316 77.99C145.177 77.0323 143.641 76.4973 141.994 76.4907C139.983 76.4775 138.069 75.8104 136.605 74.5952C135.069 73.3205 134.223 71.6296 134.236 69.8266C134.255 66.194 137.698 63.2417 141.948 63.2747C143.96 63.2879 145.854 63.955 147.285 65.157C148.782 66.4119 149.602 68.1027 149.596 69.9058C149.596 70.5399 149.082 71.055 148.463 71.055H148.457C147.832 71.055 147.324 70.5333 147.324 69.8992C147.331 68.7962 146.804 67.7461 145.84 66.9403C144.812 66.0751 143.426 65.5929 141.935 65.5863C141.922 65.5863 141.909 65.5863 141.903 65.5863C138.935 65.5863 136.52 67.4885 136.507 69.8464C136.501 70.9428 137.048 71.9995 138.043 72.8185C139.091 73.6837 140.536 74.1857 142.007 74.1923C144.174 74.2055 146.218 74.9254 147.767 76.2199C149.375 77.5739 150.26 79.3836 150.247 81.3188C150.234 83.2539 149.336 85.057 147.715 86.3912C146.172 87.6593 144.135 88.3594 141.987 88.3594Z" fill="#694024"/>
<path d="M141.935 90.1757C141.935 90.1757 141.929 90.1757 141.935 90.1757C141.304 90.1757 140.796 89.6539 140.803 89.0199L140.933 62.4095C140.933 61.7754 141.447 61.2603 142.066 61.2603H142.072C142.697 61.2603 143.205 61.782 143.205 62.4161L143.074 89.0265C143.068 89.6671 142.56 90.1757 141.935 90.1757Z" fill="#694024"/>
<path d="M117.919 101.595C117.288 101.595 116.741 101.113 116.669 100.459C116.591 99.7591 117.092 99.1251 117.782 99.0458C124.415 98.2929 126.829 89.2312 126.829 83.3266C126.829 78.0032 122.729 74.2914 116.858 74.2914C110.988 74.2914 106.887 78.0098 106.887 83.3266C106.887 88.1216 108.397 94.264 111.769 97.1833C112.296 97.639 112.361 98.4448 111.912 98.9864C111.456 99.5214 110.662 99.5808 110.135 99.1317C105.878 95.4462 104.375 88.3198 104.375 83.3332C104.375 76.6162 109.621 71.7419 116.858 71.7419C124.096 71.7419 129.341 76.6162 129.341 83.3332C129.341 89.2048 126.985 100.578 118.062 101.589C118.017 101.595 117.965 101.595 117.919 101.595Z" fill="#694024"/>
<path d="M91.3058 139.018C90.6094 139.018 90.0497 138.443 90.0497 137.743V123.107C90.0497 116.641 95.7902 113.649 100.847 111.007C105.598 108.53 110.083 106.186 110.083 101.503V98.5505C110.083 97.8438 110.649 97.2758 111.339 97.2758C112.035 97.2758 112.595 97.8504 112.595 98.5505V101.496C112.595 107.738 107.206 110.551 101.993 113.272C97.1439 115.802 92.5555 118.199 92.5555 123.1V137.736C92.562 138.443 92.0022 139.018 91.3058 139.018Z" fill="#694024"/>
<path d="M142.502 139.018C141.805 139.018 141.246 138.443 141.246 137.743V123.107C141.246 118.199 136.644 115.809 131.763 113.279C126.53 110.558 121.115 107.744 121.115 101.503V98.5505C121.115 97.8438 121.681 97.2758 122.371 97.2758C123.061 97.2758 123.627 97.8504 123.627 98.5505V101.496C123.627 106.179 128.137 108.517 132.908 111C137.998 113.642 143.758 116.634 143.758 123.1V137.736C143.764 138.443 143.198 139.018 142.502 139.018Z" fill="#694024"/>
<path d="M101.277 139.018C100.58 139.018 100.021 138.443 100.021 137.743V125.762C100.021 125.055 100.587 124.487 101.277 124.487C101.973 124.487 102.533 125.062 102.533 125.762V137.743C102.533 138.443 101.967 139.018 101.277 139.018Z" fill="#694024"/>
<path d="M132.537 139.018C131.841 139.018 131.281 138.443 131.281 137.743V125.762C131.281 125.055 131.847 124.487 132.537 124.487C133.234 124.487 133.793 125.062 133.793 125.762V137.743C133.793 138.443 133.227 139.018 132.537 139.018Z" fill="#694024"/>
<path d="M116.858 116.033C116.663 116.033 116.474 115.987 116.285 115.894L105.833 110.492C105.214 110.168 104.967 109.402 105.28 108.775C105.592 108.14 106.353 107.896 106.972 108.213L117.424 113.616C118.043 113.939 118.29 114.706 117.978 115.333C117.756 115.776 117.314 116.033 116.858 116.033Z" fill="#694024"/>
<path d="M116.858 116.033C116.403 116.033 115.96 115.776 115.739 115.333C115.42 114.706 115.667 113.939 116.292 113.616L126.745 108.213C127.356 107.896 128.124 108.14 128.437 108.775C128.756 109.402 128.508 110.168 127.884 110.492L117.431 115.894C117.242 115.987 117.053 116.033 116.858 116.033Z" fill="#694024"/>
<path d="M116.858 139.017C116.533 139.017 116.214 138.892 115.967 138.641L111.319 133.925C111.007 133.608 110.883 133.146 110.988 132.71L113.311 123.378C113.48 122.697 114.151 122.281 114.841 122.453C115.511 122.625 115.921 123.318 115.752 124.005L113.604 132.631L116.865 135.94L120.191 132.631L115.635 115.082C115.459 114.402 115.856 113.702 116.533 113.523C117.197 113.345 117.893 113.754 118.069 114.435L122.807 132.703C122.918 133.146 122.794 133.621 122.468 133.938L117.73 138.654C117.496 138.892 117.177 139.017 116.858 139.017Z" fill="#694024"/>
<path d="M140.861 101.595C137.08 101.595 133.305 100.664 129.927 98.9005C129.309 98.5769 129.068 97.8108 129.387 97.1833C129.706 96.5559 130.467 96.3115 131.079 96.6351C134.099 98.2136 137.477 99.0458 140.861 99.0458C152.603 99.0458 162.157 89.3964 162.157 77.5409C162.157 65.626 152.603 55.9369 140.861 55.9369C132.609 55.9369 125.248 60.6262 121.668 68.1754C121.362 68.8095 120.614 69.0737 119.989 68.7698C119.364 68.466 119.104 67.6999 119.403 67.0658C123.406 58.6184 131.632 53.3743 140.861 53.3743C153.989 53.3743 164.67 64.2126 164.67 77.5343C164.67 90.8032 153.989 101.595 140.861 101.595Z" fill="#694024"/>
</g>
<path d="M247.888 122.585L239.806 124.75C239.021 124.961 238.217 124.497 238.007 123.711C237.797 122.929 238.261 122.123 239.046 121.912L247.127 119.747C247.909 119.537 248.717 120.003 248.927 120.786C249.137 121.571 248.67 122.375 247.888 122.585Z" fill="#693F23"/>
<path d="M244.93 127.708C244.148 127.918 243.341 127.454 243.13 126.669L240.965 118.588C240.755 117.806 241.219 116.999 242.004 116.788C242.786 116.579 243.593 117.042 243.803 117.827L245.969 125.909C246.175 126.692 245.712 127.498 244.93 127.708Z" fill="#693F23"/>
<path d="M31.7585 149.422L24.7256 151.306C24.0422 151.489 23.3428 151.086 23.1597 150.402C22.9773 149.722 23.3804 149.02 24.0638 148.836L31.0967 146.952C31.7774 146.77 32.4801 147.175 32.6625 147.856C32.8456 148.539 32.4392 149.239 31.7585 149.422Z" fill="#693F23"/>
<path d="M29.1844 153.881C28.5037 154.063 27.8017 153.66 27.6185 152.976L25.7341 145.944C25.5517 145.263 25.9547 144.561 26.6381 144.378C27.3188 144.195 28.0208 144.598 28.2039 145.282L30.0884 152.315C30.2681 152.996 29.8651 153.698 29.1844 153.881Z" fill="#693F23"/>
<g clip-path="url(#clip1_725_18687)">
<path d="M183.735 18.9885C183.485 18.8416 183.401 18.5182 183.549 18.2664L184.963 15.8506C185.111 15.5988 185.434 15.5136 185.685 15.6605C185.935 15.8074 186.019 16.1307 185.872 16.3826L184.457 18.7983C184.31 19.0486 183.986 19.1353 183.735 18.9885Z" fill="#694024" stroke="#694125" stroke-width="1.5" stroke-miterlimit="10"/>
<path d="M190.432 7.55486C190.181 7.408 190.097 7.08464 190.245 6.83278L191.66 4.41705C191.807 4.16519 192.13 4.08004 192.381 4.2269C192.632 4.37376 192.715 4.69712 192.568 4.94898L191.153 7.3647C191.006 7.61657 190.683 7.70172 190.432 7.55486Z" fill="#694024" stroke="#694125" stroke-width="1.5" stroke-miterlimit="10"/>
<path d="M193.004 11.8893C192.847 11.7971 192.742 11.6261 192.744 11.4294C192.746 11.1379 192.985 10.9023 193.276 10.9035L196.065 10.9161C196.356 10.9173 196.59 11.1556 196.588 11.4471C196.586 11.7386 196.347 11.9742 196.056 11.973L193.267 11.9604C193.171 11.9598 193.081 11.9341 193.004 11.8893Z" fill="#694024" stroke="#694125" stroke-width="1.5" stroke-miterlimit="10"/>
<path d="M179.799 11.8321C179.642 11.7398 179.536 11.5689 179.539 11.3722C179.541 11.0807 179.78 10.8451 180.071 10.8463L182.86 10.8589C183.151 10.8601 183.385 11.0983 183.383 11.3898C183.38 11.6813 183.142 11.917 182.851 11.9157L180.061 11.9032C179.965 11.9025 179.876 11.8768 179.799 11.8321Z" fill="#694024" stroke="#694125" stroke-width="1.5" stroke-miterlimit="10"/>
<path d="M185.055 7.42961C184.979 7.38484 184.911 7.31831 184.865 7.23565L183.489 4.80889C183.346 4.55579 183.435 4.23241 183.688 4.08777C183.941 3.94312 184.263 4.03085 184.407 4.28394L185.782 6.7107C185.926 6.9638 185.837 7.28718 185.584 7.43183C185.413 7.53001 185.213 7.52185 185.055 7.42961Z" fill="#694024" stroke="#694125" stroke-width="1.5" stroke-miterlimit="10"/>
<path d="M191.565 18.9189C191.489 18.8741 191.422 18.8085 191.375 18.7249L189.999 16.2981C189.856 16.0451 189.945 15.7217 190.198 15.577C190.451 15.4324 190.773 15.5201 190.916 15.7732L192.292 18.2C192.435 18.4531 192.347 18.7764 192.094 18.9211C191.923 19.0193 191.723 19.0111 191.565 18.9189Z" fill="#694024" stroke="#694125" stroke-width="1.5" stroke-miterlimit="10"/>
</g>
<g clip-path="url(#clip2_725_18687)">
<path d="M6.95888 72.0214C6.70812 71.8746 6.62439 71.5512 6.7719 71.2993L8.18672 68.8836C8.33423 68.6317 8.65722 68.5466 8.90797 68.6935C9.15873 68.8403 9.24246 69.1637 9.09495 69.4155L7.68013 71.8313C7.53352 72.0816 7.20963 72.1683 6.95888 72.0214Z" fill="#694024" stroke="#694125" stroke-width="1.5" stroke-miterlimit="10"/>
<path d="M13.6552 60.5878C13.4045 60.441 13.3207 60.1176 13.4683 59.8657L14.8831 57.45C15.0306 57.1982 15.3536 57.113 15.6043 57.2599C15.8551 57.4067 15.9388 57.7301 15.7913 57.9819L14.3765 60.3977C14.229 60.6495 13.906 60.7347 13.6552 60.5878Z" fill="#694024" stroke="#694125" stroke-width="1.5" stroke-miterlimit="10"/>
<path d="M16.2278 64.9223C16.0703 64.83 15.9651 64.6591 15.9673 64.4624C15.9697 64.1709 16.2083 63.9353 16.4992 63.9365L19.2886 63.9491C19.5795 63.9503 19.8137 64.1885 19.8114 64.48C19.809 64.7715 19.5704 65.0072 19.2795 65.0059L16.4901 64.9934C16.3939 64.9927 16.3042 64.967 16.2278 64.9223Z" fill="#694024" stroke="#694125" stroke-width="1.5" stroke-miterlimit="10"/>
<path d="M3.02256 64.865C2.86507 64.7728 2.75984 64.6018 2.76209 64.4052C2.76443 64.1136 3.00305 63.878 3.29393 63.8792L6.0834 63.8918C6.37427 63.8931 6.60848 64.1313 6.60613 64.4228C6.60379 64.7143 6.36517 64.9499 6.0743 64.9487L3.28483 64.9361C3.18868 64.9355 3.09901 64.9098 3.02256 64.865Z" fill="#694024" stroke="#694125" stroke-width="1.5" stroke-miterlimit="10"/>
<path d="M8.27867 60.4626C8.20222 60.4178 8.1344 60.3513 8.08835 60.2686L6.71281 57.8418C6.56944 57.5888 6.65822 57.2654 6.91132 57.1207C7.16442 56.9761 7.48677 57.0638 7.63014 57.3169L9.00568 59.7437C9.14905 59.9968 9.06027 60.3201 8.80717 60.4648C8.63673 60.563 8.43616 60.5548 8.27867 60.4626Z" fill="#694024" stroke="#694125" stroke-width="1.5" stroke-miterlimit="10"/>
<path d="M14.7884 71.9518C14.712 71.9071 14.6457 71.8414 14.5981 71.7579L13.2226 69.3311C13.0792 69.078 13.168 68.7546 13.4211 68.61C13.6742 68.4653 13.9965 68.5531 14.1399 68.8062L15.5154 71.2329C15.6588 71.486 15.57 71.8094 15.3169 71.954C15.1465 72.0522 14.9459 72.0441 14.7884 71.9518Z" fill="#694024" stroke="#694125" stroke-width="1.5" stroke-miterlimit="10"/>
</g>
<path d="M58.5323 6.43935C58.8936 7.788 58.0919 9.1718 56.7466 9.53229C55.3979 9.89366 54.0141 9.09197 53.6536 7.74658C53.2931 6.40119 54.0907 5.015 55.4393 4.65363C56.7847 4.29314 58.1718 5.09396 58.5323 6.43935Z" fill="#693F23"/>
<path d="M220.029 159.883C220.27 160.782 219.736 161.705 218.839 161.945C217.94 162.186 217.017 161.652 216.777 160.755C216.536 159.858 217.068 158.934 217.967 158.693C218.864 158.452 219.789 158.986 220.029 159.883Z" fill="#693F23"/>
<defs>
<clipPath id="clip0_725_18687">
<rect width="74.6199" height="85.6433" fill="white" transform="translate(90.0497 53.3743)"/>
</clipPath>
<clipPath id="clip1_725_18687">
<rect width="15.524" height="17.6409" fill="white" transform="translate(185.692) rotate(30.3564)"/>
</clipPath>
<clipPath id="clip2_725_18687">
<rect width="15.524" height="17.6409" fill="white" transform="translate(8.91529 53.033) rotate(30.3564)"/>
</clipPath>
</defs>
</svg>
