<svg width="79" height="76" viewBox="0 0 79 76" fill="none" xmlns="http://www.w3.org/2000/svg">
<g clip-path="url(#clip0_270_16720)">
<path d="M60.1949 28.543V62.4004C60.1949 69.4122 54.5141 75.103 47.5011 75.103H5.48926V69.49" stroke="#694024" stroke-width="3" stroke-miterlimit="10" stroke-linecap="round" stroke-linejoin="round"/>
<path d="M54.5857 15.0696V4.74023H40.6973" stroke="#694024" stroke-width="3" stroke-miterlimit="10" stroke-linecap="round" stroke-linejoin="round"/>
<path d="M40.6977 4.74023H0.895996V69.4843H43.1289C45.0703 69.4843 46.6473 67.9062 46.6473 65.9634V61.54H51.0677C53.0091 61.54 54.5861 59.9619 54.5861 58.0191V34.1563" stroke="#694024" stroke-width="3" stroke-miterlimit="10" stroke-linecap="round" stroke-linejoin="round"/>
<path d="M47.7109 25.5553L71.7544 1.50114C72.8237 0.437119 74.55 0.437119 75.6133 1.50114L77.489 3.37813C78.5523 4.44215 78.5523 6.17567 77.489 7.2397L53.3798 31.3835" stroke="#694024" stroke-width="2.3591" stroke-miterlimit="10" stroke-linecap="round" stroke-linejoin="round"/>
<path d="M53.457 31.3051C53.0687 29.99 52.3519 28.7466 51.3125 27.7065C50.2731 26.6664 49.0306 25.9491 47.7105 25.5605L45.5301 31.2274C45.5301 31.2274 44.2279 33.194 45.1 33.5288C46.1813 33.9472 47.3819 33.1342 48.499 32.8055L53.3853 31.3828" stroke="#694024" stroke-width="2.3591" stroke-miterlimit="10" stroke-linecap="round" stroke-linejoin="round"/>
<path d="M68.624 15.973L62.8774 10.2285" stroke="#694024" stroke-width="2.3591" stroke-miterlimit="10" stroke-linecap="round" stroke-linejoin="round"/>
<path d="M4.48047 36.0884L4.77317 35.0782C8.23185 23.2245 16.6725 13.4629 27.8967 8.32812H4.48047V36.0884Z" fill="#FEC344"/>
<path d="M9.78467 37.1031C11.738 41.8613 16.7379 49.973 27.1318 45.7826C22.4127 35.8298 13.2433 36.4575 9.78467 37.1031Z" fill="#FEC344"/>
<path d="M43.8995 15.6855C38.7145 16.7257 29.3838 20.4019 30.3396 33.3555C44.7836 29.8825 43.4933 19.8042 43.8995 15.6855Z" fill="#FEC344"/>
<path d="M29.1867 62.604C28.8821 62.604 28.5774 62.4486 28.4102 62.1676C28.1473 61.7372 28.2847 61.1754 28.7148 60.9183C29.8976 60.201 31.3969 54.57 29.6526 50.6487C25.1187 40.4448 27.1079 34.2101 27.6635 32.8412C26.8092 26.9891 27.8427 22.195 30.7339 18.5905C35.3454 12.834 42.9617 12.2721 43.2843 12.2482C43.7203 12.2183 44.1206 12.5112 44.2281 12.9416C44.3237 13.3301 46.51 22.5477 41.6714 28.6927C39.0311 32.0402 34.8496 33.7857 29.2285 33.8754C28.6849 35.5192 27.4126 41.1203 31.3193 49.9134C33.2308 54.2174 31.9644 61.0737 29.6646 62.4785C29.5093 62.5562 29.342 62.604 29.1867 62.604ZM42.6152 14.1551C40.644 14.4539 35.4291 15.6196 32.1376 19.7322C29.6706 22.8167 28.7506 26.9532 29.3898 32.0402C34.3359 31.9207 37.9857 30.4143 40.2378 27.557C43.7741 23.0678 43.0095 16.4206 42.6152 14.1551Z" fill="#694024"/>
<path d="M21.666 47.863C19.9456 47.863 18.3208 47.4984 16.7976 46.7751C10.1012 43.589 7.9448 34.5807 7.85519 34.1981C7.74767 33.7378 8.01648 33.2656 8.46449 33.1221C8.61981 33.0743 24.0196 28.4057 29.4256 44.8563C29.569 45.2867 29.3719 45.7589 28.9597 45.9562C26.3851 47.2294 23.9419 47.863 21.666 47.863ZM9.86828 34.6404C10.5552 36.8701 12.8013 42.8597 17.5861 45.1312C20.4116 46.4762 23.7209 46.3148 27.4364 44.665C23.0817 32.7216 12.9088 33.971 9.86828 34.6404Z" fill="#694024"/>
<path d="M49.7893 44.6281C45.345 42.0398 36.4504 38.6325 30.7397 48.2805C40.5363 53.3137 47.4358 47.2404 49.7893 44.6281Z" fill="#FEC344"/>
<path d="M37.1135 51.2223C35.1303 51.2223 32.9201 50.8816 30.453 50.0805C30.0229 49.9431 29.7601 49.5007 29.8378 49.0524C30.7278 44.073 32.9261 40.6119 36.3668 38.7469C42.8899 35.2201 51.4261 38.7947 51.7905 38.9501C52.2266 39.1354 52.4476 39.6256 52.2983 40.0799C52.2564 40.2174 48.3916 51.2223 37.1135 51.2223ZM31.7851 48.5921C43.9891 52.1249 48.9949 43.1763 50.2434 40.325C48.0391 39.5658 41.8804 37.8383 37.227 40.3609C34.4792 41.8493 32.6513 44.617 31.7851 48.5921Z" fill="#694024"/>
</g>
<defs>
<clipPath id="clip0_270_16720">
<rect width="79" height="76" fill="white"/>
</clipPath>
</defs>
</svg>
