<svg width="58" height="57" viewBox="0 0 58 57" fill="none" xmlns="http://www.w3.org/2000/svg">
<circle cx="28.1713" cy="28.4253" r="27.8432" fill="#F5F5F5"/>
<g clip-path="url(#clip0_0_1)">
<path d="M47.3178 52.9556H8.92578V12.8247L17.4801 3.27881L47.3178 3.30304V52.9556Z" fill="white"/>
<path d="M56.587 14.2754C57.1962 13.5425 57.5226 12.6339 57.5195 11.68L57.5133 10.411C57.5102 10.0294 57.3578 9.66901 57.0781 9.4025C56.8045 9.13902 56.4409 8.99365 56.0554 8.99365C56.0492 8.99365 56.043 8.99365 56.0368 8.99365L54.7312 9.0088C53.6091 9.02394 52.5584 9.46004 51.772 10.2384L42.8633 19.0605C42.596 19.327 42.5991 19.754 42.8726 20.0144L42.8975 20.0387L32.1921 30.6385C32.1703 30.6597 32.1548 30.6839 32.1361 30.7051C32.1268 30.7172 32.1144 30.7293 32.1082 30.7415C32.0988 30.7536 32.0957 30.7687 32.0864 30.7808C32.0709 30.8081 32.0553 30.8323 32.0429 30.8626C32.0429 30.8626 32.0429 30.8656 32.0398 30.8656L30.4203 34.9148C30.3208 35.1661 30.383 35.4508 30.5788 35.6386C30.7094 35.7658 30.8866 35.8324 31.0637 35.8324C31.1508 35.8324 31.2409 35.8173 31.3248 35.7809L35.4559 34.1364C35.4994 34.1183 35.5399 34.0971 35.5803 34.0728C35.6207 34.0486 35.6549 34.0183 35.686 33.988L46.3913 23.3852L46.4162 23.4094C46.5468 23.5336 46.7208 23.6032 46.9011 23.6032C46.9042 23.6032 46.9042 23.6032 46.9073 23.6032C47.0907 23.6032 47.2648 23.5306 47.3954 23.4034L55.4866 15.3929L55.9435 16.8708L49.6054 23.1459C49.3381 23.4124 49.3412 23.8395 49.6148 24.0999C49.7484 24.2301 49.9256 24.2937 50.0997 24.2937C50.28 24.2937 50.4572 24.2271 50.5939 24.0939L57.218 17.5341C57.3951 17.3584 57.4604 17.101 57.3858 16.8678L56.587 14.2754ZM32.9474 32.3072L33.9608 33.2794L32.2947 33.9426L32.9474 32.3072ZM35.1855 32.5646L33.6624 31.1019L43.8829 20.9805L45.406 22.4433L35.1855 32.5646ZM46.898 21.9769L44.3367 19.5238L52.7605 11.1833C53.2889 10.6593 53.9976 10.3656 54.7499 10.3565L56.0554 10.3413C56.0679 10.3383 56.0958 10.3474 56.1114 10.3625C56.1269 10.3777 56.1331 10.3959 56.1331 10.4171L56.1393 11.686C56.1424 12.4219 55.8534 13.1155 55.3218 13.6394L46.898 21.9769Z" fill="#694125"/>
<path d="M47.6286 25.2476C47.2463 25.2476 46.9354 25.5504 46.9354 25.923V51.9137H9.23652V13.1275H17.7194C18.1017 13.1275 18.4126 12.8246 18.4126 12.4521V4.18726H46.9385V11.8191C46.9385 12.1916 47.2494 12.4945 47.6317 12.4945C48.014 12.4945 48.3249 12.1916 48.3249 11.8191V3.51493C48.3249 3.14243 48.014 2.83957 47.6317 2.83957H17.8282C17.8126 2.83957 17.8002 2.8426 17.7878 2.8426C17.5857 2.8214 17.3775 2.89106 17.2283 3.03643L8.05532 11.9766C7.9372 12.0887 7.87814 12.2371 7.8626 12.3915C7.85949 12.4218 7.85327 12.4521 7.85327 12.4824V52.583C7.85327 52.9555 8.16411 53.2584 8.54645 53.2584H47.6317C48.014 53.2584 48.3249 52.9555 48.3249 52.583V25.9199C48.3218 25.5474 48.0109 25.2476 47.6286 25.2476ZM17.0262 5.14125V11.7767H10.2157L17.0262 5.14125Z" fill="#694125"/>
<path d="M34.3278 17.8795C34.7101 17.8795 35.0209 17.5767 35.0209 17.2042C35.0209 16.8317 34.7101 16.5288 34.3278 16.5288H21.8475C21.4651 16.5288 21.1543 16.8317 21.1543 17.2042C21.1543 17.5767 21.4651 17.8795 21.8475 17.8795H34.3278Z" fill="#694125"/>
<path d="M38.1074 23.1216C38.1074 22.7491 37.7966 22.4463 37.4143 22.4463H16.0035C15.6211 22.4463 15.3103 22.7491 15.3103 23.1216C15.3103 23.4942 15.6211 23.797 16.0035 23.797H37.4174C37.7997 23.797 38.1074 23.4942 38.1074 23.1216Z" fill="#694125"/>
<path d="M31.7569 29.2213C31.7569 28.8488 31.4461 28.5459 31.0638 28.5459H16.0035C15.6211 28.5459 15.3103 28.8488 15.3103 29.2213C15.3103 29.5938 15.6211 29.8966 16.0035 29.8966H31.0638C31.4461 29.8966 31.7569 29.5938 31.7569 29.2213Z" fill="#694125"/>
<path d="M16.0035 34.6484C15.6211 34.6484 15.3103 34.9513 15.3103 35.3238C15.3103 35.6963 15.6211 35.9992 16.0035 35.9992H28.7853C29.1676 35.9992 29.4785 35.6963 29.4785 35.3238C29.4785 34.9513 29.1676 34.6484 28.7853 34.6484H16.0035Z" fill="#694125"/>
<path d="M46.898 21.977L44.3367 19.5239L52.7605 11.1833C53.2889 10.6594 53.9976 10.3656 54.7499 10.3565L56.0554 10.3414C56.0678 10.3384 56.0958 10.3475 56.1114 10.3626C56.1269 10.3777 56.1331 10.3959 56.1331 10.4171L56.1393 11.6861C56.1424 12.422 55.8534 13.1155 55.3218 13.6395L46.898 21.977Z" fill="#FEC445"/>
<path d="M43.8855 20.9803L33.6624 31.1025L35.1867 32.564L45.4099 22.4417L43.8855 20.9803Z" fill="#FEC445"/>
<path d="M32.9474 32.3071L33.9608 33.2793L32.2947 33.9425L32.9474 32.3071Z" fill="#FEC445"/>
<path d="M17.0261 5.1416V11.7771H10.2156L17.0261 5.1416Z" fill="#FEC445"/>
</g>
<defs>
<clipPath id="clip0_0_1">
<rect width="49.6663" height="50.4188" fill="white" transform="translate(7.85327 2.83984)"/>
</clipPath>
</defs>
</svg>
