<svg width="245" height="206" viewBox="0 0 245 206" fill="none" xmlns="http://www.w3.org/2000/svg">
<path d="M226.476 97.6247L216.875 100.197C215.942 100.447 214.988 99.8959 214.738 98.9631C214.489 98.0339 215.039 97.0756 215.972 96.8257L225.572 94.2533C226.501 94.0043 227.461 94.5581 227.71 95.4873C227.96 96.4202 227.405 97.3758 226.476 97.6247Z" fill="#693F23"/>
<path d="M222.961 103.71C222.032 103.958 221.074 103.408 220.824 102.475L218.251 92.8752C218.003 91.946 218.553 90.9877 219.486 90.7378C220.415 90.4888 221.373 91.039 221.623 91.9718L224.195 101.572C224.441 102.502 223.89 103.461 222.961 103.71Z" fill="#693F23"/>
<path d="M41.727 168.504L33.3723 170.742C32.5605 170.96 31.7298 170.48 31.5122 169.668C31.2956 168.86 31.7743 168.026 32.5862 167.808L40.9409 165.569C41.7495 165.353 42.5843 165.835 42.801 166.643C43.0185 167.455 42.5357 168.287 41.727 168.504Z" fill="#693F23"/>
<path d="M38.6696 173.8C37.8609 174.017 37.027 173.538 36.8095 172.726L34.5708 164.371C34.3542 163.563 34.8329 162.729 35.6448 162.511C36.4534 162.295 37.2873 162.773 37.5049 163.585L39.7435 171.94C39.957 172.749 39.4782 173.583 38.6696 173.8Z" fill="#693F23"/>
<g clip-path="url(#clip0_0_1)">
<path d="M170.266 43.5565C169.968 43.382 169.869 42.9979 170.044 42.6987L171.725 39.8289C171.9 39.5298 172.284 39.4286 172.581 39.6031C172.879 39.7775 172.979 40.1616 172.804 40.4608L171.123 43.3306C170.949 43.628 170.564 43.7309 170.266 43.5565Z" fill="#694024" stroke="#694125" stroke-width="1.5" stroke-miterlimit="10"/>
<path d="M178.221 29.9744C177.923 29.8 177.824 29.4159 177.999 29.1167L179.68 26.2469C179.855 25.9477 180.239 25.8466 180.537 26.021C180.834 26.1955 180.934 26.5796 180.759 26.8788L179.078 29.7486C178.903 30.0477 178.519 30.1489 178.221 29.9744Z" fill="#694024" stroke="#694125" stroke-width="1.5" stroke-miterlimit="10"/>
<path d="M181.277 35.1229C181.09 35.0133 180.965 34.8102 180.968 34.5766C180.971 34.2303 181.254 33.9504 181.6 33.9518L184.914 33.9668C185.259 33.9682 185.537 34.2512 185.534 34.5975C185.532 34.9438 185.248 35.2237 184.903 35.2223L181.589 35.2073C181.475 35.2066 181.368 35.176 181.277 35.1229Z" fill="#694024" stroke="#694125" stroke-width="1.5" stroke-miterlimit="10"/>
<path d="M165.591 35.0564C165.404 34.9469 165.279 34.7438 165.281 34.5102C165.284 34.1639 165.568 33.884 165.913 33.8854L169.227 33.9004C169.573 33.9018 169.851 34.1848 169.848 34.5311C169.845 34.8774 169.562 35.1573 169.216 35.1559L165.902 35.1409C165.788 35.1402 165.682 35.1096 165.591 35.0564Z" fill="#694024" stroke="#694125" stroke-width="1.5" stroke-miterlimit="10"/>
<path d="M171.834 29.8265C171.744 29.7734 171.663 29.6943 171.608 29.5961L169.974 26.7133C169.804 26.4126 169.909 26.0285 170.21 25.8566C170.511 25.6848 170.894 25.789 171.064 26.0897L172.698 28.9725C172.868 29.2732 172.763 29.6573 172.462 29.8292C172.26 29.9458 172.022 29.9361 171.834 29.8265Z" fill="#694024" stroke="#694125" stroke-width="1.5" stroke-miterlimit="10"/>
<path d="M179.568 43.475C179.477 43.4218 179.398 43.3438 179.342 43.2446L177.708 40.3617C177.537 40.0611 177.643 39.6769 177.944 39.5051C178.244 39.3332 178.627 39.4374 178.797 39.7381L180.432 42.621C180.602 42.9216 180.496 43.3058 180.196 43.4776C179.993 43.5942 179.755 43.5845 179.568 43.475Z" fill="#694024" stroke="#694125" stroke-width="1.5" stroke-miterlimit="10"/>
</g>
<g clip-path="url(#clip1_0_1)">
<path d="M8.26604 93.5565C7.96816 93.382 7.86869 92.9979 8.04392 92.6987L9.72465 89.8289C9.89988 89.5298 10.2836 89.4286 10.5815 89.6031C10.8793 89.7775 10.9788 90.1616 10.8036 90.4608L9.12285 93.3306C8.94868 93.628 8.56393 93.7309 8.26604 93.5565Z" fill="#694024" stroke="#694125" stroke-width="1.5" stroke-miterlimit="10"/>
<path d="M16.2211 79.9744C15.9232 79.8 15.8238 79.4159 15.999 79.1167L17.6797 76.2469C17.855 75.9477 18.2386 75.8466 18.5365 76.021C18.8344 76.1955 18.9339 76.5796 18.7587 76.8788L17.0779 79.7486C16.9027 80.0477 16.519 80.1489 16.2211 79.9744Z" fill="#694024" stroke="#694125" stroke-width="1.5" stroke-miterlimit="10"/>
<path d="M19.2774 85.1229C19.0903 85.0133 18.9653 84.8102 18.968 84.5766C18.9708 84.2303 19.2543 83.9504 19.5998 83.9518L22.9135 83.9668C23.2591 83.9682 23.5373 84.2512 23.5345 84.5975C23.5317 84.9438 23.2482 85.2237 22.9027 85.2223L19.589 85.2073C19.4748 85.2066 19.3682 85.176 19.2774 85.1229Z" fill="#694024" stroke="#694125" stroke-width="1.5" stroke-miterlimit="10"/>
<path d="M3.5909 85.0564C3.40381 84.9469 3.27881 84.7438 3.28148 84.5102C3.28426 84.1639 3.56773 83.884 3.91327 83.8854L7.227 83.9004C7.57254 83.9018 7.85076 84.1848 7.84798 84.5311C7.84519 84.8774 7.56173 85.1573 7.21619 85.1559L3.90246 85.1409C3.78824 85.1402 3.68172 85.1096 3.5909 85.0564Z" fill="#694024" stroke="#694125" stroke-width="1.5" stroke-miterlimit="10"/>
<path d="M9.83446 79.8265C9.74364 79.7734 9.66308 79.6943 9.60838 79.5961L7.97432 76.7133C7.80401 76.4126 7.90947 76.0285 8.21014 75.8566C8.5108 75.6848 8.89374 75.789 9.06405 76.0897L10.6981 78.9725C10.8684 79.2732 10.763 79.6573 10.4623 79.8292C10.2598 79.9458 10.0215 79.9361 9.83446 79.8265Z" fill="#694024" stroke="#694125" stroke-width="1.5" stroke-miterlimit="10"/>
<path d="M17.5679 93.475C17.477 93.4218 17.3983 93.3438 17.3418 93.2446L15.7077 90.3617C15.5374 90.0611 15.6429 89.6769 15.9435 89.5051C16.2442 89.3332 16.6271 89.4374 16.7974 89.7381L18.4315 92.621C18.6018 92.9216 18.4963 93.3058 18.1957 93.4776C17.9932 93.5942 17.7549 93.5845 17.5679 93.475Z" fill="#694024" stroke="#694125" stroke-width="1.5" stroke-miterlimit="10"/>
</g>
<path d="M92.572 15.8976C93.0013 17.4997 92.0489 19.1436 90.4507 19.5718C88.8486 20.0011 87.2047 19.0488 86.7765 17.4505C86.3482 15.8523 87.2957 14.2056 88.8978 13.7763C90.496 13.348 92.1438 14.2994 92.572 15.8976Z" fill="#693F23"/>
<path d="M118.381 192.932C118.668 194 118.033 195.096 116.967 195.381C115.899 195.667 114.803 195.033 114.518 193.967C114.232 192.902 114.864 191.804 115.932 191.518C116.997 191.232 118.096 191.866 118.381 192.932Z" fill="#693F23"/>
<path d="M28.3813 1.93173C28.6675 2.99981 28.0326 4.09572 26.9671 4.38122C25.899 4.66741 24.8031 4.0325 24.5176 2.96701C24.2321 1.90152 24.8638 0.803709 25.9319 0.517518C26.9973 0.23202 28.0958 0.866239 28.3813 1.93173Z" fill="#693F23"/>
<path d="M233.381 141.932C233.668 143 233.033 144.096 231.967 144.381C230.899 144.667 229.803 144.033 229.518 142.967C229.232 141.902 229.864 140.804 230.932 140.518C231.997 140.232 233.096 140.866 233.381 141.932Z" fill="#693F23"/>
<path d="M208.497 175L215.844 183.611" stroke="#694024" stroke-width="3.488" stroke-miterlimit="10" stroke-linecap="round" stroke-linejoin="round"/>
<path d="M173.498 177L180.845 185.611" stroke="#694024" stroke-width="3.488" stroke-miterlimit="10" stroke-linecap="round" stroke-linejoin="round"/>
<path d="M183.703 136L194.887 149.099" stroke="#694024" stroke-width="3.488" stroke-miterlimit="10" stroke-linecap="round" stroke-linejoin="round"/>
<path d="M174.449 151.057L196.29 176.639" stroke="#694024" stroke-width="3.488" stroke-miterlimit="10" stroke-linecap="round" stroke-linejoin="round"/>
<g clip-path="url(#clip2_0_1)">
<path d="M137.608 141.252L163.696 136.02L156.407 129.557L138.274 131.744L137.608 141.252Z" fill="white"/>
<path d="M155.317 138.532L114.25 150.86L128.022 132.992L131.093 131.835C137.625 131.07 155.749 132.825 160.967 136.843L155.317 138.532Z" fill="#F58051"/>
<path d="M93.7211 173.553L39.4482 116.995L103.915 59.0234L151.963 106.481L93.7211 173.553Z" fill="white" stroke="#694024" stroke-width="3.4879" stroke-miterlimit="10" stroke-linecap="round" stroke-linejoin="round"/>
<path d="M58.7126 129.555H132.874L96.0596 170.648C94.7281 172.137 92.4064 172.195 91.0084 170.765L56.2411 135.453C54.0859 133.256 55.642 129.555 58.7126 129.555Z" fill="#F58051"/>
<path d="M93.7211 173.553L39.4482 116.995L103.915 59.0234L151.963 106.481L93.7211 173.553Z" stroke="#694024" stroke-width="3.488" stroke-miterlimit="10" stroke-linecap="round" stroke-linejoin="round"/>
<path d="M131.026 131.535L156.407 129.555" stroke="#694024" stroke-width="3.4879" stroke-miterlimit="10" stroke-linecap="round" stroke-linejoin="round"/>
<path d="M114.25 150.86L163.696 136.02" stroke="#694024" stroke-width="3.4879" stroke-miterlimit="10" stroke-linecap="round" stroke-linejoin="round"/>
<path d="M165.553 136.002L153.486 127.492" stroke="#694024" stroke-width="3.4879" stroke-miterlimit="10" stroke-linecap="round" stroke-linejoin="round"/>
<path d="M104.497 137.873C87.6961 139.654 73.6078 125.562 75.3886 108.767C76.6868 96.5304 86.5228 86.6979 98.7637 85.4002C115.565 83.62 129.653 97.7116 127.872 114.507C126.566 126.743 116.73 136.576 104.497 137.873Z" fill="white" stroke="#694024" stroke-width="3.4879" stroke-miterlimit="10"/>
<path d="M107.21 137.956C93.263 139.071 81.6711 127.466 82.7862 113.525C83.66 102.561 92.5473 93.6683 103.515 92.7949C117.462 91.6802 129.054 103.285 127.939 117.226C127.073 128.19 118.186 137.083 107.21 137.956Z" fill="#FEC344"/>
<path d="M104.497 137.873C87.6961 139.654 73.6078 125.562 75.3886 108.767C76.6868 96.5304 86.5228 86.6979 98.7637 85.4002C115.565 83.62 129.653 97.7116 127.872 114.507C126.566 126.743 116.73 136.576 104.497 137.873Z" stroke="#694024" stroke-width="3.4879" stroke-miterlimit="10"/>
<path d="M91.5078 118.766C91.5078 122.967 95.6686 126.378 100.811 126.378C105.946 126.378 110.115 122.967 110.115 118.766C110.115 114.565 105.954 111.155 100.811 111.155C96.1013 111.155 92.1402 107.986 92.1402 104.126C92.1402 100.274 95.9598 97.1465 100.67 97.1465C105.38 97.1465 109.199 100.274 109.199 104.126" stroke="#694024" stroke-width="3.4879" stroke-miterlimit="10" stroke-linecap="round" stroke-linejoin="round"/>
<path d="M100.803 128.706V94.5586" stroke="#694024" stroke-width="3.4879" stroke-miterlimit="10" stroke-linecap="round" stroke-linejoin="round"/>
<path d="M75.5132 45.6631C59.203 45.896 46.0134 59.6382 46.4295 75.9342C46.6791 85.6336 51.6138 94.1684 59.0532 99.3674L101.784 60.9359C96.6997 51.719 86.8221 45.5051 75.5132 45.6631Z" stroke="#694024" stroke-width="4" stroke-miterlimit="10" stroke-linecap="round" stroke-linejoin="round"/>
<path d="M93.7211 173.553L39.4482 116.995L103.915 59.0234L151.963 106.481L93.7211 173.553Z" stroke="#694024" stroke-width="3.488" stroke-miterlimit="10" stroke-linecap="round" stroke-linejoin="round"/>
<path d="M93.7211 173.553L39.4482 116.995L103.915 59.0234L151.963 106.481L93.7211 173.553Z" stroke="#694024" stroke-width="3.4879" stroke-miterlimit="10" stroke-linecap="round" stroke-linejoin="round"/>
</g>
<defs>
<clipPath id="clip0_0_1">
<rect width="18.4416" height="20.9563" fill="white" transform="translate(172.591 21) rotate(30.3564)"/>
</clipPath>
<clipPath id="clip1_0_1">
<rect width="18.4416" height="20.9563" fill="white" transform="translate(10.5908 71) rotate(30.3564)"/>
</clipPath>
<clipPath id="clip2_0_1">
<rect width="129" height="131" fill="white" transform="translate(38 44)"/>
</clipPath>
</defs>
</svg>
