<svg width="287" height="212" viewBox="0 0 287 212" fill="none" xmlns="http://www.w3.org/2000/svg">
<circle cx="142" cy="120" r="90" stroke="#FF814E" stroke-width="4" stroke-linecap="round" stroke-dasharray="2 15"/>
<circle cx="144.953" cy="124.266" r="55.8716" fill="#FFC72C"/>
<g clip-path="url(#clip0_723_11285)">
<path d="M128.119 135.685C130.188 133.746 132.152 131.929 134.088 130.087C139.197 125.227 144.289 120.356 149.392 115.491C155.124 110.027 160.848 104.556 166.596 99.1075C169.967 95.9104 175.148 97.0967 176.452 101.387C177.165 103.731 176.533 105.784 174.738 107.5C167.699 114.227 160.676 120.968 153.645 127.704C146.468 134.579 139.296 141.459 132.111 148.323C129.797 150.536 126.981 150.885 124.532 149.269C123.963 148.895 123.459 148.393 122.995 147.889C118.382 142.854 113.778 137.812 109.186 132.759C108.202 131.679 107.143 130.632 106.352 129.42C104.753 126.967 105.364 123.824 107.628 121.989C109.888 120.159 113.18 120.156 115.252 122.178C117.819 124.682 120.261 127.313 122.734 129.913C124.516 131.782 126.259 133.689 128.119 135.685Z" fill="#693F23"/>
</g>
<circle cx="141.1" cy="119.449" r="62.0413" stroke="#693F23" stroke-width="5"/>
<path d="M284.127 143.169L274.879 145.647C273.981 145.888 273.061 145.357 272.82 144.458C272.58 143.563 273.11 142.64 274.009 142.399L283.257 139.921C284.152 139.682 285.076 140.215 285.316 141.11C285.557 142.009 285.022 142.929 284.127 143.169Z" fill="#693F23"/>
<path d="M280.742 149.032C279.847 149.272 278.924 148.742 278.683 147.843L276.205 138.595C275.965 137.7 276.495 136.777 277.394 136.536C278.289 136.296 279.212 136.826 279.453 137.725L281.931 146.973C282.167 147.869 281.637 148.792 280.742 149.032Z" fill="#693F23"/>
<path d="M36.8003 173.88L28.7522 176.037C27.9702 176.246 27.1699 175.784 26.9604 175.002C26.7517 174.223 27.2129 173.42 27.9949 173.21L36.043 171.054C36.822 170.845 37.6261 171.31 37.8349 172.088C38.0444 172.871 37.5793 173.672 36.8003 173.88Z" fill="#693F23"/>
<path d="M33.8546 178.983C33.0757 179.192 32.2723 178.73 32.0628 177.948L29.9063 169.9C29.6976 169.121 30.1588 168.318 30.9408 168.108C31.7198 167.9 32.5231 168.361 32.7327 169.143L34.8892 177.191C35.0948 177.971 34.6336 178.774 33.8546 178.983Z" fill="#693F23"/>
<g clip-path="url(#clip1_723_11285)">
<path d="M210.715 24.6195C210.428 24.4515 210.332 24.0814 210.501 23.7932L212.12 21.0288C212.289 20.7406 212.658 20.6431 212.945 20.8112C213.232 20.9793 213.328 21.3493 213.159 21.6375L211.54 24.4019C211.372 24.6884 211.002 24.7876 210.715 24.6195Z" fill="#694024" stroke="#694125" stroke-width="1.5" stroke-miterlimit="10"/>
<path d="M218.378 11.5355C218.091 11.3675 217.995 10.9975 218.164 10.7092L219.783 7.94481C219.951 7.65659 220.321 7.55914 220.608 7.72721C220.895 7.89527 220.991 8.2653 220.822 8.55351L219.203 11.3179C219.034 11.6062 218.665 11.7036 218.378 11.5355Z" fill="#694024" stroke="#694125" stroke-width="1.5" stroke-miterlimit="10"/>
<path d="M221.321 16.4956C221.141 16.39 221.021 16.1944 221.023 15.9694C221.026 15.6358 221.299 15.3661 221.632 15.3675L224.824 15.3819C225.157 15.3833 225.425 15.656 225.422 15.9895C225.42 16.3231 225.147 16.5928 224.814 16.5914L221.622 16.577C221.512 16.5762 221.409 16.5468 221.321 16.4956Z" fill="#694024" stroke="#694125" stroke-width="1.5" stroke-miterlimit="10"/>
<path d="M206.21 16.4299C206.03 16.3244 205.91 16.1288 205.912 15.9037C205.915 15.5701 206.188 15.3005 206.521 15.3019L209.713 15.3163C210.046 15.3177 210.314 15.5903 210.311 15.9239C210.308 16.2574 210.035 16.5271 209.702 16.5257L206.51 16.5113C206.4 16.5106 206.298 16.4812 206.21 16.4299Z" fill="#694024" stroke="#694125" stroke-width="1.5" stroke-miterlimit="10"/>
<path d="M212.225 11.3922C212.137 11.341 212.06 11.2649 212.007 11.1703L210.433 8.39323C210.269 8.1036 210.371 7.73354 210.66 7.56802C210.95 7.40249 211.319 7.50288 211.483 7.79251L213.057 10.5696C213.221 10.8592 213.119 11.2293 212.83 11.3948C212.635 11.5071 212.405 11.4978 212.225 11.3922Z" fill="#694024" stroke="#694125" stroke-width="1.5" stroke-miterlimit="10"/>
<path d="M219.674 24.5399C219.587 24.4887 219.511 24.4136 219.457 24.318L217.883 21.5409C217.718 21.2513 217.82 20.8812 218.11 20.7157C218.399 20.5502 218.768 20.6506 218.932 20.9402L220.506 23.7173C220.67 24.0069 220.569 24.377 220.279 24.5425C220.084 24.6548 219.855 24.6455 219.674 24.5399Z" fill="#694024" stroke="#694125" stroke-width="1.5" stroke-miterlimit="10"/>
</g>
<g clip-path="url(#clip2_723_11285)">
<path d="M8.42112 85.3073C8.13417 85.1392 8.03835 84.7692 8.20715 84.481L9.8262 81.7165C9.995 81.4283 10.3646 81.3309 10.6516 81.4989C10.9385 81.667 11.0343 82.037 10.8655 82.3252L9.24648 85.0897C9.07871 85.3761 8.70807 85.4753 8.42112 85.3073Z" fill="#694024" stroke="#694125" stroke-width="1.5" stroke-miterlimit="10"/>
<path d="M16.0841 72.2233C15.7971 72.0552 15.7013 71.6852 15.8701 71.397L17.4892 68.6326C17.658 68.3443 18.0276 68.2469 18.3145 68.4149C18.6015 68.583 18.6973 68.953 18.5285 69.2413L16.9094 72.0057C16.7406 72.2939 16.371 72.3913 16.0841 72.2233Z" fill="#694024" stroke="#694125" stroke-width="1.5" stroke-miterlimit="10"/>
<path d="M19.028 77.1833C18.8477 77.0778 18.7273 76.8822 18.7299 76.6571C18.7326 76.3235 19.0056 76.0539 19.3385 76.0553L22.5306 76.0697C22.8635 76.0711 23.1315 76.3437 23.1288 76.6773C23.1261 77.0109 22.8531 77.2805 22.5202 77.2791L19.3281 77.2647C19.2181 77.264 19.1155 77.2346 19.028 77.1833Z" fill="#694024" stroke="#694125" stroke-width="1.5" stroke-miterlimit="10"/>
<path d="M3.91664 77.1177C3.73642 77.0121 3.616 76.8165 3.61857 76.5914C3.62125 76.2578 3.89432 75.9882 4.22718 75.9896L7.4193 76.004C7.75216 76.0054 8.02017 76.278 8.01749 76.6116C8.01481 76.9452 7.74174 77.2148 7.40888 77.2134L4.21677 77.199C4.10674 77.1983 4.00412 77.1689 3.91664 77.1177Z" fill="#694024" stroke="#694125" stroke-width="1.5" stroke-miterlimit="10"/>
<path d="M9.93142 72.08C9.84393 72.0288 9.76633 71.9526 9.71363 71.858L8.13953 69.081C7.97548 68.7913 8.07707 68.4213 8.3667 68.2558C8.65634 68.0902 9.02522 68.1906 9.18928 68.4803L10.7634 71.2573C10.9274 71.5469 10.8258 71.917 10.5362 72.0825C10.3412 72.1949 10.1116 72.1855 9.93142 72.08Z" fill="#694024" stroke="#694125" stroke-width="1.5" stroke-miterlimit="10"/>
<path d="M17.3809 85.2277C17.2934 85.1765 17.2175 85.1013 17.1631 85.0057L15.589 82.2287C15.4249 81.9391 15.5265 81.569 15.8162 81.4035C16.1058 81.2379 16.4747 81.3383 16.6387 81.628L18.2128 84.405C18.3769 84.6946 18.2753 85.0647 17.9857 85.2302C17.7906 85.3426 17.5611 85.3332 17.3809 85.2277Z" fill="#694024" stroke="#694125" stroke-width="1.5" stroke-miterlimit="10"/>
</g>
<path d="M121.422 2.79136C121.835 4.33468 120.918 5.91823 119.378 6.33076C117.835 6.74429 116.251 5.82687 115.839 4.28729C115.426 2.7477 116.339 1.16142 117.882 0.747886C119.422 0.335355 121.009 1.25177 121.422 2.79136Z" fill="#693F23"/>
<path d="M252.247 185.852C252.523 186.881 251.911 187.936 250.885 188.211C249.856 188.487 248.8 187.875 248.525 186.849C248.25 185.823 248.859 184.765 249.888 184.489C250.914 184.214 251.972 184.825 252.247 185.852Z" fill="#693F23"/>
<defs>
<clipPath id="clip0_723_11285">
<rect width="71.2844" height="52.9817" fill="white" transform="translate(105.458 97.2935)"/>
</clipPath>
<clipPath id="clip1_723_11285">
<rect width="17.7648" height="20.1873" fill="white" transform="translate(212.953 2.89014) rotate(30.3564)"/>
</clipPath>
<clipPath id="clip2_723_11285">
<rect width="17.7648" height="20.1873" fill="white" transform="translate(10.6599 63.5779) rotate(30.3564)"/>
</clipPath>
</defs>
</svg>
