<svg width="262" height="211" viewBox="0 0 262 211" fill="none" xmlns="http://www.w3.org/2000/svg">
<g clip-path="url(#clip0_0_1)">
<path d="M117.921 179.942C97.8125 199.675 79.5244 181.149 79.5244 181.149C79.5244 181.149 100.655 156.326 117.921 179.942Z" fill="white"/>
<path d="M153.418 85.8895C156.139 70.7108 146.152 56.1837 131.11 53.4423C116.069 50.7008 101.669 60.7832 98.9474 75.9619C96.2258 91.1406 106.213 105.668 121.255 108.409C136.296 111.151 150.696 101.068 153.418 85.8895Z" fill="white"/>
<path d="M126.198 111.054C123.63 111.054 121.05 110.715 118.506 110.036C102.599 105.763 93.1001 89.2352 97.3386 73.1851C99.3831 65.4177 104.32 58.9197 111.226 54.8852C118.132 50.8507 126.173 49.7572 133.865 51.8185C149.772 56.0918 159.271 72.6195 155.033 88.6697C152.988 96.4371 148.052 102.935 141.145 106.97C136.52 109.672 131.384 111.054 126.198 111.054ZM119.616 105.801C126.186 107.56 133.055 106.63 138.964 103.186C144.86 99.73 149.086 94.1747 150.832 87.551C154.447 73.8387 146.344 59.7115 132.743 56.0666C126.173 54.2945 119.304 55.2371 113.395 58.6809C107.499 62.1373 103.273 67.6926 101.527 74.3163C97.9121 88.0286 106.028 102.156 119.616 105.801Z" fill="#694024"/>
<path d="M152.339 90.0332C154.676 77.0077 146.102 64.5393 133.19 62.1842C120.277 59.8292 107.914 68.4794 105.577 81.505C103.24 94.5305 111.814 106.999 124.726 109.354C137.639 111.709 150.001 103.059 152.339 90.0332Z" fill="#FEC344"/>
<path d="M126.198 111.054C123.63 111.054 121.05 110.715 118.506 110.036C102.599 105.763 93.1001 89.2352 97.3386 73.1851C99.3831 65.4177 104.32 58.9197 111.226 54.8852C118.132 50.8507 126.173 49.7572 133.865 51.8185C149.772 56.0918 159.271 72.6195 155.033 88.6697C152.988 96.4371 148.052 102.935 141.145 106.97C136.52 109.672 131.384 111.054 126.198 111.054ZM119.616 105.801C126.186 107.56 133.055 106.63 138.964 103.186C144.86 99.73 149.086 94.1747 150.832 87.551C154.447 73.8387 146.344 59.7115 132.743 56.0666C126.173 54.2945 119.304 55.2371 113.395 58.6809C107.499 62.1373 103.273 67.6926 101.527 74.3163C97.9121 88.0287 106.028 102.156 119.616 105.801Z" fill="#694024"/>
<path d="M130.487 207.002C130.449 207.002 130.399 207.002 130.362 207.002C129.165 206.939 128.243 205.896 128.317 204.689C131.933 139.156 127.233 109.306 127.183 109.017C126.984 107.823 127.794 106.692 128.978 106.503C130.15 106.302 131.284 107.119 131.471 108.313C131.521 108.615 136.296 138.93 132.656 204.941C132.581 206.097 131.633 207.002 130.487 207.002Z" fill="#694024"/>
<path d="M118.157 172.102C114.23 144.086 139.861 140.152 139.861 140.152C139.861 140.152 147.266 171.989 118.157 172.102Z" fill="white"/>
<path d="M122.471 124.917C122.396 124.917 122.321 124.917 122.246 124.905C121.798 124.867 121.349 124.829 120.9 124.792C119.192 124.616 117.945 123.07 118.12 121.348C118.294 119.626 119.815 118.344 121.536 118.545C121.91 118.583 122.296 118.62 122.67 118.645C124.391 118.771 125.687 120.267 125.562 122.001C125.463 123.648 124.091 124.917 122.471 124.917ZM136.844 123.346C135.498 123.346 134.264 122.466 133.852 121.096C133.366 119.437 134.301 117.69 135.947 117.187C136.308 117.074 136.682 116.961 137.044 116.836C138.677 116.283 140.447 117.188 140.983 118.834C141.519 120.48 140.634 122.265 139.001 122.806C138.577 122.944 138.153 123.082 137.729 123.208C137.43 123.308 137.131 123.346 136.844 123.346ZM103.709 118.708C103.135 118.708 102.562 118.557 102.038 118.218C101.664 117.979 101.278 117.728 100.916 117.477C99.4953 116.509 99.1213 114.548 100.081 113.115C101.041 111.682 102.986 111.305 104.407 112.273C104.719 112.487 105.043 112.701 105.367 112.902C106.825 113.832 107.249 115.767 106.327 117.238C105.753 118.193 104.744 118.708 103.709 118.708ZM153.836 113.203C153.038 113.203 152.228 112.889 151.617 112.273C150.408 111.041 150.42 109.043 151.642 107.824C151.916 107.547 152.19 107.271 152.452 106.994C153.649 105.737 155.619 105.7 156.865 106.894C158.112 108.088 158.149 110.086 156.965 111.343C156.653 111.67 156.342 111.984 156.03 112.298C155.419 112.902 154.621 113.203 153.836 113.203ZM90.0832 104.317C88.9987 104.317 87.9515 103.752 87.3781 102.734C87.1537 102.344 86.9417 101.954 86.7298 101.552C85.9195 100.019 86.4929 98.1209 88.0138 97.3039C89.5347 96.487 91.4171 97.0777 92.2274 98.5985C92.402 98.9379 92.589 99.2772 92.7884 99.6166C93.6361 101.125 93.125 103.048 91.6291 103.902C91.1429 104.179 90.6068 104.317 90.0832 104.317ZM164.108 96.2105C163.797 96.2105 163.485 96.1602 163.173 96.0596C161.528 95.5443 160.618 93.7847 161.129 92.1257C161.241 91.7612 161.353 91.3967 161.453 91.0196C161.914 89.348 163.622 88.3676 165.292 88.8201C166.951 89.2852 167.923 91.0071 167.474 92.6913C167.349 93.1312 167.225 93.5711 167.088 93.9984C166.664 95.3558 165.43 96.2105 164.108 96.2105ZM84.7726 85.1501C83.0896 85.1501 81.7059 83.7927 81.656 82.0833C81.6436 81.7063 81.6436 81.3292 81.6436 80.9396V80.7511C81.6436 79.0166 83.0398 77.6089 84.7601 77.6089C86.4805 77.6089 87.8767 79.0166 87.8767 80.7511V80.9522C87.8767 81.2789 87.8767 81.6057 87.8892 81.9325C87.9266 83.667 86.5677 85.1124 84.8474 85.1501C84.8225 85.1501 84.7975 85.1501 84.7726 85.1501ZM165.205 76.3395C163.734 76.3395 162.438 75.2963 162.151 73.7881C162.076 73.411 162.001 73.0339 161.914 72.6569C161.54 70.9601 162.587 69.2759 164.27 68.8989C165.953 68.5092 167.611 69.5776 167.998 71.2743C168.097 71.7142 168.185 72.1667 168.272 72.6066C168.596 74.3159 167.487 75.9624 165.791 76.2766C165.592 76.3269 165.392 76.3395 165.205 76.3395ZM89.061 65.719C88.5873 65.719 88.1136 65.6059 87.6648 65.3796C86.1314 64.6004 85.5081 62.7151 86.281 61.1566C86.4805 60.7544 86.6924 60.3522 86.9043 59.95C87.7271 58.4292 89.622 57.851 91.1304 58.6806C92.6388 59.5101 93.2123 61.408 92.3895 62.9413C92.2025 63.2807 92.028 63.6326 91.8535 63.972C91.2925 65.078 90.1954 65.719 89.061 65.719ZM156.865 58.2909C155.955 58.2909 155.058 57.8887 154.434 57.1221C154.197 56.8204 153.948 56.5313 153.699 56.2423C152.577 54.9351 152.714 52.9493 154.023 51.8055C155.319 50.6744 157.289 50.8126 158.424 52.1323C158.723 52.4717 159.009 52.8236 159.284 53.1755C160.368 54.5204 160.156 56.5062 158.81 57.5997C158.249 58.0647 157.551 58.2909 156.865 58.2909ZM101.939 50.6241C100.966 50.6241 100.006 50.159 99.3956 49.3044C98.3983 47.8841 98.7349 45.9234 100.131 44.9179C100.493 44.654 100.867 44.4026 101.241 44.1512C102.674 43.196 104.606 43.5982 105.554 45.0436C106.501 46.489 106.102 48.4371 104.669 49.3924C104.345 49.606 104.033 49.8197 103.721 50.0459C103.198 50.4356 102.562 50.6241 101.939 50.6241ZM141.095 46.3256C140.696 46.3256 140.285 46.2502 139.886 46.0742C139.525 45.9234 139.176 45.7726 138.814 45.6343C137.206 45.0059 136.408 43.1835 137.031 41.5747C137.655 39.9533 139.462 39.1489 141.058 39.7774C141.469 39.9408 141.893 40.1041 142.305 40.2801C143.888 40.9588 144.636 42.7938 143.963 44.39C143.464 45.5966 142.317 46.3256 141.095 46.3256ZM120.339 43.4223C118.793 43.4223 117.447 42.2534 117.247 40.6697C117.035 38.9478 118.245 37.3768 119.953 37.1631C120.401 37.1128 120.838 37.0625 121.286 37.0123C122.994 36.8614 124.515 38.1183 124.677 39.8528C124.839 41.5747 123.58 43.108 121.86 43.2714C121.486 43.3091 121.112 43.3469 120.725 43.3971C120.601 43.4097 120.464 43.4223 120.339 43.4223Z" fill="#694024"/>
<path d="M144.885 211.001C144.374 211.001 143.851 210.813 143.439 210.436C142.978 210.021 142.093 209.405 140.447 208.777C139.014 208.224 137.318 207.796 135.423 207.482C131.434 206.828 126.759 206.828 122.77 207.482C120.875 207.784 119.18 208.224 117.746 208.777C116.101 209.405 115.215 210.033 114.754 210.436C113.857 211.24 112.485 211.165 111.687 210.272C110.89 209.367 110.964 207.985 111.85 207.18C112.909 206.225 114.38 205.383 116.2 204.679C117.908 204.026 119.89 203.51 122.072 203.158C126.522 202.442 131.659 202.442 136.097 203.158C138.278 203.51 140.26 204.026 141.968 204.679C143.788 205.383 145.259 206.213 146.319 207.18C147.216 207.985 147.291 209.38 146.481 210.272C146.082 210.762 145.484 211.001 144.885 211.001Z" fill="#694024"/>
<path d="M143.451 158.011C170.628 151.011 177.322 176.273 177.322 176.273C177.322 176.273 146.742 187.158 143.451 158.011Z" fill="white"/>
<path d="M173.632 107.082C177.397 116.886 181.199 136.467 158.648 148.709C149.098 120.782 167.224 112.172 173.632 107.082Z" fill="white"/>
<path d="M171.949 177.617C163.398 179.163 147.316 179.414 143.838 160.649C162.3 158.324 169.73 172.062 171.949 177.617Z" fill="#FEC344"/>
<path d="M171.949 177.617C163.398 179.163 147.316 179.414 143.838 160.649C162.3 158.324 169.73 172.062 171.949 177.617Z" fill="#FEC344"/>
<path d="M171.949 177.617C163.398 179.163 147.316 179.414 143.838 160.649C162.3 158.324 169.73 172.062 171.949 177.617Z" fill="#FEC344"/>
<path d="M171.451 109.043C174.679 117.439 177.921 134.205 158.623 144.688C150.445 120.769 165.953 113.392 171.451 109.043Z" fill="#FEC344"/>
<path d="M134.413 161.87C133.491 161.87 132.68 161.191 132.543 160.236C132.394 159.193 133.104 158.213 134.139 158.062C149.647 155.712 156.454 149.126 158.473 146.712C153.549 138.543 152.265 130.914 154.646 124.013C159.047 111.281 174.318 105.927 174.966 105.701C175.839 105.399 176.799 105.776 177.235 106.593C177.497 107.084 183.693 118.672 179.641 130.713C177.11 138.229 171.189 144.161 162.039 148.334C160.418 150.584 153.212 159.042 134.7 161.845C134.6 161.858 134.501 161.87 134.413 161.87ZM174.605 109.962C170.815 111.608 161.241 116.523 158.211 125.295C156.254 130.964 157.364 137.374 161.49 144.362C169.045 140.692 173.931 135.702 176.026 129.519C178.756 121.424 176.001 113.267 174.605 109.962Z" fill="#694024"/>
<path d="M165.093 180.182C160.705 180.182 155.855 179.365 151.629 176.701C145.932 173.106 142.541 166.885 141.569 158.225C141.457 157.27 142.068 156.39 142.99 156.151C171.675 148.773 179.105 175.494 179.167 175.771C179.429 176.738 178.906 177.731 177.971 178.071C177.572 178.209 171.899 180.182 165.093 180.182ZM145.571 159.482C146.618 166.042 149.335 170.731 153.636 173.458C160.854 178.02 170.865 176.072 174.904 175.004C172.909 169.763 165.492 155.196 145.571 159.482Z" fill="#694024"/>
<path d="M85.6328 187.294C90.4323 179.992 101.365 168.102 117.222 178.521C106.127 193.579 91.1429 189.506 85.6328 187.294Z" fill="#FEC344"/>
<path d="M98.4107 190.927C86.7048 190.927 78.3026 182.632 78.1779 182.493C77.4798 181.79 77.4299 180.658 78.0782 179.904C78.5145 179.389 88.9114 167.424 101.577 167.851C108.296 168.102 114.305 171.785 119.441 178.811C120.002 179.578 119.915 180.646 119.242 181.312C111.862 188.564 104.656 190.927 98.4107 190.927ZM82.2544 181.036C86.5552 184.567 100.193 193.453 115.365 179.741C111.214 174.575 106.526 171.873 101.452 171.684C92.8757 171.37 85.2089 178.069 82.2544 181.036Z" fill="#694024"/>
<path d="M71.2588 136.267C81.3316 133.564 101.053 131.905 110.665 155.836C82.0795 162.359 75.5721 143.255 71.2588 136.267Z" fill="white"/>
<path d="M140.609 145.68C141.195 154.415 139.686 170.566 120.812 171.998C120.538 153.246 134.887 147.301 140.609 145.68Z" fill="#FEC344"/>
<path d="M72.9419 138.681C81.5686 136.368 98.4604 134.948 106.676 155.435C82.2044 161.015 76.6319 144.663 72.9419 138.681Z" fill="#FEC344"/>
<path d="M129.576 199.726C129.526 199.726 129.464 199.726 129.402 199.713C124.64 199.286 117.509 189.759 117.185 181.438C116.561 165.64 110.815 158.098 108.658 155.811C100.069 159.845 92.4018 160.298 85.8694 157.156C73.8021 151.362 70.1993 135.475 70.0497 134.796C69.8502 133.891 70.324 132.974 71.1841 132.609C71.6953 132.396 83.8 127.469 95.2192 132.835C102.35 136.191 107.548 142.777 110.665 152.405C112.697 154.265 120.252 162.422 120.987 181.275C121.261 188.251 127.569 195.691 129.751 195.892C130.798 195.98 131.571 196.91 131.471 197.966C131.384 198.972 130.549 199.726 129.576 199.726ZM74.201 135.613C75.4102 139.597 79.2124 149.728 87.515 153.712C92.888 156.289 99.3331 155.886 106.676 152.518C103.883 144.549 99.4951 139.107 93.6235 136.33C85.9567 132.71 77.6043 134.57 74.201 135.613Z" fill="#694024"/>
<path d="M118.157 174.01C117.21 174.01 116.412 173.307 116.275 172.364C112.136 142.828 139.3 138.29 139.574 138.253C140.559 138.102 141.482 138.73 141.706 139.711C141.856 140.364 145.346 155.899 137.48 165.954C133.316 171.271 126.821 173.985 118.157 174.01C118.17 174.01 118.17 174.01 118.157 174.01ZM138.34 142.438C132.967 143.858 117.808 149.715 119.828 170.139C126.41 169.8 131.334 167.6 134.488 163.591C139.786 156.842 138.963 146.598 138.34 142.438Z" fill="#694024"/>
</g>
<path d="M226.476 97.6247L216.875 100.197C215.942 100.447 214.988 99.8959 214.738 98.9631C214.489 98.0339 215.039 97.0756 215.972 96.8257L225.572 94.2533C226.501 94.0043 227.461 94.5581 227.71 95.4873C227.96 96.4202 227.405 97.3758 226.476 97.6247Z" fill="#693F23"/>
<path d="M222.962 103.711C222.033 103.96 221.074 103.41 220.824 102.477L218.252 92.8771C218.003 91.948 218.553 90.9897 219.486 90.7397C220.415 90.4907 221.374 91.0409 221.623 91.9738L224.196 101.574C224.441 102.504 223.891 103.462 222.962 103.711Z" fill="#693F23"/>
<path d="M36.727 140.502L28.3723 142.74C27.5605 142.958 26.7298 142.478 26.5122 141.666C26.2956 140.858 26.7743 140.024 27.5862 139.806L35.9409 137.567C36.7495 137.351 37.5843 137.833 37.801 138.641C38.0185 139.453 37.5357 140.285 36.727 140.502Z" fill="#693F23"/>
<path d="M33.6691 145.798C32.8605 146.015 32.0265 145.536 31.809 144.724L29.5703 136.369C29.3537 135.561 29.8325 134.727 30.6443 134.509C31.4529 134.293 32.2869 134.771 32.5044 135.583L34.743 143.938C34.9565 144.747 34.4777 145.581 33.6691 145.798Z" fill="#693F23"/>
<g clip-path="url(#clip1_0_1)">
<path d="M172.267 27.5584C171.969 27.384 171.869 26.9998 172.044 26.7006L173.725 23.8309C173.9 23.5317 174.284 23.4305 174.582 23.605C174.88 23.7795 174.979 24.1636 174.804 24.4628L173.123 27.3325C172.949 27.6299 172.564 27.7329 172.267 27.5584Z" fill="#694024" stroke="#694125" stroke-width="1.5" stroke-miterlimit="10"/>
<path d="M180.222 13.9764C179.924 13.8019 179.824 13.4178 179.999 13.1186L181.68 10.2489C181.855 9.94967 182.239 9.84852 182.537 10.023C182.835 10.1974 182.934 10.5816 182.759 10.8808L181.078 13.7505C180.903 14.0497 180.519 14.1509 180.222 13.9764Z" fill="#694024" stroke="#694125" stroke-width="1.5" stroke-miterlimit="10"/>
<path d="M183.277 19.1248C183.09 19.0152 182.965 18.8122 182.968 18.5785C182.971 18.2322 183.254 17.9523 183.6 17.9538L186.914 17.9687C187.259 17.9702 187.537 18.2532 187.534 18.5995C187.532 18.9458 187.248 19.2257 186.903 19.2242L183.589 19.2093C183.475 19.2085 183.368 19.178 183.277 19.1248Z" fill="#694024" stroke="#694125" stroke-width="1.5" stroke-miterlimit="10"/>
<path d="M167.59 19.0545C167.403 18.9449 167.278 18.7419 167.281 18.5082C167.284 18.1619 167.567 17.882 167.913 17.8835L171.227 17.8984C171.572 17.8999 171.85 18.1829 171.847 18.5292C171.845 18.8754 171.561 19.1554 171.216 19.1539L167.902 19.139C167.788 19.1382 167.681 19.1077 167.59 19.0545Z" fill="#694024" stroke="#694125" stroke-width="1.5" stroke-miterlimit="10"/>
<path d="M173.834 13.8265C173.744 13.7734 173.663 13.6943 173.608 13.5961L171.974 10.7133C171.804 10.4126 171.909 10.0285 172.21 9.85663C172.511 9.6848 172.894 9.78901 173.064 10.0897L174.698 12.9725C174.868 13.2732 174.763 13.6573 174.462 13.8292C174.26 13.9458 174.022 13.9361 173.834 13.8265Z" fill="#694024" stroke="#694125" stroke-width="1.5" stroke-miterlimit="10"/>
<path d="M181.568 27.475C181.477 27.4218 181.398 27.3438 181.342 27.2446L179.708 24.3617C179.537 24.0611 179.643 23.6769 179.944 23.5051C180.244 23.3332 180.627 23.4374 180.797 23.7381L182.432 26.621C182.602 26.9216 182.496 27.3058 182.196 27.4776C181.993 27.5942 181.755 27.5845 181.568 27.475Z" fill="#694024" stroke="#694125" stroke-width="1.5" stroke-miterlimit="10"/>
</g>
<g clip-path="url(#clip2_0_1)">
<path d="M8.26653 93.5584C7.96865 93.384 7.86918 92.9998 8.04441 92.7006L9.72514 89.8309C9.90037 89.5317 10.2841 89.4305 10.5819 89.605C10.8798 89.7795 10.9793 90.1636 10.8041 90.4628L9.12333 93.3325C8.94917 93.6299 8.56442 93.7329 8.26653 93.5584Z" fill="#694024" stroke="#694125" stroke-width="1.5" stroke-miterlimit="10"/>
<path d="M16.2216 79.9764C15.9237 79.8019 15.8243 79.4178 15.9995 79.1186L17.6802 76.2489C17.8555 75.9497 18.2391 75.8485 18.537 76.023C18.8349 76.1974 18.9344 76.5816 18.7591 76.8808L17.0784 79.7505C16.9032 80.0497 16.5195 80.1509 16.2216 79.9764Z" fill="#694024" stroke="#694125" stroke-width="1.5" stroke-miterlimit="10"/>
<path d="M19.2774 85.1248C19.0903 85.0152 18.9653 84.8122 18.968 84.5785C18.9708 84.2322 19.2543 83.9523 19.5998 83.9538L22.9135 83.9687C23.2591 83.9702 23.5373 84.2532 23.5345 84.5995C23.5317 84.9458 23.2482 85.2257 22.9027 85.2242L19.589 85.2093C19.4748 85.2085 19.3682 85.178 19.2774 85.1248Z" fill="#694024" stroke="#694125" stroke-width="1.5" stroke-miterlimit="10"/>
<path d="M3.59041 85.0545C3.40333 84.9449 3.27832 84.7419 3.28099 84.5082C3.28378 84.1619 3.56724 83.882 3.91278 83.8835L7.22651 83.8984C7.57205 83.8999 7.85027 84.1829 7.84749 84.5292C7.8447 84.8754 7.56124 85.1554 7.2157 85.1539L3.90197 85.139C3.78776 85.1382 3.68123 85.1077 3.59041 85.0545Z" fill="#694024" stroke="#694125" stroke-width="1.5" stroke-miterlimit="10"/>
<path d="M9.83446 79.8265C9.74364 79.7734 9.66308 79.6943 9.60838 79.5961L7.97432 76.7133C7.80401 76.4126 7.90947 76.0285 8.21014 75.8566C8.5108 75.6848 8.89374 75.789 9.06405 76.0897L10.6981 78.9725C10.8684 79.2732 10.763 79.6573 10.4623 79.8292C10.2598 79.9458 10.0215 79.9361 9.83446 79.8265Z" fill="#694024" stroke="#694125" stroke-width="1.5" stroke-miterlimit="10"/>
<path d="M17.5679 93.475C17.477 93.4218 17.3983 93.3438 17.3418 93.2446L15.7077 90.3617C15.5374 90.0611 15.6429 89.6769 15.9435 89.5051C16.2442 89.3332 16.6271 89.4374 16.7974 89.7381L18.4315 92.621C18.6018 92.9216 18.4963 93.3058 18.1957 93.4776C17.9932 93.5942 17.7549 93.5845 17.5679 93.475Z" fill="#694024" stroke="#694125" stroke-width="1.5" stroke-miterlimit="10"/>
</g>
<path d="M92.572 15.8996C93.0013 17.5017 92.0489 19.1455 90.4507 19.5738C88.8486 20.0031 87.2047 19.0507 86.7765 17.4525C86.3482 15.8542 87.2957 14.2075 88.8978 13.7782C90.496 13.35 92.1438 14.3013 92.572 15.8996Z" fill="#693F23"/>
<path d="M261.381 86.9317C261.668 87.9998 261.033 89.0957 259.967 89.3812C258.899 89.6674 257.803 89.0325 257.518 87.967C257.232 86.9015 257.864 85.8037 258.932 85.5175C259.997 85.232 261.096 85.8662 261.381 86.9317Z" fill="#693F23"/>
<path d="M28.3813 1.93173C28.6675 2.99981 28.0326 4.09572 26.9671 4.38122C25.899 4.66741 24.8031 4.0325 24.5176 2.96701C24.2321 1.90152 24.8638 0.803709 25.9319 0.517518C26.9973 0.23202 28.0958 0.866239 28.3813 1.93173Z" fill="#693F23"/>
<path d="M233.381 141.932C233.668 143 233.033 144.096 231.967 144.381C230.899 144.667 229.803 144.033 229.518 142.967C229.232 141.902 229.864 140.804 230.932 140.518C231.997 140.232 233.096 140.866 233.381 141.932Z" fill="#693F23"/>
<defs>
<clipPath id="clip0_0_1">
<rect width="111" height="174" fill="white" transform="translate(70 37)"/>
</clipPath>
<clipPath id="clip1_0_1">
<rect width="18.4416" height="20.9563" fill="white" transform="translate(174.591 5) rotate(30.3564)"/>
</clipPath>
<clipPath id="clip2_0_1">
<rect width="18.4416" height="20.9563" fill="white" transform="translate(10.5908 71) rotate(30.3564)"/>
</clipPath>
</defs>
</svg>
