<svg width="228" height="109" viewBox="0 0 228 109" fill="none" xmlns="http://www.w3.org/2000/svg">
<path d="M225.193 62.523L217.931 64.4689C217.226 64.658 216.504 64.2411 216.315 63.5354C216.126 62.8325 216.542 62.1077 217.248 61.9186L224.51 59.9727C225.213 59.7844 225.939 60.2033 226.127 60.9062C226.316 61.6119 225.896 62.3347 225.193 62.523Z" fill="#693F23"/>
<path d="M222.535 67.1269C221.833 67.3152 221.108 66.899 220.919 66.1934L218.973 58.9314C218.784 58.2285 219.201 57.5036 219.906 57.3146C220.609 57.1262 221.334 57.5424 221.523 58.2481L223.469 65.51C223.654 66.2137 223.238 66.9385 222.535 67.1269Z" fill="#693F23"/>
<path d="M10.1935 63.523L2.93147 65.4689C2.22583 65.658 1.50371 65.2411 1.31464 64.5354C1.12631 63.8325 1.54248 63.1077 2.24812 62.9186L9.51011 60.9727C10.213 60.7844 10.9386 61.2033 11.1269 61.9062C11.316 62.6119 10.8963 63.3347 10.1935 63.523Z" fill="#693F23"/>
<path d="M7.53537 68.1269C6.8325 68.3152 6.10761 67.899 5.91853 67.1934L3.97269 59.9314C3.78436 59.2285 4.20053 58.5036 4.90617 58.3146C5.60903 58.1262 6.33392 58.5424 6.523 59.2481L8.46885 66.51C8.6544 67.2137 8.23823 67.9385 7.53537 68.1269Z" fill="#693F23"/>
<g clip-path="url(#clip0_723_11285)">
<path d="M178.253 34.063C178.028 33.931 177.953 33.6405 178.085 33.4141L179.357 31.2434C179.489 31.017 179.779 30.9405 180.005 31.0725C180.23 31.2045 180.305 31.495 180.173 31.7214L178.901 33.8921C178.77 34.1171 178.479 34.195 178.253 34.063Z" fill="#694024" stroke="#694125" stroke-width="1.5" stroke-miterlimit="10"/>
<path d="M184.271 23.7888C184.045 23.6569 183.97 23.3663 184.103 23.14L185.374 20.9692C185.507 20.7429 185.797 20.6664 186.022 20.7983C186.247 20.9303 186.323 21.2209 186.19 21.4472L184.919 23.618C184.786 23.8443 184.496 23.9208 184.271 23.7888Z" fill="#694024" stroke="#694125" stroke-width="1.5" stroke-miterlimit="10"/>
<path d="M186.582 27.6839C186.441 27.601 186.346 27.4474 186.348 27.2706C186.35 27.0087 186.565 26.797 186.826 26.7981L189.333 26.8094C189.594 26.8105 189.805 27.0245 189.803 27.2865C189.8 27.5484 189.586 27.7602 189.325 27.7591L186.818 27.7478C186.732 27.7472 186.651 27.7241 186.582 27.6839Z" fill="#694024" stroke="#694125" stroke-width="1.5" stroke-miterlimit="10"/>
<path d="M174.716 27.6324C174.575 27.5495 174.48 27.3959 174.482 27.2191C174.484 26.9572 174.699 26.7454 174.96 26.7466L177.467 26.7579C177.728 26.759 177.938 26.973 177.936 27.235C177.934 27.4969 177.72 27.7087 177.458 27.7076L174.952 27.6963C174.865 27.6957 174.785 27.6726 174.716 27.6324Z" fill="#694024" stroke="#694125" stroke-width="1.5" stroke-miterlimit="10"/>
<path d="M179.439 23.6763C179.371 23.636 179.31 23.5763 179.268 23.502L178.032 21.3213C177.903 21.0939 177.983 20.8033 178.211 20.6733C178.438 20.5433 178.728 20.6222 178.856 20.8496L180.093 23.0303C180.221 23.2577 180.142 23.5483 179.914 23.6783C179.761 23.7665 179.581 23.7592 179.439 23.6763Z" fill="#694024" stroke="#694125" stroke-width="1.5" stroke-miterlimit="10"/>
<path d="M185.289 34.0005C185.22 33.9603 185.161 33.9013 185.118 33.8262L183.882 31.6455C183.753 31.4181 183.833 31.1275 184.06 30.9975C184.288 30.8675 184.577 30.9464 184.706 31.1738L185.942 33.3545C186.071 33.5819 185.991 33.8725 185.764 34.0025C185.611 34.0907 185.43 34.0834 185.289 34.0005Z" fill="#694024" stroke="#694125" stroke-width="1.5" stroke-miterlimit="10"/>
</g>
<g clip-path="url(#clip1_723_11285)">
<path d="M41.2533 20.063C41.0279 19.931 40.9527 19.6405 41.0852 19.4141L42.3566 17.2434C42.4892 17.017 42.7794 16.9405 43.0047 17.0725C43.23 17.2045 43.3053 17.495 43.1727 17.7214L41.9014 19.8921C41.7696 20.1171 41.4786 20.195 41.2533 20.063Z" fill="#694024" stroke="#694125" stroke-width="1.5" stroke-miterlimit="10"/>
<path d="M47.2706 9.78883C47.0453 9.65686 46.97 9.36629 47.1026 9.13997L48.374 6.96919C48.5065 6.74287 48.7967 6.66635 49.0221 6.79832C49.2474 6.93029 49.3226 7.22086 49.1901 7.44718L47.9187 9.61795C47.7862 9.84428 47.4959 9.9208 47.2706 9.78883Z" fill="#694024" stroke="#694125" stroke-width="1.5" stroke-miterlimit="10"/>
<path d="M49.5823 13.6839C49.4408 13.601 49.3462 13.4474 49.3482 13.2706C49.3504 13.0087 49.5648 12.797 49.8262 12.7981L52.3328 12.8094C52.5942 12.8105 52.8046 13.0245 52.8025 13.2865C52.8004 13.5484 52.586 13.7602 52.3246 13.7591L49.818 13.7478C49.7316 13.7472 49.651 13.7241 49.5823 13.6839Z" fill="#694024" stroke="#694125" stroke-width="1.5" stroke-miterlimit="10"/>
<path d="M37.7161 13.6324C37.5746 13.5495 37.48 13.3959 37.482 13.2191C37.4841 12.9572 37.6986 12.7454 37.9599 12.7466L40.4665 12.7579C40.7279 12.759 40.9384 12.973 40.9363 13.235C40.9342 13.4969 40.7198 13.7087 40.4584 13.7076L37.9518 13.6963C37.8654 13.6957 37.7848 13.6726 37.7161 13.6324Z" fill="#694024" stroke="#694125" stroke-width="1.5" stroke-miterlimit="10"/>
<path d="M42.4392 9.67628C42.3705 9.63605 42.3096 9.57627 42.2682 9.50199L41.0321 7.3213C40.9033 7.09387 40.9831 6.80327 41.2105 6.6733C41.438 6.54332 41.7276 6.62215 41.8565 6.84958L43.0925 9.03027C43.2213 9.2577 43.1416 9.54829 42.9141 9.67827C42.761 9.7665 42.5807 9.75917 42.4392 9.67628Z" fill="#694024" stroke="#694125" stroke-width="1.5" stroke-miterlimit="10"/>
<path d="M48.2889 20.0005C48.2202 19.9603 48.1606 19.9013 48.1179 19.8262L46.8818 17.6455C46.753 17.4181 46.8328 17.1275 47.0602 16.9975C47.2876 16.8675 47.5773 16.9464 47.7061 17.1738L48.9422 19.3545C49.071 19.5819 48.9912 19.8725 48.7638 20.0025C48.6107 20.0907 48.4304 20.0834 48.2889 20.0005Z" fill="#694024" stroke="#694125" stroke-width="1.5" stroke-miterlimit="10"/>
</g>
<path d="M199.314 95.4614C199.531 96.2693 199.05 97.0983 198.244 97.3143C197.437 97.5308 196.608 97.0505 196.392 96.2445C196.176 95.4385 196.653 94.6081 197.461 94.3916C198.267 94.1757 199.098 94.6554 199.314 95.4614Z" fill="#693F23"/>
<path d="M36.4767 90.4147C36.8344 91.7498 36.0408 93.1197 34.7089 93.4765C33.3738 93.8343 32.0039 93.0406 31.647 91.7088C31.2902 90.3769 32.0797 89.0046 33.4148 88.6469C34.7467 88.29 36.1198 89.0828 36.4767 90.4147Z" fill="#693F23"/>
<path d="M125.864 64.3501H100.401C97.6383 64.3501 95.3989 62.1086 95.3989 59.3429C95.3989 56.5771 97.6383 54.3357 100.401 54.3357H125.869C128.632 54.3357 130.872 56.5771 130.872 59.3429C130.866 62.1086 128.627 64.3501 125.864 64.3501Z" fill="#F58051"/>
<path d="M84.6165 40.8757H76.2923C73.6557 40.8757 71.3127 42.5525 70.4607 45.0532L64.3701 62.8693C63.8866 64.2753 63.8808 65.8022 64.3413 67.2197L74.2199 97.5682H87.8749" fill="white"/>
<path d="M87.8748 98.5708H74.2141C73.7824 98.5708 73.3967 98.2885 73.2585 97.8794L63.3857 67.5309C62.8619 65.9175 62.8734 64.1486 63.4203 62.5467L69.5051 44.7248C70.4953 41.8208 73.224 39.8674 76.2865 39.8674H84.6108C85.1634 39.8674 85.6125 40.3169 85.6125 40.87C85.6125 41.4232 85.1634 41.8726 84.6108 41.8726H76.2923C74.0875 41.8726 72.1244 43.2785 71.4106 45.3702L65.32 63.1921C64.9112 64.3848 64.9055 65.7043 65.2969 66.9028L74.9452 96.5541H87.8748C88.4275 96.5541 88.8765 97.0036 88.8765 97.5567C88.8765 98.1099 88.4275 98.5708 87.8748 98.5708Z" fill="#694024"/>
<path d="M137.268 92.2729H88.9974C86.0269 92.2729 83.6149 89.8528 83.6149 86.8854V5.38748C83.6091 2.42005 86.0269 0 88.9974 0H137.268C140.238 0 142.65 2.42005 142.65 5.38748V86.8854C142.65 89.8586 140.238 92.2729 137.268 92.2729ZM88.9974 2.01094C87.138 2.01094 85.6182 3.52635 85.6182 5.38748V86.8854C85.6182 88.7465 87.1322 90.2677 88.9974 90.2677H137.268C139.127 90.2677 140.647 88.7523 140.647 86.8854V5.38748C140.647 3.52635 139.133 2.01094 137.268 2.01094H88.9974V2.01094Z" fill="#694024"/>
<path d="M141.884 79.7405H84.3805C83.8279 79.7405 83.3788 79.2911 83.3788 78.7379C83.3788 78.1848 83.8279 77.7354 84.3805 77.7354H141.884C142.437 77.7354 142.886 78.1848 142.886 78.7379C142.886 79.2911 142.437 79.7405 141.884 79.7405Z" fill="#694024"/>
<path d="M141.695 12.9473H84.5705C84.0178 12.9473 83.5688 12.4979 83.5688 11.9447C83.5688 11.3916 84.0178 10.9421 84.5705 10.9421H141.689C142.241 10.9421 142.69 11.3916 142.69 11.9447C142.69 12.4979 142.247 12.9473 141.695 12.9473Z" fill="#694024"/>
<path d="M120.285 6.62056H105.98C105.427 6.62056 104.978 6.17112 104.978 5.61797C104.978 5.06482 105.427 4.60962 105.98 4.60962H120.279C120.832 4.60962 121.281 5.05906 121.281 5.61221C121.281 6.16536 120.838 6.62056 120.285 6.62056Z" fill="#694024"/>
<path d="M117.413 88.0436C116.86 88.0436 116.411 87.5941 116.411 87.041C116.411 85.2317 114.943 83.7624 113.135 83.7624C111.328 83.7624 109.86 85.2317 109.86 87.041C109.86 87.5941 109.411 88.0436 108.858 88.0436C108.305 88.0436 107.856 87.5941 107.856 87.041C107.856 84.1254 110.228 81.7515 113.141 81.7515C116.054 81.7515 118.426 84.1254 118.426 87.041C118.414 87.5941 117.965 88.0436 117.413 88.0436Z" fill="#694024"/>
<path d="M113.13 46.8336C104.794 46.8336 98.0125 40.046 98.0125 31.7026C98.0125 23.3592 104.794 16.5715 113.13 16.5715C121.465 16.5715 128.247 23.3592 128.247 31.7026C128.247 40.046 121.465 46.8336 113.13 46.8336ZM113.13 18.5825C105.905 18.5825 100.022 24.4655 100.022 31.7026C100.022 38.9397 105.899 44.8227 113.13 44.8227C120.36 44.8227 126.238 38.9397 126.238 31.7026C126.238 24.4713 120.36 18.5825 113.13 18.5825Z" fill="#694024"/>
<path d="M125.864 65.3528H100.401C97.0914 65.3528 94.3972 62.6562 94.3972 59.343C94.3972 56.0299 97.0914 53.3333 100.401 53.3333H125.869C129.179 53.3333 131.874 56.0299 131.874 59.343C131.868 62.6562 129.174 65.3528 125.864 65.3528ZM100.401 55.3442C98.1967 55.3442 96.4063 57.1362 96.4063 59.343C96.4063 61.5499 98.1967 63.3419 100.401 63.3419H125.869C128.074 63.3419 129.864 61.5499 129.864 59.343C129.864 57.1362 128.074 55.3442 125.869 55.3442H100.401Z" fill="#694024"/>
<path d="M160.951 68.908L158.401 66.3554C155.016 62.9673 160.133 57.8449 163.518 61.233L167.709 65.4277C184.801 80.4378 179.326 86.1594 179.326 86.1594L185.998 92.8376L170.852 107.997L164.946 102.086C155.96 111.08 142.357 96.4331 142.357 96.4331C138.764 94.3761 123.958 87.6115 123.958 87.6115C125.098 78.1848 135.063 81.7918 143.502 86.3496L143.721 86.1767L122.081 64.5173C118.282 60.7144 124.027 54.9581 127.827 58.7668L144.723 75.6783L142.138 73.0912C138.338 69.2883 144.078 63.532 147.883 67.3407L151.429 70.8901" fill="white"/>
<path d="M170.852 109C170.588 109 170.329 108.896 170.144 108.706L164.923 103.48C162.897 105.209 160.531 106.067 157.877 106.009C150.249 105.871 142.765 98.3114 141.735 97.2339C138.01 95.1423 123.693 88.5909 123.549 88.5275C123.152 88.3432 122.916 87.9283 122.968 87.4904C123.325 84.5402 124.522 82.5178 126.526 81.4806C129.289 80.0516 133.48 80.5932 139.265 83.1401L121.373 65.2317C119.036 62.8923 119.617 59.8615 121.396 58.0811C123.175 56.3006 126.203 55.7186 128.54 58.058L139.956 69.4899C140.14 68.4181 140.687 67.4213 141.453 66.6549C142.38 65.7273 143.565 65.1741 144.786 65.0992C145.759 65.0416 147.215 65.2548 148.597 66.6377L152.143 70.1871C152.534 70.5789 152.534 71.2185 152.143 71.6103C151.752 72.0021 151.113 72.0021 150.721 71.6103L147.175 68.0609C145.695 66.58 143.945 67.0007 142.869 68.0782C141.792 69.1557 141.366 70.9073 142.846 72.3881L145.431 74.9753C145.822 75.3671 145.822 76.0067 145.431 76.3985C145.039 76.7903 144.4 76.7903 144.009 76.3985L127.113 59.487C125.633 58.0062 123.883 58.4325 122.807 59.51C121.73 60.5875 121.304 62.3392 122.784 63.82L144.423 85.4794C144.625 85.6811 144.734 85.9634 144.717 86.2515C144.7 86.5397 144.561 86.8047 144.337 86.9833L144.118 87.1562C143.801 87.4039 143.37 87.4385 143.019 87.2484C135.466 83.1689 130.221 81.8321 127.435 83.2783C126.186 83.9237 125.409 85.1568 125.058 87.0294C128.051 88.4065 139.657 93.7537 142.846 95.5745C142.932 95.6263 143.013 95.6897 143.082 95.7646C143.157 95.8453 150.721 103.889 157.905 104.016C160.352 104.056 162.419 103.203 164.226 101.388C164.618 100.997 165.257 100.997 165.648 101.388L170.841 106.586L184.565 92.8491L178.601 86.8796C178.215 86.4936 178.209 85.8713 178.584 85.4737C178.612 85.4391 182.89 80.1208 167.03 66.194C167.013 66.1825 166.995 66.1652 166.984 66.1479L162.793 61.9531C161.895 61.0543 160.991 61.0543 160.392 61.2156C159.431 61.4749 158.614 62.2931 158.36 63.2496C158.199 63.8488 158.199 64.7535 159.097 65.6524L161.647 68.2049C162.039 68.5967 162.039 69.2363 161.647 69.6281C161.256 70.02 160.617 70.02 160.225 69.6281L157.675 67.0756C156.461 65.8598 156.006 64.281 156.42 62.731C156.864 61.0773 158.222 59.7175 159.874 59.2738C161.417 58.8589 163 59.3141 164.215 60.5299L168.383 64.7016C178.664 73.7365 180.996 79.631 181.145 82.9845C181.209 84.3904 180.898 85.3872 180.587 86.0211L186.695 92.1346C187.086 92.5264 187.086 93.166 186.695 93.5578L171.549 108.718C171.37 108.89 171.117 109 170.852 109Z" fill="#694024"/>
<path d="M153.945 73.4023L149.846 69.2998C146.047 65.4969 151.786 59.7406 155.591 63.5493L159.788 67.7498" fill="white"/>
<path d="M153.945 74.4107C153.686 74.4107 153.433 74.3127 153.237 74.1168L149.138 70.0143C147.808 68.6832 147.307 66.9489 147.762 65.2548C148.246 63.4398 149.737 61.9474 151.55 61.4634C153.243 61.0082 154.975 61.5153 156.305 62.8463L160.502 67.0468C160.893 67.4386 160.893 68.0782 160.502 68.47C160.11 68.8619 159.471 68.8619 159.08 68.47L154.883 64.2695C153.83 63.2151 152.77 63.2208 152.068 63.411C150.951 63.7106 149.996 64.6671 149.696 65.7849C149.506 66.4879 149.501 67.5481 150.554 68.6026L154.653 72.7051C155.044 73.0969 155.044 73.7365 154.653 74.1283C154.463 74.3127 154.204 74.4107 153.945 74.4107Z" fill="#694024"/>
<path d="M130.86 90.8036L132.087 87.6921C132.087 87.6921 129.277 86.1248 127.792 85.5659" fill="white"/>
<path d="M130.86 91.8119C130.739 91.8119 130.613 91.7889 130.492 91.7428C129.974 91.5411 129.726 90.9534 129.928 90.4406L130.826 88.1588C129.905 87.6633 128.373 86.8681 127.441 86.5109C126.923 86.315 126.664 85.733 126.859 85.2144C127.055 84.6959 127.637 84.4366 128.155 84.6325C129.686 85.2144 132.461 86.7586 132.582 86.822C133.019 87.0698 133.209 87.5999 133.025 88.0666L131.799 91.1781C131.643 91.5699 131.263 91.8119 130.86 91.8119Z" fill="#694024"/>
<path d="M102.48 41.959C102.422 41.959 102.37 41.9532 102.313 41.9475C101.766 41.8553 101.397 41.3367 101.49 40.7893C102.704 33.5234 108.196 30.9017 108.432 30.798C108.933 30.5675 109.532 30.7865 109.768 31.2878C109.998 31.7891 109.779 32.3883 109.278 32.6188C109.071 32.7167 104.506 34.9466 103.47 41.1235C103.389 41.6075 102.963 41.959 102.48 41.959Z" fill="#694024"/>
<path d="M123.78 41.9591C123.296 41.9591 122.87 41.6134 122.789 41.1178C121.747 34.8891 117.033 32.6362 116.987 32.6131C116.486 32.3826 116.267 31.7834 116.497 31.2821C116.728 30.775 117.326 30.5618 117.833 30.7923C118.069 30.9018 123.561 33.5235 124.775 40.7836C124.868 41.331 124.499 41.8496 123.952 41.9418C123.895 41.9533 123.837 41.9591 123.78 41.9591Z" fill="#694024"/>
<path d="M73.1203 94.157H92.722V73.2293C92.722 71.5641 92.0139 69.9853 90.7705 68.879L89.245 67.5192V51.23C89.245 48.2971 86.7293 45.952 83.7415 46.2401C81.1395 46.4878 79.2225 48.8272 79.2225 51.4431V70.2043L74.2141 75.6782" fill="white"/>
<path d="M92.722 95.1654H73.1203C72.5677 95.1654 72.1187 94.7159 72.1187 94.1628C72.1187 93.6096 72.5677 93.1602 73.1203 93.1602H91.7203V73.2351C91.7203 71.858 91.1332 70.55 90.1085 69.6339L88.5829 68.274C88.3699 68.0839 88.249 67.8073 88.249 67.525V51.23C88.249 50.1006 87.7712 49.0232 86.9365 48.2626C86.0903 47.4962 84.9965 47.1274 83.8451 47.2427C81.8245 47.4328 80.2357 49.2824 80.2357 51.449V70.2101C80.2357 70.4636 80.1436 70.7056 79.9709 70.89L74.9625 76.3639C74.5883 76.773 73.9551 76.8018 73.5463 76.4273C73.1376 76.0528 73.1088 75.4189 73.483 75.0098L78.2266 69.824V51.4432C78.2266 48.251 80.6098 45.5256 83.6494 45.2375C85.3419 45.0762 87.0286 45.6351 88.2778 46.776C89.527 47.9168 90.2466 49.536 90.2466 51.23V67.0698L91.4383 68.13C92.8947 69.4264 93.7237 71.2818 93.7237 73.2294V94.157C93.7237 94.7159 93.2747 95.1654 92.722 95.1654Z" fill="#694024"/>
<path d="M86.712 53.8575H81.7612C81.2085 53.8575 80.7595 53.408 80.7595 52.8549C80.7595 52.3017 81.2085 51.8523 81.7612 51.8523H86.712C87.2646 51.8523 87.7137 52.3017 87.7137 52.8549C87.7137 53.408 87.2646 53.8575 86.712 53.8575Z" fill="#694024"/>
<path d="M69.2 105.929V89.2017H94.3742V105.929" fill="white"/>
<path d="M94.3742 106.937C93.8215 106.937 93.3725 106.488 93.3725 105.935V90.21H70.2017V105.935C70.2017 106.488 69.7527 106.937 69.2 106.937C68.6474 106.937 68.1983 106.488 68.1983 105.935V89.2074C68.1983 88.6543 68.6474 88.2048 69.2 88.2048H94.3742C94.9268 88.2048 95.3759 88.6543 95.3759 89.2074V105.935C95.3759 106.488 94.9268 106.937 94.3742 106.937Z" fill="#694024"/>
<path d="M76.7701 97.0208H74.2141C73.6615 97.0208 73.2124 96.5714 73.2124 96.0182C73.2124 95.4651 73.6615 95.0156 74.2141 95.0156H76.7701C77.3228 95.0156 77.7718 95.4651 77.7718 96.0182C77.7718 96.5714 77.3228 97.0208 76.7701 97.0208Z" fill="#694024"/>
<path d="M113.13 34.2034C116.757 34.2034 119.698 31.2599 119.698 27.6289C119.698 23.9979 116.757 21.0544 113.13 21.0544C109.502 21.0544 106.561 23.9979 106.561 27.6289C106.561 31.2599 109.502 34.2034 113.13 34.2034Z" fill="#FEC344"/>
<path d="M113.13 35.2118C108.95 35.2118 105.554 31.8122 105.554 27.629C105.554 23.4457 108.95 20.0461 113.13 20.0461C117.309 20.0461 120.705 23.4457 120.705 27.629C120.705 31.8122 117.309 35.2118 113.13 35.2118ZM113.13 22.0571C110.061 22.0571 107.563 24.5578 107.563 27.629C107.563 30.7001 110.061 33.2008 113.13 33.2008C116.198 33.2008 118.696 30.7001 118.696 27.629C118.696 24.5578 116.204 22.0571 113.13 22.0571Z" fill="#694024"/>
<path d="M87.7367 41.0083L88.0188 40.0345C91.3519 28.6084 99.4862 19.1991 110.303 14.2495H87.7367V41.0083Z" fill="#FEC344"/>
<defs>
<clipPath id="clip0_723_11285">
<rect width="13.9499" height="15.8521" fill="white" transform="translate(180.011 17) rotate(30.3564)"/>
</clipPath>
<clipPath id="clip1_723_11285">
<rect width="13.9499" height="15.8521" fill="white" transform="translate(43.0113 3) rotate(30.3564)"/>
</clipPath>
</defs>
</svg>
