<svg width="228" height="138" viewBox="0 0 228 138" fill="none" xmlns="http://www.w3.org/2000/svg">
<path d="M225.167 76.3379L216.99 78.5289C216.195 78.7419 215.382 78.2724 215.169 77.4778C214.957 76.6864 215.426 75.8702 216.22 75.6573L224.397 73.4662C225.189 73.2541 226.006 73.7259 226.218 74.5173C226.431 75.3119 225.958 76.1258 225.167 76.3379Z" fill="#693F23"/>
<path d="M222.174 81.5215C221.382 81.7336 220.566 81.265 220.353 80.4704L218.162 72.2933C217.95 71.5018 218.419 70.6856 219.213 70.4727C220.005 70.2606 220.821 70.7292 221.034 71.5238L223.225 79.7009C223.434 80.4932 222.965 81.3094 222.174 81.5215Z" fill="#693F23"/>
<path d="M32.8836 119.677L25.7675 121.584C25.076 121.769 24.3684 121.361 24.1831 120.669C23.9985 119.981 24.4063 119.27 25.0978 119.085L32.214 117.178C32.9028 116.994 33.6138 117.404 33.7984 118.093C33.9837 118.785 33.5724 119.493 32.8836 119.677Z" fill="#693F23"/>
<path d="M30.279 124.189C29.5902 124.373 28.8799 123.965 28.6946 123.274L26.7878 116.158C26.6033 115.469 27.0111 114.759 27.7026 114.573C28.3913 114.389 29.1016 114.797 29.2869 115.488L31.1937 122.604C31.3755 123.294 30.9677 124.004 30.279 124.189Z" fill="#693F23"/>
<g clip-path="url(#clip0_723_11285)">
<path d="M181.549 31.989C181.295 31.8404 181.211 31.5132 181.36 31.2584L182.792 28.8141C182.941 28.5592 183.268 28.4731 183.521 28.6217C183.775 28.7703 183.86 29.0974 183.711 29.3523L182.279 31.7966C182.131 32.0499 181.803 32.1376 181.549 31.989Z" fill="#694024" stroke="#694125" stroke-width="1.5" stroke-miterlimit="10"/>
<path d="M188.325 20.4206C188.071 20.272 187.986 19.9449 188.136 19.69L189.567 17.2457C189.717 16.9909 190.043 16.9047 190.297 17.0533C190.551 17.2019 190.636 17.5291 190.486 17.7839L189.055 20.2282C188.905 20.4831 188.579 20.5692 188.325 20.4206Z" fill="#694024" stroke="#694125" stroke-width="1.5" stroke-miterlimit="10"/>
<path d="M190.928 24.807C190.769 24.7136 190.662 24.5407 190.664 24.3417C190.667 24.0467 190.908 23.8083 191.202 23.8095L194.025 23.8223C194.319 23.8235 194.556 24.0646 194.554 24.3595C194.551 24.6545 194.31 24.8929 194.016 24.8916L191.193 24.8789C191.096 24.8783 191.005 24.8523 190.928 24.807Z" fill="#694024" stroke="#694125" stroke-width="1.5" stroke-miterlimit="10"/>
<path d="M177.566 24.7484C177.407 24.6551 177.3 24.4821 177.303 24.2831C177.305 23.9881 177.547 23.7497 177.841 23.7509L180.663 23.7637C180.958 23.7649 181.195 24.006 181.192 24.3009C181.19 24.5959 180.948 24.8343 180.654 24.833L177.832 24.8203C177.734 24.8197 177.644 24.7937 177.566 24.7484Z" fill="#694024" stroke="#694125" stroke-width="1.5" stroke-miterlimit="10"/>
<path d="M182.885 20.2941C182.807 20.2488 182.739 20.1815 182.692 20.0978L181.3 17.6423C181.155 17.3862 181.245 17.059 181.501 16.9127C181.757 16.7663 182.083 16.8551 182.228 17.1112L183.62 19.5667C183.765 19.8227 183.675 20.15 183.419 20.2963C183.247 20.3957 183.044 20.3874 182.885 20.2941Z" fill="#694024" stroke="#694125" stroke-width="1.5" stroke-miterlimit="10"/>
<path d="M189.471 31.9191C189.394 31.8738 189.327 31.8074 189.279 31.7228L187.887 29.2673C187.742 29.0112 187.832 28.684 188.088 28.5377C188.344 28.3913 188.67 28.4801 188.815 28.7362L190.207 31.1917C190.352 31.4477 190.262 31.775 190.006 31.9213C189.834 32.0207 189.631 32.0124 189.471 31.9191Z" fill="#694024" stroke="#694125" stroke-width="1.5" stroke-miterlimit="10"/>
</g>
<g clip-path="url(#clip1_723_11285)">
<path d="M7.78957 41.3582C7.53584 41.2096 7.45112 40.8824 7.60037 40.6275L9.03195 38.1832C9.1812 37.9284 9.50801 37.8422 9.76174 37.9908C10.0155 38.1394 10.1002 38.4666 9.95093 38.7214L8.51935 41.1657C8.37101 41.419 8.04329 41.5068 7.78957 41.3582Z" fill="#694024" stroke="#694125" stroke-width="1.5" stroke-miterlimit="10"/>
<path d="M14.5653 29.7898C14.3115 29.6412 14.2268 29.314 14.3761 29.0592L15.8076 26.6148C15.9569 26.36 16.2837 26.2738 16.5374 26.4224C16.7912 26.571 16.8759 26.8982 16.7266 27.1531L15.2951 29.5974C15.1458 29.8522 14.819 29.9384 14.5653 29.7898Z" fill="#694024" stroke="#694125" stroke-width="1.5" stroke-miterlimit="10"/>
<path d="M17.1682 34.1761C17.0089 34.0828 16.9024 33.9098 16.9047 33.7108C16.907 33.4158 17.1485 33.1774 17.4428 33.1787L20.2653 33.1914C20.5596 33.1926 20.7966 33.4337 20.7942 33.7287C20.7918 34.0236 20.5504 34.262 20.2561 34.2608L17.4336 34.2481C17.3363 34.2474 17.2456 34.2214 17.1682 34.1761Z" fill="#694024" stroke="#694125" stroke-width="1.5" stroke-miterlimit="10"/>
<path d="M3.80664 34.1175C3.64729 34.0242 3.54081 33.8512 3.54309 33.6522C3.54546 33.3573 3.7869 33.1188 4.08122 33.1201L6.90372 33.1328C7.19803 33.134 7.43501 33.3751 7.43264 33.6701C7.43027 33.965 7.18883 34.2034 6.89451 34.2022L4.07202 34.1895C3.97473 34.1888 3.884 34.1628 3.80664 34.1175Z" fill="#694024" stroke="#694125" stroke-width="1.5" stroke-miterlimit="10"/>
<path d="M9.12502 29.6632C9.04767 29.6179 8.97905 29.5506 8.93245 29.467L7.54063 27.0115C7.39556 26.7554 7.48539 26.4282 7.74149 26.2818C7.99758 26.1355 8.32375 26.2242 8.46881 26.4803L9.86064 28.9358C10.0057 29.1919 9.91588 29.5191 9.65978 29.6655C9.48732 29.7648 9.28437 29.7565 9.12502 29.6632Z" fill="#694024" stroke="#694125" stroke-width="1.5" stroke-miterlimit="10"/>
<path d="M15.7119 41.2882C15.6345 41.2429 15.5674 41.1765 15.5193 41.092L14.1275 38.6365C13.9824 38.3804 14.0722 38.0532 14.3283 37.9068C14.5844 37.7605 14.9106 37.8492 15.0557 38.1053L16.4475 40.5608C16.5925 40.8169 16.5027 41.1441 16.2466 41.2905C16.0742 41.3898 15.8712 41.3815 15.7119 41.2882Z" fill="#694024" stroke="#694125" stroke-width="1.5" stroke-miterlimit="10"/>
</g>
<path d="M146.887 2.46874C147.253 3.83336 146.442 5.23354 145.08 5.5983C143.716 5.96395 142.315 5.15276 141.951 3.79145C141.586 2.43014 142.393 1.02754 143.758 0.661888C145.119 0.297125 146.522 1.10743 146.887 2.46874Z" fill="#693F23"/>
<path d="M141.614 135.372C141.858 136.282 141.317 137.215 140.41 137.458C139.5 137.702 138.566 137.161 138.323 136.254C138.08 135.346 138.618 134.411 139.528 134.167C140.435 133.924 141.371 134.465 141.614 135.372Z" fill="#693F23"/>
<path d="M194.619 106.525L199.401 112.13" stroke="#694024" stroke-width="3.488" stroke-miterlimit="10" stroke-linecap="round" stroke-linejoin="round"/>
<path d="M171.84 107.825L176.621 113.429" stroke="#694024" stroke-width="3.488" stroke-miterlimit="10" stroke-linecap="round" stroke-linejoin="round"/>
<path d="M178.482 81.1426L185.761 89.6682" stroke="#694024" stroke-width="3.488" stroke-miterlimit="10" stroke-linecap="round" stroke-linejoin="round"/>
<path d="M172.459 90.9434L186.673 107.594" stroke="#694024" stroke-width="3.488" stroke-miterlimit="10" stroke-linecap="round" stroke-linejoin="round"/>
<g clip-path="url(#clip2_723_11285)">
<path d="M142.203 91.3126L166.876 86.3998L159.982 80.3311L142.833 82.3852L142.203 91.3126Z" fill="white"/>
<path d="M158.951 88.7586L120.112 100.334L133.137 83.5568L136.041 82.4711C142.219 81.7526 159.36 83.4006 164.294 87.1731L158.951 88.7586Z" fill="#F58051"/>
<path d="M100.697 121.641L49.3694 68.5369L110.338 14.1055L155.779 58.6645L100.697 121.641Z" fill="white" stroke="#694024" stroke-width="3.4879" stroke-miterlimit="10" stroke-linecap="round" stroke-linejoin="round"/>
<path d="M67.5883 80.3301H137.725L102.909 118.914C101.649 120.312 99.4537 120.367 98.1316 119.023L65.2509 85.8677C63.2126 83.8058 64.6843 80.3301 67.5883 80.3301Z" fill="#F58051"/>
<path d="M100.697 121.641L49.3694 68.5369L110.338 14.1055L155.779 58.6645L100.697 121.641Z" stroke="#694024" stroke-width="3.488" stroke-miterlimit="10" stroke-linecap="round" stroke-linejoin="round"/>
<path d="M135.978 82.189L159.982 80.3301" stroke="#694024" stroke-width="3.4879" stroke-miterlimit="10" stroke-linecap="round" stroke-linejoin="round"/>
<path d="M120.112 100.332L166.876 86.3984" stroke="#694024" stroke-width="3.4879" stroke-miterlimit="10" stroke-linecap="round" stroke-linejoin="round"/>
<path d="M168.631 86.3837L157.219 78.3936" stroke="#694024" stroke-width="3.4879" stroke-miterlimit="10" stroke-linecap="round" stroke-linejoin="round"/>
<path d="M110.889 88.1411C94.9994 89.8125 81.6756 76.5815 83.3597 60.8121C84.5874 49.3228 93.8897 40.0908 105.466 38.8724C121.356 37.2009 134.68 50.4319 132.996 66.2014C131.76 77.6906 122.458 86.9226 110.889 88.1411Z" fill="white" stroke="#694024" stroke-width="3.4879" stroke-miterlimit="10"/>
<path d="M113.454 88.219C100.264 89.2656 89.3015 78.37 90.3561 65.2795C91.1824 54.9853 99.5875 46.6358 109.96 45.8157C123.15 44.7691 134.113 55.6648 133.058 68.7552C132.24 79.0495 123.835 87.3989 113.454 88.219Z" fill="#FEC344"/>
<path d="M110.889 88.1411C94.9994 89.8125 81.6756 76.5815 83.3597 60.8121C84.5874 49.3228 93.8897 40.0908 105.466 38.8724C121.356 37.2009 134.68 50.4319 132.996 66.2014C131.76 77.6906 122.458 86.9226 110.889 88.1411Z" stroke="#694024" stroke-width="3.4879" stroke-miterlimit="10"/>
<path d="M98.6038 70.1999C98.6038 74.1442 102.539 77.3466 107.402 77.3466C112.258 77.3466 116.201 74.1442 116.201 70.1999C116.201 66.2556 112.266 63.0533 107.402 63.0533C102.948 63.0533 99.2019 60.0775 99.2019 56.4534C99.2019 52.8371 102.814 49.9004 107.269 49.9004C111.723 49.9004 115.335 52.8371 115.335 56.4534" stroke="#694024" stroke-width="3.4879" stroke-miterlimit="10" stroke-linecap="round" stroke-linejoin="round"/>
<path d="M107.395 79.5338V47.4717" stroke="#694024" stroke-width="3.4879" stroke-miterlimit="10" stroke-linecap="round" stroke-linejoin="round"/>
<path d="M83.4777 1.56136C68.0526 1.78005 55.5788 14.683 55.9723 29.9838C56.2084 39.0909 60.8752 47.1045 67.911 51.9861L108.323 15.9015C103.515 7.24742 94.173 1.41296 83.4777 1.56136Z" stroke="#694024" stroke-width="4" stroke-miterlimit="10" stroke-linecap="round" stroke-linejoin="round"/>
<path d="M100.697 121.641L49.3694 68.5369L110.338 14.1055L155.779 58.6645L100.697 121.641Z" stroke="#694024" stroke-width="3.488" stroke-miterlimit="10" stroke-linecap="round" stroke-linejoin="round"/>
<path d="M100.697 121.641L49.3694 68.5369L110.338 14.1055L155.779 58.6645L100.697 121.641Z" stroke="#694024" stroke-width="3.4879" stroke-miterlimit="10" stroke-linecap="round" stroke-linejoin="round"/>
</g>
<defs>
<clipPath id="clip0_723_11285">
<rect width="15.7078" height="17.8497" fill="white" transform="translate(183.529 12.7764) rotate(30.3564)"/>
</clipPath>
<clipPath id="clip1_723_11285">
<rect width="15.7078" height="17.8497" fill="white" transform="translate(9.76917 22.1455) rotate(30.3564)"/>
</clipPath>
<clipPath id="clip2_723_11285">
<rect width="122" height="123" fill="white" transform="translate(48)"/>
</clipPath>
</defs>
</svg>
