<svg width="45" height="46" viewBox="0 0 45 46" fill="none" xmlns="http://www.w3.org/2000/svg">
<path d="M0 45.9993C0.485155 44.1991 0.947918 42.4825 1.41068 40.7659C1.96301 38.6922 2.53027 36.6262 3.06767 34.5449C3.11992 34.3398 3.09006 34.0664 2.99303 33.8841C0.83596 29.8887 -0.149278 25.6047 0.268701 21.0852C1.03002 12.7982 5.07547 6.60767 12.2632 2.62748C16.2863 0.401922 20.6527 -0.433613 25.1684 0.212028C34.4311 1.54888 40.7456 6.78237 43.8207 15.7606C46.7689 24.359 44.0222 34.0284 37.2524 40.0063C33.8638 42.999 29.9378 44.822 25.4968 45.4221C20.8841 46.0449 16.4878 45.2474 12.3379 43.0902C12.0095 42.9155 11.7184 42.8699 11.3676 42.9686C7.76248 43.9485 4.14994 44.9056 0.537403 45.8778C0.388124 45.9158 0.238846 45.9462 0 45.9993ZM5.38895 40.5836C7.60574 39.9911 9.73296 39.4366 11.8602 38.8441C12.2558 38.7378 12.5618 38.7834 12.9126 38.996C17.0103 41.4951 21.4215 42.3078 26.1013 41.4039C36.7673 39.3379 43.4251 28.3012 40.447 17.6443C37.9391 8.65853 29.281 2.67306 19.7794 4.11626C16.5401 4.60998 13.6142 5.89367 11.0615 7.9901C6.68021 11.5905 4.29176 16.2771 4.00066 22.0043C3.79167 26.0377 4.82916 29.7672 6.9937 33.1549C7.19522 33.4739 7.24001 33.7474 7.13551 34.1272C6.54586 36.2464 5.98607 38.3808 5.38895 40.5836Z" fill="#281B11"/>
<path d="M11.1514 17.6754C11.1887 15.8068 11.9052 14.2649 13.1816 12.9736C13.6294 12.5254 14.1444 12.2824 14.7788 12.2975C15.0923 12.3051 15.4058 12.3431 15.7193 12.3127C16.3164 12.2596 16.6672 12.571 16.8837 13.0799C17.5256 14.6219 18.1675 16.1562 18.7646 17.7133C18.8616 17.9792 18.8019 18.4045 18.6526 18.6476C18.2421 19.3236 17.7569 19.9541 17.2643 20.5693C16.9508 20.9643 16.9284 21.3061 17.1822 21.7391C19.0034 24.8382 21.5262 27.1017 24.8402 28.431C25.3701 28.6437 25.6388 28.5905 25.9971 28.1423C26.5569 27.4511 27.1092 26.7599 27.6466 26.0611C28.0422 25.5446 28.2661 25.4306 28.8558 25.7041C30.4307 26.4409 31.9981 27.2081 33.5506 27.998C33.7297 28.0892 33.8939 28.393 33.9014 28.5981C33.9686 30.3147 33.4461 31.7351 31.9459 32.715C30.1023 33.9151 28.184 33.9987 26.1389 33.4138C20.8545 31.9022 16.9359 28.5297 13.7936 24.0938C12.7636 22.6354 11.8157 21.139 11.4201 19.3692C11.2783 18.8147 11.2335 18.245 11.1514 17.6754Z" fill="#281B11"/>
</svg>
