<svg width="298" height="220" viewBox="0 0 298 220" fill="none" xmlns="http://www.w3.org/2000/svg">
<circle cx="146.5" cy="124.5" r="93.5" fill="white" stroke="#7D7D7D" stroke-width="4" stroke-linecap="round" stroke-dasharray="2 15"/>
<circle cx="150" cy="129" r="58" fill="#FFC72C"/>
<circle cx="146" cy="124" r="64.5" stroke="#693F23" stroke-width="5"/>
<path d="M294.476 148.623L284.875 151.196C283.942 151.446 282.988 150.895 282.738 149.962C282.489 149.033 283.039 148.074 283.972 147.824L293.572 145.252C294.501 145.003 295.461 145.557 295.71 146.486C295.96 147.419 295.405 148.374 294.476 148.623Z" fill="#693F23"/>
<path d="M290.962 154.71C290.033 154.959 289.074 154.408 288.824 153.476L286.252 143.875C286.003 142.946 286.553 141.988 287.486 141.738C288.415 141.489 289.374 142.039 289.623 142.972L292.196 152.572C292.441 153.502 291.891 154.461 290.962 154.71Z" fill="#693F23"/>
<path d="M37.727 180.504L29.3723 182.743C28.5605 182.961 27.7298 182.481 27.5122 181.669C27.2956 180.861 27.7743 180.027 28.5862 179.809L36.9409 177.57C37.7495 177.354 38.5843 177.836 38.801 178.644C39.0185 179.456 38.5357 180.288 37.727 180.504Z" fill="#693F23"/>
<path d="M34.6691 185.801C33.8605 186.018 33.0265 185.539 32.809 184.727L30.5703 176.373C30.3537 175.564 30.8325 174.73 31.6443 174.512C32.4529 174.296 33.2869 174.775 33.5044 175.586L35.743 183.941C35.9565 184.751 35.4777 185.585 34.6691 185.801Z" fill="#693F23"/>
<g clip-path="url(#clip0_723_11285)">
<path d="M218.267 25.5573C217.969 25.3829 217.869 24.9987 218.044 24.6995L219.725 21.8298C219.9 21.5306 220.284 21.4294 220.582 21.6039C220.88 21.7784 220.979 22.1625 220.804 22.4617L219.123 25.3314C218.949 25.6288 218.564 25.7318 218.267 25.5573Z" fill="#694024" stroke="#694125" stroke-width="1.5" stroke-miterlimit="10"/>
<path d="M226.222 11.9749C225.924 11.8005 225.824 11.4163 225.999 11.1171L227.68 8.2474C227.855 7.94821 228.239 7.84705 228.537 8.02151C228.835 8.19598 228.934 8.5801 228.759 8.8793L227.078 11.749C226.903 12.0482 226.519 12.1494 226.222 11.9749Z" fill="#694024" stroke="#694125" stroke-width="1.5" stroke-miterlimit="10"/>
<path d="M229.277 17.1238C229.09 17.0143 228.965 16.8112 228.968 16.5775C228.971 16.2312 229.254 15.9513 229.6 15.9528L232.914 15.9677C233.259 15.9692 233.537 16.2522 233.534 16.5985C233.532 16.9448 233.248 17.2247 232.903 17.2232L229.589 17.2083C229.475 17.2076 229.368 17.177 229.277 17.1238Z" fill="#694024" stroke="#694125" stroke-width="1.5" stroke-miterlimit="10"/>
<path d="M213.59 17.0558C213.403 16.9463 213.278 16.7432 213.281 16.5095C213.284 16.1633 213.567 15.8833 213.913 15.8848L217.227 15.8997C217.572 15.9012 217.85 16.1842 217.847 16.5305C217.845 16.8768 217.561 17.1567 217.216 17.1552L213.902 17.1403C213.788 17.1396 213.681 17.109 213.59 17.0558Z" fill="#694024" stroke="#694125" stroke-width="1.5" stroke-miterlimit="10"/>
<path d="M219.834 11.8261C219.744 11.7729 219.663 11.6938 219.608 11.5956L217.974 8.71279C217.804 8.41213 217.909 8.02797 218.21 7.85614C218.511 7.68431 218.894 7.78853 219.064 8.08918L220.698 10.972C220.868 11.2727 220.763 11.6569 220.462 11.8287C220.26 11.9453 220.022 11.9356 219.834 11.8261Z" fill="#694024" stroke="#694125" stroke-width="1.5" stroke-miterlimit="10"/>
<path d="M227.568 25.4746C227.477 25.4214 227.398 25.3434 227.342 25.2442L225.708 22.3613C225.537 22.0607 225.643 21.6765 225.944 21.5047C226.244 21.3329 226.627 21.4371 226.797 21.7377L228.432 24.6206C228.602 24.9212 228.496 25.3054 228.196 25.4772C227.993 25.5939 227.755 25.5842 227.568 25.4746Z" fill="#694024" stroke="#694125" stroke-width="1.5" stroke-miterlimit="10"/>
</g>
<g clip-path="url(#clip1_723_11285)">
<path d="M8.26653 88.5572C7.96865 88.3827 7.86918 87.9986 8.04441 87.6994L9.72514 84.8297C9.90037 84.5305 10.2841 84.4293 10.5819 84.6038C10.8798 84.7783 10.9793 85.1624 10.8041 85.4616L9.12333 88.3313C8.94917 88.6287 8.56442 88.7317 8.26653 88.5572Z" fill="#694024" stroke="#694125" stroke-width="1.5" stroke-miterlimit="10"/>
<path d="M16.2216 74.9748C15.9237 74.8003 15.8243 74.4162 15.9995 74.117L17.6802 71.2473C17.8555 70.9481 18.2391 70.8469 18.537 71.0214C18.8349 71.1959 18.9344 71.58 18.7591 71.8792L17.0784 74.7489C16.9032 75.0481 16.5195 75.1493 16.2216 74.9748Z" fill="#694024" stroke="#694125" stroke-width="1.5" stroke-miterlimit="10"/>
<path d="M19.2774 80.1237C19.0903 80.0141 18.9653 79.8111 18.968 79.5774C18.9708 79.2311 19.2543 78.9512 19.5998 78.9527L22.9135 78.9676C23.2591 78.9691 23.5373 79.2521 23.5345 79.5984C23.5317 79.9447 23.2482 80.2246 22.9027 80.2231L19.589 80.2082C19.4748 80.2074 19.3682 80.1769 19.2774 80.1237Z" fill="#694024" stroke="#694125" stroke-width="1.5" stroke-miterlimit="10"/>
<path d="M3.59041 80.0557C3.40333 79.9461 3.27832 79.7431 3.28099 79.5094C3.28378 79.1631 3.56724 78.8832 3.91278 78.8847L7.22651 78.8996C7.57205 78.9011 7.85027 79.1841 7.84749 79.5304C7.8447 79.8767 7.56124 80.1566 7.2157 80.1551L3.90197 80.1402C3.78776 80.1394 3.68123 80.1089 3.59041 80.0557Z" fill="#694024" stroke="#694125" stroke-width="1.5" stroke-miterlimit="10"/>
<path d="M9.83446 74.8259C9.74364 74.7727 9.66308 74.6937 9.60838 74.5955L7.97432 71.7127C7.80401 71.412 7.90947 71.0278 8.21014 70.856C8.5108 70.6842 8.89374 70.7884 9.06405 71.0891L10.6981 73.9719C10.8684 74.2726 10.763 74.6567 10.4623 74.8286C10.2598 74.9452 10.0215 74.9355 9.83446 74.8259Z" fill="#694024" stroke="#694125" stroke-width="1.5" stroke-miterlimit="10"/>
<path d="M17.5679 88.4745C17.477 88.4213 17.3983 88.3433 17.3418 88.2441L15.7077 85.3612C15.5374 85.0606 15.6429 84.6764 15.9435 84.5046C16.2442 84.3327 16.6271 84.437 16.7974 84.7376L18.4315 87.6205C18.6018 87.9211 18.4963 88.3053 18.1957 88.4771C17.9932 88.5937 17.7549 88.5841 17.5679 88.4745Z" fill="#694024" stroke="#694125" stroke-width="1.5" stroke-miterlimit="10"/>
</g>
<path d="M125.572 2.89772C126.001 4.49984 125.049 6.14371 123.451 6.57195C121.849 7.00124 120.205 6.04887 119.776 4.45063C119.348 2.8524 120.296 1.20569 121.898 0.776399C123.496 0.348152 125.144 1.29948 125.572 2.89772Z" fill="#693F23"/>
<path d="M261.381 192.932C261.668 194 261.033 195.096 259.967 195.381C258.899 195.668 257.803 195.033 257.518 193.967C257.232 192.902 257.864 191.804 258.932 191.518C259.997 191.232 261.096 191.866 261.381 192.932Z" fill="#693F23"/>
<path fill-rule="evenodd" clip-rule="evenodd" d="M179.907 93.0029C177.136 90.2311 172.641 90.2315 169.869 93.0038L146.456 116.417L123.49 93.4512C120.719 90.6794 116.224 90.6797 113.452 93.452C110.68 96.2243 110.679 100.719 113.451 103.49L136.417 126.456L113.004 149.869C110.232 152.641 110.231 157.136 113.003 159.907C115.775 162.679 120.269 162.679 123.041 159.907L146.454 136.494L169.419 159.458C172.19 162.23 176.685 162.229 179.457 159.457C182.229 156.685 182.23 152.19 179.458 149.419L156.494 126.454L179.907 103.041C182.679 100.269 182.679 95.7747 179.907 93.0029Z" fill="#693F23"/>
<defs>
<clipPath id="clip0_723_11285">
<rect width="18.4416" height="20.9563" fill="white" transform="translate(220.591 3.00012) rotate(30.3564)"/>
</clipPath>
<clipPath id="clip1_723_11285">
<rect width="18.4416" height="20.9563" fill="white" transform="translate(10.5908 66) rotate(30.3564)"/>
</clipPath>
</defs>
</svg>
